<?xml version="1.0" encoding="utf-8" standalone="no"?>
<!DOCTYPE svg PUBLIC "-//W3C//DTD SVG 1.1//EN"
  "http://www.w3.org/Graphics/SVG/1.1/DTD/svg11.dtd">
<svg xmlns:xlink="http://www.w3.org/1999/xlink" width="404.881534pt" height="213.215704pt" viewBox="0 0 404.881534 213.215704" xmlns="http://www.w3.org/2000/svg" version="1.1">
 <metadata>
  <rdf:RDF xmlns:dc="http://purl.org/dc/elements/1.1/" xmlns:cc="http://creativecommons.org/ns#" xmlns:rdf="http://www.w3.org/1999/02/22-rdf-syntax-ns#">
   <cc:Work>
    <dc:type rdf:resource="http://purl.org/dc/dcmitype/StillImage"/>
    <dc:date>2026-02-19T14:47:46.875086</dc:date>
    <dc:format>image/svg+xml</dc:format>
    <dc:creator>
     <cc:Agent>
      <dc:title>Matplotlib v3.10.8, https://matplotlib.org/</dc:title>
     </cc:Agent>
    </dc:creator>
   </cc:Work>
  </rdf:RDF>
 </metadata>
 <defs>
  <style type="text/css">*{stroke-linejoin: round; stroke-linecap: butt}</style>
 </defs>
 <g id="figure_1">
  <g id="patch_1">
   <path d="M 0 213.215704 
L 404.881534 213.215704 
L 404.881534 0 
L 0 0 
z
" style="fill: #ffffff"/>
  </g>
  <g id="axes_1">
   <g id="patch_2">
    <path d="M 36.465625 176.659454 
L 393.585625 176.659454 
L 393.585625 22.318125 
L 36.465625 22.318125 
z
" style="fill: #ffffff"/>
   </g>
   <g id="PatchCollection_1">
    <path d="M 60.739756 171.549798 
L 54.686493 171.415124 
L 44.765351 171.373803 
L 43.110767 171.234078 
L 41.946042 170.628634 
L 33.577405 170.511342 
L 24.246571 170.26899 
L 25.529182 169.301444 
L 30.718825 166.998578 
L 33.842463 167.060604 
L 36.334665 166.547818 
L 37.164748 165.696305 
L 40.041026 164.597215 
L 45.27117 163.363731 
L 48.154066 163.110905 
L 48.790995 162.515495 
L 48.656092 160.976791 
L 51.400332 157.094609 
L 52.349133 156.687178 
L 56.578562 156.485811 
L 59.817233 154.925869 
L 60.625395 152.831024 
L 60.409962 150.499058 
L 62.833551 148.844202 
L 66.760197 147.359549 
L 66.947556 145.610695 
L 67.435511 145.095417 
L 66.916563 144.118457 
L 67.033577 143.193377 
L 73.74582 138.706703 
L 74.539768 138.420278 
L 80.906164 135.704004 
L 83.195561 135.198935 
L 86.073335 132.80662 
L 100.629436 120.565809 
L 101.669799 121.921761 
L 101.114227 122.663217 
L 99.866137 123.205594 
L 99.341868 124.095294 
L 102.263987 126.926291 
L 101.974043 129.325354 
L 103.256247 131.045777 
L 104.708661 131.889365 
L 104.924369 132.901946 
L 105.780924 134.090352 
L 106.808202 134.42658 
L 107.807444 134.017448 
L 109.588951 134.849043 
L 110.166833 136.047455 
L 111.770956 136.885479 
L 113.330938 138.57096 
L 118.123183 138.5228 
L 120.37377 136.99871 
L 120.817685 135.987603 
L 121.702477 135.905945 
L 124.86614 134.373895 
L 125.415923 132.811467 
L 126.830112 131.292509 
L 128.876605 133.781294 
L 132.766564 136.726099 
L 136.373301 134.829414 
L 141.44864 134.223178 
L 143.157227 133.116546 
L 143.481559 133.65207 
L 143.947969 133.908851 
L 145.424553 133.382757 
L 148.8716 131.292648 
L 149.177617 130.659713 
L 147.907914 128.590947 
L 149.07913 126.682665 
L 151.30725 127.248864 
L 151.325756 128.417514 
L 152.605183 128.719426 
L 152.914725 129.529377 
L 153.583507 129.107119 
L 153.642003 128.632247 
L 154.367073 128.356997 
L 155.441165 128.591874 
L 160.141335 125.411298 
L 162.528573 124.13042 
L 164.01273 123.802834 
L 164.929809 124.590502 
L 164.985157 126.056667 
L 165.514737 126.659251 
L 167.670907 125.983847 
L 169.281254 124.283351 
L 170.857637 123.703704 
L 171.055005 122.875454 
L 173.651097 121.761087 
L 173.954573 120.381581 
L 172.753481 120.82329 
L 171.982675 120.552903 
L 172.370614 118.722635 
L 175.427754 117.04397 
L 176.613907 115.532963 
L 175.058404 114.643986 
L 173.029968 114.668178 
L 172.853842 114.027746 
L 173.245493 112.968575 
L 172.917965 112.358363 
L 175.212625 109.961129 
L 174.996259 108.252478 
L 176.47315 107.054219 
L 176.323612 105.766068 
L 178.57302 103.519481 
L 178.537438 102.575432 
L 179.060205 101.635811 
L 180.857064 100.848545 
L 181.367116 99.561142 
L 183.590151 97.290694 
L 185.928587 95.388948 
L 187.375049 92.698662 
L 187.746935 91.117632 
L 188.991357 89.131461 
L 188.675138 88.147726 
L 189.731283 85.869803 
L 189.468487 84.958951 
L 193.100099 81.018728 
L 194.710374 79.989274 
L 195.006046 79.082721 
L 194.292986 78.33751 
L 194.387851 77.48822 
L 195.928642 75.291639 
L 197.276858 75.39141 
L 197.796958 73.033346 
L 199.320838 71.061166 
L 198.896858 67.219893 
L 200.046234 66.08274 
L 199.858496 64.472282 
L 200.988477 62.141351 
L 205.581196 64.186254 
L 207.824873 69.179864 
L 215.178826 71.769484 
L 217.080266 70.380259 
L 218.790741 67.97752 
L 223.086908 58.136674 
L 223.354417 57.828029 
L 224.758322 58.049426 
L 224.759736 55.411223 
L 226.014727 52.377638 
L 226.056756 50.808024 
L 226.949921 50.276963 
L 228.880645 47.665876 
L 234.174198 52.121705 
L 236.259757 48.210837 
L 237.176745 45.637392 
L 239.012855 43.875632 
L 239.482486 42.887211 
L 240.063403 42.815573 
L 240.319213 44.200046 
L 241.95752 43.242205 
L 243.342072 41.621623 
L 243.991152 40.003757 
L 245.386024 40.648362 
L 247.265672 38.037853 
L 247.423012 37.509115 
L 246.764861 36.886672 
L 247.910169 35.648444 
L 249.354479 33.601835 
L 250.025837 32.58053 
L 251.608123 32.146939 
L 252.306336 30.502236 
L 253.47695 29.262417 
L 252.507664 27.805399 
L 252.527681 27.007709 
L 253.497968 25.178093 
L 252.862967 24.50495 
L 255.828992 19.810022 
L 255.682326 19.292654 
L 254.747218 18.730697 
L 255.365724 17.661273 
L 255.357142 13.477967 
L 258.418763 15.228561 
L 260.489444 16.942517 
L 269.068984 23.562759 
L 277.969957 30.59369 
L 278.406161 30.054 
L 278.923723 27.02022 
L 280.415092 24.22284 
L 280.714582 22.118879 
L 282.013047 20.250249 
L 284.064284 20.121306 
L 286.791666 21.062249 
L 288.82252 21.058416 
L 290.02597 22.631363 
L 292.119564 23.596586 
L 293.406331 24.692822 
L 293.55506 25.260069 
L 292.933684 27.576296 
L 291.352452 28.708634 
L 291.591117 30.941428 
L 293.063156 31.582353 
L 293.948826 32.818739 
L 295.119427 33.545797 
L 298.817229 33.303346 
L 299.768194 33.590636 
L 302.783176 35.392472 
L 303.425274 38.207949 
L 307.3789 38.65303 
L 308.715992 40.395297 
L 310.627365 41.218547 
L 311.171616 42.817188 
L 312.4639 44.06284 
L 312.464172 45.383541 
L 312.280356 45.889086 
L 312.743994 46.71853 
L 312.367298 48.153322 
L 312.488029 51.960997 
L 312.046058 52.351774 
L 310.973763 52.21872 
L 310.515684 52.859392 
L 309.201717 54.35496 
L 309.060804 55.992496 
L 306.223474 57.509151 
L 306.244771 55.415435 
L 304.854108 56.025156 
L 301.911104 64.325508 
L 300.549651 67.957654 
L 302.828839 71.94255 
L 301.472304 73.024157 
L 305.006758 73.574901 
L 312.951403 70.825015 
L 315.561627 75.940508 
L 318.470493 80.09178 
L 333.44859 83.93051 
L 335.589589 86.365118 
L 335.326828 89.061562 
L 334.705381 90.310363 
L 336.814746 89.682477 
L 343.777169 92.411195 
L 348.682205 95.847005 
L 349.110404 98.018579 
L 346.09095 100.998077 
L 346.946477 105.341263 
L 344.946264 106.485718 
L 346.48801 107.636929 
L 345.686213 110.697481 
L 338.515646 109.206827 
L 335.01863 103.116674 
L 332.715387 101.78198 
L 326.314897 95.458717 
L 324.279344 95.395013 
L 328.329421 101.86765 
L 330.594357 103.068553 
L 335.829811 110.131271 
L 347.202841 114.568853 
L 345.787936 116.072791 
L 338.536808 114.916984 
L 342.074775 116.80251 
L 345.506254 116.603753 
L 350.273737 123.275525 
L 349.536315 126.607283 
L 348.394641 126.430494 
L 346.566765 123.275996 
L 341.672284 119.971162 
L 341.028925 122.152041 
L 343.098184 122.42348 
L 343.786574 124.541721 
L 341.505711 124.406835 
L 344.482741 128.887559 
L 341.583504 131.118427 
L 332.747589 122.910936 
L 330.490569 122.668568 
L 332.127784 125.170072 
L 335.616703 129.428015 
L 343.311521 133.683302 
L 343.970139 136.672223 
L 344.623343 135.505035 
L 346.148301 136.894385 
L 347.228556 135.158544 
L 349.647057 138.060437 
L 344.849636 139.08812 
L 350.074095 140.666941 
L 349.58684 143.654737 
L 345.6525 145.502646 
L 343.888791 146.971837 
L 338.999558 141.572243 
L 339.643084 140.401768 
L 337.403056 138.889705 
L 337.325818 140.961452 
L 334.710395 138.217142 
L 335.246675 135.645491 
L 333.455671 133.12879 
L 331.285881 132.860541 
L 329.234318 135.105448 
L 326.931861 132.623905 
L 324.236223 132.54975 
L 323.242995 128.246813 
L 323.266448 131.738446 
L 320.553806 133.110345 
L 322.42107 134.984814 
L 326.9483 134.442559 
L 330.081777 137.416722 
L 331.863206 134.733591 
L 332.622836 137.463943 
L 333.11677 142.588137 
L 337.055547 144.036761 
L 335.566414 145.736764 
L 338.105127 144.994332 
L 341.105883 147.299319 
L 340.015487 150.075931 
L 341.539957 149.624246 
L 341.405458 150.924362 
L 338.285188 154.028612 
L 338.344198 156.566239 
L 340.565903 152.399613 
L 344.732257 150.443852 
L 347.462524 149.655037 
L 347.879623 152.55929 
L 345.642894 154.002831 
L 345.355749 154.555226 
L 348.998185 153.293691 
L 350.136819 154.200659 
L 349.171271 147.994165 
L 350.145497 146.805115 
L 353.829539 148.143218 
L 354.38451 149.800801 
L 357.53655 148.14462 
L 362.984915 148.328506 
L 369.23179 168.216581 
L 368.17585 168.25497 
L 368.455124 165.882406 
L 365.535173 159.29076 
L 363.892533 168.455415 
L 362.629953 168.517469 
L 360.961041 166.023543 
L 361.797043 168.547535 
L 358.18984 168.720689 
L 349.209257 169.228031 
L 341.801269 169.595392 
L 338.879103 169.762281 
L 323.028432 170.525273 
L 322.917664 170.530605 
L 311.702319 170.874133 
L 305.390204 171.250815 
L 285.742587 171.984118 
L 279.771379 172.208227 
L 273.008757 172.446814 
L 261.087993 173.176875 
L 255.005529 173.564355 
L 242.669551 173.620378 
L 240.047866 173.820672 
L 224.660676 174.006783 
L 221.437993 173.863471 
L 208.464243 174.200743 
L 199.298027 174.320058 
L 185.732777 174.636414 
L 184.667881 174.531387 
L 167.533565 174.452004 
L 159.756603 174.147683 
L 149.708918 173.839657 
L 146.820852 173.746264 
L 127.276613 173.301358 
L 112.921047 172.305093 
L 113.704386 171.328489 
L 105.897431 171.053021 
L 101.946345 170.906619 
L 101.450264 171.870306 
L 91.506015 171.806008 
L 88.742454 171.830917 
L 85.194486 171.909009 
L 71.309308 171.712729 
L 60.739756 171.549798 
z
" clip-path="url(#pdad2385d62)" style="fill: none; stroke: #000000; stroke-opacity: 0.3"/>
    <path d="M 366.000471 123.707866 
L 365.16134 136.135783 
L 363.468505 137.121822 
L 360.852728 127.210441 
L 364.017554 117.35912 
L 362.676961 117.722531 
L 363.021612 115.365089 
L 363.964809 113.383953 
L 366.749396 113.491655 
L 363.498813 113.152243 
L 363.931036 111.789219 
L 365.79497 111.992924 
L 364.941922 111.388004 
L 369.219508 104.56532 
L 369.726722 100.238815 
L 373.388166 98.121757 
L 373.69126 96.253186 
L 371.408195 92.392421 
L 374.659551 91.622253 
L 375.012852 90.007067 
L 375.876101 88.508989 
L 386.830855 86.741108 
L 377.196014 104.921027 
L 378.481717 105.945286 
L 373.971842 111.033595 
L 376.21592 112.545279 
L 372.843938 112.822939 
L 371.72363 115.509783 
L 374.017281 116.321036 
L 369.377198 117.925509 
L 369.180309 120.295558 
L 370.53654 121.217271 
L 368.93372 120.752814 
L 366.000471 123.707866 
z
" clip-path="url(#pdad2385d62)" style="fill: none; stroke: #000000; stroke-opacity: 0.3"/>
    <path d="M 388.291909 92.049209 
L 391.227902 85.872315 
L 392.446981 85.745045 
L 390.224046 89.501444 
L 388.718874 93.677557 
L 386.721357 94.522323 
L 388.429971 92.971421 
L 386.964082 93.112048 
L 388.291909 92.049209 
z
" clip-path="url(#pdad2385d62)" style="fill: none; stroke: #000000; stroke-opacity: 0.3"/>
   </g>
   <g id="PatchCollection_2">
    <path d="M 99.77446 127.054069 
L 52.698352 157.596527 
L 78.713696 162.738652 
L 162.690315 169.643939 
L 289.254957 169.126936 
L 328.221688 168.702677 
L 365.642215 158.709965 
L 377.352898 93.791063 
L 280.248785 36.456259 
L 264.563903 29.33364 
L 99.77446 127.054069 
z
" clip-path="url(#pdad2385d62)" style="fill: none; stroke: #000000; stroke-opacity: 0.3"/>
   </g>
   <g id="matplotlib.axis_1">
    <g id="xtick_1">
     <g id="line2d_1">
      <defs>
       <path id="mc1ae9a7fc6" d="M 0 0 
L 0 3.5 
" style="stroke: #000000; stroke-width: 0.8"/>
      </defs>
      <g>
       <use xlink:href="#mc1ae9a7fc6" x="43.677426" y="176.659454" style="stroke: #000000; stroke-width: 0.8"/>
      </g>
     </g>
     <g id="text_1">
      <!-- 0.3 -->
      <g transform="translate(35.725863 191.257891) scale(0.1 -0.1)">
       <defs>
        <path id="DejaVuSans-30" d="M 2034 4250 
Q 1547 4250 1301 3770 
Q 1056 3291 1056 2328 
Q 1056 1369 1301 889 
Q 1547 409 2034 409 
Q 2525 409 2770 889 
Q 3016 1369 3016 2328 
Q 3016 3291 2770 3770 
Q 2525 4250 2034 4250 
z
M 2034 4750 
Q 2819 4750 3233 4129 
Q 3647 3509 3647 2328 
Q 3647 1150 3233 529 
Q 2819 -91 2034 -91 
Q 1250 -91 836 529 
Q 422 1150 422 2328 
Q 422 3509 836 4129 
Q 1250 4750 2034 4750 
z
" transform="scale(0.015625)"/>
        <path id="DejaVuSans-2e" d="M 684 794 
L 1344 794 
L 1344 0 
L 684 0 
L 684 794 
z
" transform="scale(0.015625)"/>
        <path id="DejaVuSans-33" d="M 2597 2516 
Q 3050 2419 3304 2112 
Q 3559 1806 3559 1356 
Q 3559 666 3084 287 
Q 2609 -91 1734 -91 
Q 1441 -91 1130 -33 
Q 819 25 488 141 
L 488 750 
Q 750 597 1062 519 
Q 1375 441 1716 441 
Q 2309 441 2620 675 
Q 2931 909 2931 1356 
Q 2931 1769 2642 2001 
Q 2353 2234 1838 2234 
L 1294 2234 
L 1294 2753 
L 1863 2753 
Q 2328 2753 2575 2939 
Q 2822 3125 2822 3475 
Q 2822 3834 2567 4026 
Q 2313 4219 1838 4219 
Q 1578 4219 1281 4162 
Q 984 4106 628 3988 
L 628 4550 
Q 988 4650 1302 4700 
Q 1616 4750 1894 4750 
Q 2613 4750 3031 4423 
Q 3450 4097 3450 3541 
Q 3450 3153 3228 2886 
Q 3006 2619 2597 2516 
z
" transform="scale(0.015625)"/>
       </defs>
       <use xlink:href="#DejaVuSans-30"/>
       <use xlink:href="#DejaVuSans-2e" transform="translate(63.623047 0)"/>
       <use xlink:href="#DejaVuSans-33" transform="translate(95.410156 0)"/>
      </g>
     </g>
    </g>
    <g id="xtick_2">
     <g id="line2d_2">
      <g>
       <use xlink:href="#mc1ae9a7fc6" x="93.113504" y="176.659454" style="stroke: #000000; stroke-width: 0.8"/>
      </g>
     </g>
     <g id="text_2">
      <!-- 0.4 -->
      <g transform="translate(85.161941 191.257891) scale(0.1 -0.1)">
       <defs>
        <path id="DejaVuSans-34" d="M 2419 4116 
L 825 1625 
L 2419 1625 
L 2419 4116 
z
M 2253 4666 
L 3047 4666 
L 3047 1625 
L 3713 1625 
L 3713 1100 
L 3047 1100 
L 3047 0 
L 2419 0 
L 2419 1100 
L 313 1100 
L 313 1709 
L 2253 4666 
z
" transform="scale(0.015625)"/>
       </defs>
       <use xlink:href="#DejaVuSans-30"/>
       <use xlink:href="#DejaVuSans-2e" transform="translate(63.623047 0)"/>
       <use xlink:href="#DejaVuSans-34" transform="translate(95.410156 0)"/>
      </g>
     </g>
    </g>
    <g id="xtick_3">
     <g id="line2d_3">
      <g>
       <use xlink:href="#mc1ae9a7fc6" x="142.549582" y="176.659454" style="stroke: #000000; stroke-width: 0.8"/>
      </g>
     </g>
     <g id="text_3">
      <!-- 0.5 -->
      <g transform="translate(134.598019 191.257891) scale(0.1 -0.1)">
       <defs>
        <path id="DejaVuSans-35" d="M 691 4666 
L 3169 4666 
L 3169 4134 
L 1269 4134 
L 1269 2991 
Q 1406 3038 1543 3061 
Q 1681 3084 1819 3084 
Q 2600 3084 3056 2656 
Q 3513 2228 3513 1497 
Q 3513 744 3044 326 
Q 2575 -91 1722 -91 
Q 1428 -91 1123 -41 
Q 819 9 494 109 
L 494 744 
Q 775 591 1075 516 
Q 1375 441 1709 441 
Q 2250 441 2565 725 
Q 2881 1009 2881 1497 
Q 2881 1984 2565 2268 
Q 2250 2553 1709 2553 
Q 1456 2553 1204 2497 
Q 953 2441 691 2322 
L 691 4666 
z
" transform="scale(0.015625)"/>
       </defs>
       <use xlink:href="#DejaVuSans-30"/>
       <use xlink:href="#DejaVuSans-2e" transform="translate(63.623047 0)"/>
       <use xlink:href="#DejaVuSans-35" transform="translate(95.410156 0)"/>
      </g>
     </g>
    </g>
    <g id="xtick_4">
     <g id="line2d_4">
      <g>
       <use xlink:href="#mc1ae9a7fc6" x="191.98566" y="176.659454" style="stroke: #000000; stroke-width: 0.8"/>
      </g>
     </g>
     <g id="text_4">
      <!-- 0.6 -->
      <g transform="translate(184.034097 191.257891) scale(0.1 -0.1)">
       <defs>
        <path id="DejaVuSans-36" d="M 2113 2584 
Q 1688 2584 1439 2293 
Q 1191 2003 1191 1497 
Q 1191 994 1439 701 
Q 1688 409 2113 409 
Q 2538 409 2786 701 
Q 3034 994 3034 1497 
Q 3034 2003 2786 2293 
Q 2538 2584 2113 2584 
z
M 3366 4563 
L 3366 3988 
Q 3128 4100 2886 4159 
Q 2644 4219 2406 4219 
Q 1781 4219 1451 3797 
Q 1122 3375 1075 2522 
Q 1259 2794 1537 2939 
Q 1816 3084 2150 3084 
Q 2853 3084 3261 2657 
Q 3669 2231 3669 1497 
Q 3669 778 3244 343 
Q 2819 -91 2113 -91 
Q 1303 -91 875 529 
Q 447 1150 447 2328 
Q 447 3434 972 4092 
Q 1497 4750 2381 4750 
Q 2619 4750 2861 4703 
Q 3103 4656 3366 4563 
z
" transform="scale(0.015625)"/>
       </defs>
       <use xlink:href="#DejaVuSans-30"/>
       <use xlink:href="#DejaVuSans-2e" transform="translate(63.623047 0)"/>
       <use xlink:href="#DejaVuSans-36" transform="translate(95.410156 0)"/>
      </g>
     </g>
    </g>
    <g id="xtick_5">
     <g id="line2d_5">
      <g>
       <use xlink:href="#mc1ae9a7fc6" x="241.421737" y="176.659454" style="stroke: #000000; stroke-width: 0.8"/>
      </g>
     </g>
     <g id="text_5">
      <!-- 0.7 -->
      <g transform="translate(233.470175 191.257891) scale(0.1 -0.1)">
       <defs>
        <path id="DejaVuSans-37" d="M 525 4666 
L 3525 4666 
L 3525 4397 
L 1831 0 
L 1172 0 
L 2766 4134 
L 525 4134 
L 525 4666 
z
" transform="scale(0.015625)"/>
       </defs>
       <use xlink:href="#DejaVuSans-30"/>
       <use xlink:href="#DejaVuSans-2e" transform="translate(63.623047 0)"/>
       <use xlink:href="#DejaVuSans-37" transform="translate(95.410156 0)"/>
      </g>
     </g>
    </g>
    <g id="xtick_6">
     <g id="line2d_6">
      <g>
       <use xlink:href="#mc1ae9a7fc6" x="290.857815" y="176.659454" style="stroke: #000000; stroke-width: 0.8"/>
      </g>
     </g>
     <g id="text_6">
      <!-- 0.8 -->
      <g transform="translate(282.906253 191.257891) scale(0.1 -0.1)">
       <defs>
        <path id="DejaVuSans-38" d="M 2034 2216 
Q 1584 2216 1326 1975 
Q 1069 1734 1069 1313 
Q 1069 891 1326 650 
Q 1584 409 2034 409 
Q 2484 409 2743 651 
Q 3003 894 3003 1313 
Q 3003 1734 2745 1975 
Q 2488 2216 2034 2216 
z
M 1403 2484 
Q 997 2584 770 2862 
Q 544 3141 544 3541 
Q 544 4100 942 4425 
Q 1341 4750 2034 4750 
Q 2731 4750 3128 4425 
Q 3525 4100 3525 3541 
Q 3525 3141 3298 2862 
Q 3072 2584 2669 2484 
Q 3125 2378 3379 2068 
Q 3634 1759 3634 1313 
Q 3634 634 3220 271 
Q 2806 -91 2034 -91 
Q 1263 -91 848 271 
Q 434 634 434 1313 
Q 434 1759 690 2068 
Q 947 2378 1403 2484 
z
M 1172 3481 
Q 1172 3119 1398 2916 
Q 1625 2713 2034 2713 
Q 2441 2713 2670 2916 
Q 2900 3119 2900 3481 
Q 2900 3844 2670 4047 
Q 2441 4250 2034 4250 
Q 1625 4250 1398 4047 
Q 1172 3844 1172 3481 
z
" transform="scale(0.015625)"/>
       </defs>
       <use xlink:href="#DejaVuSans-30"/>
       <use xlink:href="#DejaVuSans-2e" transform="translate(63.623047 0)"/>
       <use xlink:href="#DejaVuSans-38" transform="translate(95.410156 0)"/>
      </g>
     </g>
    </g>
    <g id="xtick_7">
     <g id="line2d_7">
      <g>
       <use xlink:href="#mc1ae9a7fc6" x="340.293893" y="176.659454" style="stroke: #000000; stroke-width: 0.8"/>
      </g>
     </g>
     <g id="text_7">
      <!-- 0.9 -->
      <g transform="translate(332.342331 191.257891) scale(0.1 -0.1)">
       <defs>
        <path id="DejaVuSans-39" d="M 703 97 
L 703 672 
Q 941 559 1184 500 
Q 1428 441 1663 441 
Q 2288 441 2617 861 
Q 2947 1281 2994 2138 
Q 2813 1869 2534 1725 
Q 2256 1581 1919 1581 
Q 1219 1581 811 2004 
Q 403 2428 403 3163 
Q 403 3881 828 4315 
Q 1253 4750 1959 4750 
Q 2769 4750 3195 4129 
Q 3622 3509 3622 2328 
Q 3622 1225 3098 567 
Q 2575 -91 1691 -91 
Q 1453 -91 1209 -44 
Q 966 3 703 97 
z
M 1959 2075 
Q 2384 2075 2632 2365 
Q 2881 2656 2881 3163 
Q 2881 3666 2632 3958 
Q 2384 4250 1959 4250 
Q 1534 4250 1286 3958 
Q 1038 3666 1038 3163 
Q 1038 2656 1286 2365 
Q 1534 2075 1959 2075 
z
" transform="scale(0.015625)"/>
       </defs>
       <use xlink:href="#DejaVuSans-30"/>
       <use xlink:href="#DejaVuSans-2e" transform="translate(63.623047 0)"/>
       <use xlink:href="#DejaVuSans-39" transform="translate(95.410156 0)"/>
      </g>
     </g>
    </g>
    <g id="xtick_8">
     <g id="line2d_8">
      <g>
       <use xlink:href="#mc1ae9a7fc6" x="389.729971" y="176.659454" style="stroke: #000000; stroke-width: 0.8"/>
      </g>
     </g>
     <g id="text_8">
      <!-- 1.0 -->
      <g transform="translate(381.778409 191.257891) scale(0.1 -0.1)">
       <defs>
        <path id="DejaVuSans-31" d="M 794 531 
L 1825 531 
L 1825 4091 
L 703 3866 
L 703 4441 
L 1819 4666 
L 2450 4666 
L 2450 531 
L 3481 531 
L 3481 0 
L 794 0 
L 794 531 
z
" transform="scale(0.015625)"/>
       </defs>
       <use xlink:href="#DejaVuSans-31"/>
       <use xlink:href="#DejaVuSans-2e" transform="translate(63.623047 0)"/>
       <use xlink:href="#DejaVuSans-30" transform="translate(95.410156 0)"/>
      </g>
     </g>
    </g>
    <g id="text_9">
     <!-- 1e6 -->
     <g transform="translate(374.7075 203.936016) scale(0.1 -0.1)">
      <defs>
       <path id="DejaVuSans-65" d="M 3597 1894 
L 3597 1613 
L 953 1613 
Q 991 1019 1311 708 
Q 1631 397 2203 397 
Q 2534 397 2845 478 
Q 3156 559 3463 722 
L 3463 178 
Q 3153 47 2828 -22 
Q 2503 -91 2169 -91 
Q 1331 -91 842 396 
Q 353 884 353 1716 
Q 353 2575 817 3079 
Q 1281 3584 2069 3584 
Q 2775 3584 3186 3129 
Q 3597 2675 3597 1894 
z
M 3022 2063 
Q 3016 2534 2758 2815 
Q 2500 3097 2075 3097 
Q 1594 3097 1305 2825 
Q 1016 2553 972 2059 
L 3022 2063 
z
" transform="scale(0.015625)"/>
      </defs>
      <use xlink:href="#DejaVuSans-31"/>
      <use xlink:href="#DejaVuSans-65" transform="translate(63.623047 0)"/>
      <use xlink:href="#DejaVuSans-36" transform="translate(125.146484 0)"/>
     </g>
    </g>
   </g>
   <g id="matplotlib.axis_2">
    <g id="ytick_1">
     <g id="line2d_9">
      <defs>
       <path id="mbb014aad3f" d="M 0 0 
L -3.5 0 
" style="stroke: #000000; stroke-width: 0.8"/>
      </defs>
      <g>
       <use xlink:href="#mbb014aad3f" x="36.465625" y="172.088206" style="stroke: #000000; stroke-width: 0.8"/>
      </g>
     </g>
     <g id="text_10">
      <!-- 4.05 -->
      <g transform="translate(7.2 175.887425) scale(0.1 -0.1)">
       <use xlink:href="#DejaVuSans-34"/>
       <use xlink:href="#DejaVuSans-2e" transform="translate(63.623047 0)"/>
       <use xlink:href="#DejaVuSans-30" transform="translate(95.410156 0)"/>
       <use xlink:href="#DejaVuSans-35" transform="translate(159.033203 0)"/>
      </g>
     </g>
    </g>
    <g id="ytick_2">
     <g id="line2d_10">
      <g>
       <use xlink:href="#mbb014aad3f" x="36.465625" y="147.370167" style="stroke: #000000; stroke-width: 0.8"/>
      </g>
     </g>
     <g id="text_11">
      <!-- 4.10 -->
      <g transform="translate(7.2 151.169386) scale(0.1 -0.1)">
       <use xlink:href="#DejaVuSans-34"/>
       <use xlink:href="#DejaVuSans-2e" transform="translate(63.623047 0)"/>
       <use xlink:href="#DejaVuSans-31" transform="translate(95.410156 0)"/>
       <use xlink:href="#DejaVuSans-30" transform="translate(159.033203 0)"/>
      </g>
     </g>
    </g>
    <g id="ytick_3">
     <g id="line2d_11">
      <g>
       <use xlink:href="#mbb014aad3f" x="36.465625" y="122.652128" style="stroke: #000000; stroke-width: 0.8"/>
      </g>
     </g>
     <g id="text_12">
      <!-- 4.15 -->
      <g transform="translate(7.2 126.451347) scale(0.1 -0.1)">
       <use xlink:href="#DejaVuSans-34"/>
       <use xlink:href="#DejaVuSans-2e" transform="translate(63.623047 0)"/>
       <use xlink:href="#DejaVuSans-31" transform="translate(95.410156 0)"/>
       <use xlink:href="#DejaVuSans-35" transform="translate(159.033203 0)"/>
      </g>
     </g>
    </g>
    <g id="ytick_4">
     <g id="line2d_12">
      <g>
       <use xlink:href="#mbb014aad3f" x="36.465625" y="97.934089" style="stroke: #000000; stroke-width: 0.8"/>
      </g>
     </g>
     <g id="text_13">
      <!-- 4.20 -->
      <g transform="translate(7.2 101.733308) scale(0.1 -0.1)">
       <defs>
        <path id="DejaVuSans-32" d="M 1228 531 
L 3431 531 
L 3431 0 
L 469 0 
L 469 531 
Q 828 903 1448 1529 
Q 2069 2156 2228 2338 
Q 2531 2678 2651 2914 
Q 2772 3150 2772 3378 
Q 2772 3750 2511 3984 
Q 2250 4219 1831 4219 
Q 1534 4219 1204 4116 
Q 875 4013 500 3803 
L 500 4441 
Q 881 4594 1212 4672 
Q 1544 4750 1819 4750 
Q 2544 4750 2975 4387 
Q 3406 4025 3406 3419 
Q 3406 3131 3298 2873 
Q 3191 2616 2906 2266 
Q 2828 2175 2409 1742 
Q 1991 1309 1228 531 
z
" transform="scale(0.015625)"/>
       </defs>
       <use xlink:href="#DejaVuSans-34"/>
       <use xlink:href="#DejaVuSans-2e" transform="translate(63.623047 0)"/>
       <use xlink:href="#DejaVuSans-32" transform="translate(95.410156 0)"/>
       <use xlink:href="#DejaVuSans-30" transform="translate(159.033203 0)"/>
      </g>
     </g>
    </g>
    <g id="ytick_5">
     <g id="line2d_13">
      <g>
       <use xlink:href="#mbb014aad3f" x="36.465625" y="73.21605" style="stroke: #000000; stroke-width: 0.8"/>
      </g>
     </g>
     <g id="text_14">
      <!-- 4.25 -->
      <g transform="translate(7.2 77.015269) scale(0.1 -0.1)">
       <use xlink:href="#DejaVuSans-34"/>
       <use xlink:href="#DejaVuSans-2e" transform="translate(63.623047 0)"/>
       <use xlink:href="#DejaVuSans-32" transform="translate(95.410156 0)"/>
       <use xlink:href="#DejaVuSans-35" transform="translate(159.033203 0)"/>
      </g>
     </g>
    </g>
    <g id="ytick_6">
     <g id="line2d_14">
      <g>
       <use xlink:href="#mbb014aad3f" x="36.465625" y="48.498011" style="stroke: #000000; stroke-width: 0.8"/>
      </g>
     </g>
     <g id="text_15">
      <!-- 4.30 -->
      <g transform="translate(7.2 52.29723) scale(0.1 -0.1)">
       <use xlink:href="#DejaVuSans-34"/>
       <use xlink:href="#DejaVuSans-2e" transform="translate(63.623047 0)"/>
       <use xlink:href="#DejaVuSans-33" transform="translate(95.410156 0)"/>
       <use xlink:href="#DejaVuSans-30" transform="translate(159.033203 0)"/>
      </g>
     </g>
    </g>
    <g id="ytick_7">
     <g id="line2d_15">
      <g>
       <use xlink:href="#mbb014aad3f" x="36.465625" y="23.779972" style="stroke: #000000; stroke-width: 0.8"/>
      </g>
     </g>
     <g id="text_16">
      <!-- 4.35 -->
      <g transform="translate(7.2 27.579191) scale(0.1 -0.1)">
       <use xlink:href="#DejaVuSans-34"/>
       <use xlink:href="#DejaVuSans-2e" transform="translate(63.623047 0)"/>
       <use xlink:href="#DejaVuSans-33" transform="translate(95.410156 0)"/>
       <use xlink:href="#DejaVuSans-35" transform="translate(159.033203 0)"/>
      </g>
     </g>
    </g>
    <g id="text_17">
     <!-- 1e6 -->
     <g transform="translate(36.465625 19.318125) scale(0.1 -0.1)">
      <use xlink:href="#DejaVuSans-31"/>
      <use xlink:href="#DejaVuSans-65" transform="translate(63.623047 0)"/>
      <use xlink:href="#DejaVuSans-36" transform="translate(125.146484 0)"/>
     </g>
    </g>
   </g>
   <g id="line2d_16">
    <defs>
     <path id="m4bec2e0dcf" d="M 0 1.5 
C 0.397805 1.5 0.77937 1.341951 1.06066 1.06066 
C 1.341951 0.77937 1.5 0.397805 1.5 0 
C 1.5 -0.397805 1.341951 -0.77937 1.06066 -1.06066 
C 0.77937 -1.341951 0.397805 -1.5 0 -1.5 
C -0.397805 -1.5 -0.77937 -1.341951 -1.06066 -1.06066 
C -1.341951 -0.77937 -1.5 -0.397805 -1.5 0 
C -1.5 0.397805 -1.341951 0.77937 -1.06066 1.06066 
C -0.77937 1.341951 -0.397805 1.5 0 1.5 
z
" style="stroke: #1f77b4"/>
    </defs>
    <g clip-path="url(#pdad2385d62)">
     <use xlink:href="#m4bec2e0dcf" x="344.98733" y="140.872298" style="fill: #1f77b4; stroke: #1f77b4"/>
     <use xlink:href="#m4bec2e0dcf" x="309.103256" y="89.837735" style="fill: #1f77b4; stroke: #1f77b4"/>
     <use xlink:href="#m4bec2e0dcf" x="212.380062" y="113.643291" style="fill: #1f77b4; stroke: #1f77b4"/>
     <use xlink:href="#m4bec2e0dcf" x="241.684334" y="159.987456" style="fill: #1f77b4; stroke: #1f77b4"/>
     <use xlink:href="#m4bec2e0dcf" x="282.212901" y="55.410368" style="fill: #1f77b4; stroke: #1f77b4"/>
     <use xlink:href="#m4bec2e0dcf" x="227.802118" y="156.986128" style="fill: #1f77b4; stroke: #1f77b4"/>
     <use xlink:href="#m4bec2e0dcf" x="330.015772" y="88.301484" style="fill: #1f77b4; stroke: #1f77b4"/>
     <use xlink:href="#m4bec2e0dcf" x="285.029837" y="128.64301" style="fill: #1f77b4; stroke: #1f77b4"/>
     <use xlink:href="#m4bec2e0dcf" x="326.676413" y="112.596049" style="fill: #1f77b4; stroke: #1f77b4"/>
     <use xlink:href="#m4bec2e0dcf" x="328.620654" y="120.669966" style="fill: #1f77b4; stroke: #1f77b4"/>
     <use xlink:href="#m4bec2e0dcf" x="238.244237" y="139.995327" style="fill: #1f77b4; stroke: #1f77b4"/>
     <use xlink:href="#m4bec2e0dcf" x="189.236866" y="114.355913" style="fill: #1f77b4; stroke: #1f77b4"/>
     <use xlink:href="#m4bec2e0dcf" x="235.90273" y="102.40734" style="fill: #1f77b4; stroke: #1f77b4"/>
     <use xlink:href="#m4bec2e0dcf" x="158.178978" y="159.280413" style="fill: #1f77b4; stroke: #1f77b4"/>
     <use xlink:href="#m4bec2e0dcf" x="372.83806" y="94.640132" style="fill: #1f77b4; stroke: #1f77b4"/>
     <use xlink:href="#m4bec2e0dcf" x="145.241633" y="140.722737" style="fill: #1f77b4; stroke: #1f77b4"/>
     <use xlink:href="#m4bec2e0dcf" x="242.037009" y="101.524686" style="fill: #1f77b4; stroke: #1f77b4"/>
     <use xlink:href="#m4bec2e0dcf" x="175.473064" y="118.871725" style="fill: #1f77b4; stroke: #1f77b4"/>
     <use xlink:href="#m4bec2e0dcf" x="78.571069" y="147.853567" style="fill: #1f77b4; stroke: #1f77b4"/>
     <use xlink:href="#m4bec2e0dcf" x="259.552565" y="84.385796" style="fill: #1f77b4; stroke: #1f77b4"/>
     <use xlink:href="#m4bec2e0dcf" x="164.811315" y="167.53726" style="fill: #1f77b4; stroke: #1f77b4"/>
     <use xlink:href="#m4bec2e0dcf" x="372.255321" y="111.339117" style="fill: #1f77b4; stroke: #1f77b4"/>
     <use xlink:href="#m4bec2e0dcf" x="75.021055" y="150.013386" style="fill: #1f77b4; stroke: #1f77b4"/>
     <use xlink:href="#m4bec2e0dcf" x="258.477583" y="89.910557" style="fill: #1f77b4; stroke: #1f77b4"/>
     <use xlink:href="#m4bec2e0dcf" x="319.149067" y="96.910146" style="fill: #1f77b4; stroke: #1f77b4"/>
     <use xlink:href="#m4bec2e0dcf" x="290.675383" y="69.6512" style="fill: #1f77b4; stroke: #1f77b4"/>
     <use xlink:href="#m4bec2e0dcf" x="225.87228" y="131.842159" style="fill: #1f77b4; stroke: #1f77b4"/>
     <use xlink:href="#m4bec2e0dcf" x="232.976615" y="148.109485" style="fill: #1f77b4; stroke: #1f77b4"/>
     <use xlink:href="#m4bec2e0dcf" x="331.697046" y="86.545415" style="fill: #1f77b4; stroke: #1f77b4"/>
     <use xlink:href="#m4bec2e0dcf" x="342.72502" y="142.775015" style="fill: #1f77b4; stroke: #1f77b4"/>
     <use xlink:href="#m4bec2e0dcf" x="337.594947" y="164.596069" style="fill: #1f77b4; stroke: #1f77b4"/>
     <use xlink:href="#m4bec2e0dcf" x="377.352898" y="93.791063" style="fill: #1f77b4; stroke: #1f77b4"/>
     <use xlink:href="#m4bec2e0dcf" x="90.724108" y="138.112887" style="fill: #1f77b4; stroke: #1f77b4"/>
     <use xlink:href="#m4bec2e0dcf" x="258.445389" y="123.233762" style="fill: #1f77b4; stroke: #1f77b4"/>
     <use xlink:href="#m4bec2e0dcf" x="258.547996" y="126.712747" style="fill: #1f77b4; stroke: #1f77b4"/>
     <use xlink:href="#m4bec2e0dcf" x="166.241648" y="137.619064" style="fill: #1f77b4; stroke: #1f77b4"/>
     <use xlink:href="#m4bec2e0dcf" x="248.043271" y="83.174743" style="fill: #1f77b4; stroke: #1f77b4"/>
     <use xlink:href="#m4bec2e0dcf" x="255.101112" y="35.053036" style="fill: #1f77b4; stroke: #1f77b4"/>
     <use xlink:href="#m4bec2e0dcf" x="225.971768" y="144.112891" style="fill: #1f77b4; stroke: #1f77b4"/>
     <use xlink:href="#m4bec2e0dcf" x="259.955822" y="51.901969" style="fill: #1f77b4; stroke: #1f77b4"/>
     <use xlink:href="#m4bec2e0dcf" x="245.369836" y="118.44164" style="fill: #1f77b4; stroke: #1f77b4"/>
     <use xlink:href="#m4bec2e0dcf" x="324.781581" y="111.171412" style="fill: #1f77b4; stroke: #1f77b4"/>
     <use xlink:href="#m4bec2e0dcf" x="286.91308" y="132.603525" style="fill: #1f77b4; stroke: #1f77b4"/>
     <use xlink:href="#m4bec2e0dcf" x="215.202978" y="147.665006" style="fill: #1f77b4; stroke: #1f77b4"/>
     <use xlink:href="#m4bec2e0dcf" x="200.851268" y="91.784906" style="fill: #1f77b4; stroke: #1f77b4"/>
     <use xlink:href="#m4bec2e0dcf" x="312.811782" y="155.171862" style="fill: #1f77b4; stroke: #1f77b4"/>
     <use xlink:href="#m4bec2e0dcf" x="322.198176" y="130.604624" style="fill: #1f77b4; stroke: #1f77b4"/>
     <use xlink:href="#m4bec2e0dcf" x="219.592994" y="115.880568" style="fill: #1f77b4; stroke: #1f77b4"/>
     <use xlink:href="#m4bec2e0dcf" x="334.807362" y="94.439154" style="fill: #1f77b4; stroke: #1f77b4"/>
     <use xlink:href="#m4bec2e0dcf" x="155.34121" y="131.778998" style="fill: #1f77b4; stroke: #1f77b4"/>
     <use xlink:href="#m4bec2e0dcf" x="232.292369" y="72.195519" style="fill: #1f77b4; stroke: #1f77b4"/>
     <use xlink:href="#m4bec2e0dcf" x="300.217415" y="139.121934" style="fill: #1f77b4; stroke: #1f77b4"/>
     <use xlink:href="#m4bec2e0dcf" x="182.562899" y="160.732936" style="fill: #1f77b4; stroke: #1f77b4"/>
     <use xlink:href="#m4bec2e0dcf" x="99.77446" y="127.054069" style="fill: #1f77b4; stroke: #1f77b4"/>
     <use xlink:href="#m4bec2e0dcf" x="202.274122" y="162.553866" style="fill: #1f77b4; stroke: #1f77b4"/>
     <use xlink:href="#m4bec2e0dcf" x="180.681497" y="145.906486" style="fill: #1f77b4; stroke: #1f77b4"/>
     <use xlink:href="#m4bec2e0dcf" x="281.114439" y="86.654566" style="fill: #1f77b4; stroke: #1f77b4"/>
     <use xlink:href="#m4bec2e0dcf" x="162.690315" y="169.643939" style="fill: #1f77b4; stroke: #1f77b4"/>
     <use xlink:href="#m4bec2e0dcf" x="273.311834" y="158.808596" style="fill: #1f77b4; stroke: #1f77b4"/>
     <use xlink:href="#m4bec2e0dcf" x="319.107462" y="97.641586" style="fill: #1f77b4; stroke: #1f77b4"/>
     <use xlink:href="#m4bec2e0dcf" x="280.248785" y="36.456259" style="fill: #1f77b4; stroke: #1f77b4"/>
     <use xlink:href="#m4bec2e0dcf" x="307.50603" y="133.410173" style="fill: #1f77b4; stroke: #1f77b4"/>
     <use xlink:href="#m4bec2e0dcf" x="274.366652" y="169.085058" style="fill: #1f77b4; stroke: #1f77b4"/>
     <use xlink:href="#m4bec2e0dcf" x="297.603915" y="78.149493" style="fill: #1f77b4; stroke: #1f77b4"/>
     <use xlink:href="#m4bec2e0dcf" x="200.408498" y="83.363463" style="fill: #1f77b4; stroke: #1f77b4"/>
     <use xlink:href="#m4bec2e0dcf" x="335.263675" y="122.835593" style="fill: #1f77b4; stroke: #1f77b4"/>
     <use xlink:href="#m4bec2e0dcf" x="264.563903" y="29.33364" style="fill: #1f77b4; stroke: #1f77b4"/>
     <use xlink:href="#m4bec2e0dcf" x="267.563347" y="126.117617" style="fill: #1f77b4; stroke: #1f77b4"/>
     <use xlink:href="#m4bec2e0dcf" x="251.096606" y="126.005658" style="fill: #1f77b4; stroke: #1f77b4"/>
     <use xlink:href="#m4bec2e0dcf" x="78.713696" y="162.738652" style="fill: #1f77b4; stroke: #1f77b4"/>
     <use xlink:href="#m4bec2e0dcf" x="255.95439" y="68.463969" style="fill: #1f77b4; stroke: #1f77b4"/>
     <use xlink:href="#m4bec2e0dcf" x="258.627054" y="141.347665" style="fill: #1f77b4; stroke: #1f77b4"/>
     <use xlink:href="#m4bec2e0dcf" x="132.000177" y="152.442754" style="fill: #1f77b4; stroke: #1f77b4"/>
     <use xlink:href="#m4bec2e0dcf" x="252.504169" y="115.845094" style="fill: #1f77b4; stroke: #1f77b4"/>
     <use xlink:href="#m4bec2e0dcf" x="215.319552" y="80.971637" style="fill: #1f77b4; stroke: #1f77b4"/>
     <use xlink:href="#m4bec2e0dcf" x="225.935737" y="134.936193" style="fill: #1f77b4; stroke: #1f77b4"/>
     <use xlink:href="#m4bec2e0dcf" x="365.642215" y="158.709965" style="fill: #1f77b4; stroke: #1f77b4"/>
     <use xlink:href="#m4bec2e0dcf" x="146.946037" y="165.033236" style="fill: #1f77b4; stroke: #1f77b4"/>
     <use xlink:href="#m4bec2e0dcf" x="144.45617" y="146.252248" style="fill: #1f77b4; stroke: #1f77b4"/>
     <use xlink:href="#m4bec2e0dcf" x="52.698352" y="157.596527" style="fill: #1f77b4; stroke: #1f77b4"/>
     <use xlink:href="#m4bec2e0dcf" x="176.621363" y="147.694255" style="fill: #1f77b4; stroke: #1f77b4"/>
     <use xlink:href="#m4bec2e0dcf" x="288.873512" y="86.317634" style="fill: #1f77b4; stroke: #1f77b4"/>
     <use xlink:href="#m4bec2e0dcf" x="233.93929" y="142.951745" style="fill: #1f77b4; stroke: #1f77b4"/>
     <use xlink:href="#m4bec2e0dcf" x="305.680408" y="165.115151" style="fill: #1f77b4; stroke: #1f77b4"/>
     <use xlink:href="#m4bec2e0dcf" x="347.952291" y="156.894599" style="fill: #1f77b4; stroke: #1f77b4"/>
     <use xlink:href="#m4bec2e0dcf" x="184.007552" y="119.931871" style="fill: #1f77b4; stroke: #1f77b4"/>
     <use xlink:href="#m4bec2e0dcf" x="117.670529" y="156.55523" style="fill: #1f77b4; stroke: #1f77b4"/>
     <use xlink:href="#m4bec2e0dcf" x="209.404358" y="121.951717" style="fill: #1f77b4; stroke: #1f77b4"/>
     <use xlink:href="#m4bec2e0dcf" x="136.513249" y="147.285954" style="fill: #1f77b4; stroke: #1f77b4"/>
     <use xlink:href="#m4bec2e0dcf" x="232.79183" y="101.180283" style="fill: #1f77b4; stroke: #1f77b4"/>
     <use xlink:href="#m4bec2e0dcf" x="259.302426" y="51.44201" style="fill: #1f77b4; stroke: #1f77b4"/>
     <use xlink:href="#m4bec2e0dcf" x="260.515177" y="139.136366" style="fill: #1f77b4; stroke: #1f77b4"/>
     <use xlink:href="#m4bec2e0dcf" x="252.080167" y="150.886086" style="fill: #1f77b4; stroke: #1f77b4"/>
     <use xlink:href="#m4bec2e0dcf" x="328.221688" y="168.702677" style="fill: #1f77b4; stroke: #1f77b4"/>
     <use xlink:href="#m4bec2e0dcf" x="264.904882" y="142.025997" style="fill: #1f77b4; stroke: #1f77b4"/>
     <use xlink:href="#m4bec2e0dcf" x="257.983095" y="117.75185" style="fill: #1f77b4; stroke: #1f77b4"/>
     <use xlink:href="#m4bec2e0dcf" x="129.692534" y="157.00648" style="fill: #1f77b4; stroke: #1f77b4"/>
     <use xlink:href="#m4bec2e0dcf" x="279.51208" y="73.307126" style="fill: #1f77b4; stroke: #1f77b4"/>
     <use xlink:href="#m4bec2e0dcf" x="289.254957" y="169.126936" style="fill: #1f77b4; stroke: #1f77b4"/>
     <use xlink:href="#m4bec2e0dcf" x="347.319926" y="137.706505" style="fill: #1f77b4; stroke: #1f77b4"/>
    </g>
   </g>
   <g id="patch_3">
    <path d="M 36.465625 176.659454 
L 36.465625 22.318125 
" style="fill: none; stroke: #000000; stroke-width: 0.8; stroke-linejoin: miter; stroke-linecap: square"/>
   </g>
   <g id="patch_4">
    <path d="M 393.585625 176.659454 
L 393.585625 22.318125 
" style="fill: none; stroke: #000000; stroke-width: 0.8; stroke-linejoin: miter; stroke-linecap: square"/>
   </g>
   <g id="patch_5">
    <path d="M 36.465625 176.659454 
L 393.585625 176.659454 
" style="fill: none; stroke: #000000; stroke-width: 0.8; stroke-linejoin: miter; stroke-linecap: square"/>
   </g>
   <g id="patch_6">
    <path d="M 36.465625 22.318125 
L 393.585625 22.318125 
" style="fill: none; stroke: #000000; stroke-width: 0.8; stroke-linejoin: miter; stroke-linecap: square"/>
   </g>
   <g id="text_18">
    <!-- Point Pattern -->
    <g transform="translate(176.640625 16.318125) scale(0.12 -0.12)">
     <defs>
      <path id="DejaVuSans-50" d="M 1259 4147 
L 1259 2394 
L 2053 2394 
Q 2494 2394 2734 2622 
Q 2975 2850 2975 3272 
Q 2975 3691 2734 3919 
Q 2494 4147 2053 4147 
L 1259 4147 
z
M 628 4666 
L 2053 4666 
Q 2838 4666 3239 4311 
Q 3641 3956 3641 3272 
Q 3641 2581 3239 2228 
Q 2838 1875 2053 1875 
L 1259 1875 
L 1259 0 
L 628 0 
L 628 4666 
z
" transform="scale(0.015625)"/>
      <path id="DejaVuSans-6f" d="M 1959 3097 
Q 1497 3097 1228 2736 
Q 959 2375 959 1747 
Q 959 1119 1226 758 
Q 1494 397 1959 397 
Q 2419 397 2687 759 
Q 2956 1122 2956 1747 
Q 2956 2369 2687 2733 
Q 2419 3097 1959 3097 
z
M 1959 3584 
Q 2709 3584 3137 3096 
Q 3566 2609 3566 1747 
Q 3566 888 3137 398 
Q 2709 -91 1959 -91 
Q 1206 -91 779 398 
Q 353 888 353 1747 
Q 353 2609 779 3096 
Q 1206 3584 1959 3584 
z
" transform="scale(0.015625)"/>
      <path id="DejaVuSans-69" d="M 603 3500 
L 1178 3500 
L 1178 0 
L 603 0 
L 603 3500 
z
M 603 4863 
L 1178 4863 
L 1178 4134 
L 603 4134 
L 603 4863 
z
" transform="scale(0.015625)"/>
      <path id="DejaVuSans-6e" d="M 3513 2113 
L 3513 0 
L 2938 0 
L 2938 2094 
Q 2938 2591 2744 2837 
Q 2550 3084 2163 3084 
Q 1697 3084 1428 2787 
Q 1159 2491 1159 1978 
L 1159 0 
L 581 0 
L 581 3500 
L 1159 3500 
L 1159 2956 
Q 1366 3272 1645 3428 
Q 1925 3584 2291 3584 
Q 2894 3584 3203 3211 
Q 3513 2838 3513 2113 
z
" transform="scale(0.015625)"/>
      <path id="DejaVuSans-74" d="M 1172 4494 
L 1172 3500 
L 2356 3500 
L 2356 3053 
L 1172 3053 
L 1172 1153 
Q 1172 725 1289 603 
Q 1406 481 1766 481 
L 2356 481 
L 2356 0 
L 1766 0 
Q 1100 0 847 248 
Q 594 497 594 1153 
L 594 3053 
L 172 3053 
L 172 3500 
L 594 3500 
L 594 4494 
L 1172 4494 
z
" transform="scale(0.015625)"/>
      <path id="DejaVuSans-20" transform="scale(0.015625)"/>
      <path id="DejaVuSans-61" d="M 2194 1759 
Q 1497 1759 1228 1600 
Q 959 1441 959 1056 
Q 959 750 1161 570 
Q 1363 391 1709 391 
Q 2188 391 2477 730 
Q 2766 1069 2766 1631 
L 2766 1759 
L 2194 1759 
z
M 3341 1997 
L 3341 0 
L 2766 0 
L 2766 531 
Q 2569 213 2275 61 
Q 1981 -91 1556 -91 
Q 1019 -91 701 211 
Q 384 513 384 1019 
Q 384 1609 779 1909 
Q 1175 2209 1959 2209 
L 2766 2209 
L 2766 2266 
Q 2766 2663 2505 2880 
Q 2244 3097 1772 3097 
Q 1472 3097 1187 3025 
Q 903 2953 641 2809 
L 641 3341 
Q 956 3463 1253 3523 
Q 1550 3584 1831 3584 
Q 2591 3584 2966 3190 
Q 3341 2797 3341 1997 
z
" transform="scale(0.015625)"/>
      <path id="DejaVuSans-72" d="M 2631 2963 
Q 2534 3019 2420 3045 
Q 2306 3072 2169 3072 
Q 1681 3072 1420 2755 
Q 1159 2438 1159 1844 
L 1159 0 
L 581 0 
L 581 3500 
L 1159 3500 
L 1159 2956 
Q 1341 3275 1631 3429 
Q 1922 3584 2338 3584 
Q 2397 3584 2469 3576 
Q 2541 3569 2628 3553 
L 2631 2963 
z
" transform="scale(0.015625)"/>
     </defs>
     <use xlink:href="#DejaVuSans-50"/>
     <use xlink:href="#DejaVuSans-6f" transform="translate(56.677734 0)"/>
     <use xlink:href="#DejaVuSans-69" transform="translate(117.859375 0)"/>
     <use xlink:href="#DejaVuSans-6e" transform="translate(145.642578 0)"/>
     <use xlink:href="#DejaVuSans-74" transform="translate(209.021484 0)"/>
     <use xlink:href="#DejaVuSans-20" transform="translate(248.230469 0)"/>
     <use xlink:href="#DejaVuSans-50" transform="translate(280.017578 0)"/>
     <use xlink:href="#DejaVuSans-61" transform="translate(335.820312 0)"/>
     <use xlink:href="#DejaVuSans-74" transform="translate(397.099609 0)"/>
     <use xlink:href="#DejaVuSans-74" transform="translate(436.308594 0)"/>
     <use xlink:href="#DejaVuSans-65" transform="translate(475.517578 0)"/>
     <use xlink:href="#DejaVuSans-72" transform="translate(537.041016 0)"/>
     <use xlink:href="#DejaVuSans-6e" transform="translate(576.404297 0)"/>
    </g>
   </g>
  </g>
 </g>
 <defs>
  <clipPath id="pdad2385d62">
   <rect x="36.465625" y="22.318125" width="357.12" height="154.341329"/>
  </clipPath>
 </defs>
</svg>
