<?xml version="1.0" encoding="utf-8" standalone="no"?>
<!DOCTYPE svg PUBLIC "-//W3C//DTD SVG 1.1//EN"
  "http://www.w3.org/Graphics/SVG/1.1/DTD/svg11.dtd">
<svg xmlns:xlink="http://www.w3.org/1999/xlink" width="309.207067pt" height="312.30825pt" viewBox="0 0 309.207067 312.30825" xmlns="http://www.w3.org/2000/svg" version="1.1">
 <metadata>
  <rdf:RDF xmlns:dc="http://purl.org/dc/elements/1.1/" xmlns:cc="http://creativecommons.org/ns#" xmlns:rdf="http://www.w3.org/1999/02/22-rdf-syntax-ns#">
   <cc:Work>
    <dc:type rdf:resource="http://purl.org/dc/dcmitype/StillImage"/>
    <dc:date>2026-02-19T18:37:55.509324</dc:date>
    <dc:format>image/svg+xml</dc:format>
    <dc:creator>
     <cc:Agent>
      <dc:title>Matplotlib v3.10.8, https://matplotlib.org/</dc:title>
     </cc:Agent>
    </dc:creator>
   </cc:Work>
  </rdf:RDF>
 </metadata>
 <defs>
  <style type="text/css">*{stroke-linejoin: round; stroke-linecap: butt}</style>
 </defs>
 <g id="figure_1">
  <g id="patch_1">
   <path d="M 0 312.30825 
L 309.207067 312.30825 
L 309.207067 0 
L 0 0 
z
" style="fill: #ffffff"/>
  </g>
  <g id="axes_1">
   <g id="patch_2">
    <path d="M 26.925 288.430125 
L 302.007067 288.430125 
L 302.007067 22.318125 
L 26.925 22.318125 
z
" style="fill: #ffffff"/>
   </g>
   <g id="PathCollection_1">
    <defs>
     <path id="m596e2352f6" d="M 0 1.581139 
C 0.419323 1.581139 0.821528 1.41454 1.118034 1.118034 
C 1.41454 0.821528 1.581139 0.419323 1.581139 0 
C 1.581139 -0.419323 1.41454 -0.821528 1.118034 -1.118034 
C 0.821528 -1.41454 0.419323 -1.581139 0 -1.581139 
C -0.419323 -1.581139 -0.821528 -1.41454 -1.118034 -1.118034 
C -1.41454 -0.821528 -1.581139 -0.419323 -1.581139 0 
C -1.581139 0.419323 -1.41454 0.821528 -1.118034 1.118034 
C -0.821528 1.41454 -0.419323 1.581139 0 1.581139 
z
" style="stroke: #1f77b4"/>
    </defs>
    <g clip-path="url(#pb8ba398242)">
     <use xlink:href="#m596e2352f6" x="289.503337" y="39.850529" style="fill: #1f77b4; stroke: #1f77b4"/>
     <use xlink:href="#m596e2352f6" x="251.448506" y="34.414125" style="fill: #1f77b4; stroke: #1f77b4"/>
     <use xlink:href="#m596e2352f6" x="248.730303" y="48.005136" style="fill: #1f77b4; stroke: #1f77b4"/>
     <use xlink:href="#m596e2352f6" x="246.012101" y="42.568732" style="fill: #1f77b4; stroke: #1f77b4"/>
     <use xlink:href="#m596e2352f6" x="240.575697" y="42.568732" style="fill: #1f77b4; stroke: #1f77b4"/>
     <use xlink:href="#m596e2352f6" x="213.393674" y="39.850529" style="fill: #1f77b4; stroke: #1f77b4"/>
     <use xlink:href="#m596e2352f6" x="207.95727" y="48.005136" style="fill: #1f77b4; stroke: #1f77b4"/>
     <use xlink:href="#m596e2352f6" x="107.383787" y="102.369181" style="fill: #1f77b4; stroke: #1f77b4"/>
     <use xlink:href="#m596e2352f6" x="191.648056" y="53.441541" style="fill: #1f77b4; stroke: #1f77b4"/>
     <use xlink:href="#m596e2352f6" x="188.929854" y="42.568732" style="fill: #1f77b4; stroke: #1f77b4"/>
     <use xlink:href="#m596e2352f6" x="178.057045" y="42.568732" style="fill: #1f77b4; stroke: #1f77b4"/>
     <use xlink:href="#m596e2352f6" x="169.902438" y="48.005136" style="fill: #1f77b4; stroke: #1f77b4"/>
     <use xlink:href="#m596e2352f6" x="167.184236" y="48.005136" style="fill: #1f77b4; stroke: #1f77b4"/>
     <use xlink:href="#m596e2352f6" x="120.974798" y="48.005136" style="fill: #1f77b4; stroke: #1f77b4"/>
     <use xlink:href="#m596e2352f6" x="118.256596" y="56.159743" style="fill: #1f77b4; stroke: #1f77b4"/>
     <use xlink:href="#m596e2352f6" x="93.792775" y="56.159743" style="fill: #1f77b4; stroke: #1f77b4"/>
     <use xlink:href="#m596e2352f6" x="91.074573" y="56.159743" style="fill: #1f77b4; stroke: #1f77b4"/>
     <use xlink:href="#m596e2352f6" x="91.074573" y="58.877945" style="fill: #1f77b4; stroke: #1f77b4"/>
     <use xlink:href="#m596e2352f6" x="93.792775" y="72.468956" style="fill: #1f77b4; stroke: #1f77b4"/>
     <use xlink:href="#m596e2352f6" x="96.510978" y="67.032552" style="fill: #1f77b4; stroke: #1f77b4"/>
     <use xlink:href="#m596e2352f6" x="107.383787" y="61.596147" style="fill: #1f77b4; stroke: #1f77b4"/>
     <use xlink:href="#m596e2352f6" x="107.383787" y="64.31435" style="fill: #1f77b4; stroke: #1f77b4"/>
     <use xlink:href="#m596e2352f6" x="107.383787" y="67.032552" style="fill: #1f77b4; stroke: #1f77b4"/>
     <use xlink:href="#m596e2352f6" x="107.383787" y="69.750754" style="fill: #1f77b4; stroke: #1f77b4"/>
     <use xlink:href="#m596e2352f6" x="115.538393" y="64.31435" style="fill: #1f77b4; stroke: #1f77b4"/>
     <use xlink:href="#m596e2352f6" x="118.256596" y="64.31435" style="fill: #1f77b4; stroke: #1f77b4"/>
     <use xlink:href="#m596e2352f6" x="118.256596" y="64.31435" style="fill: #1f77b4; stroke: #1f77b4"/>
     <use xlink:href="#m596e2352f6" x="120.974798" y="67.032552" style="fill: #1f77b4; stroke: #1f77b4"/>
     <use xlink:href="#m596e2352f6" x="123.693" y="72.468956" style="fill: #1f77b4; stroke: #1f77b4"/>
     <use xlink:href="#m596e2352f6" x="120.974798" y="77.905361" style="fill: #1f77b4; stroke: #1f77b4"/>
     <use xlink:href="#m596e2352f6" x="120.974798" y="86.059968" style="fill: #1f77b4; stroke: #1f77b4"/>
     <use xlink:href="#m596e2352f6" x="123.693" y="83.341765" style="fill: #1f77b4; stroke: #1f77b4"/>
     <use xlink:href="#m596e2352f6" x="126.411202" y="58.877945" style="fill: #1f77b4; stroke: #1f77b4"/>
     <use xlink:href="#m596e2352f6" x="126.411202" y="64.31435" style="fill: #1f77b4; stroke: #1f77b4"/>
     <use xlink:href="#m596e2352f6" x="137.284011" y="69.750754" style="fill: #1f77b4; stroke: #1f77b4"/>
     <use xlink:href="#m596e2352f6" x="140.002213" y="72.468956" style="fill: #1f77b4; stroke: #1f77b4"/>
     <use xlink:href="#m596e2352f6" x="142.720416" y="75.187159" style="fill: #1f77b4; stroke: #1f77b4"/>
     <use xlink:href="#m596e2352f6" x="145.438618" y="67.032552" style="fill: #1f77b4; stroke: #1f77b4"/>
     <use xlink:href="#m596e2352f6" x="150.875022" y="88.77817" style="fill: #1f77b4; stroke: #1f77b4"/>
     <use xlink:href="#m596e2352f6" x="153.593225" y="72.468956" style="fill: #1f77b4; stroke: #1f77b4"/>
     <use xlink:href="#m596e2352f6" x="159.029629" y="72.468956" style="fill: #1f77b4; stroke: #1f77b4"/>
     <use xlink:href="#m596e2352f6" x="161.747831" y="69.750754" style="fill: #1f77b4; stroke: #1f77b4"/>
     <use xlink:href="#m596e2352f6" x="161.747831" y="72.468956" style="fill: #1f77b4; stroke: #1f77b4"/>
     <use xlink:href="#m596e2352f6" x="164.466034" y="75.187159" style="fill: #1f77b4; stroke: #1f77b4"/>
     <use xlink:href="#m596e2352f6" x="164.466034" y="72.468956" style="fill: #1f77b4; stroke: #1f77b4"/>
     <use xlink:href="#m596e2352f6" x="169.902438" y="61.596147" style="fill: #1f77b4; stroke: #1f77b4"/>
     <use xlink:href="#m596e2352f6" x="172.62064" y="64.31435" style="fill: #1f77b4; stroke: #1f77b4"/>
     <use xlink:href="#m596e2352f6" x="175.338843" y="67.032552" style="fill: #1f77b4; stroke: #1f77b4"/>
     <use xlink:href="#m596e2352f6" x="183.493449" y="61.596147" style="fill: #1f77b4; stroke: #1f77b4"/>
     <use xlink:href="#m596e2352f6" x="188.929854" y="53.441541" style="fill: #1f77b4; stroke: #1f77b4"/>
     <use xlink:href="#m596e2352f6" x="188.929854" y="72.468956" style="fill: #1f77b4; stroke: #1f77b4"/>
     <use xlink:href="#m596e2352f6" x="197.084461" y="56.159743" style="fill: #1f77b4; stroke: #1f77b4"/>
     <use xlink:href="#m596e2352f6" x="221.548281" y="75.187159" style="fill: #1f77b4; stroke: #1f77b4"/>
     <use xlink:href="#m596e2352f6" x="226.984685" y="69.750754" style="fill: #1f77b4; stroke: #1f77b4"/>
     <use xlink:href="#m596e2352f6" x="229.702888" y="72.468956" style="fill: #1f77b4; stroke: #1f77b4"/>
     <use xlink:href="#m596e2352f6" x="235.139292" y="69.750754" style="fill: #1f77b4; stroke: #1f77b4"/>
     <use xlink:href="#m596e2352f6" x="237.857494" y="72.468956" style="fill: #1f77b4; stroke: #1f77b4"/>
     <use xlink:href="#m596e2352f6" x="243.293899" y="53.441541" style="fill: #1f77b4; stroke: #1f77b4"/>
     <use xlink:href="#m596e2352f6" x="251.448506" y="53.441541" style="fill: #1f77b4; stroke: #1f77b4"/>
     <use xlink:href="#m596e2352f6" x="256.88491" y="83.341765" style="fill: #1f77b4; stroke: #1f77b4"/>
     <use xlink:href="#m596e2352f6" x="213.393674" y="124.114799" style="fill: #1f77b4; stroke: #1f77b4"/>
     <use xlink:href="#m596e2352f6" x="207.95727" y="99.650979" style="fill: #1f77b4; stroke: #1f77b4"/>
     <use xlink:href="#m596e2352f6" x="194.366258" y="121.396597" style="fill: #1f77b4; stroke: #1f77b4"/>
     <use xlink:href="#m596e2352f6" x="183.493449" y="118.678395" style="fill: #1f77b4; stroke: #1f77b4"/>
     <use xlink:href="#m596e2352f6" x="178.057045" y="107.805586" style="fill: #1f77b4; stroke: #1f77b4"/>
     <use xlink:href="#m596e2352f6" x="175.338843" y="132.269406" style="fill: #1f77b4; stroke: #1f77b4"/>
     <use xlink:href="#m596e2352f6" x="172.62064" y="126.833001" style="fill: #1f77b4; stroke: #1f77b4"/>
     <use xlink:href="#m596e2352f6" x="169.902438" y="88.77817" style="fill: #1f77b4; stroke: #1f77b4"/>
     <use xlink:href="#m596e2352f6" x="169.902438" y="91.496372" style="fill: #1f77b4; stroke: #1f77b4"/>
     <use xlink:href="#m596e2352f6" x="156.311427" y="126.833001" style="fill: #1f77b4; stroke: #1f77b4"/>
     <use xlink:href="#m596e2352f6" x="153.593225" y="129.551204" style="fill: #1f77b4; stroke: #1f77b4"/>
     <use xlink:href="#m596e2352f6" x="150.875022" y="132.269406" style="fill: #1f77b4; stroke: #1f77b4"/>
     <use xlink:href="#m596e2352f6" x="148.15682" y="126.833001" style="fill: #1f77b4; stroke: #1f77b4"/>
     <use xlink:href="#m596e2352f6" x="140.002213" y="99.650979" style="fill: #1f77b4; stroke: #1f77b4"/>
     <use xlink:href="#m596e2352f6" x="134.565809" y="110.523788" style="fill: #1f77b4; stroke: #1f77b4"/>
     <use xlink:href="#m596e2352f6" x="129.129404" y="102.369181" style="fill: #1f77b4; stroke: #1f77b4"/>
     <use xlink:href="#m596e2352f6" x="118.256596" y="107.805586" style="fill: #1f77b4; stroke: #1f77b4"/>
     <use xlink:href="#m596e2352f6" x="115.538393" y="99.650979" style="fill: #1f77b4; stroke: #1f77b4"/>
     <use xlink:href="#m596e2352f6" x="112.820191" y="126.833001" style="fill: #1f77b4; stroke: #1f77b4"/>
     <use xlink:href="#m596e2352f6" x="104.665584" y="105.087383" style="fill: #1f77b4; stroke: #1f77b4"/>
     <use xlink:href="#m596e2352f6" x="99.22918" y="107.805586" style="fill: #1f77b4; stroke: #1f77b4"/>
     <use xlink:href="#m596e2352f6" x="53.019742" y="151.296822" style="fill: #1f77b4; stroke: #1f77b4"/>
     <use xlink:href="#m596e2352f6" x="63.892551" y="148.578619" style="fill: #1f77b4; stroke: #1f77b4"/>
     <use xlink:href="#m596e2352f6" x="126.411202" y="156.733226" style="fill: #1f77b4; stroke: #1f77b4"/>
     <use xlink:href="#m596e2352f6" x="131.847607" y="164.887833" style="fill: #1f77b4; stroke: #1f77b4"/>
     <use xlink:href="#m596e2352f6" x="134.565809" y="170.324237" style="fill: #1f77b4; stroke: #1f77b4"/>
     <use xlink:href="#m596e2352f6" x="134.565809" y="140.424013" style="fill: #1f77b4; stroke: #1f77b4"/>
     <use xlink:href="#m596e2352f6" x="137.284011" y="143.142215" style="fill: #1f77b4; stroke: #1f77b4"/>
     <use xlink:href="#m596e2352f6" x="137.284011" y="156.733226" style="fill: #1f77b4; stroke: #1f77b4"/>
     <use xlink:href="#m596e2352f6" x="140.002213" y="151.296822" style="fill: #1f77b4; stroke: #1f77b4"/>
     <use xlink:href="#m596e2352f6" x="145.438618" y="151.296822" style="fill: #1f77b4; stroke: #1f77b4"/>
     <use xlink:href="#m596e2352f6" x="161.747831" y="159.451428" style="fill: #1f77b4; stroke: #1f77b4"/>
     <use xlink:href="#m596e2352f6" x="169.902438" y="137.70581" style="fill: #1f77b4; stroke: #1f77b4"/>
     <use xlink:href="#m596e2352f6" x="175.338843" y="140.424013" style="fill: #1f77b4; stroke: #1f77b4"/>
     <use xlink:href="#m596e2352f6" x="178.057045" y="143.142215" style="fill: #1f77b4; stroke: #1f77b4"/>
     <use xlink:href="#m596e2352f6" x="186.211652" y="137.70581" style="fill: #1f77b4; stroke: #1f77b4"/>
     <use xlink:href="#m596e2352f6" x="221.548281" y="151.296822" style="fill: #1f77b4; stroke: #1f77b4"/>
     <use xlink:href="#m596e2352f6" x="221.548281" y="156.733226" style="fill: #1f77b4; stroke: #1f77b4"/>
     <use xlink:href="#m596e2352f6" x="226.984685" y="154.015024" style="fill: #1f77b4; stroke: #1f77b4"/>
     <use xlink:href="#m596e2352f6" x="226.984685" y="154.015024" style="fill: #1f77b4; stroke: #1f77b4"/>
     <use xlink:href="#m596e2352f6" x="232.42109" y="162.169631" style="fill: #1f77b4; stroke: #1f77b4"/>
     <use xlink:href="#m596e2352f6" x="235.139292" y="162.169631" style="fill: #1f77b4; stroke: #1f77b4"/>
     <use xlink:href="#m596e2352f6" x="237.857494" y="167.606035" style="fill: #1f77b4; stroke: #1f77b4"/>
     <use xlink:href="#m596e2352f6" x="237.857494" y="167.606035" style="fill: #1f77b4; stroke: #1f77b4"/>
     <use xlink:href="#m596e2352f6" x="267.757719" y="154.015024" style="fill: #1f77b4; stroke: #1f77b4"/>
     <use xlink:href="#m596e2352f6" x="270.475921" y="154.015024" style="fill: #1f77b4; stroke: #1f77b4"/>
     <use xlink:href="#m596e2352f6" x="270.475921" y="151.296822" style="fill: #1f77b4; stroke: #1f77b4"/>
     <use xlink:href="#m596e2352f6" x="278.630528" y="151.296822" style="fill: #1f77b4; stroke: #1f77b4"/>
     <use xlink:href="#m596e2352f6" x="281.34873" y="154.015024" style="fill: #1f77b4; stroke: #1f77b4"/>
     <use xlink:href="#m596e2352f6" x="270.475921" y="178.478844" style="fill: #1f77b4; stroke: #1f77b4"/>
     <use xlink:href="#m596e2352f6" x="254.166708" y="186.633451" style="fill: #1f77b4; stroke: #1f77b4"/>
     <use xlink:href="#m596e2352f6" x="251.448506" y="175.760642" style="fill: #1f77b4; stroke: #1f77b4"/>
     <use xlink:href="#m596e2352f6" x="248.730303" y="192.069855" style="fill: #1f77b4; stroke: #1f77b4"/>
     <use xlink:href="#m596e2352f6" x="246.012101" y="189.351653" style="fill: #1f77b4; stroke: #1f77b4"/>
     <use xlink:href="#m596e2352f6" x="237.857494" y="173.04244" style="fill: #1f77b4; stroke: #1f77b4"/>
     <use xlink:href="#m596e2352f6" x="232.42109" y="181.197046" style="fill: #1f77b4; stroke: #1f77b4"/>
     <use xlink:href="#m596e2352f6" x="226.984685" y="173.04244" style="fill: #1f77b4; stroke: #1f77b4"/>
     <use xlink:href="#m596e2352f6" x="218.830079" y="213.815473" style="fill: #1f77b4; stroke: #1f77b4"/>
     <use xlink:href="#m596e2352f6" x="202.520865" y="202.942664" style="fill: #1f77b4; stroke: #1f77b4"/>
     <use xlink:href="#m596e2352f6" x="199.802663" y="197.50626" style="fill: #1f77b4; stroke: #1f77b4"/>
     <use xlink:href="#m596e2352f6" x="197.084461" y="200.224462" style="fill: #1f77b4; stroke: #1f77b4"/>
     <use xlink:href="#m596e2352f6" x="191.648056" y="194.788058" style="fill: #1f77b4; stroke: #1f77b4"/>
     <use xlink:href="#m596e2352f6" x="180.775247" y="211.097271" style="fill: #1f77b4; stroke: #1f77b4"/>
     <use xlink:href="#m596e2352f6" x="175.338843" y="189.351653" style="fill: #1f77b4; stroke: #1f77b4"/>
     <use xlink:href="#m596e2352f6" x="175.338843" y="194.788058" style="fill: #1f77b4; stroke: #1f77b4"/>
     <use xlink:href="#m596e2352f6" x="161.747831" y="192.069855" style="fill: #1f77b4; stroke: #1f77b4"/>
     <use xlink:href="#m596e2352f6" x="159.029629" y="194.788058" style="fill: #1f77b4; stroke: #1f77b4"/>
     <use xlink:href="#m596e2352f6" x="156.311427" y="202.942664" style="fill: #1f77b4; stroke: #1f77b4"/>
     <use xlink:href="#m596e2352f6" x="131.847607" y="205.660867" style="fill: #1f77b4; stroke: #1f77b4"/>
     <use xlink:href="#m596e2352f6" x="93.792775" y="186.633451" style="fill: #1f77b4; stroke: #1f77b4"/>
     <use xlink:href="#m596e2352f6" x="91.074573" y="189.351653" style="fill: #1f77b4; stroke: #1f77b4"/>
     <use xlink:href="#m596e2352f6" x="93.792775" y="197.50626" style="fill: #1f77b4; stroke: #1f77b4"/>
     <use xlink:href="#m596e2352f6" x="91.074573" y="194.788058" style="fill: #1f77b4; stroke: #1f77b4"/>
     <use xlink:href="#m596e2352f6" x="93.792775" y="211.097271" style="fill: #1f77b4; stroke: #1f77b4"/>
     <use xlink:href="#m596e2352f6" x="85.638169" y="213.815473" style="fill: #1f77b4; stroke: #1f77b4"/>
     <use xlink:href="#m596e2352f6" x="80.201764" y="183.915249" style="fill: #1f77b4; stroke: #1f77b4"/>
     <use xlink:href="#m596e2352f6" x="72.047157" y="181.197046" style="fill: #1f77b4; stroke: #1f77b4"/>
     <use xlink:href="#m596e2352f6" x="69.328955" y="194.788058" style="fill: #1f77b4; stroke: #1f77b4"/>
     <use xlink:href="#m596e2352f6" x="61.174348" y="200.224462" style="fill: #1f77b4; stroke: #1f77b4"/>
     <use xlink:href="#m596e2352f6" x="53.019742" y="192.069855" style="fill: #1f77b4; stroke: #1f77b4"/>
     <use xlink:href="#m596e2352f6" x="39.42873" y="186.633451" style="fill: #1f77b4; stroke: #1f77b4"/>
     <use xlink:href="#m596e2352f6" x="91.074573" y="249.152103" style="fill: #1f77b4; stroke: #1f77b4"/>
     <use xlink:href="#m596e2352f6" x="93.792775" y="254.588507" style="fill: #1f77b4; stroke: #1f77b4"/>
     <use xlink:href="#m596e2352f6" x="112.820191" y="246.4339" style="fill: #1f77b4; stroke: #1f77b4"/>
     <use xlink:href="#m596e2352f6" x="115.538393" y="224.688282" style="fill: #1f77b4; stroke: #1f77b4"/>
     <use xlink:href="#m596e2352f6" x="120.974798" y="221.97008" style="fill: #1f77b4; stroke: #1f77b4"/>
     <use xlink:href="#m596e2352f6" x="140.002213" y="216.533676" style="fill: #1f77b4; stroke: #1f77b4"/>
     <use xlink:href="#m596e2352f6" x="142.720416" y="221.97008" style="fill: #1f77b4; stroke: #1f77b4"/>
     <use xlink:href="#m596e2352f6" x="142.720416" y="221.97008" style="fill: #1f77b4; stroke: #1f77b4"/>
     <use xlink:href="#m596e2352f6" x="148.15682" y="224.688282" style="fill: #1f77b4; stroke: #1f77b4"/>
     <use xlink:href="#m596e2352f6" x="150.875022" y="227.406485" style="fill: #1f77b4; stroke: #1f77b4"/>
     <use xlink:href="#m596e2352f6" x="150.875022" y="249.152103" style="fill: #1f77b4; stroke: #1f77b4"/>
     <use xlink:href="#m596e2352f6" x="164.466034" y="249.152103" style="fill: #1f77b4; stroke: #1f77b4"/>
     <use xlink:href="#m596e2352f6" x="172.62064" y="224.688282" style="fill: #1f77b4; stroke: #1f77b4"/>
     <use xlink:href="#m596e2352f6" x="175.338843" y="221.97008" style="fill: #1f77b4; stroke: #1f77b4"/>
     <use xlink:href="#m596e2352f6" x="188.929854" y="219.251878" style="fill: #1f77b4; stroke: #1f77b4"/>
     <use xlink:href="#m596e2352f6" x="197.084461" y="232.842889" style="fill: #1f77b4; stroke: #1f77b4"/>
     <use xlink:href="#m596e2352f6" x="205.239067" y="227.406485" style="fill: #1f77b4; stroke: #1f77b4"/>
     <use xlink:href="#m596e2352f6" x="207.95727" y="230.124687" style="fill: #1f77b4; stroke: #1f77b4"/>
     <use xlink:href="#m596e2352f6" x="207.95727" y="219.251878" style="fill: #1f77b4; stroke: #1f77b4"/>
     <use xlink:href="#m596e2352f6" x="226.984685" y="224.688282" style="fill: #1f77b4; stroke: #1f77b4"/>
     <use xlink:href="#m596e2352f6" x="169.902438" y="265.461316" style="fill: #1f77b4; stroke: #1f77b4"/>
     <use xlink:href="#m596e2352f6" x="164.466034" y="260.024912" style="fill: #1f77b4; stroke: #1f77b4"/>
     <use xlink:href="#m596e2352f6" x="156.311427" y="254.588507" style="fill: #1f77b4; stroke: #1f77b4"/>
     <use xlink:href="#m596e2352f6" x="123.693" y="270.897721" style="fill: #1f77b4; stroke: #1f77b4"/>
     <use xlink:href="#m596e2352f6" x="118.256596" y="273.615923" style="fill: #1f77b4; stroke: #1f77b4"/>
     <use xlink:href="#m596e2352f6" x="120.974798" y="276.334125" style="fill: #1f77b4; stroke: #1f77b4"/>
     <use xlink:href="#m596e2352f6" x="118.256596" y="270.897721" style="fill: #1f77b4; stroke: #1f77b4"/>
    </g>
   </g>
   <g id="PatchCollection_1">
    <path d="M 66.610753 276.334125 
L 53.019742 252.793803 
L 25.837719 252.793803 
L 12.246708 276.334125 
L 25.837719 299.874447 
L 53.019742 299.874447 
L 66.610753 276.334125 
z
" clip-path="url(#pb8ba398242)" style="fill: none; stroke: #ff0000"/>
    <path d="M 107.383787 252.793803 
L 93.792775 229.253481 
L 66.610753 229.253481 
L 53.019742 252.793803 
L 66.610753 276.334125 
L 93.792775 276.334125 
L 107.383787 252.793803 
z
" clip-path="url(#pb8ba398242)" style="fill: none; stroke: #ff0000"/>
    <path d="M 148.15682 276.334125 
L 134.565809 252.793803 
L 107.383787 252.793803 
L 93.792775 276.334125 
L 107.383787 299.874447 
L 134.565809 299.874447 
L 148.15682 276.334125 
z
" clip-path="url(#pb8ba398242)" style="fill: none; stroke: #ff0000"/>
    <path d="M 188.929854 252.793803 
L 175.338843 229.253481 
L 148.15682 229.253481 
L 134.565809 252.793803 
L 148.15682 276.334125 
L 175.338843 276.334125 
L 188.929854 252.793803 
z
" clip-path="url(#pb8ba398242)" style="fill: none; stroke: #ff0000"/>
    <path d="M 229.702888 276.334125 
L 216.111876 252.793803 
L 188.929854 252.793803 
L 175.338843 276.334125 
L 188.929854 299.874447 
L 216.111876 299.874447 
L 229.702888 276.334125 
z
" clip-path="url(#pb8ba398242)" style="fill: none; stroke: #ff0000"/>
    <path d="M 270.475921 252.793803 
L 256.88491 229.253481 
L 229.702888 229.253481 
L 216.111876 252.793803 
L 229.702888 276.334125 
L 256.88491 276.334125 
L 270.475921 252.793803 
z
" clip-path="url(#pb8ba398242)" style="fill: none; stroke: #ff0000"/>
    <path d="M 310.207067 274.529523 
L 297.657944 252.793803 
L 270.475921 252.793803 
L 256.88491 276.334125 
L 270.475921 299.874447 
L 297.657944 299.874447 
L 310.207067 278.138727 
" clip-path="url(#pb8ba398242)" style="fill: none; stroke: #ff0000"/>
    <path d="M 66.610753 229.253481 
L 53.019742 205.713159 
L 25.837719 205.713159 
L 12.246708 229.253481 
L 25.837719 252.793803 
L 53.019742 252.793803 
L 66.610753 229.253481 
z
" clip-path="url(#pb8ba398242)" style="fill: none; stroke: #ff0000"/>
    <path d="M 107.383787 205.713159 
L 93.792775 182.172837 
L 66.610753 182.172837 
L 53.019742 205.713159 
L 66.610753 229.253481 
L 93.792775 229.253481 
L 107.383787 205.713159 
z
" clip-path="url(#pb8ba398242)" style="fill: none; stroke: #ff0000"/>
    <path d="M 148.15682 229.253481 
L 134.565809 205.713159 
L 107.383787 205.713159 
L 93.792775 229.253481 
L 107.383787 252.793803 
L 134.565809 252.793803 
L 148.15682 229.253481 
z
" clip-path="url(#pb8ba398242)" style="fill: none; stroke: #ff0000"/>
    <path d="M 188.929854 205.713159 
L 175.338843 182.172837 
L 148.15682 182.172837 
L 134.565809 205.713159 
L 148.15682 229.253481 
L 175.338843 229.253481 
L 188.929854 205.713159 
z
" clip-path="url(#pb8ba398242)" style="fill: none; stroke: #ff0000"/>
    <path d="M 229.702888 229.253481 
L 216.111876 205.713159 
L 188.929854 205.713159 
L 175.338843 229.253481 
L 188.929854 252.793803 
L 216.111876 252.793803 
L 229.702888 229.253481 
z
" clip-path="url(#pb8ba398242)" style="fill: none; stroke: #ff0000"/>
    <path d="M 270.475921 205.713159 
L 256.88491 182.172837 
L 229.702888 182.172837 
L 216.111876 205.713159 
L 229.702888 229.253481 
L 256.88491 229.253481 
L 270.475921 205.713159 
z
" clip-path="url(#pb8ba398242)" style="fill: none; stroke: #ff0000"/>
    <path d="M 310.207067 227.448879 
L 297.657944 205.713159 
L 270.475921 205.713159 
L 256.88491 229.253481 
L 270.475921 252.793803 
L 297.657944 252.793803 
L 310.207067 231.058083 
" clip-path="url(#pb8ba398242)" style="fill: none; stroke: #ff0000"/>
    <path d="M 66.610753 182.172837 
L 53.019742 158.632515 
L 25.837719 158.632515 
L 12.246708 182.172837 
L 25.837719 205.713159 
L 53.019742 205.713159 
L 66.610753 182.172837 
z
" clip-path="url(#pb8ba398242)" style="fill: none; stroke: #ff0000"/>
    <path d="M 107.383787 158.632515 
L 93.792775 135.092193 
L 66.610753 135.092193 
L 53.019742 158.632515 
L 66.610753 182.172837 
L 93.792775 182.172837 
L 107.383787 158.632515 
z
" clip-path="url(#pb8ba398242)" style="fill: none; stroke: #ff0000"/>
    <path d="M 148.15682 182.172837 
L 134.565809 158.632515 
L 107.383787 158.632515 
L 93.792775 182.172837 
L 107.383787 205.713159 
L 134.565809 205.713159 
L 148.15682 182.172837 
z
" clip-path="url(#pb8ba398242)" style="fill: none; stroke: #ff0000"/>
    <path d="M 188.929854 158.632515 
L 175.338843 135.092193 
L 148.15682 135.092193 
L 134.565809 158.632515 
L 148.15682 182.172837 
L 175.338843 182.172837 
L 188.929854 158.632515 
z
" clip-path="url(#pb8ba398242)" style="fill: none; stroke: #ff0000"/>
    <path d="M 229.702888 182.172837 
L 216.111876 158.632515 
L 188.929854 158.632515 
L 175.338843 182.172837 
L 188.929854 205.713159 
L 216.111876 205.713159 
L 229.702888 182.172837 
z
" clip-path="url(#pb8ba398242)" style="fill: none; stroke: #ff0000"/>
    <path d="M 270.475921 158.632515 
L 256.88491 135.092193 
L 229.702888 135.092193 
L 216.111876 158.632515 
L 229.702888 182.172837 
L 256.88491 182.172837 
L 270.475921 158.632515 
z
" clip-path="url(#pb8ba398242)" style="fill: none; stroke: #ff0000"/>
    <path d="M 310.207067 180.368235 
L 297.657944 158.632515 
L 270.475921 158.632515 
L 256.88491 182.172837 
L 270.475921 205.713159 
L 297.657944 205.713159 
L 310.207067 183.977439 
" clip-path="url(#pb8ba398242)" style="fill: none; stroke: #ff0000"/>
    <path d="M 66.610753 135.092193 
L 53.019742 111.551871 
L 25.837719 111.551871 
L 12.246708 135.092193 
L 25.837719 158.632515 
L 53.019742 158.632515 
L 66.610753 135.092193 
z
" clip-path="url(#pb8ba398242)" style="fill: none; stroke: #ff0000"/>
    <path d="M 107.383787 111.551871 
L 93.792775 88.011549 
L 66.610753 88.011549 
L 53.019742 111.551871 
L 66.610753 135.092193 
L 93.792775 135.092193 
L 107.383787 111.551871 
z
" clip-path="url(#pb8ba398242)" style="fill: none; stroke: #ff0000"/>
    <path d="M 148.15682 135.092193 
L 134.565809 111.551871 
L 107.383787 111.551871 
L 93.792775 135.092193 
L 107.383787 158.632515 
L 134.565809 158.632515 
L 148.15682 135.092193 
z
" clip-path="url(#pb8ba398242)" style="fill: none; stroke: #ff0000"/>
    <path d="M 188.929854 111.551871 
L 175.338843 88.011549 
L 148.15682 88.011549 
L 134.565809 111.551871 
L 148.15682 135.092193 
L 175.338843 135.092193 
L 188.929854 111.551871 
z
" clip-path="url(#pb8ba398242)" style="fill: none; stroke: #ff0000"/>
    <path d="M 229.702888 135.092193 
L 216.111876 111.551871 
L 188.929854 111.551871 
L 175.338843 135.092193 
L 188.929854 158.632515 
L 216.111876 158.632515 
L 229.702888 135.092193 
z
" clip-path="url(#pb8ba398242)" style="fill: none; stroke: #ff0000"/>
    <path d="M 270.475921 111.551871 
L 256.88491 88.011549 
L 229.702888 88.011549 
L 216.111876 111.551871 
L 229.702888 135.092193 
L 256.88491 135.092193 
L 270.475921 111.551871 
z
" clip-path="url(#pb8ba398242)" style="fill: none; stroke: #ff0000"/>
    <path d="M 310.207067 133.287591 
L 297.657944 111.551871 
L 270.475921 111.551871 
L 256.88491 135.092193 
L 270.475921 158.632515 
L 297.657944 158.632515 
L 310.207067 136.896795 
" clip-path="url(#pb8ba398242)" style="fill: none; stroke: #ff0000"/>
    <path d="M 66.610753 88.011549 
L 53.019742 64.471227 
L 25.837719 64.471227 
L 12.246708 88.011549 
L 25.837719 111.551871 
L 53.019742 111.551871 
L 66.610753 88.011549 
z
" clip-path="url(#pb8ba398242)" style="fill: none; stroke: #ff0000"/>
    <path d="M 107.383787 64.471227 
L 93.792775 40.930905 
L 66.610753 40.930905 
L 53.019742 64.471227 
L 66.610753 88.011549 
L 93.792775 88.011549 
L 107.383787 64.471227 
z
" clip-path="url(#pb8ba398242)" style="fill: none; stroke: #ff0000"/>
    <path d="M 148.15682 88.011549 
L 134.565809 64.471227 
L 107.383787 64.471227 
L 93.792775 88.011549 
L 107.383787 111.551871 
L 134.565809 111.551871 
L 148.15682 88.011549 
z
" clip-path="url(#pb8ba398242)" style="fill: none; stroke: #ff0000"/>
    <path d="M 188.929854 64.471227 
L 175.338843 40.930905 
L 148.15682 40.930905 
L 134.565809 64.471227 
L 148.15682 88.011549 
L 175.338843 88.011549 
L 188.929854 64.471227 
z
" clip-path="url(#pb8ba398242)" style="fill: none; stroke: #ff0000"/>
    <path d="M 229.702888 88.011549 
L 216.111876 64.471227 
L 188.929854 64.471227 
L 175.338843 88.011549 
L 188.929854 111.551871 
L 216.111876 111.551871 
L 229.702888 88.011549 
z
" clip-path="url(#pb8ba398242)" style="fill: none; stroke: #ff0000"/>
    <path d="M 270.475921 64.471227 
L 256.88491 40.930905 
L 229.702888 40.930905 
L 216.111876 64.471227 
L 229.702888 88.011549 
L 256.88491 88.011549 
L 270.475921 64.471227 
z
" clip-path="url(#pb8ba398242)" style="fill: none; stroke: #ff0000"/>
    <path d="M 310.207067 86.206947 
L 297.657944 64.471227 
L 270.475921 64.471227 
L 256.88491 88.011549 
L 270.475921 111.551871 
L 297.657944 111.551871 
L 310.207067 89.816151 
" clip-path="url(#pb8ba398242)" style="fill: none; stroke: #ff0000"/>
    <path d="M 66.610753 40.930905 
L 53.019742 17.390583 
L 25.837719 17.390583 
L 12.246708 40.930905 
L 25.837719 64.471227 
L 53.019742 64.471227 
L 66.610753 40.930905 
z
" clip-path="url(#pb8ba398242)" style="fill: none; stroke: #ff0000"/>
    <path d="M 107.383787 17.390583 
L 96.765978 -1 
M 63.63755 -1 
L 53.019742 17.390583 
L 66.610753 40.930905 
L 93.792775 40.930905 
L 107.383787 17.390583 
" clip-path="url(#pb8ba398242)" style="fill: none; stroke: #ff0000"/>
    <path d="M 148.15682 40.930905 
L 134.565809 17.390583 
L 107.383787 17.390583 
L 93.792775 40.930905 
L 107.383787 64.471227 
L 134.565809 64.471227 
L 148.15682 40.930905 
z
" clip-path="url(#pb8ba398242)" style="fill: none; stroke: #ff0000"/>
    <path d="M 188.929854 17.390583 
L 178.312046 -1 
M 145.183617 -1 
L 134.565809 17.390583 
L 148.15682 40.930905 
L 175.338843 40.930905 
L 188.929854 17.390583 
" clip-path="url(#pb8ba398242)" style="fill: none; stroke: #ff0000"/>
    <path d="M 229.702888 40.930905 
L 216.111876 17.390583 
L 188.929854 17.390583 
L 175.338843 40.930905 
L 188.929854 64.471227 
L 216.111876 64.471227 
L 229.702888 40.930905 
z
" clip-path="url(#pb8ba398242)" style="fill: none; stroke: #ff0000"/>
    <path d="M 270.475921 17.390583 
L 259.858113 -1 
M 226.729685 -1 
L 216.111876 17.390583 
L 229.702888 40.930905 
L 256.88491 40.930905 
L 270.475921 17.390583 
" clip-path="url(#pb8ba398242)" style="fill: none; stroke: #ff0000"/>
    <path d="M 310.207067 39.126303 
L 297.657944 17.390583 
L 270.475921 17.390583 
L 256.88491 40.930905 
L 270.475921 64.471227 
L 297.657944 64.471227 
L 310.207067 42.735507 
" clip-path="url(#pb8ba398242)" style="fill: none; stroke: #ff0000"/>
   </g>
   <g id="matplotlib.axis_1">
    <g id="xtick_1">
     <g id="line2d_1">
      <defs>
       <path id="m44deed91ed" d="M 0 0 
L 0 3.5 
" style="stroke: #000000; stroke-width: 0.8"/>
      </defs>
      <g>
       <use xlink:href="#m44deed91ed" x="33.992326" y="288.430125" style="stroke: #000000; stroke-width: 0.8"/>
      </g>
     </g>
     <g id="text_1">
      <!-- 0 -->
      <g transform="translate(30.811076 303.028562) scale(0.1 -0.1)">
       <defs>
        <path id="DejaVuSans-30" d="M 2034 4250 
Q 1547 4250 1301 3770 
Q 1056 3291 1056 2328 
Q 1056 1369 1301 889 
Q 1547 409 2034 409 
Q 2525 409 2770 889 
Q 3016 1369 3016 2328 
Q 3016 3291 2770 3770 
Q 2525 4250 2034 4250 
z
M 2034 4750 
Q 2819 4750 3233 4129 
Q 3647 3509 3647 2328 
Q 3647 1150 3233 529 
Q 2819 -91 2034 -91 
Q 1250 -91 836 529 
Q 422 1150 422 2328 
Q 422 3509 836 4129 
Q 1250 4750 2034 4750 
z
" transform="scale(0.015625)"/>
       </defs>
       <use xlink:href="#DejaVuSans-30"/>
      </g>
     </g>
    </g>
    <g id="xtick_2">
     <g id="line2d_2">
      <g>
       <use xlink:href="#m44deed91ed" x="88.356371" y="288.430125" style="stroke: #000000; stroke-width: 0.8"/>
      </g>
     </g>
     <g id="text_2">
      <!-- 20 -->
      <g transform="translate(81.993871 303.028562) scale(0.1 -0.1)">
       <defs>
        <path id="DejaVuSans-32" d="M 1228 531 
L 3431 531 
L 3431 0 
L 469 0 
L 469 531 
Q 828 903 1448 1529 
Q 2069 2156 2228 2338 
Q 2531 2678 2651 2914 
Q 2772 3150 2772 3378 
Q 2772 3750 2511 3984 
Q 2250 4219 1831 4219 
Q 1534 4219 1204 4116 
Q 875 4013 500 3803 
L 500 4441 
Q 881 4594 1212 4672 
Q 1544 4750 1819 4750 
Q 2544 4750 2975 4387 
Q 3406 4025 3406 3419 
Q 3406 3131 3298 2873 
Q 3191 2616 2906 2266 
Q 2828 2175 2409 1742 
Q 1991 1309 1228 531 
z
" transform="scale(0.015625)"/>
       </defs>
       <use xlink:href="#DejaVuSans-32"/>
       <use xlink:href="#DejaVuSans-30" transform="translate(63.623047 0)"/>
      </g>
     </g>
    </g>
    <g id="xtick_3">
     <g id="line2d_3">
      <g>
       <use xlink:href="#m44deed91ed" x="142.720416" y="288.430125" style="stroke: #000000; stroke-width: 0.8"/>
      </g>
     </g>
     <g id="text_3">
      <!-- 40 -->
      <g transform="translate(136.357916 303.028562) scale(0.1 -0.1)">
       <defs>
        <path id="DejaVuSans-34" d="M 2419 4116 
L 825 1625 
L 2419 1625 
L 2419 4116 
z
M 2253 4666 
L 3047 4666 
L 3047 1625 
L 3713 1625 
L 3713 1100 
L 3047 1100 
L 3047 0 
L 2419 0 
L 2419 1100 
L 313 1100 
L 313 1709 
L 2253 4666 
z
" transform="scale(0.015625)"/>
       </defs>
       <use xlink:href="#DejaVuSans-34"/>
       <use xlink:href="#DejaVuSans-30" transform="translate(63.623047 0)"/>
      </g>
     </g>
    </g>
    <g id="xtick_4">
     <g id="line2d_4">
      <g>
       <use xlink:href="#m44deed91ed" x="197.084461" y="288.430125" style="stroke: #000000; stroke-width: 0.8"/>
      </g>
     </g>
     <g id="text_4">
      <!-- 60 -->
      <g transform="translate(190.721961 303.028562) scale(0.1 -0.1)">
       <defs>
        <path id="DejaVuSans-36" d="M 2113 2584 
Q 1688 2584 1439 2293 
Q 1191 2003 1191 1497 
Q 1191 994 1439 701 
Q 1688 409 2113 409 
Q 2538 409 2786 701 
Q 3034 994 3034 1497 
Q 3034 2003 2786 2293 
Q 2538 2584 2113 2584 
z
M 3366 4563 
L 3366 3988 
Q 3128 4100 2886 4159 
Q 2644 4219 2406 4219 
Q 1781 4219 1451 3797 
Q 1122 3375 1075 2522 
Q 1259 2794 1537 2939 
Q 1816 3084 2150 3084 
Q 2853 3084 3261 2657 
Q 3669 2231 3669 1497 
Q 3669 778 3244 343 
Q 2819 -91 2113 -91 
Q 1303 -91 875 529 
Q 447 1150 447 2328 
Q 447 3434 972 4092 
Q 1497 4750 2381 4750 
Q 2619 4750 2861 4703 
Q 3103 4656 3366 4563 
z
" transform="scale(0.015625)"/>
       </defs>
       <use xlink:href="#DejaVuSans-36"/>
       <use xlink:href="#DejaVuSans-30" transform="translate(63.623047 0)"/>
      </g>
     </g>
    </g>
    <g id="xtick_5">
     <g id="line2d_5">
      <g>
       <use xlink:href="#m44deed91ed" x="251.448506" y="288.430125" style="stroke: #000000; stroke-width: 0.8"/>
      </g>
     </g>
     <g id="text_5">
      <!-- 80 -->
      <g transform="translate(245.086006 303.028562) scale(0.1 -0.1)">
       <defs>
        <path id="DejaVuSans-38" d="M 2034 2216 
Q 1584 2216 1326 1975 
Q 1069 1734 1069 1313 
Q 1069 891 1326 650 
Q 1584 409 2034 409 
Q 2484 409 2743 651 
Q 3003 894 3003 1313 
Q 3003 1734 2745 1975 
Q 2488 2216 2034 2216 
z
M 1403 2484 
Q 997 2584 770 2862 
Q 544 3141 544 3541 
Q 544 4100 942 4425 
Q 1341 4750 2034 4750 
Q 2731 4750 3128 4425 
Q 3525 4100 3525 3541 
Q 3525 3141 3298 2862 
Q 3072 2584 2669 2484 
Q 3125 2378 3379 2068 
Q 3634 1759 3634 1313 
Q 3634 634 3220 271 
Q 2806 -91 2034 -91 
Q 1263 -91 848 271 
Q 434 634 434 1313 
Q 434 1759 690 2068 
Q 947 2378 1403 2484 
z
M 1172 3481 
Q 1172 3119 1398 2916 
Q 1625 2713 2034 2713 
Q 2441 2713 2670 2916 
Q 2900 3119 2900 3481 
Q 2900 3844 2670 4047 
Q 2441 4250 2034 4250 
Q 1625 4250 1398 4047 
Q 1172 3844 1172 3481 
z
" transform="scale(0.015625)"/>
       </defs>
       <use xlink:href="#DejaVuSans-38"/>
       <use xlink:href="#DejaVuSans-30" transform="translate(63.623047 0)"/>
      </g>
     </g>
    </g>
   </g>
   <g id="matplotlib.axis_2">
    <g id="ytick_1">
     <g id="line2d_6">
      <defs>
       <path id="m41a9802b99" d="M 0 0 
L -3.5 0 
" style="stroke: #000000; stroke-width: 0.8"/>
      </defs>
      <g>
       <use xlink:href="#m41a9802b99" x="26.925" y="238.279294" style="stroke: #000000; stroke-width: 0.8"/>
      </g>
     </g>
     <g id="text_6">
      <!-- 20 -->
      <g transform="translate(7.2 242.078512) scale(0.1 -0.1)">
       <use xlink:href="#DejaVuSans-32"/>
       <use xlink:href="#DejaVuSans-30" transform="translate(63.623047 0)"/>
      </g>
     </g>
    </g>
    <g id="ytick_2">
     <g id="line2d_7">
      <g>
       <use xlink:href="#m41a9802b99" x="26.925" y="183.915249" style="stroke: #000000; stroke-width: 0.8"/>
      </g>
     </g>
     <g id="text_7">
      <!-- 40 -->
      <g transform="translate(7.2 187.714467) scale(0.1 -0.1)">
       <use xlink:href="#DejaVuSans-34"/>
       <use xlink:href="#DejaVuSans-30" transform="translate(63.623047 0)"/>
      </g>
     </g>
    </g>
    <g id="ytick_3">
     <g id="line2d_8">
      <g>
       <use xlink:href="#m41a9802b99" x="26.925" y="129.551204" style="stroke: #000000; stroke-width: 0.8"/>
      </g>
     </g>
     <g id="text_8">
      <!-- 60 -->
      <g transform="translate(7.2 133.350422) scale(0.1 -0.1)">
       <use xlink:href="#DejaVuSans-36"/>
       <use xlink:href="#DejaVuSans-30" transform="translate(63.623047 0)"/>
      </g>
     </g>
    </g>
    <g id="ytick_4">
     <g id="line2d_9">
      <g>
       <use xlink:href="#m41a9802b99" x="26.925" y="75.187159" style="stroke: #000000; stroke-width: 0.8"/>
      </g>
     </g>
     <g id="text_9">
      <!-- 80 -->
      <g transform="translate(7.2 78.986377) scale(0.1 -0.1)">
       <use xlink:href="#DejaVuSans-38"/>
       <use xlink:href="#DejaVuSans-30" transform="translate(63.623047 0)"/>
      </g>
     </g>
    </g>
   </g>
   <g id="line2d_10">
    <path d="M 289.503337 276.334125 
L 289.503337 34.414125 
L 39.42873 34.414125 
L 39.42873 276.334125 
L 289.503337 276.334125 
" clip-path="url(#pb8ba398242)" style="fill: none; stroke: #1f77b4; stroke-width: 1.5; stroke-linecap: square"/>
   </g>
   <g id="patch_3">
    <path d="M 26.925 288.430125 
L 26.925 22.318125 
" style="fill: none; stroke: #000000; stroke-width: 0.8; stroke-linejoin: miter; stroke-linecap: square"/>
   </g>
   <g id="patch_4">
    <path d="M 302.007067 288.430125 
L 302.007067 22.318125 
" style="fill: none; stroke: #000000; stroke-width: 0.8; stroke-linejoin: miter; stroke-linecap: square"/>
   </g>
   <g id="patch_5">
    <path d="M 26.925 288.430125 
L 302.007067 288.430125 
" style="fill: none; stroke: #000000; stroke-width: 0.8; stroke-linejoin: miter; stroke-linecap: square"/>
   </g>
   <g id="patch_6">
    <path d="M 26.925 22.318125 
L 302.007067 22.318125 
" style="fill: none; stroke: #000000; stroke-width: 0.8; stroke-linejoin: miter; stroke-linecap: square"/>
   </g>
   <g id="text_10">
    <!-- 0 -->
    <g transform="translate(36.24748 279.0935) scale(0.1 -0.1)">
     <use xlink:href="#DejaVuSans-30"/>
    </g>
   </g>
   <g id="text_11">
    <!-- 2 -->
    <g transform="translate(77.020514 255.553178) scale(0.1 -0.1)">
     <use xlink:href="#DejaVuSans-32"/>
    </g>
   </g>
   <g id="text_12">
    <!-- 4 -->
    <g transform="translate(117.793548 279.0935) scale(0.1 -0.1)">
     <use xlink:href="#DejaVuSans-34"/>
    </g>
   </g>
   <g id="text_13">
    <!-- 5 -->
    <g transform="translate(158.566581 255.553178) scale(0.1 -0.1)">
     <defs>
      <path id="DejaVuSans-35" d="M 691 4666 
L 3169 4666 
L 3169 4134 
L 1269 4134 
L 1269 2991 
Q 1406 3038 1543 3061 
Q 1681 3084 1819 3084 
Q 2600 3084 3056 2656 
Q 3513 2228 3513 1497 
Q 3513 744 3044 326 
Q 2575 -91 1722 -91 
Q 1428 -91 1123 -41 
Q 819 9 494 109 
L 494 744 
Q 775 591 1075 516 
Q 1375 441 1709 441 
Q 2250 441 2565 725 
Q 2881 1009 2881 1497 
Q 2881 1984 2565 2268 
Q 2250 2553 1709 2553 
Q 1456 2553 1204 2497 
Q 953 2441 691 2322 
L 691 4666 
z
" transform="scale(0.015625)"/>
     </defs>
     <use xlink:href="#DejaVuSans-35"/>
    </g>
   </g>
   <g id="text_14">
    <!-- 0 -->
    <g transform="translate(199.339615 279.0935) scale(0.1 -0.1)">
     <use xlink:href="#DejaVuSans-30"/>
    </g>
   </g>
   <g id="text_15">
    <!-- 0 -->
    <g transform="translate(240.112649 255.553178) scale(0.1 -0.1)">
     <use xlink:href="#DejaVuSans-30"/>
    </g>
   </g>
   <g id="text_16">
    <!-- 0 -->
    <g transform="translate(280.885683 279.0935) scale(0.1 -0.1)">
     <use xlink:href="#DejaVuSans-30"/>
    </g>
   </g>
   <g id="text_17">
    <!-- 0 -->
    <g transform="translate(36.24748 232.012856) scale(0.1 -0.1)">
     <use xlink:href="#DejaVuSans-30"/>
    </g>
   </g>
   <g id="text_18">
    <!-- 9 -->
    <g transform="translate(77.020514 208.472534) scale(0.1 -0.1)">
     <defs>
      <path id="DejaVuSans-39" d="M 703 97 
L 703 672 
Q 941 559 1184 500 
Q 1428 441 1663 441 
Q 2288 441 2617 861 
Q 2947 1281 2994 2138 
Q 2813 1869 2534 1725 
Q 2256 1581 1919 1581 
Q 1219 1581 811 2004 
Q 403 2428 403 3163 
Q 403 3881 828 4315 
Q 1253 4750 1959 4750 
Q 2769 4750 3195 4129 
Q 3622 3509 3622 2328 
Q 3622 1225 3098 567 
Q 2575 -91 1691 -91 
Q 1453 -91 1209 -44 
Q 966 3 703 97 
z
M 1959 2075 
Q 2384 2075 2632 2365 
Q 2881 2656 2881 3163 
Q 2881 3666 2632 3958 
Q 2384 4250 1959 4250 
Q 1534 4250 1286 3958 
Q 1038 3666 1038 3163 
Q 1038 2656 1286 2365 
Q 1534 2075 1959 2075 
z
" transform="scale(0.015625)"/>
     </defs>
     <use xlink:href="#DejaVuSans-39"/>
    </g>
   </g>
   <g id="text_19">
    <!-- 6 -->
    <g transform="translate(117.793548 232.012856) scale(0.1 -0.1)">
     <use xlink:href="#DejaVuSans-36"/>
    </g>
   </g>
   <g id="text_20">
    <!-- 10 -->
    <g transform="translate(155.385331 208.472534) scale(0.1 -0.1)">
     <defs>
      <path id="DejaVuSans-31" d="M 794 531 
L 1825 531 
L 1825 4091 
L 703 3866 
L 703 4441 
L 1819 4666 
L 2450 4666 
L 2450 531 
L 3481 531 
L 3481 0 
L 794 0 
L 794 531 
z
" transform="scale(0.015625)"/>
     </defs>
     <use xlink:href="#DejaVuSans-31"/>
     <use xlink:href="#DejaVuSans-30" transform="translate(63.623047 0)"/>
    </g>
   </g>
   <g id="text_21">
    <!-- 7 -->
    <g transform="translate(199.339615 232.012856) scale(0.1 -0.1)">
     <defs>
      <path id="DejaVuSans-37" d="M 525 4666 
L 3525 4666 
L 3525 4397 
L 1831 0 
L 1172 0 
L 2766 4134 
L 525 4134 
L 525 4666 
z
" transform="scale(0.015625)"/>
     </defs>
     <use xlink:href="#DejaVuSans-37"/>
    </g>
   </g>
   <g id="text_22">
    <!-- 3 -->
    <g transform="translate(240.112649 208.472534) scale(0.1 -0.1)">
     <defs>
      <path id="DejaVuSans-33" d="M 2597 2516 
Q 3050 2419 3304 2112 
Q 3559 1806 3559 1356 
Q 3559 666 3084 287 
Q 2609 -91 1734 -91 
Q 1441 -91 1130 -33 
Q 819 25 488 141 
L 488 750 
Q 750 597 1062 519 
Q 1375 441 1716 441 
Q 2309 441 2620 675 
Q 2931 909 2931 1356 
Q 2931 1769 2642 2001 
Q 2353 2234 1838 2234 
L 1294 2234 
L 1294 2753 
L 1863 2753 
Q 2328 2753 2575 2939 
Q 2822 3125 2822 3475 
Q 2822 3834 2567 4026 
Q 2313 4219 1838 4219 
Q 1578 4219 1281 4162 
Q 984 4106 628 3988 
L 628 4550 
Q 988 4650 1302 4700 
Q 1616 4750 1894 4750 
Q 2613 4750 3031 4423 
Q 3450 4097 3450 3541 
Q 3450 3153 3228 2886 
Q 3006 2619 2597 2516 
z
" transform="scale(0.015625)"/>
     </defs>
     <use xlink:href="#DejaVuSans-33"/>
    </g>
   </g>
   <g id="text_23">
    <!-- 0 -->
    <g transform="translate(280.885683 232.012856) scale(0.1 -0.1)">
     <use xlink:href="#DejaVuSans-30"/>
    </g>
   </g>
   <g id="text_24">
    <!-- 2 -->
    <g transform="translate(36.24748 184.932212) scale(0.1 -0.1)">
     <use xlink:href="#DejaVuSans-32"/>
    </g>
   </g>
   <g id="text_25">
    <!-- 2 -->
    <g transform="translate(77.020514 161.39189) scale(0.1 -0.1)">
     <use xlink:href="#DejaVuSans-32"/>
    </g>
   </g>
   <g id="text_26">
    <!-- 3 -->
    <g transform="translate(117.793548 184.932212) scale(0.1 -0.1)">
     <use xlink:href="#DejaVuSans-33"/>
    </g>
   </g>
   <g id="text_27">
    <!-- 7 -->
    <g transform="translate(158.566581 161.39189) scale(0.1 -0.1)">
     <use xlink:href="#DejaVuSans-37"/>
    </g>
   </g>
   <g id="text_28">
    <!-- 4 -->
    <g transform="translate(199.339615 184.932212) scale(0.1 -0.1)">
     <use xlink:href="#DejaVuSans-34"/>
    </g>
   </g>
   <g id="text_29">
    <!-- 13 -->
    <g transform="translate(236.931399 161.39189) scale(0.1 -0.1)">
     <use xlink:href="#DejaVuSans-31"/>
     <use xlink:href="#DejaVuSans-33" transform="translate(63.623047 0)"/>
    </g>
   </g>
   <g id="text_30">
    <!-- 1 -->
    <g transform="translate(280.885683 184.932212) scale(0.1 -0.1)">
     <use xlink:href="#DejaVuSans-31"/>
    </g>
   </g>
   <g id="text_31">
    <!-- 1 -->
    <g transform="translate(36.24748 137.851568) scale(0.1 -0.1)">
     <use xlink:href="#DejaVuSans-31"/>
    </g>
   </g>
   <g id="text_32">
    <!-- 1 -->
    <g transform="translate(77.020514 114.311246) scale(0.1 -0.1)">
     <use xlink:href="#DejaVuSans-31"/>
    </g>
   </g>
   <g id="text_33">
    <!-- 4 -->
    <g transform="translate(117.793548 137.851568) scale(0.1 -0.1)">
     <use xlink:href="#DejaVuSans-34"/>
    </g>
   </g>
   <g id="text_34">
    <!-- 11 -->
    <g transform="translate(155.385331 114.311246) scale(0.1 -0.1)">
     <use xlink:href="#DejaVuSans-31"/>
     <use xlink:href="#DejaVuSans-31" transform="translate(63.623047 0)"/>
    </g>
   </g>
   <g id="text_35">
    <!-- 3 -->
    <g transform="translate(199.339615 137.851568) scale(0.1 -0.1)">
     <use xlink:href="#DejaVuSans-33"/>
    </g>
   </g>
   <g id="text_36">
    <!-- 0 -->
    <g transform="translate(240.112649 114.311246) scale(0.1 -0.1)">
     <use xlink:href="#DejaVuSans-30"/>
    </g>
   </g>
   <g id="text_37">
    <!-- 4 -->
    <g transform="translate(280.885683 137.851568) scale(0.1 -0.1)">
     <use xlink:href="#DejaVuSans-34"/>
    </g>
   </g>
   <g id="text_38">
    <!-- 0 -->
    <g transform="translate(36.24748 90.770924) scale(0.1 -0.1)">
     <use xlink:href="#DejaVuSans-30"/>
    </g>
   </g>
   <g id="text_39">
    <!-- 5 -->
    <g transform="translate(77.020514 67.230602) scale(0.1 -0.1)">
     <use xlink:href="#DejaVuSans-35"/>
    </g>
   </g>
   <g id="text_40">
    <!-- 15 -->
    <g transform="translate(114.612298 90.770924) scale(0.1 -0.1)">
     <use xlink:href="#DejaVuSans-31"/>
     <use xlink:href="#DejaVuSans-35" transform="translate(63.623047 0)"/>
    </g>
   </g>
   <g id="text_41">
    <!-- 15 -->
    <g transform="translate(155.385331 67.230602) scale(0.1 -0.1)">
     <use xlink:href="#DejaVuSans-31"/>
     <use xlink:href="#DejaVuSans-35" transform="translate(63.623047 0)"/>
    </g>
   </g>
   <g id="text_42">
    <!-- 3 -->
    <g transform="translate(199.339615 90.770924) scale(0.1 -0.1)">
     <use xlink:href="#DejaVuSans-33"/>
    </g>
   </g>
   <g id="text_43">
    <!-- 10 -->
    <g transform="translate(236.931399 67.230602) scale(0.1 -0.1)">
     <use xlink:href="#DejaVuSans-31"/>
     <use xlink:href="#DejaVuSans-30" transform="translate(63.623047 0)"/>
    </g>
   </g>
   <g id="text_44">
    <!-- 0 -->
    <g transform="translate(280.885683 90.770924) scale(0.1 -0.1)">
     <use xlink:href="#DejaVuSans-30"/>
    </g>
   </g>
   <g id="text_45">
    <!-- 0 -->
    <g transform="translate(36.24748 43.69028) scale(0.1 -0.1)">
     <use xlink:href="#DejaVuSans-30"/>
    </g>
   </g>
   <g id="text_46">
    <!-- 0 -->
    <g transform="translate(77.020514 20.149958) scale(0.1 -0.1)">
     <use xlink:href="#DejaVuSans-30"/>
    </g>
   </g>
   <g id="text_47">
    <!-- 9 -->
    <g transform="translate(117.793548 43.69028) scale(0.1 -0.1)">
     <use xlink:href="#DejaVuSans-39"/>
    </g>
   </g>
   <g id="text_48">
    <!-- 0 -->
    <g transform="translate(158.566581 20.149958) scale(0.1 -0.1)">
     <use xlink:href="#DejaVuSans-30"/>
    </g>
   </g>
   <g id="text_49">
    <!-- 7 -->
    <g transform="translate(199.339615 43.69028) scale(0.1 -0.1)">
     <use xlink:href="#DejaVuSans-37"/>
    </g>
   </g>
   <g id="text_50">
    <!-- 1 -->
    <g transform="translate(240.112649 20.149958) scale(0.1 -0.1)">
     <use xlink:href="#DejaVuSans-31"/>
    </g>
   </g>
   <g id="text_51">
    <!-- 1 -->
    <g transform="translate(280.885683 43.69028) scale(0.1 -0.1)">
     <use xlink:href="#DejaVuSans-31"/>
    </g>
   </g>
   <g id="text_52">
    <!-- Quadrat Count -->
    <g transform="translate(120.233846 16.318125) scale(0.12 -0.12)">
     <defs>
      <path id="DejaVuSans-51" d="M 2522 4238 
Q 1834 4238 1429 3725 
Q 1025 3213 1025 2328 
Q 1025 1447 1429 934 
Q 1834 422 2522 422 
Q 3209 422 3611 934 
Q 4013 1447 4013 2328 
Q 4013 3213 3611 3725 
Q 3209 4238 2522 4238 
z
M 3406 84 
L 4238 -825 
L 3475 -825 
L 2784 -78 
Q 2681 -84 2626 -87 
Q 2572 -91 2522 -91 
Q 1538 -91 948 567 
Q 359 1225 359 2328 
Q 359 3434 948 4092 
Q 1538 4750 2522 4750 
Q 3503 4750 4090 4092 
Q 4678 3434 4678 2328 
Q 4678 1516 4351 937 
Q 4025 359 3406 84 
z
" transform="scale(0.015625)"/>
      <path id="DejaVuSans-75" d="M 544 1381 
L 544 3500 
L 1119 3500 
L 1119 1403 
Q 1119 906 1312 657 
Q 1506 409 1894 409 
Q 2359 409 2629 706 
Q 2900 1003 2900 1516 
L 2900 3500 
L 3475 3500 
L 3475 0 
L 2900 0 
L 2900 538 
Q 2691 219 2414 64 
Q 2138 -91 1772 -91 
Q 1169 -91 856 284 
Q 544 659 544 1381 
z
M 1991 3584 
L 1991 3584 
z
" transform="scale(0.015625)"/>
      <path id="DejaVuSans-61" d="M 2194 1759 
Q 1497 1759 1228 1600 
Q 959 1441 959 1056 
Q 959 750 1161 570 
Q 1363 391 1709 391 
Q 2188 391 2477 730 
Q 2766 1069 2766 1631 
L 2766 1759 
L 2194 1759 
z
M 3341 1997 
L 3341 0 
L 2766 0 
L 2766 531 
Q 2569 213 2275 61 
Q 1981 -91 1556 -91 
Q 1019 -91 701 211 
Q 384 513 384 1019 
Q 384 1609 779 1909 
Q 1175 2209 1959 2209 
L 2766 2209 
L 2766 2266 
Q 2766 2663 2505 2880 
Q 2244 3097 1772 3097 
Q 1472 3097 1187 3025 
Q 903 2953 641 2809 
L 641 3341 
Q 956 3463 1253 3523 
Q 1550 3584 1831 3584 
Q 2591 3584 2966 3190 
Q 3341 2797 3341 1997 
z
" transform="scale(0.015625)"/>
      <path id="DejaVuSans-64" d="M 2906 2969 
L 2906 4863 
L 3481 4863 
L 3481 0 
L 2906 0 
L 2906 525 
Q 2725 213 2448 61 
Q 2172 -91 1784 -91 
Q 1150 -91 751 415 
Q 353 922 353 1747 
Q 353 2572 751 3078 
Q 1150 3584 1784 3584 
Q 2172 3584 2448 3432 
Q 2725 3281 2906 2969 
z
M 947 1747 
Q 947 1113 1208 752 
Q 1469 391 1925 391 
Q 2381 391 2643 752 
Q 2906 1113 2906 1747 
Q 2906 2381 2643 2742 
Q 2381 3103 1925 3103 
Q 1469 3103 1208 2742 
Q 947 2381 947 1747 
z
" transform="scale(0.015625)"/>
      <path id="DejaVuSans-72" d="M 2631 2963 
Q 2534 3019 2420 3045 
Q 2306 3072 2169 3072 
Q 1681 3072 1420 2755 
Q 1159 2438 1159 1844 
L 1159 0 
L 581 0 
L 581 3500 
L 1159 3500 
L 1159 2956 
Q 1341 3275 1631 3429 
Q 1922 3584 2338 3584 
Q 2397 3584 2469 3576 
Q 2541 3569 2628 3553 
L 2631 2963 
z
" transform="scale(0.015625)"/>
      <path id="DejaVuSans-74" d="M 1172 4494 
L 1172 3500 
L 2356 3500 
L 2356 3053 
L 1172 3053 
L 1172 1153 
Q 1172 725 1289 603 
Q 1406 481 1766 481 
L 2356 481 
L 2356 0 
L 1766 0 
Q 1100 0 847 248 
Q 594 497 594 1153 
L 594 3053 
L 172 3053 
L 172 3500 
L 594 3500 
L 594 4494 
L 1172 4494 
z
" transform="scale(0.015625)"/>
      <path id="DejaVuSans-20" transform="scale(0.015625)"/>
      <path id="DejaVuSans-43" d="M 4122 4306 
L 4122 3641 
Q 3803 3938 3442 4084 
Q 3081 4231 2675 4231 
Q 1875 4231 1450 3742 
Q 1025 3253 1025 2328 
Q 1025 1406 1450 917 
Q 1875 428 2675 428 
Q 3081 428 3442 575 
Q 3803 722 4122 1019 
L 4122 359 
Q 3791 134 3420 21 
Q 3050 -91 2638 -91 
Q 1578 -91 968 557 
Q 359 1206 359 2328 
Q 359 3453 968 4101 
Q 1578 4750 2638 4750 
Q 3056 4750 3426 4639 
Q 3797 4528 4122 4306 
z
" transform="scale(0.015625)"/>
      <path id="DejaVuSans-6f" d="M 1959 3097 
Q 1497 3097 1228 2736 
Q 959 2375 959 1747 
Q 959 1119 1226 758 
Q 1494 397 1959 397 
Q 2419 397 2687 759 
Q 2956 1122 2956 1747 
Q 2956 2369 2687 2733 
Q 2419 3097 1959 3097 
z
M 1959 3584 
Q 2709 3584 3137 3096 
Q 3566 2609 3566 1747 
Q 3566 888 3137 398 
Q 2709 -91 1959 -91 
Q 1206 -91 779 398 
Q 353 888 353 1747 
Q 353 2609 779 3096 
Q 1206 3584 1959 3584 
z
" transform="scale(0.015625)"/>
      <path id="DejaVuSans-6e" d="M 3513 2113 
L 3513 0 
L 2938 0 
L 2938 2094 
Q 2938 2591 2744 2837 
Q 2550 3084 2163 3084 
Q 1697 3084 1428 2787 
Q 1159 2491 1159 1978 
L 1159 0 
L 581 0 
L 581 3500 
L 1159 3500 
L 1159 2956 
Q 1366 3272 1645 3428 
Q 1925 3584 2291 3584 
Q 2894 3584 3203 3211 
Q 3513 2838 3513 2113 
z
" transform="scale(0.015625)"/>
     </defs>
     <use xlink:href="#DejaVuSans-51"/>
     <use xlink:href="#DejaVuSans-75" transform="translate(78.710938 0)"/>
     <use xlink:href="#DejaVuSans-61" transform="translate(142.089844 0)"/>
     <use xlink:href="#DejaVuSans-64" transform="translate(203.369141 0)"/>
     <use xlink:href="#DejaVuSans-72" transform="translate(266.845703 0)"/>
     <use xlink:href="#DejaVuSans-61" transform="translate(307.958984 0)"/>
     <use xlink:href="#DejaVuSans-74" transform="translate(369.238281 0)"/>
     <use xlink:href="#DejaVuSans-20" transform="translate(408.447266 0)"/>
     <use xlink:href="#DejaVuSans-43" transform="translate(440.234375 0)"/>
     <use xlink:href="#DejaVuSans-6f" transform="translate(510.058594 0)"/>
     <use xlink:href="#DejaVuSans-75" transform="translate(571.240234 0)"/>
     <use xlink:href="#DejaVuSans-6e" transform="translate(634.619141 0)"/>
     <use xlink:href="#DejaVuSans-74" transform="translate(697.998047 0)"/>
    </g>
   </g>
  </g>
 </g>
 <defs>
  <clipPath id="pb8ba398242">
   <rect x="26.925" y="22.318125" width="275.082067" height="266.112"/>
  </clipPath>
 </defs>
</svg>
