<?xml version="1.0" encoding="utf-8" standalone="no"?>
<!DOCTYPE svg PUBLIC "-//W3C//DTD SVG 1.1//EN"
  "http://www.w3.org/Graphics/SVG/1.1/DTD/svg11.dtd">
<svg xmlns:xlink="http://www.w3.org/1999/xlink" width="303.415125pt" height="312.30825pt" viewBox="0 0 303.415125 312.30825" xmlns="http://www.w3.org/2000/svg" version="1.1">
 <metadata>
  <rdf:RDF xmlns:dc="http://purl.org/dc/elements/1.1/" xmlns:cc="http://creativecommons.org/ns#" xmlns:rdf="http://www.w3.org/1999/02/22-rdf-syntax-ns#">
   <cc:Work>
    <dc:type rdf:resource="http://purl.org/dc/dcmitype/StillImage"/>
    <dc:date>2026-02-19T14:47:41.259001</dc:date>
    <dc:format>image/svg+xml</dc:format>
    <dc:creator>
     <cc:Agent>
      <dc:title>Matplotlib v3.10.8, https://matplotlib.org/</dc:title>
     </cc:Agent>
    </dc:creator>
   </cc:Work>
  </rdf:RDF>
 </metadata>
 <defs>
  <style type="text/css">*{stroke-linejoin: round; stroke-linecap: butt}</style>
 </defs>
 <g id="figure_1">
  <g id="patch_1">
   <path d="M 0 312.30825 
L 303.415125 312.30825 
L 303.415125 0 
L 0 0 
z
" style="fill: #ffffff"/>
  </g>
  <g id="axes_1">
   <g id="patch_2">
    <path d="M 30.103125 288.430125 
L 296.215125 288.430125 
L 296.215125 22.318125 
L 30.103125 22.318125 
z
" style="fill: #ffffff"/>
   </g>
   <g id="PathCollection_1">
    <defs>
     <path id="m93e6191b07" d="M 0 1.581139 
C 0.419323 1.581139 0.821528 1.41454 1.118034 1.118034 
C 1.41454 0.821528 1.581139 0.419323 1.581139 0 
C 1.581139 -0.419323 1.41454 -0.821528 1.118034 -1.118034 
C 0.821528 -1.41454 0.419323 -1.581139 0 -1.581139 
C -0.419323 -1.581139 -0.821528 -1.41454 -1.118034 -1.118034 
C -1.41454 -0.821528 -1.581139 -0.419323 -1.581139 0 
C -1.581139 0.419323 -1.41454 0.821528 -1.118034 1.118034 
C -0.821528 1.41454 -0.419323 1.581139 0 1.581139 
z
" style="stroke: #1f77b4"/>
    </defs>
    <g clip-path="url(#pd18f458fc2)">
     <use xlink:href="#m93e6191b07" x="73.192375" y="167.376759" style="fill: #1f77b4; stroke: #1f77b4"/>
     <use xlink:href="#m93e6191b07" x="149.469888" y="221.360533" style="fill: #1f77b4; stroke: #1f77b4"/>
     <use xlink:href="#m93e6191b07" x="176.364277" y="260.895454" style="fill: #1f77b4; stroke: #1f77b4"/>
     <use xlink:href="#m93e6191b07" x="230.505661" y="229.247129" style="fill: #1f77b4; stroke: #1f77b4"/>
     <use xlink:href="#m93e6191b07" x="155.10827" y="265.737118" style="fill: #1f77b4; stroke: #1f77b4"/>
     <use xlink:href="#m93e6191b07" x="79.524839" y="111.090922" style="fill: #1f77b4; stroke: #1f77b4"/>
     <use xlink:href="#m93e6191b07" x="121.022796" y="186.712513" style="fill: #1f77b4; stroke: #1f77b4"/>
     <use xlink:href="#m93e6191b07" x="155.794067" y="230.497214" style="fill: #1f77b4; stroke: #1f77b4"/>
     <use xlink:href="#m93e6191b07" x="73.629736" y="161.251589" style="fill: #1f77b4; stroke: #1f77b4"/>
     <use xlink:href="#m93e6191b07" x="97.093035" y="114.292723" style="fill: #1f77b4; stroke: #1f77b4"/>
     <use xlink:href="#m93e6191b07" x="135.937894" y="206.58179" style="fill: #1f77b4; stroke: #1f77b4"/>
     <use xlink:href="#m93e6191b07" x="207.308437" y="242.525204" style="fill: #1f77b4; stroke: #1f77b4"/>
     <use xlink:href="#m93e6191b07" x="90.560917" y="274.553045" style="fill: #1f77b4; stroke: #1f77b4"/>
     <use xlink:href="#m93e6191b07" x="76.018815" y="248.62701" style="fill: #1f77b4; stroke: #1f77b4"/>
     <use xlink:href="#m93e6191b07" x="177.482521" y="202.802517" style="fill: #1f77b4; stroke: #1f77b4"/>
     <use xlink:href="#m93e6191b07" x="49.654576" y="170.683454" style="fill: #1f77b4; stroke: #1f77b4"/>
     <use xlink:href="#m93e6191b07" x="94.111449" y="177.502876" style="fill: #1f77b4; stroke: #1f77b4"/>
     <use xlink:href="#m93e6191b07" x="56.303724" y="208.261734" style="fill: #1f77b4; stroke: #1f77b4"/>
     <use xlink:href="#m93e6191b07" x="113.225327" y="116.203282" style="fill: #1f77b4; stroke: #1f77b4"/>
     <use xlink:href="#m93e6191b07" x="239.126936" y="235.940036" style="fill: #1f77b4; stroke: #1f77b4"/>
     <use xlink:href="#m93e6191b07" x="47.69363" y="254.549747" style="fill: #1f77b4; stroke: #1f77b4"/>
     <use xlink:href="#m93e6191b07" x="81.213994" y="155.121373" style="fill: #1f77b4; stroke: #1f77b4"/>
     <use xlink:href="#m93e6191b07" x="79.046469" y="107.8803" style="fill: #1f77b4; stroke: #1f77b4"/>
     <use xlink:href="#m93e6191b07" x="150.133251" y="184.15747" style="fill: #1f77b4; stroke: #1f77b4"/>
     <use xlink:href="#m93e6191b07" x="115.14093" y="123.85616" style="fill: #1f77b4; stroke: #1f77b4"/>
     <use xlink:href="#m93e6191b07" x="129.728832" y="255.129857" style="fill: #1f77b4; stroke: #1f77b4"/>
     <use xlink:href="#m93e6191b07" x="150.90866" y="210.473446" style="fill: #1f77b4; stroke: #1f77b4"/>
     <use xlink:href="#m93e6191b07" x="65.518027" y="57.976553" style="fill: #1f77b4; stroke: #1f77b4"/>
     <use xlink:href="#m93e6191b07" x="152.460525" y="227.37838" style="fill: #1f77b4; stroke: #1f77b4"/>
     <use xlink:href="#m93e6191b07" x="116.216152" y="136.209327" style="fill: #1f77b4; stroke: #1f77b4"/>
     <use xlink:href="#m93e6191b07" x="62.627895" y="175.741998" style="fill: #1f77b4; stroke: #1f77b4"/>
     <use xlink:href="#m93e6191b07" x="52.266426" y="156.827866" style="fill: #1f77b4; stroke: #1f77b4"/>
     <use xlink:href="#m93e6191b07" x="121.999149" y="241.370833" style="fill: #1f77b4; stroke: #1f77b4"/>
     <use xlink:href="#m93e6191b07" x="67.214371" y="134.17115" style="fill: #1f77b4; stroke: #1f77b4"/>
     <use xlink:href="#m93e6191b07" x="182.769436" y="192.419382" style="fill: #1f77b4; stroke: #1f77b4"/>
     <use xlink:href="#m93e6191b07" x="185.153401" y="270.817413" style="fill: #1f77b4; stroke: #1f77b4"/>
     <use xlink:href="#m93e6191b07" x="231.558431" y="256.320083" style="fill: #1f77b4; stroke: #1f77b4"/>
     <use xlink:href="#m93e6191b07" x="159.931508" y="157.622289" style="fill: #1f77b4; stroke: #1f77b4"/>
     <use xlink:href="#m93e6191b07" x="156.745681" y="211.747373" style="fill: #1f77b4; stroke: #1f77b4"/>
     <use xlink:href="#m93e6191b07" x="122.412297" y="150.373057" style="fill: #1f77b4; stroke: #1f77b4"/>
     <use xlink:href="#m93e6191b07" x="148.380585" y="271.105731" style="fill: #1f77b4; stroke: #1f77b4"/>
     <use xlink:href="#m93e6191b07" x="76.128185" y="142.301701" style="fill: #1f77b4; stroke: #1f77b4"/>
     <use xlink:href="#m93e6191b07" x="68.465768" y="113.705802" style="fill: #1f77b4; stroke: #1f77b4"/>
     <use xlink:href="#m93e6191b07" x="110.235202" y="116.806601" style="fill: #1f77b4; stroke: #1f77b4"/>
     <use xlink:href="#m93e6191b07" x="97.892494" y="267.283279" style="fill: #1f77b4; stroke: #1f77b4"/>
     <use xlink:href="#m93e6191b07" x="176.429034" y="186.600606" style="fill: #1f77b4; stroke: #1f77b4"/>
     <use xlink:href="#m93e6191b07" x="112.577968" y="151.731504" style="fill: #1f77b4; stroke: #1f77b4"/>
     <use xlink:href="#m93e6191b07" x="82.021048" y="265.469348" style="fill: #1f77b4; stroke: #1f77b4"/>
     <use xlink:href="#m93e6191b07" x="167.72134" y="199.904569" style="fill: #1f77b4; stroke: #1f77b4"/>
     <use xlink:href="#m93e6191b07" x="132.594403" y="253.480749" style="fill: #1f77b4; stroke: #1f77b4"/>
    </g>
   </g>
   <g id="PatchCollection_1">
    <path d="M 85.980291 274.553045 
L 85.980291 231.237746 
L 47.69363 231.237746 
L 47.69363 274.553045 
L 85.980291 274.553045 
z
" clip-path="url(#pd18f458fc2)" style="fill: none; stroke: #ff0000"/>
    <path d="M 124.266952 274.553045 
L 124.266952 231.237746 
L 85.980291 231.237746 
L 85.980291 274.553045 
L 124.266952 274.553045 
z
" clip-path="url(#pd18f458fc2)" style="fill: none; stroke: #ff0000"/>
    <path d="M 162.553614 274.553045 
L 162.553614 231.237746 
L 124.266952 231.237746 
L 124.266952 274.553045 
L 162.553614 274.553045 
z
" clip-path="url(#pd18f458fc2)" style="fill: none; stroke: #ff0000"/>
    <path d="M 200.840275 274.553045 
L 200.840275 231.237746 
L 162.553614 231.237746 
L 162.553614 274.553045 
L 200.840275 274.553045 
z
" clip-path="url(#pd18f458fc2)" style="fill: none; stroke: #ff0000"/>
    <path d="M 239.126936 274.553045 
L 239.126936 231.237746 
L 200.840275 231.237746 
L 200.840275 274.553045 
L 239.126936 274.553045 
z
" clip-path="url(#pd18f458fc2)" style="fill: none; stroke: #ff0000"/>
    <path d="M 85.980291 231.237746 
L 85.980291 187.922448 
L 47.69363 187.922448 
L 47.69363 231.237746 
L 85.980291 231.237746 
z
" clip-path="url(#pd18f458fc2)" style="fill: none; stroke: #ff0000"/>
    <path d="M 124.266952 231.237746 
L 124.266952 187.922448 
L 85.980291 187.922448 
L 85.980291 231.237746 
L 124.266952 231.237746 
z
" clip-path="url(#pd18f458fc2)" style="fill: none; stroke: #ff0000"/>
    <path d="M 162.553614 231.237746 
L 162.553614 187.922448 
L 124.266952 187.922448 
L 124.266952 231.237746 
L 162.553614 231.237746 
z
" clip-path="url(#pd18f458fc2)" style="fill: none; stroke: #ff0000"/>
    <path d="M 200.840275 231.237746 
L 200.840275 187.922448 
L 162.553614 187.922448 
L 162.553614 231.237746 
L 200.840275 231.237746 
z
" clip-path="url(#pd18f458fc2)" style="fill: none; stroke: #ff0000"/>
    <path d="M 239.126936 231.237746 
L 239.126936 187.922448 
L 200.840275 187.922448 
L 200.840275 231.237746 
L 239.126936 231.237746 
z
" clip-path="url(#pd18f458fc2)" style="fill: none; stroke: #ff0000"/>
    <path d="M 85.980291 187.922448 
L 85.980291 144.60715 
L 47.69363 144.60715 
L 47.69363 187.922448 
L 85.980291 187.922448 
z
" clip-path="url(#pd18f458fc2)" style="fill: none; stroke: #ff0000"/>
    <path d="M 124.266952 187.922448 
L 124.266952 144.60715 
L 85.980291 144.60715 
L 85.980291 187.922448 
L 124.266952 187.922448 
z
" clip-path="url(#pd18f458fc2)" style="fill: none; stroke: #ff0000"/>
    <path d="M 162.553614 187.922448 
L 162.553614 144.60715 
L 124.266952 144.60715 
L 124.266952 187.922448 
L 162.553614 187.922448 
z
" clip-path="url(#pd18f458fc2)" style="fill: none; stroke: #ff0000"/>
    <path d="M 200.840275 187.922448 
L 200.840275 144.60715 
L 162.553614 144.60715 
L 162.553614 187.922448 
L 200.840275 187.922448 
z
" clip-path="url(#pd18f458fc2)" style="fill: none; stroke: #ff0000"/>
    <path d="M 239.126936 187.922448 
L 239.126936 144.60715 
L 200.840275 144.60715 
L 200.840275 187.922448 
L 239.126936 187.922448 
z
" clip-path="url(#pd18f458fc2)" style="fill: none; stroke: #ff0000"/>
    <path d="M 85.980291 144.60715 
L 85.980291 101.291852 
L 47.69363 101.291852 
L 47.69363 144.60715 
L 85.980291 144.60715 
z
" clip-path="url(#pd18f458fc2)" style="fill: none; stroke: #ff0000"/>
    <path d="M 124.266952 144.60715 
L 124.266952 101.291852 
L 85.980291 101.291852 
L 85.980291 144.60715 
L 124.266952 144.60715 
z
" clip-path="url(#pd18f458fc2)" style="fill: none; stroke: #ff0000"/>
    <path d="M 162.553614 144.60715 
L 162.553614 101.291852 
L 124.266952 101.291852 
L 124.266952 144.60715 
L 162.553614 144.60715 
z
" clip-path="url(#pd18f458fc2)" style="fill: none; stroke: #ff0000"/>
    <path d="M 200.840275 144.60715 
L 200.840275 101.291852 
L 162.553614 101.291852 
L 162.553614 144.60715 
L 200.840275 144.60715 
z
" clip-path="url(#pd18f458fc2)" style="fill: none; stroke: #ff0000"/>
    <path d="M 239.126936 144.60715 
L 239.126936 101.291852 
L 200.840275 101.291852 
L 200.840275 144.60715 
L 239.126936 144.60715 
z
" clip-path="url(#pd18f458fc2)" style="fill: none; stroke: #ff0000"/>
    <path d="M 85.980291 101.291852 
L 85.980291 57.976553 
L 47.69363 57.976553 
L 47.69363 101.291852 
L 85.980291 101.291852 
z
" clip-path="url(#pd18f458fc2)" style="fill: none; stroke: #ff0000"/>
    <path d="M 124.266952 101.291852 
L 124.266952 57.976553 
L 85.980291 57.976553 
L 85.980291 101.291852 
L 124.266952 101.291852 
z
" clip-path="url(#pd18f458fc2)" style="fill: none; stroke: #ff0000"/>
    <path d="M 162.553614 101.291852 
L 162.553614 57.976553 
L 124.266952 57.976553 
L 124.266952 101.291852 
L 162.553614 101.291852 
z
" clip-path="url(#pd18f458fc2)" style="fill: none; stroke: #ff0000"/>
    <path d="M 200.840275 101.291852 
L 200.840275 57.976553 
L 162.553614 57.976553 
L 162.553614 101.291852 
L 200.840275 101.291852 
z
" clip-path="url(#pd18f458fc2)" style="fill: none; stroke: #ff0000"/>
    <path d="M 239.126936 101.291852 
L 239.126936 57.976553 
L 200.840275 57.976553 
L 200.840275 101.291852 
L 239.126936 101.291852 
z
" clip-path="url(#pd18f458fc2)" style="fill: none; stroke: #ff0000"/>
   </g>
   <g id="matplotlib.axis_1">
    <g id="xtick_1">
     <g id="line2d_1">
      <defs>
       <path id="mb600042e47" d="M 0 0 
L 0 3.5 
" style="stroke: #000000; stroke-width: 0.8"/>
      </defs>
      <g>
       <use xlink:href="#mb600042e47" x="42.199125" y="288.430125" style="stroke: #000000; stroke-width: 0.8"/>
      </g>
     </g>
     <g id="text_1">
      <!-- 0.0 -->
      <g transform="translate(34.247563 303.028562) scale(0.1 -0.1)">
       <defs>
        <path id="DejaVuSans-30" d="M 2034 4250 
Q 1547 4250 1301 3770 
Q 1056 3291 1056 2328 
Q 1056 1369 1301 889 
Q 1547 409 2034 409 
Q 2525 409 2770 889 
Q 3016 1369 3016 2328 
Q 3016 3291 2770 3770 
Q 2525 4250 2034 4250 
z
M 2034 4750 
Q 2819 4750 3233 4129 
Q 3647 3509 3647 2328 
Q 3647 1150 3233 529 
Q 2819 -91 2034 -91 
Q 1250 -91 836 529 
Q 422 1150 422 2328 
Q 422 3509 836 4129 
Q 1250 4750 2034 4750 
z
" transform="scale(0.015625)"/>
        <path id="DejaVuSans-2e" d="M 684 794 
L 1344 794 
L 1344 0 
L 684 0 
L 684 794 
z
" transform="scale(0.015625)"/>
       </defs>
       <use xlink:href="#DejaVuSans-30"/>
       <use xlink:href="#DejaVuSans-2e" transform="translate(63.623047 0)"/>
       <use xlink:href="#DejaVuSans-30" transform="translate(95.410156 0)"/>
      </g>
     </g>
    </g>
    <g id="xtick_2">
     <g id="line2d_2">
      <g>
       <use xlink:href="#mb600042e47" x="90.583125" y="288.430125" style="stroke: #000000; stroke-width: 0.8"/>
      </g>
     </g>
     <g id="text_2">
      <!-- 0.2 -->
      <g transform="translate(82.631563 303.028562) scale(0.1 -0.1)">
       <defs>
        <path id="DejaVuSans-32" d="M 1228 531 
L 3431 531 
L 3431 0 
L 469 0 
L 469 531 
Q 828 903 1448 1529 
Q 2069 2156 2228 2338 
Q 2531 2678 2651 2914 
Q 2772 3150 2772 3378 
Q 2772 3750 2511 3984 
Q 2250 4219 1831 4219 
Q 1534 4219 1204 4116 
Q 875 4013 500 3803 
L 500 4441 
Q 881 4594 1212 4672 
Q 1544 4750 1819 4750 
Q 2544 4750 2975 4387 
Q 3406 4025 3406 3419 
Q 3406 3131 3298 2873 
Q 3191 2616 2906 2266 
Q 2828 2175 2409 1742 
Q 1991 1309 1228 531 
z
" transform="scale(0.015625)"/>
       </defs>
       <use xlink:href="#DejaVuSans-30"/>
       <use xlink:href="#DejaVuSans-2e" transform="translate(63.623047 0)"/>
       <use xlink:href="#DejaVuSans-32" transform="translate(95.410156 0)"/>
      </g>
     </g>
    </g>
    <g id="xtick_3">
     <g id="line2d_3">
      <g>
       <use xlink:href="#mb600042e47" x="138.967125" y="288.430125" style="stroke: #000000; stroke-width: 0.8"/>
      </g>
     </g>
     <g id="text_3">
      <!-- 0.4 -->
      <g transform="translate(131.015563 303.028562) scale(0.1 -0.1)">
       <defs>
        <path id="DejaVuSans-34" d="M 2419 4116 
L 825 1625 
L 2419 1625 
L 2419 4116 
z
M 2253 4666 
L 3047 4666 
L 3047 1625 
L 3713 1625 
L 3713 1100 
L 3047 1100 
L 3047 0 
L 2419 0 
L 2419 1100 
L 313 1100 
L 313 1709 
L 2253 4666 
z
" transform="scale(0.015625)"/>
       </defs>
       <use xlink:href="#DejaVuSans-30"/>
       <use xlink:href="#DejaVuSans-2e" transform="translate(63.623047 0)"/>
       <use xlink:href="#DejaVuSans-34" transform="translate(95.410156 0)"/>
      </g>
     </g>
    </g>
    <g id="xtick_4">
     <g id="line2d_4">
      <g>
       <use xlink:href="#mb600042e47" x="187.351125" y="288.430125" style="stroke: #000000; stroke-width: 0.8"/>
      </g>
     </g>
     <g id="text_4">
      <!-- 0.6 -->
      <g transform="translate(179.399563 303.028562) scale(0.1 -0.1)">
       <defs>
        <path id="DejaVuSans-36" d="M 2113 2584 
Q 1688 2584 1439 2293 
Q 1191 2003 1191 1497 
Q 1191 994 1439 701 
Q 1688 409 2113 409 
Q 2538 409 2786 701 
Q 3034 994 3034 1497 
Q 3034 2003 2786 2293 
Q 2538 2584 2113 2584 
z
M 3366 4563 
L 3366 3988 
Q 3128 4100 2886 4159 
Q 2644 4219 2406 4219 
Q 1781 4219 1451 3797 
Q 1122 3375 1075 2522 
Q 1259 2794 1537 2939 
Q 1816 3084 2150 3084 
Q 2853 3084 3261 2657 
Q 3669 2231 3669 1497 
Q 3669 778 3244 343 
Q 2819 -91 2113 -91 
Q 1303 -91 875 529 
Q 447 1150 447 2328 
Q 447 3434 972 4092 
Q 1497 4750 2381 4750 
Q 2619 4750 2861 4703 
Q 3103 4656 3366 4563 
z
" transform="scale(0.015625)"/>
       </defs>
       <use xlink:href="#DejaVuSans-30"/>
       <use xlink:href="#DejaVuSans-2e" transform="translate(63.623047 0)"/>
       <use xlink:href="#DejaVuSans-36" transform="translate(95.410156 0)"/>
      </g>
     </g>
    </g>
    <g id="xtick_5">
     <g id="line2d_5">
      <g>
       <use xlink:href="#mb600042e47" x="235.735125" y="288.430125" style="stroke: #000000; stroke-width: 0.8"/>
      </g>
     </g>
     <g id="text_5">
      <!-- 0.8 -->
      <g transform="translate(227.783562 303.028562) scale(0.1 -0.1)">
       <defs>
        <path id="DejaVuSans-38" d="M 2034 2216 
Q 1584 2216 1326 1975 
Q 1069 1734 1069 1313 
Q 1069 891 1326 650 
Q 1584 409 2034 409 
Q 2484 409 2743 651 
Q 3003 894 3003 1313 
Q 3003 1734 2745 1975 
Q 2488 2216 2034 2216 
z
M 1403 2484 
Q 997 2584 770 2862 
Q 544 3141 544 3541 
Q 544 4100 942 4425 
Q 1341 4750 2034 4750 
Q 2731 4750 3128 4425 
Q 3525 4100 3525 3541 
Q 3525 3141 3298 2862 
Q 3072 2584 2669 2484 
Q 3125 2378 3379 2068 
Q 3634 1759 3634 1313 
Q 3634 634 3220 271 
Q 2806 -91 2034 -91 
Q 1263 -91 848 271 
Q 434 634 434 1313 
Q 434 1759 690 2068 
Q 947 2378 1403 2484 
z
M 1172 3481 
Q 1172 3119 1398 2916 
Q 1625 2713 2034 2713 
Q 2441 2713 2670 2916 
Q 2900 3119 2900 3481 
Q 2900 3844 2670 4047 
Q 2441 4250 2034 4250 
Q 1625 4250 1398 4047 
Q 1172 3844 1172 3481 
z
" transform="scale(0.015625)"/>
       </defs>
       <use xlink:href="#DejaVuSans-30"/>
       <use xlink:href="#DejaVuSans-2e" transform="translate(63.623047 0)"/>
       <use xlink:href="#DejaVuSans-38" transform="translate(95.410156 0)"/>
      </g>
     </g>
    </g>
    <g id="xtick_6">
     <g id="line2d_6">
      <g>
       <use xlink:href="#mb600042e47" x="284.119125" y="288.430125" style="stroke: #000000; stroke-width: 0.8"/>
      </g>
     </g>
     <g id="text_6">
      <!-- 1.0 -->
      <g transform="translate(276.167562 303.028562) scale(0.1 -0.1)">
       <defs>
        <path id="DejaVuSans-31" d="M 794 531 
L 1825 531 
L 1825 4091 
L 703 3866 
L 703 4441 
L 1819 4666 
L 2450 4666 
L 2450 531 
L 3481 531 
L 3481 0 
L 794 0 
L 794 531 
z
" transform="scale(0.015625)"/>
       </defs>
       <use xlink:href="#DejaVuSans-31"/>
       <use xlink:href="#DejaVuSans-2e" transform="translate(63.623047 0)"/>
       <use xlink:href="#DejaVuSans-30" transform="translate(95.410156 0)"/>
      </g>
     </g>
    </g>
   </g>
   <g id="matplotlib.axis_2">
    <g id="ytick_1">
     <g id="line2d_7">
      <defs>
       <path id="m15878a689d" d="M 0 0 
L -3.5 0 
" style="stroke: #000000; stroke-width: 0.8"/>
      </defs>
      <g>
       <use xlink:href="#m15878a689d" x="30.103125" y="276.334125" style="stroke: #000000; stroke-width: 0.8"/>
      </g>
     </g>
     <g id="text_7">
      <!-- 0.0 -->
      <g transform="translate(7.2 280.133344) scale(0.1 -0.1)">
       <use xlink:href="#DejaVuSans-30"/>
       <use xlink:href="#DejaVuSans-2e" transform="translate(63.623047 0)"/>
       <use xlink:href="#DejaVuSans-30" transform="translate(95.410156 0)"/>
      </g>
     </g>
    </g>
    <g id="ytick_2">
     <g id="line2d_8">
      <g>
       <use xlink:href="#m15878a689d" x="30.103125" y="227.950125" style="stroke: #000000; stroke-width: 0.8"/>
      </g>
     </g>
     <g id="text_8">
      <!-- 0.2 -->
      <g transform="translate(7.2 231.749344) scale(0.1 -0.1)">
       <use xlink:href="#DejaVuSans-30"/>
       <use xlink:href="#DejaVuSans-2e" transform="translate(63.623047 0)"/>
       <use xlink:href="#DejaVuSans-32" transform="translate(95.410156 0)"/>
      </g>
     </g>
    </g>
    <g id="ytick_3">
     <g id="line2d_9">
      <g>
       <use xlink:href="#m15878a689d" x="30.103125" y="179.566125" style="stroke: #000000; stroke-width: 0.8"/>
      </g>
     </g>
     <g id="text_9">
      <!-- 0.4 -->
      <g transform="translate(7.2 183.365344) scale(0.1 -0.1)">
       <use xlink:href="#DejaVuSans-30"/>
       <use xlink:href="#DejaVuSans-2e" transform="translate(63.623047 0)"/>
       <use xlink:href="#DejaVuSans-34" transform="translate(95.410156 0)"/>
      </g>
     </g>
    </g>
    <g id="ytick_4">
     <g id="line2d_10">
      <g>
       <use xlink:href="#m15878a689d" x="30.103125" y="131.182125" style="stroke: #000000; stroke-width: 0.8"/>
      </g>
     </g>
     <g id="text_10">
      <!-- 0.6 -->
      <g transform="translate(7.2 134.981344) scale(0.1 -0.1)">
       <use xlink:href="#DejaVuSans-30"/>
       <use xlink:href="#DejaVuSans-2e" transform="translate(63.623047 0)"/>
       <use xlink:href="#DejaVuSans-36" transform="translate(95.410156 0)"/>
      </g>
     </g>
    </g>
    <g id="ytick_5">
     <g id="line2d_11">
      <g>
       <use xlink:href="#m15878a689d" x="30.103125" y="82.798125" style="stroke: #000000; stroke-width: 0.8"/>
      </g>
     </g>
     <g id="text_11">
      <!-- 0.8 -->
      <g transform="translate(7.2 86.597344) scale(0.1 -0.1)">
       <use xlink:href="#DejaVuSans-30"/>
       <use xlink:href="#DejaVuSans-2e" transform="translate(63.623047 0)"/>
       <use xlink:href="#DejaVuSans-38" transform="translate(95.410156 0)"/>
      </g>
     </g>
    </g>
    <g id="ytick_6">
     <g id="line2d_12">
      <g>
       <use xlink:href="#m15878a689d" x="30.103125" y="34.414125" style="stroke: #000000; stroke-width: 0.8"/>
      </g>
     </g>
     <g id="text_12">
      <!-- 1.0 -->
      <g transform="translate(7.2 38.213344) scale(0.1 -0.1)">
       <use xlink:href="#DejaVuSans-31"/>
       <use xlink:href="#DejaVuSans-2e" transform="translate(63.623047 0)"/>
       <use xlink:href="#DejaVuSans-30" transform="translate(95.410156 0)"/>
      </g>
     </g>
    </g>
   </g>
   <g id="line2d_13">
    <path d="M 42.199125 276.334125 
L 284.119125 276.334125 
L 42.199125 34.414125 
L 42.199125 276.334125 
" clip-path="url(#pd18f458fc2)" style="fill: none; stroke: #1f77b4; stroke-width: 1.5; stroke-linecap: square"/>
   </g>
   <g id="patch_3">
    <path d="M 30.103125 288.430125 
L 30.103125 22.318125 
" style="fill: none; stroke: #000000; stroke-width: 0.8; stroke-linejoin: miter; stroke-linecap: square"/>
   </g>
   <g id="patch_4">
    <path d="M 296.215125 288.430125 
L 296.215125 22.318125 
" style="fill: none; stroke: #000000; stroke-width: 0.8; stroke-linejoin: miter; stroke-linecap: square"/>
   </g>
   <g id="patch_5">
    <path d="M 30.103125 288.430125 
L 296.215125 288.430125 
" style="fill: none; stroke: #000000; stroke-width: 0.8; stroke-linejoin: miter; stroke-linecap: square"/>
   </g>
   <g id="patch_6">
    <path d="M 30.103125 22.318125 
L 296.215125 22.318125 
" style="fill: none; stroke: #000000; stroke-width: 0.8; stroke-linejoin: miter; stroke-linecap: square"/>
   </g>
   <g id="text_13">
    <!-- 3 -->
    <g transform="translate(63.65571 255.654771) scale(0.1 -0.1)">
     <defs>
      <path id="DejaVuSans-33" d="M 2597 2516 
Q 3050 2419 3304 2112 
Q 3559 1806 3559 1356 
Q 3559 666 3084 287 
Q 2609 -91 1734 -91 
Q 1441 -91 1130 -33 
Q 819 25 488 141 
L 488 750 
Q 750 597 1062 519 
Q 1375 441 1716 441 
Q 2309 441 2620 675 
Q 2931 909 2931 1356 
Q 2931 1769 2642 2001 
Q 2353 2234 1838 2234 
L 1294 2234 
L 1294 2753 
L 1863 2753 
Q 2328 2753 2575 2939 
Q 2822 3125 2822 3475 
Q 2822 3834 2567 4026 
Q 2313 4219 1838 4219 
Q 1578 4219 1281 4162 
Q 984 4106 628 3988 
L 628 4550 
Q 988 4650 1302 4700 
Q 1616 4750 1894 4750 
Q 2613 4750 3031 4423 
Q 3450 4097 3450 3541 
Q 3450 3153 3228 2886 
Q 3006 2619 2597 2516 
z
" transform="scale(0.015625)"/>
     </defs>
     <use xlink:href="#DejaVuSans-33"/>
    </g>
   </g>
   <g id="text_14">
    <!-- 3 -->
    <g transform="translate(101.942372 255.654771) scale(0.1 -0.1)">
     <use xlink:href="#DejaVuSans-33"/>
    </g>
   </g>
   <g id="text_15">
    <!-- 4 -->
    <g transform="translate(140.229033 255.654771) scale(0.1 -0.1)">
     <use xlink:href="#DejaVuSans-34"/>
    </g>
   </g>
   <g id="text_16">
    <!-- 2 -->
    <g transform="translate(178.515694 255.654771) scale(0.1 -0.1)">
     <use xlink:href="#DejaVuSans-32"/>
    </g>
   </g>
   <g id="text_17">
    <!-- 3 -->
    <g transform="translate(216.802356 255.654771) scale(0.1 -0.1)">
     <use xlink:href="#DejaVuSans-33"/>
    </g>
   </g>
   <g id="text_18">
    <!-- 1 -->
    <g transform="translate(63.65571 212.339472) scale(0.1 -0.1)">
     <use xlink:href="#DejaVuSans-31"/>
    </g>
   </g>
   <g id="text_19">
    <!-- 0 -->
    <g transform="translate(101.942372 212.339472) scale(0.1 -0.1)">
     <use xlink:href="#DejaVuSans-30"/>
    </g>
   </g>
   <g id="text_20">
    <!-- 6 -->
    <g transform="translate(140.229033 212.339472) scale(0.1 -0.1)">
     <use xlink:href="#DejaVuSans-36"/>
    </g>
   </g>
   <g id="text_21">
    <!-- 3 -->
    <g transform="translate(178.515694 212.339472) scale(0.1 -0.1)">
     <use xlink:href="#DejaVuSans-33"/>
    </g>
   </g>
   <g id="text_22">
    <!-- 1 -->
    <g transform="translate(216.802356 212.339472) scale(0.1 -0.1)">
     <use xlink:href="#DejaVuSans-31"/>
    </g>
   </g>
   <g id="text_23">
    <!-- 6 -->
    <g transform="translate(63.65571 169.024174) scale(0.1 -0.1)">
     <use xlink:href="#DejaVuSans-36"/>
    </g>
   </g>
   <g id="text_24">
    <!-- 4 -->
    <g transform="translate(101.942372 169.024174) scale(0.1 -0.1)">
     <use xlink:href="#DejaVuSans-34"/>
    </g>
   </g>
   <g id="text_25">
    <!-- 2 -->
    <g transform="translate(140.229033 169.024174) scale(0.1 -0.1)">
     <use xlink:href="#DejaVuSans-32"/>
    </g>
   </g>
   <g id="text_26">
    <!-- 1 -->
    <g transform="translate(178.515694 169.024174) scale(0.1 -0.1)">
     <use xlink:href="#DejaVuSans-31"/>
    </g>
   </g>
   <g id="text_27">
    <!-- 0 -->
    <g transform="translate(216.802356 169.024174) scale(0.1 -0.1)">
     <use xlink:href="#DejaVuSans-30"/>
    </g>
   </g>
   <g id="text_28">
    <!-- 5 -->
    <g transform="translate(63.65571 125.708876) scale(0.1 -0.1)">
     <defs>
      <path id="DejaVuSans-35" d="M 691 4666 
L 3169 4666 
L 3169 4134 
L 1269 4134 
L 1269 2991 
Q 1406 3038 1543 3061 
Q 1681 3084 1819 3084 
Q 2600 3084 3056 2656 
Q 3513 2228 3513 1497 
Q 3513 744 3044 326 
Q 2575 -91 1722 -91 
Q 1428 -91 1123 -41 
Q 819 9 494 109 
L 494 744 
Q 775 591 1075 516 
Q 1375 441 1709 441 
Q 2250 441 2565 725 
Q 2881 1009 2881 1497 
Q 2881 1984 2565 2268 
Q 2250 2553 1709 2553 
Q 1456 2553 1204 2497 
Q 953 2441 691 2322 
L 691 4666 
z
" transform="scale(0.015625)"/>
     </defs>
     <use xlink:href="#DejaVuSans-35"/>
    </g>
   </g>
   <g id="text_29">
    <!-- 5 -->
    <g transform="translate(101.942372 125.708876) scale(0.1 -0.1)">
     <use xlink:href="#DejaVuSans-35"/>
    </g>
   </g>
   <g id="text_30">
    <!-- 0 -->
    <g transform="translate(140.229033 125.708876) scale(0.1 -0.1)">
     <use xlink:href="#DejaVuSans-30"/>
    </g>
   </g>
   <g id="text_31">
    <!-- 0 -->
    <g transform="translate(178.515694 125.708876) scale(0.1 -0.1)">
     <use xlink:href="#DejaVuSans-30"/>
    </g>
   </g>
   <g id="text_32">
    <!-- 0 -->
    <g transform="translate(216.802356 125.708876) scale(0.1 -0.1)">
     <use xlink:href="#DejaVuSans-30"/>
    </g>
   </g>
   <g id="text_33">
    <!-- 1 -->
    <g transform="translate(63.65571 82.393577) scale(0.1 -0.1)">
     <use xlink:href="#DejaVuSans-31"/>
    </g>
   </g>
   <g id="text_34">
    <!-- 0 -->
    <g transform="translate(101.942372 82.393577) scale(0.1 -0.1)">
     <use xlink:href="#DejaVuSans-30"/>
    </g>
   </g>
   <g id="text_35">
    <!-- 0 -->
    <g transform="translate(140.229033 82.393577) scale(0.1 -0.1)">
     <use xlink:href="#DejaVuSans-30"/>
    </g>
   </g>
   <g id="text_36">
    <!-- 0 -->
    <g transform="translate(178.515694 82.393577) scale(0.1 -0.1)">
     <use xlink:href="#DejaVuSans-30"/>
    </g>
   </g>
   <g id="text_37">
    <!-- 0 -->
    <g transform="translate(216.802356 82.393577) scale(0.1 -0.1)">
     <use xlink:href="#DejaVuSans-30"/>
    </g>
   </g>
   <g id="text_38">
    <!-- Quadrat Count -->
    <g transform="translate(118.926937 16.318125) scale(0.12 -0.12)">
     <defs>
      <path id="DejaVuSans-51" d="M 2522 4238 
Q 1834 4238 1429 3725 
Q 1025 3213 1025 2328 
Q 1025 1447 1429 934 
Q 1834 422 2522 422 
Q 3209 422 3611 934 
Q 4013 1447 4013 2328 
Q 4013 3213 3611 3725 
Q 3209 4238 2522 4238 
z
M 3406 84 
L 4238 -825 
L 3475 -825 
L 2784 -78 
Q 2681 -84 2626 -87 
Q 2572 -91 2522 -91 
Q 1538 -91 948 567 
Q 359 1225 359 2328 
Q 359 3434 948 4092 
Q 1538 4750 2522 4750 
Q 3503 4750 4090 4092 
Q 4678 3434 4678 2328 
Q 4678 1516 4351 937 
Q 4025 359 3406 84 
z
" transform="scale(0.015625)"/>
      <path id="DejaVuSans-75" d="M 544 1381 
L 544 3500 
L 1119 3500 
L 1119 1403 
Q 1119 906 1312 657 
Q 1506 409 1894 409 
Q 2359 409 2629 706 
Q 2900 1003 2900 1516 
L 2900 3500 
L 3475 3500 
L 3475 0 
L 2900 0 
L 2900 538 
Q 2691 219 2414 64 
Q 2138 -91 1772 -91 
Q 1169 -91 856 284 
Q 544 659 544 1381 
z
M 1991 3584 
L 1991 3584 
z
" transform="scale(0.015625)"/>
      <path id="DejaVuSans-61" d="M 2194 1759 
Q 1497 1759 1228 1600 
Q 959 1441 959 1056 
Q 959 750 1161 570 
Q 1363 391 1709 391 
Q 2188 391 2477 730 
Q 2766 1069 2766 1631 
L 2766 1759 
L 2194 1759 
z
M 3341 1997 
L 3341 0 
L 2766 0 
L 2766 531 
Q 2569 213 2275 61 
Q 1981 -91 1556 -91 
Q 1019 -91 701 211 
Q 384 513 384 1019 
Q 384 1609 779 1909 
Q 1175 2209 1959 2209 
L 2766 2209 
L 2766 2266 
Q 2766 2663 2505 2880 
Q 2244 3097 1772 3097 
Q 1472 3097 1187 3025 
Q 903 2953 641 2809 
L 641 3341 
Q 956 3463 1253 3523 
Q 1550 3584 1831 3584 
Q 2591 3584 2966 3190 
Q 3341 2797 3341 1997 
z
" transform="scale(0.015625)"/>
      <path id="DejaVuSans-64" d="M 2906 2969 
L 2906 4863 
L 3481 4863 
L 3481 0 
L 2906 0 
L 2906 525 
Q 2725 213 2448 61 
Q 2172 -91 1784 -91 
Q 1150 -91 751 415 
Q 353 922 353 1747 
Q 353 2572 751 3078 
Q 1150 3584 1784 3584 
Q 2172 3584 2448 3432 
Q 2725 3281 2906 2969 
z
M 947 1747 
Q 947 1113 1208 752 
Q 1469 391 1925 391 
Q 2381 391 2643 752 
Q 2906 1113 2906 1747 
Q 2906 2381 2643 2742 
Q 2381 3103 1925 3103 
Q 1469 3103 1208 2742 
Q 947 2381 947 1747 
z
" transform="scale(0.015625)"/>
      <path id="DejaVuSans-72" d="M 2631 2963 
Q 2534 3019 2420 3045 
Q 2306 3072 2169 3072 
Q 1681 3072 1420 2755 
Q 1159 2438 1159 1844 
L 1159 0 
L 581 0 
L 581 3500 
L 1159 3500 
L 1159 2956 
Q 1341 3275 1631 3429 
Q 1922 3584 2338 3584 
Q 2397 3584 2469 3576 
Q 2541 3569 2628 3553 
L 2631 2963 
z
" transform="scale(0.015625)"/>
      <path id="DejaVuSans-74" d="M 1172 4494 
L 1172 3500 
L 2356 3500 
L 2356 3053 
L 1172 3053 
L 1172 1153 
Q 1172 725 1289 603 
Q 1406 481 1766 481 
L 2356 481 
L 2356 0 
L 1766 0 
Q 1100 0 847 248 
Q 594 497 594 1153 
L 594 3053 
L 172 3053 
L 172 3500 
L 594 3500 
L 594 4494 
L 1172 4494 
z
" transform="scale(0.015625)"/>
      <path id="DejaVuSans-20" transform="scale(0.015625)"/>
      <path id="DejaVuSans-43" d="M 4122 4306 
L 4122 3641 
Q 3803 3938 3442 4084 
Q 3081 4231 2675 4231 
Q 1875 4231 1450 3742 
Q 1025 3253 1025 2328 
Q 1025 1406 1450 917 
Q 1875 428 2675 428 
Q 3081 428 3442 575 
Q 3803 722 4122 1019 
L 4122 359 
Q 3791 134 3420 21 
Q 3050 -91 2638 -91 
Q 1578 -91 968 557 
Q 359 1206 359 2328 
Q 359 3453 968 4101 
Q 1578 4750 2638 4750 
Q 3056 4750 3426 4639 
Q 3797 4528 4122 4306 
z
" transform="scale(0.015625)"/>
      <path id="DejaVuSans-6f" d="M 1959 3097 
Q 1497 3097 1228 2736 
Q 959 2375 959 1747 
Q 959 1119 1226 758 
Q 1494 397 1959 397 
Q 2419 397 2687 759 
Q 2956 1122 2956 1747 
Q 2956 2369 2687 2733 
Q 2419 3097 1959 3097 
z
M 1959 3584 
Q 2709 3584 3137 3096 
Q 3566 2609 3566 1747 
Q 3566 888 3137 398 
Q 2709 -91 1959 -91 
Q 1206 -91 779 398 
Q 353 888 353 1747 
Q 353 2609 779 3096 
Q 1206 3584 1959 3584 
z
" transform="scale(0.015625)"/>
      <path id="DejaVuSans-6e" d="M 3513 2113 
L 3513 0 
L 2938 0 
L 2938 2094 
Q 2938 2591 2744 2837 
Q 2550 3084 2163 3084 
Q 1697 3084 1428 2787 
Q 1159 2491 1159 1978 
L 1159 0 
L 581 0 
L 581 3500 
L 1159 3500 
L 1159 2956 
Q 1366 3272 1645 3428 
Q 1925 3584 2291 3584 
Q 2894 3584 3203 3211 
Q 3513 2838 3513 2113 
z
" transform="scale(0.015625)"/>
     </defs>
     <use xlink:href="#DejaVuSans-51"/>
     <use xlink:href="#DejaVuSans-75" transform="translate(78.710938 0)"/>
     <use xlink:href="#DejaVuSans-61" transform="translate(142.089844 0)"/>
     <use xlink:href="#DejaVuSans-64" transform="translate(203.369141 0)"/>
     <use xlink:href="#DejaVuSans-72" transform="translate(266.845703 0)"/>
     <use xlink:href="#DejaVuSans-61" transform="translate(307.958984 0)"/>
     <use xlink:href="#DejaVuSans-74" transform="translate(369.238281 0)"/>
     <use xlink:href="#DejaVuSans-20" transform="translate(408.447266 0)"/>
     <use xlink:href="#DejaVuSans-43" transform="translate(440.234375 0)"/>
     <use xlink:href="#DejaVuSans-6f" transform="translate(510.058594 0)"/>
     <use xlink:href="#DejaVuSans-75" transform="translate(571.240234 0)"/>
     <use xlink:href="#DejaVuSans-6e" transform="translate(634.619141 0)"/>
     <use xlink:href="#DejaVuSans-74" transform="translate(697.998047 0)"/>
    </g>
   </g>
  </g>
 </g>
 <defs>
  <clipPath id="pd18f458fc2">
   <rect x="30.103125" y="22.318125" width="266.112" height="266.112"/>
  </clipPath>
 </defs>
</svg>
