<?xml version="1.0" encoding="utf-8" standalone="no"?>
<!DOCTYPE svg PUBLIC "-//W3C//DTD SVG 1.1//EN"
  "http://www.w3.org/Graphics/SVG/1.1/DTD/svg11.dtd">
<svg xmlns:xlink="http://www.w3.org/1999/xlink" width="400.785625pt" height="212.353439pt" viewBox="0 0 400.785625 212.353439" xmlns="http://www.w3.org/2000/svg" version="1.1">
 <metadata>
  <rdf:RDF xmlns:dc="http://purl.org/dc/elements/1.1/" xmlns:cc="http://creativecommons.org/ns#" xmlns:rdf="http://www.w3.org/1999/02/22-rdf-syntax-ns#">
   <cc:Work>
    <dc:type rdf:resource="http://purl.org/dc/dcmitype/StillImage"/>
    <dc:date>2026-02-23T16:17:50.042543</dc:date>
    <dc:format>image/svg+xml</dc:format>
    <dc:creator>
     <cc:Agent>
      <dc:title>Matplotlib v3.10.8, https://matplotlib.org/</dc:title>
     </cc:Agent>
    </dc:creator>
   </cc:Work>
  </rdf:RDF>
 </metadata>
 <defs>
  <style type="text/css">*{stroke-linejoin: round; stroke-linecap: butt}</style>
 </defs>
 <g id="figure_1">
  <g id="patch_1">
   <path d="M 0 212.353439 
L 400.785625 212.353439 
L 400.785625 0 
L 0 0 
z
" style="fill: #ffffff"/>
  </g>
  <g id="axes_1">
   <g id="patch_2">
    <path d="M 36.465625 188.475314 
L 393.585625 188.475314 
L 393.585625 22.318125 
L 36.465625 22.318125 
z
" style="fill: #ffffff"/>
   </g>
   <g id="PatchCollection_1">
    <path d="M 51.599027 180.54119 
L 45.042311 180.395315 
L 34.296021 180.350558 
L 32.503825 180.199212 
L 31.242229 179.543413 
L 22.177566 179.416366 
L 12.070682 179.153857 
L 13.459968 178.105839 
L 19.081236 175.611443 
L 22.46467 175.678628 
L 25.164149 175.123192 
L 26.063271 174.200859 
L 29.178772 173.010357 
L 34.843909 171.674283 
L 37.966578 171.400429 
L 38.656481 170.755498 
L 38.510358 169.08882 
L 41.482838 164.883755 
L 42.510552 164.442437 
L 47.091745 164.224322 
L 50.599778 162.534639 
L 51.475156 160.265564 
L 51.241804 157.739647 
L 53.866965 155.947155 
L 58.120193 154.339023 
L 58.323135 152.444716 
L 58.851674 151.886582 
L 58.289564 150.828367 
L 58.41631 149.826348 
L 65.686815 144.966514 
L 66.546796 144.656267 
L 73.442689 141.714079 
L 75.922497 141.167003 
L 79.039617 138.575718 
L 94.806358 125.31683 
L 95.933248 126.785558 
L 95.33147 127.588681 
L 93.979576 128.176168 
L 93.411703 129.139865 
L 96.576856 132.206318 
L 96.262797 134.804912 
L 97.651643 136.668424 
L 99.224855 137.582174 
L 99.458504 138.678971 
L 100.386298 139.966219 
L 101.499017 140.33041 
L 102.581365 139.88725 
L 104.511042 140.78801 
L 105.136987 142.086095 
L 106.874526 142.993818 
L 108.564252 144.819482 
L 113.755072 144.767315 
L 116.192842 143.116467 
L 116.673677 142.021265 
L 117.632058 141.932815 
L 121.058844 140.273344 
L 121.654354 138.580968 
L 123.186162 136.935676 
L 125.402862 139.631455 
L 129.616352 142.821182 
L 133.523063 140.766748 
L 139.020522 140.110091 
L 140.871213 138.91142 
L 141.22252 139.491484 
L 141.727721 139.769622 
L 143.327114 139.199772 
L 147.060854 136.935828 
L 147.392323 136.25025 
L 146.017018 134.009424 
L 147.285644 131.94243 
L 149.699079 132.55572 
L 149.719124 133.821567 
L 151.104962 134.148589 
L 151.440249 135.025904 
L 152.164654 134.568526 
L 152.228015 134.054159 
L 153.013389 133.756016 
L 154.176814 134.010428 
L 159.267901 130.565322 
L 161.853686 129.177912 
L 163.461282 128.823081 
L 164.454635 129.676259 
L 164.514586 131.264367 
L 165.088212 131.917068 
L 167.423711 131.18549 
L 169.167992 129.343562 
L 170.875484 128.715706 
L 171.089267 127.81857 
L 173.901278 126.61152 
L 174.229994 125.11728 
L 172.929007 125.595726 
L 172.094092 125.302851 
L 172.514297 123.320358 
L 175.8257 121.502078 
L 177.110506 119.865399 
L 175.425632 118.902485 
L 173.228489 118.928689 
L 173.037715 118.234992 
L 173.46194 117.08773 
L 173.10717 116.426766 
L 175.592679 113.830152 
L 175.358318 111.979392 
L 176.958043 110.681473 
L 176.796068 109.286186 
L 179.23256 106.852748 
L 179.194019 105.830183 
L 179.760265 104.812413 
L 181.70657 103.959668 
L 182.259043 102.565192 
L 184.666969 100.105909 
L 187.199894 98.045994 
L 188.766659 95.131955 
L 189.169475 93.419429 
L 190.517398 91.268067 
L 190.174878 90.202514 
L 191.318863 87.735135 
L 191.03421 86.748527 
L 194.967866 82.480593 
L 196.712068 81.365519 
L 197.032332 80.383567 
L 196.259966 79.576377 
L 196.362721 78.65645 
L 198.031661 76.277178 
L 199.492009 76.385248 
L 200.055366 73.831062 
L 201.705987 71.694854 
L 201.246745 67.5341 
L 202.491716 66.302369 
L 202.288363 64.557969 
L 203.512325 62.033173 
L 208.487023 64.248152 
L 210.917308 69.657083 
L 218.882895 72.462084 
L 220.942479 70.957316 
L 222.795215 68.354739 
L 227.448697 57.695424 
L 227.738456 57.361109 
L 229.259124 57.600919 
L 229.260655 54.743296 
L 230.620024 51.457405 
L 230.665549 49.757246 
L 231.632999 49.182016 
L 233.724303 46.353763 
L 239.458124 51.180186 
L 241.71714 46.944049 
L 242.710394 44.156569 
L 244.699215 42.248282 
L 245.207906 41.177653 
L 245.837138 41.100057 
L 246.114224 42.599678 
L 247.88879 41.562172 
L 249.388496 39.806806 
L 250.09156 38.054381 
L 251.602445 38.752598 
L 253.638424 35.924971 
L 253.808851 35.352258 
L 253.09596 34.678045 
L 254.336525 33.336833 
L 255.900959 31.120006 
L 256.628154 30.013759 
L 258.34204 29.544106 
L 259.098324 27.762612 
L 260.366299 26.419677 
L 259.316396 24.841478 
L 259.338078 23.977443 
L 260.389065 21.995656 
L 259.70125 21.266527 
L 262.913961 16.18112 
L 262.755097 15.620722 
L 261.742216 15.012027 
L 262.412163 13.853658 
L 262.402867 9.322423 
L 265.719125 11.218615 
L 267.962026 13.075122 
L 277.255132 20.245974 
L 286.896405 27.861673 
L 287.368888 27.277096 
L 287.929496 23.990995 
L 289.544903 20.960954 
L 289.869302 18.682006 
L 291.275761 16.657961 
L 293.497601 16.518293 
L 296.451821 17.537495 
L 298.651583 17.533343 
L 299.955124 19.237113 
L 302.222843 20.282614 
L 303.616632 21.470025 
L 303.777731 22.084451 
L 303.104674 24.59332 
L 301.39193 25.819835 
L 301.650446 28.238332 
L 303.244914 28.932563 
L 304.204247 30.27178 
L 305.472208 31.059308 
L 309.477558 30.796692 
L 310.507615 31.107877 
L 313.773356 33.059572 
L 314.468857 36.109214 
L 318.751308 36.591313 
L 320.199608 38.478485 
L 322.26995 39.370206 
L 322.859467 41.101806 
L 324.259231 42.451061 
L 324.259525 43.881605 
L 324.060422 44.429196 
L 324.562621 45.327626 
L 324.154595 46.88175 
L 324.285366 51.006112 
L 323.806636 51.429391 
L 322.645159 51.28527 
L 322.14898 51.979227 
L 320.72573 53.599182 
L 320.573098 55.372914 
L 317.499784 57.01571 
L 317.522853 54.747857 
L 316.016528 55.408289 
L 312.828752 64.398988 
L 311.354066 68.333222 
L 313.822815 72.649544 
L 312.353457 73.821108 
L 316.181874 74.417658 
L 324.78728 71.439062 
L 327.614598 76.980014 
L 330.765396 81.47655 
L 346.989231 85.63455 
L 349.308299 88.271645 
L 349.023684 91.192355 
L 348.350551 92.545019 
L 350.635353 91.864912 
L 358.176845 94.820579 
L 363.489836 98.542147 
L 363.953649 100.894333 
L 360.683064 104.121637 
L 361.609747 108.826049 
L 359.443174 110.065689 
L 361.113148 111.312648 
L 360.244665 114.627747 
L 352.477718 113.013115 
L 348.689853 106.416439 
L 346.195047 104.970738 
L 339.262224 98.121565 
L 337.057374 98.052563 
L 341.444297 105.063533 
L 343.89761 106.364317 
L 349.568499 114.014445 
L 361.887432 118.821104 
L 360.354849 120.450125 
L 352.500639 119.198189 
L 356.332861 121.240536 
L 360.049739 121.025248 
L 365.213736 128.251915 
L 364.414983 131.860778 
L 363.178355 131.669285 
L 361.198453 128.252425 
L 355.896896 124.672726 
L 355.200028 127.034991 
L 357.441388 127.329005 
L 358.187032 129.623421 
L 355.716469 129.477317 
L 358.941099 134.330706 
L 355.800731 136.747116 
L 346.229928 127.857003 
L 343.78519 127.594477 
L 345.558573 130.304033 
L 349.337668 134.916111 
L 357.672468 139.525314 
L 358.385864 142.762825 
L 359.093396 141.498561 
L 360.745185 143.003465 
L 361.915286 141.123252 
L 364.534935 144.266498 
L 359.33851 145.379654 
L 364.99749 147.089786 
L 364.46971 150.326079 
L 360.208148 152.327681 
L 358.297751 153.919065 
L 353.001877 148.070383 
L 353.698925 146.802559 
L 351.272593 145.164736 
L 351.188931 147.408792 
L 348.355981 144.436236 
L 348.936864 141.650699 
L 346.996901 138.924683 
L 344.646649 138.634123 
L 342.424456 141.06574 
L 339.930502 138.377806 
L 337.010666 138.297483 
L 335.93483 133.636669 
L 335.960234 137.418703 
L 333.02198 138.904704 
L 335.044545 140.935073 
L 339.948308 140.347718 
L 343.342399 143.569245 
L 345.27199 140.662956 
L 346.094799 143.620393 
L 346.629813 149.17077 
L 350.896181 150.739876 
L 349.283197 152.581269 
L 352.033055 151.77709 
L 355.283386 154.273784 
L 354.102301 157.281328 
L 355.753562 156.792076 
L 355.607877 158.200324 
L 352.228092 161.562756 
L 352.29201 164.311439 
L 354.698496 159.798272 
L 359.211368 157.67985 
L 362.168713 156.825428 
L 362.620503 159.97123 
L 360.197743 161.534831 
L 359.886717 162.13317 
L 363.832096 160.766711 
L 365.065431 161.749112 
L 364.019578 155.02642 
L 365.074831 153.738476 
L 369.065277 155.18787 
L 369.666405 156.983316 
L 373.080603 155.189389 
L 378.982111 155.388569 
L 385.748543 176.930748 
L 384.60478 176.97233 
L 384.907281 174.402438 
L 381.744476 167.26256 
L 379.965217 177.189446 
L 378.597627 177.256661 
L 376.78991 174.555314 
L 377.695443 177.289228 
L 373.788227 177.476783 
L 364.060723 178.026321 
L 356.036608 178.424236 
L 352.871404 178.605004 
L 335.702422 179.431455 
L 335.582441 179.43723 
L 323.434309 179.80933 
L 316.597211 180.21734 
L 295.315489 181.011633 
L 288.847652 181.254382 
L 281.522578 181.512812 
L 268.610357 182.303592 
L 262.022011 182.723299 
L 248.660041 182.783982 
L 245.820309 183.000935 
L 229.153356 183.202524 
L 225.662641 183.047294 
L 211.609856 183.412617 
L 201.68128 183.541855 
L 186.987799 183.884523 
L 185.834335 183.77076 
L 167.274947 183.684775 
L 158.85117 183.355144 
L 147.967813 183.021498 
L 144.839545 182.920338 
L 123.669798 182.438429 
L 108.120271 181.359303 
L 108.96876 180.301475 
L 100.512496 180.003097 
L 96.232795 179.844518 
L 95.695455 180.888356 
L 84.924136 180.81871 
L 81.930729 180.84569 
L 78.087673 180.930277 
L 63.047657 180.717673 
L 51.599027 180.54119 
z
" clip-path="url(#pf77e55475e)" style="fill: none; stroke: #000000; stroke-opacity: 0.3"/>
    <path d="M 382.248473 128.720215 
L 381.339552 142.181769 
L 379.505922 143.249817 
L 376.672589 132.514101 
L 380.100636 121.843439 
L 378.648544 122.237075 
L 379.02186 119.683563 
L 380.043503 117.537655 
L 383.059686 117.654315 
L 379.53875 117.286673 
L 380.006922 115.810286 
L 382.025881 116.030933 
L 381.101884 115.375701 
L 385.73524 107.985571 
L 386.284639 103.299228 
L 390.250607 101.006092 
L 390.57891 98.98211 
L 388.105961 94.800244 
L 391.627735 93.96602 
L 392.01042 92.216499 
L 392.945465 90.593824 
L 401.785625 89.167197 
M 401.785625 94.388096 
L 394.375156 108.370861 
L 395.767792 109.480309 
L 390.882828 114.991816 
L 393.313548 116.629228 
L 389.661115 116.929981 
L 388.447631 119.840292 
L 390.932046 120.719017 
L 385.906045 122.456935 
L 385.69278 125.024103 
L 387.16181 126.022475 
L 385.425683 125.519389 
L 382.248473 128.720215 
" clip-path="url(#pf77e55475e)" style="fill: none; stroke: #000000; stroke-opacity: 0.3"/>
    <path clip-path="url(#pf77e55475e)" style="fill: none; stroke: #000000; stroke-opacity: 0.3"/>
   </g>
   <g id="matplotlib.axis_1">
    <g id="xtick_1">
     <g id="line2d_1">
      <defs>
       <path id="mb709bf606d" d="M 0 0 
L 0 3.5 
" style="stroke: #000000; stroke-width: 0.8"/>
      </defs>
      <g>
       <use xlink:href="#mb709bf606d" x="86.665321" y="188.475314" style="stroke: #000000; stroke-width: 0.8"/>
      </g>
     </g>
     <g id="text_1">
      <!-- 400000 -->
      <g transform="translate(67.577821 203.073751) scale(0.1 -0.1)">
       <defs>
        <path id="DejaVuSans-34" d="M 2419 4116 
L 825 1625 
L 2419 1625 
L 2419 4116 
z
M 2253 4666 
L 3047 4666 
L 3047 1625 
L 3713 1625 
L 3713 1100 
L 3047 1100 
L 3047 0 
L 2419 0 
L 2419 1100 
L 313 1100 
L 313 1709 
L 2253 4666 
z
" transform="scale(0.015625)"/>
        <path id="DejaVuSans-30" d="M 2034 4250 
Q 1547 4250 1301 3770 
Q 1056 3291 1056 2328 
Q 1056 1369 1301 889 
Q 1547 409 2034 409 
Q 2525 409 2770 889 
Q 3016 1369 3016 2328 
Q 3016 3291 2770 3770 
Q 2525 4250 2034 4250 
z
M 2034 4750 
Q 2819 4750 3233 4129 
Q 3647 3509 3647 2328 
Q 3647 1150 3233 529 
Q 2819 -91 2034 -91 
Q 1250 -91 836 529 
Q 422 1150 422 2328 
Q 422 3509 836 4129 
Q 1250 4750 2034 4750 
z
" transform="scale(0.015625)"/>
       </defs>
       <use xlink:href="#DejaVuSans-34"/>
       <use xlink:href="#DejaVuSans-30" transform="translate(63.623047 0)"/>
       <use xlink:href="#DejaVuSans-30" transform="translate(127.246094 0)"/>
       <use xlink:href="#DejaVuSans-30" transform="translate(190.869141 0)"/>
       <use xlink:href="#DejaVuSans-30" transform="translate(254.492188 0)"/>
       <use xlink:href="#DejaVuSans-30" transform="translate(318.115234 0)"/>
      </g>
     </g>
    </g>
    <g id="xtick_2">
     <g id="line2d_2">
      <g>
       <use xlink:href="#mb709bf606d" x="140.213029" y="188.475314" style="stroke: #000000; stroke-width: 0.8"/>
      </g>
     </g>
     <g id="text_2">
      <!-- 500000 -->
      <g transform="translate(121.125529 203.073751) scale(0.1 -0.1)">
       <defs>
        <path id="DejaVuSans-35" d="M 691 4666 
L 3169 4666 
L 3169 4134 
L 1269 4134 
L 1269 2991 
Q 1406 3038 1543 3061 
Q 1681 3084 1819 3084 
Q 2600 3084 3056 2656 
Q 3513 2228 3513 1497 
Q 3513 744 3044 326 
Q 2575 -91 1722 -91 
Q 1428 -91 1123 -41 
Q 819 9 494 109 
L 494 744 
Q 775 591 1075 516 
Q 1375 441 1709 441 
Q 2250 441 2565 725 
Q 2881 1009 2881 1497 
Q 2881 1984 2565 2268 
Q 2250 2553 1709 2553 
Q 1456 2553 1204 2497 
Q 953 2441 691 2322 
L 691 4666 
z
" transform="scale(0.015625)"/>
       </defs>
       <use xlink:href="#DejaVuSans-35"/>
       <use xlink:href="#DejaVuSans-30" transform="translate(63.623047 0)"/>
       <use xlink:href="#DejaVuSans-30" transform="translate(127.246094 0)"/>
       <use xlink:href="#DejaVuSans-30" transform="translate(190.869141 0)"/>
       <use xlink:href="#DejaVuSans-30" transform="translate(254.492188 0)"/>
       <use xlink:href="#DejaVuSans-30" transform="translate(318.115234 0)"/>
      </g>
     </g>
    </g>
    <g id="xtick_3">
     <g id="line2d_3">
      <g>
       <use xlink:href="#mb709bf606d" x="193.760738" y="188.475314" style="stroke: #000000; stroke-width: 0.8"/>
      </g>
     </g>
     <g id="text_3">
      <!-- 600000 -->
      <g transform="translate(174.673238 203.073751) scale(0.1 -0.1)">
       <defs>
        <path id="DejaVuSans-36" d="M 2113 2584 
Q 1688 2584 1439 2293 
Q 1191 2003 1191 1497 
Q 1191 994 1439 701 
Q 1688 409 2113 409 
Q 2538 409 2786 701 
Q 3034 994 3034 1497 
Q 3034 2003 2786 2293 
Q 2538 2584 2113 2584 
z
M 3366 4563 
L 3366 3988 
Q 3128 4100 2886 4159 
Q 2644 4219 2406 4219 
Q 1781 4219 1451 3797 
Q 1122 3375 1075 2522 
Q 1259 2794 1537 2939 
Q 1816 3084 2150 3084 
Q 2853 3084 3261 2657 
Q 3669 2231 3669 1497 
Q 3669 778 3244 343 
Q 2819 -91 2113 -91 
Q 1303 -91 875 529 
Q 447 1150 447 2328 
Q 447 3434 972 4092 
Q 1497 4750 2381 4750 
Q 2619 4750 2861 4703 
Q 3103 4656 3366 4563 
z
" transform="scale(0.015625)"/>
       </defs>
       <use xlink:href="#DejaVuSans-36"/>
       <use xlink:href="#DejaVuSans-30" transform="translate(63.623047 0)"/>
       <use xlink:href="#DejaVuSans-30" transform="translate(127.246094 0)"/>
       <use xlink:href="#DejaVuSans-30" transform="translate(190.869141 0)"/>
       <use xlink:href="#DejaVuSans-30" transform="translate(254.492188 0)"/>
       <use xlink:href="#DejaVuSans-30" transform="translate(318.115234 0)"/>
      </g>
     </g>
    </g>
    <g id="xtick_4">
     <g id="line2d_4">
      <g>
       <use xlink:href="#mb709bf606d" x="247.308446" y="188.475314" style="stroke: #000000; stroke-width: 0.8"/>
      </g>
     </g>
     <g id="text_4">
      <!-- 700000 -->
      <g transform="translate(228.220946 203.073751) scale(0.1 -0.1)">
       <defs>
        <path id="DejaVuSans-37" d="M 525 4666 
L 3525 4666 
L 3525 4397 
L 1831 0 
L 1172 0 
L 2766 4134 
L 525 4134 
L 525 4666 
z
" transform="scale(0.015625)"/>
       </defs>
       <use xlink:href="#DejaVuSans-37"/>
       <use xlink:href="#DejaVuSans-30" transform="translate(63.623047 0)"/>
       <use xlink:href="#DejaVuSans-30" transform="translate(127.246094 0)"/>
       <use xlink:href="#DejaVuSans-30" transform="translate(190.869141 0)"/>
       <use xlink:href="#DejaVuSans-30" transform="translate(254.492188 0)"/>
       <use xlink:href="#DejaVuSans-30" transform="translate(318.115234 0)"/>
      </g>
     </g>
    </g>
    <g id="xtick_5">
     <g id="line2d_5">
      <g>
       <use xlink:href="#mb709bf606d" x="300.856155" y="188.475314" style="stroke: #000000; stroke-width: 0.8"/>
      </g>
     </g>
     <g id="text_5">
      <!-- 800000 -->
      <g transform="translate(281.768655 203.073751) scale(0.1 -0.1)">
       <defs>
        <path id="DejaVuSans-38" d="M 2034 2216 
Q 1584 2216 1326 1975 
Q 1069 1734 1069 1313 
Q 1069 891 1326 650 
Q 1584 409 2034 409 
Q 2484 409 2743 651 
Q 3003 894 3003 1313 
Q 3003 1734 2745 1975 
Q 2488 2216 2034 2216 
z
M 1403 2484 
Q 997 2584 770 2862 
Q 544 3141 544 3541 
Q 544 4100 942 4425 
Q 1341 4750 2034 4750 
Q 2731 4750 3128 4425 
Q 3525 4100 3525 3541 
Q 3525 3141 3298 2862 
Q 3072 2584 2669 2484 
Q 3125 2378 3379 2068 
Q 3634 1759 3634 1313 
Q 3634 634 3220 271 
Q 2806 -91 2034 -91 
Q 1263 -91 848 271 
Q 434 634 434 1313 
Q 434 1759 690 2068 
Q 947 2378 1403 2484 
z
M 1172 3481 
Q 1172 3119 1398 2916 
Q 1625 2713 2034 2713 
Q 2441 2713 2670 2916 
Q 2900 3119 2900 3481 
Q 2900 3844 2670 4047 
Q 2441 4250 2034 4250 
Q 1625 4250 1398 4047 
Q 1172 3844 1172 3481 
z
" transform="scale(0.015625)"/>
       </defs>
       <use xlink:href="#DejaVuSans-38"/>
       <use xlink:href="#DejaVuSans-30" transform="translate(63.623047 0)"/>
       <use xlink:href="#DejaVuSans-30" transform="translate(127.246094 0)"/>
       <use xlink:href="#DejaVuSans-30" transform="translate(190.869141 0)"/>
       <use xlink:href="#DejaVuSans-30" transform="translate(254.492188 0)"/>
       <use xlink:href="#DejaVuSans-30" transform="translate(318.115234 0)"/>
      </g>
     </g>
    </g>
    <g id="xtick_6">
     <g id="line2d_6">
      <g>
       <use xlink:href="#mb709bf606d" x="354.403863" y="188.475314" style="stroke: #000000; stroke-width: 0.8"/>
      </g>
     </g>
     <g id="text_6">
      <!-- 900000 -->
      <g transform="translate(335.316363 203.073751) scale(0.1 -0.1)">
       <defs>
        <path id="DejaVuSans-39" d="M 703 97 
L 703 672 
Q 941 559 1184 500 
Q 1428 441 1663 441 
Q 2288 441 2617 861 
Q 2947 1281 2994 2138 
Q 2813 1869 2534 1725 
Q 2256 1581 1919 1581 
Q 1219 1581 811 2004 
Q 403 2428 403 3163 
Q 403 3881 828 4315 
Q 1253 4750 1959 4750 
Q 2769 4750 3195 4129 
Q 3622 3509 3622 2328 
Q 3622 1225 3098 567 
Q 2575 -91 1691 -91 
Q 1453 -91 1209 -44 
Q 966 3 703 97 
z
M 1959 2075 
Q 2384 2075 2632 2365 
Q 2881 2656 2881 3163 
Q 2881 3666 2632 3958 
Q 2384 4250 1959 4250 
Q 1534 4250 1286 3958 
Q 1038 3666 1038 3163 
Q 1038 2656 1286 2365 
Q 1534 2075 1959 2075 
z
" transform="scale(0.015625)"/>
       </defs>
       <use xlink:href="#DejaVuSans-39"/>
       <use xlink:href="#DejaVuSans-30" transform="translate(63.623047 0)"/>
       <use xlink:href="#DejaVuSans-30" transform="translate(127.246094 0)"/>
       <use xlink:href="#DejaVuSans-30" transform="translate(190.869141 0)"/>
       <use xlink:href="#DejaVuSans-30" transform="translate(254.492188 0)"/>
       <use xlink:href="#DejaVuSans-30" transform="translate(318.115234 0)"/>
      </g>
     </g>
    </g>
   </g>
   <g id="matplotlib.axis_2">
    <g id="ytick_1">
     <g id="line2d_7">
      <defs>
       <path id="m7c42da116c" d="M 0 0 
L -3.5 0 
" style="stroke: #000000; stroke-width: 0.8"/>
      </defs>
      <g>
       <use xlink:href="#m7c42da116c" x="36.465625" y="181.124379" style="stroke: #000000; stroke-width: 0.8"/>
      </g>
     </g>
     <g id="text_7">
      <!-- 4.05 -->
      <g transform="translate(7.2 184.923597) scale(0.1 -0.1)">
       <defs>
        <path id="DejaVuSans-2e" d="M 684 794 
L 1344 794 
L 1344 0 
L 684 0 
L 684 794 
z
" transform="scale(0.015625)"/>
       </defs>
       <use xlink:href="#DejaVuSans-34"/>
       <use xlink:href="#DejaVuSans-2e" transform="translate(63.623047 0)"/>
       <use xlink:href="#DejaVuSans-30" transform="translate(95.410156 0)"/>
       <use xlink:href="#DejaVuSans-35" transform="translate(159.033203 0)"/>
      </g>
     </g>
    </g>
    <g id="ytick_2">
     <g id="line2d_8">
      <g>
       <use xlink:href="#m7c42da116c" x="36.465625" y="154.350524" style="stroke: #000000; stroke-width: 0.8"/>
      </g>
     </g>
     <g id="text_8">
      <!-- 4.10 -->
      <g transform="translate(7.2 158.149743) scale(0.1 -0.1)">
       <defs>
        <path id="DejaVuSans-31" d="M 794 531 
L 1825 531 
L 1825 4091 
L 703 3866 
L 703 4441 
L 1819 4666 
L 2450 4666 
L 2450 531 
L 3481 531 
L 3481 0 
L 794 0 
L 794 531 
z
" transform="scale(0.015625)"/>
       </defs>
       <use xlink:href="#DejaVuSans-34"/>
       <use xlink:href="#DejaVuSans-2e" transform="translate(63.623047 0)"/>
       <use xlink:href="#DejaVuSans-31" transform="translate(95.410156 0)"/>
       <use xlink:href="#DejaVuSans-30" transform="translate(159.033203 0)"/>
      </g>
     </g>
    </g>
    <g id="ytick_3">
     <g id="line2d_9">
      <g>
       <use xlink:href="#m7c42da116c" x="36.465625" y="127.57667" style="stroke: #000000; stroke-width: 0.8"/>
      </g>
     </g>
     <g id="text_9">
      <!-- 4.15 -->
      <g transform="translate(7.2 131.375889) scale(0.1 -0.1)">
       <use xlink:href="#DejaVuSans-34"/>
       <use xlink:href="#DejaVuSans-2e" transform="translate(63.623047 0)"/>
       <use xlink:href="#DejaVuSans-31" transform="translate(95.410156 0)"/>
       <use xlink:href="#DejaVuSans-35" transform="translate(159.033203 0)"/>
      </g>
     </g>
    </g>
    <g id="ytick_4">
     <g id="line2d_10">
      <g>
       <use xlink:href="#m7c42da116c" x="36.465625" y="100.802816" style="stroke: #000000; stroke-width: 0.8"/>
      </g>
     </g>
     <g id="text_10">
      <!-- 4.20 -->
      <g transform="translate(7.2 104.602035) scale(0.1 -0.1)">
       <defs>
        <path id="DejaVuSans-32" d="M 1228 531 
L 3431 531 
L 3431 0 
L 469 0 
L 469 531 
Q 828 903 1448 1529 
Q 2069 2156 2228 2338 
Q 2531 2678 2651 2914 
Q 2772 3150 2772 3378 
Q 2772 3750 2511 3984 
Q 2250 4219 1831 4219 
Q 1534 4219 1204 4116 
Q 875 4013 500 3803 
L 500 4441 
Q 881 4594 1212 4672 
Q 1544 4750 1819 4750 
Q 2544 4750 2975 4387 
Q 3406 4025 3406 3419 
Q 3406 3131 3298 2873 
Q 3191 2616 2906 2266 
Q 2828 2175 2409 1742 
Q 1991 1309 1228 531 
z
" transform="scale(0.015625)"/>
       </defs>
       <use xlink:href="#DejaVuSans-34"/>
       <use xlink:href="#DejaVuSans-2e" transform="translate(63.623047 0)"/>
       <use xlink:href="#DejaVuSans-32" transform="translate(95.410156 0)"/>
       <use xlink:href="#DejaVuSans-30" transform="translate(159.033203 0)"/>
      </g>
     </g>
    </g>
    <g id="ytick_5">
     <g id="line2d_11">
      <g>
       <use xlink:href="#m7c42da116c" x="36.465625" y="74.028962" style="stroke: #000000; stroke-width: 0.8"/>
      </g>
     </g>
     <g id="text_11">
      <!-- 4.25 -->
      <g transform="translate(7.2 77.828181) scale(0.1 -0.1)">
       <use xlink:href="#DejaVuSans-34"/>
       <use xlink:href="#DejaVuSans-2e" transform="translate(63.623047 0)"/>
       <use xlink:href="#DejaVuSans-32" transform="translate(95.410156 0)"/>
       <use xlink:href="#DejaVuSans-35" transform="translate(159.033203 0)"/>
      </g>
     </g>
    </g>
    <g id="ytick_6">
     <g id="line2d_12">
      <g>
       <use xlink:href="#m7c42da116c" x="36.465625" y="47.255108" style="stroke: #000000; stroke-width: 0.8"/>
      </g>
     </g>
     <g id="text_12">
      <!-- 4.30 -->
      <g transform="translate(7.2 51.054326) scale(0.1 -0.1)">
       <defs>
        <path id="DejaVuSans-33" d="M 2597 2516 
Q 3050 2419 3304 2112 
Q 3559 1806 3559 1356 
Q 3559 666 3084 287 
Q 2609 -91 1734 -91 
Q 1441 -91 1130 -33 
Q 819 25 488 141 
L 488 750 
Q 750 597 1062 519 
Q 1375 441 1716 441 
Q 2309 441 2620 675 
Q 2931 909 2931 1356 
Q 2931 1769 2642 2001 
Q 2353 2234 1838 2234 
L 1294 2234 
L 1294 2753 
L 1863 2753 
Q 2328 2753 2575 2939 
Q 2822 3125 2822 3475 
Q 2822 3834 2567 4026 
Q 2313 4219 1838 4219 
Q 1578 4219 1281 4162 
Q 984 4106 628 3988 
L 628 4550 
Q 988 4650 1302 4700 
Q 1616 4750 1894 4750 
Q 2613 4750 3031 4423 
Q 3450 4097 3450 3541 
Q 3450 3153 3228 2886 
Q 3006 2619 2597 2516 
z
" transform="scale(0.015625)"/>
       </defs>
       <use xlink:href="#DejaVuSans-34"/>
       <use xlink:href="#DejaVuSans-2e" transform="translate(63.623047 0)"/>
       <use xlink:href="#DejaVuSans-33" transform="translate(95.410156 0)"/>
       <use xlink:href="#DejaVuSans-30" transform="translate(159.033203 0)"/>
      </g>
     </g>
    </g>
    <g id="text_13">
     <!-- 1e6 -->
     <g transform="translate(36.465625 19.318125) scale(0.1 -0.1)">
      <defs>
       <path id="DejaVuSans-65" d="M 3597 1894 
L 3597 1613 
L 953 1613 
Q 991 1019 1311 708 
Q 1631 397 2203 397 
Q 2534 397 2845 478 
Q 3156 559 3463 722 
L 3463 178 
Q 3153 47 2828 -22 
Q 2503 -91 2169 -91 
Q 1331 -91 842 396 
Q 353 884 353 1716 
Q 353 2575 817 3079 
Q 1281 3584 2069 3584 
Q 2775 3584 3186 3129 
Q 3597 2675 3597 1894 
z
M 3022 2063 
Q 3016 2534 2758 2815 
Q 2500 3097 2075 3097 
Q 1594 3097 1305 2825 
Q 1016 2553 972 2059 
L 3022 2063 
z
" transform="scale(0.015625)"/>
      </defs>
      <use xlink:href="#DejaVuSans-31"/>
      <use xlink:href="#DejaVuSans-65" transform="translate(63.623047 0)"/>
      <use xlink:href="#DejaVuSans-36" transform="translate(125.146484 0)"/>
     </g>
    </g>
   </g>
   <g id="line2d_13">
    <defs>
     <path id="mbc36a549ed" d="M 0 1.5 
C 0.397805 1.5 0.77937 1.341951 1.06066 1.06066 
C 1.341951 0.77937 1.5 0.397805 1.5 0 
C 1.5 -0.397805 1.341951 -0.77937 1.06066 -1.06066 
C 0.77937 -1.341951 0.397805 -1.5 0 -1.5 
C -0.397805 -1.5 -0.77937 -1.341951 -1.06066 -1.06066 
C -1.341951 -0.77937 -1.5 -0.397805 -1.5 0 
C -1.5 0.397805 -1.341951 0.77937 -1.06066 1.06066 
C -0.77937 1.341951 -0.397805 1.5 0 1.5 
z
" style="stroke: #1f77b4"/>
    </defs>
    <g clip-path="url(#pf77e55475e)">
     <use xlink:href="#mbc36a549ed" x="303.250694" y="64.787333" style="fill: #1f77b4; stroke: #1f77b4"/>
     <use xlink:href="#mbc36a549ed" x="100.105024" y="139.770372" style="fill: #1f77b4; stroke: #1f77b4"/>
     <use xlink:href="#mbc36a549ed" x="78.019654" y="180.615331" style="fill: #1f77b4; stroke: #1f77b4"/>
     <use xlink:href="#mbc36a549ed" x="252.423888" y="58.600194" style="fill: #1f77b4; stroke: #1f77b4"/>
     <use xlink:href="#mbc36a549ed" x="295.261385" y="70.045137" style="fill: #1f77b4; stroke: #1f77b4"/>
     <use xlink:href="#mbc36a549ed" x="272.309666" y="98.323401" style="fill: #1f77b4; stroke: #1f77b4"/>
     <use xlink:href="#mbc36a549ed" x="250.55864" y="45.52845" style="fill: #1f77b4; stroke: #1f77b4"/>
     <use xlink:href="#mbc36a549ed" x="254.224613" y="66.167729" style="fill: #1f77b4; stroke: #1f77b4"/>
     <use xlink:href="#mbc36a549ed" x="190.669212" y="136.89529" style="fill: #1f77b4; stroke: #1f77b4"/>
     <use xlink:href="#mbc36a549ed" x="317.933326" y="169.621299" style="fill: #1f77b4; stroke: #1f77b4"/>
     <use xlink:href="#mbc36a549ed" x="143.871963" y="166.625278" style="fill: #1f77b4; stroke: #1f77b4"/>
     <use xlink:href="#mbc36a549ed" x="280.699745" y="91.117745" style="fill: #1f77b4; stroke: #1f77b4"/>
     <use xlink:href="#mbc36a549ed" x="325.12761" y="167.204882" style="fill: #1f77b4; stroke: #1f77b4"/>
     <use xlink:href="#mbc36a549ed" x="147.328867" y="174.937169" style="fill: #1f77b4; stroke: #1f77b4"/>
     <use xlink:href="#mbc36a549ed" x="353.988165" y="157.729275" style="fill: #1f77b4; stroke: #1f77b4"/>
     <use xlink:href="#mbc36a549ed" x="298.046756" y="79.24562" style="fill: #1f77b4; stroke: #1f77b4"/>
     <use xlink:href="#mbc36a549ed" x="258.745891" y="29.870724" style="fill: #1f77b4; stroke: #1f77b4"/>
     <use xlink:href="#mbc36a549ed" x="355.891585" y="166.843359" style="fill: #1f77b4; stroke: #1f77b4"/>
     <use xlink:href="#mbc36a549ed" x="255.02509" y="116.878705" style="fill: #1f77b4; stroke: #1f77b4"/>
     <use xlink:href="#mbc36a549ed" x="293.373075" y="76.611942" style="fill: #1f77b4; stroke: #1f77b4"/>
     <use xlink:href="#mbc36a549ed" x="78.716603" y="173.859673" style="fill: #1f77b4; stroke: #1f77b4"/>
     <use xlink:href="#mbc36a549ed" x="64.054231" y="179.214498" style="fill: #1f77b4; stroke: #1f77b4"/>
     <use xlink:href="#mbc36a549ed" x="241.229945" y="175.346442" style="fill: #1f77b4; stroke: #1f77b4"/>
     <use xlink:href="#mbc36a549ed" x="320.945584" y="45.400806" style="fill: #1f77b4; stroke: #1f77b4"/>
     <use xlink:href="#mbc36a549ed" x="320.723521" y="83.999918" style="fill: #1f77b4; stroke: #1f77b4"/>
     <use xlink:href="#mbc36a549ed" x="78.928699" y="168.564191" style="fill: #1f77b4; stroke: #1f77b4"/>
     <use xlink:href="#mbc36a549ed" x="241.116603" y="131.697435" style="fill: #1f77b4; stroke: #1f77b4"/>
     <use xlink:href="#mbc36a549ed" x="377.352898" y="170.54534" style="fill: #1f77b4; stroke: #1f77b4"/>
     <use xlink:href="#mbc36a549ed" x="219.202794" y="163.513413" style="fill: #1f77b4; stroke: #1f77b4"/>
     <use xlink:href="#mbc36a549ed" x="288.490841" y="132.585659" style="fill: #1f77b4; stroke: #1f77b4"/>
     <use xlink:href="#mbc36a549ed" x="259.6743" y="129.528184" style="fill: #1f77b4; stroke: #1f77b4"/>
     <use xlink:href="#mbc36a549ed" x="101.659557" y="170.071018" style="fill: #1f77b4; stroke: #1f77b4"/>
     <use xlink:href="#mbc36a549ed" x="144.068174" y="180.922714" style="fill: #1f77b4; stroke: #1f77b4"/>
     <use xlink:href="#mbc36a549ed" x="277.102198" y="92.258024" style="fill: #1f77b4; stroke: #1f77b4"/>
     <use xlink:href="#mbc36a549ed" x="83.395568" y="179.398727" style="fill: #1f77b4; stroke: #1f77b4"/>
     <use xlink:href="#mbc36a549ed" x="230.01401" y="180.176992" style="fill: #1f77b4; stroke: #1f77b4"/>
     <use xlink:href="#mbc36a549ed" x="292.175942" y="103.817306" style="fill: #1f77b4; stroke: #1f77b4"/>
     <use xlink:href="#mbc36a549ed" x="91.716725" y="150.069001" style="fill: #1f77b4; stroke: #1f77b4"/>
     <use xlink:href="#mbc36a549ed" x="274.121318" y="161.516663" style="fill: #1f77b4; stroke: #1f77b4"/>
     <use xlink:href="#mbc36a549ed" x="239.848245" y="170.98471" style="fill: #1f77b4; stroke: #1f77b4"/>
     <use xlink:href="#mbc36a549ed" x="340.939494" y="172.442888" style="fill: #1f77b4; stroke: #1f77b4"/>
     <use xlink:href="#mbc36a549ed" x="271.492217" y="132.291769" style="fill: #1f77b4; stroke: #1f77b4"/>
     <use xlink:href="#mbc36a549ed" x="340.969618" y="126.284419" style="fill: #1f77b4; stroke: #1f77b4"/>
     <use xlink:href="#mbc36a549ed" x="204.693171" y="139.766187" style="fill: #1f77b4; stroke: #1f77b4"/>
     <use xlink:href="#mbc36a549ed" x="299.869242" y="109.259013" style="fill: #1f77b4; stroke: #1f77b4"/>
     <use xlink:href="#mbc36a549ed" x="264.906393" y="161.252232" style="fill: #1f77b4; stroke: #1f77b4"/>
     <use xlink:href="#mbc36a549ed" x="341.903883" y="92.412272" style="fill: #1f77b4; stroke: #1f77b4"/>
     <use xlink:href="#mbc36a549ed" x="295.652962" y="173.250123" style="fill: #1f77b4; stroke: #1f77b4"/>
     <use xlink:href="#mbc36a549ed" x="261.643768" y="40.491106" style="fill: #1f77b4; stroke: #1f77b4"/>
     <use xlink:href="#mbc36a549ed" x="87.874196" y="159.699087" style="fill: #1f77b4; stroke: #1f77b4"/>
     <use xlink:href="#mbc36a549ed" x="206.806583" y="161.820217" style="fill: #1f77b4; stroke: #1f77b4"/>
     <use xlink:href="#mbc36a549ed" x="326.960568" y="91.405941" style="fill: #1f77b4; stroke: #1f77b4"/>
     <use xlink:href="#mbc36a549ed" x="91.549196" y="162.920684" style="fill: #1f77b4; stroke: #1f77b4"/>
     <use xlink:href="#mbc36a549ed" x="182.176195" y="155.425284" style="fill: #1f77b4; stroke: #1f77b4"/>
     <use xlink:href="#mbc36a549ed" x="228.263192" y="68.320838" style="fill: #1f77b4; stroke: #1f77b4"/>
     <use xlink:href="#mbc36a549ed" x="277.368528" y="83.372523" style="fill: #1f77b4; stroke: #1f77b4"/>
     <use xlink:href="#mbc36a549ed" x="322.284798" y="179.464947" style="fill: #1f77b4; stroke: #1f77b4"/>
     <use xlink:href="#mbc36a549ed" x="329.70825" y="98.657242" style="fill: #1f77b4; stroke: #1f77b4"/>
     <use xlink:href="#mbc36a549ed" x="173.346973" y="175.090432" style="fill: #1f77b4; stroke: #1f77b4"/>
     <use xlink:href="#mbc36a549ed" x="97.652837" y="155.456335" style="fill: #1f77b4; stroke: #1f77b4"/>
     <use xlink:href="#mbc36a549ed" x="191.057773" y="170.027926" style="fill: #1f77b4; stroke: #1f77b4"/>
     <use xlink:href="#mbc36a549ed" x="290.367201" y="63.603614" style="fill: #1f77b4; stroke: #1f77b4"/>
     <use xlink:href="#mbc36a549ed" x="316.201239" y="95.598471" style="fill: #1f77b4; stroke: #1f77b4"/>
     <use xlink:href="#mbc36a549ed" x="52.698352" y="178.949101" style="fill: #1f77b4; stroke: #1f77b4"/>
     <use xlink:href="#mbc36a549ed" x="238.412039" y="90.05716" style="fill: #1f77b4; stroke: #1f77b4"/>
     <use xlink:href="#mbc36a549ed" x="240.501294" y="178.030833" style="fill: #1f77b4; stroke: #1f77b4"/>
     <use xlink:href="#mbc36a549ed" x="128.925865" y="165.581174" style="fill: #1f77b4; stroke: #1f77b4"/>
     <use xlink:href="#mbc36a549ed" x="260.352551" y="38.597219" style="fill: #1f77b4; stroke: #1f77b4"/>
     <use xlink:href="#mbc36a549ed" x="249.431417" y="67.677486" style="fill: #1f77b4; stroke: #1f77b4"/>
     <use xlink:href="#mbc36a549ed" x="267.576346" y="95.274874" style="fill: #1f77b4; stroke: #1f77b4"/>
     <use xlink:href="#mbc36a549ed" x="202.952795" y="139.71437" style="fill: #1f77b4; stroke: #1f77b4"/>
     <use xlink:href="#mbc36a549ed" x="183.206984" y="130.191796" style="fill: #1f77b4; stroke: #1f77b4"/>
     <use xlink:href="#mbc36a549ed" x="283.861497" y="71.3412" style="fill: #1f77b4; stroke: #1f77b4"/>
     <use xlink:href="#mbc36a549ed" x="208.904414" y="84.080607" style="fill: #1f77b4; stroke: #1f77b4"/>
     <use xlink:href="#mbc36a549ed" x="293.613997" y="170.338911" style="fill: #1f77b4; stroke: #1f77b4"/>
     <use xlink:href="#mbc36a549ed" x="197.269568" y="123.729044" style="fill: #1f77b4; stroke: #1f77b4"/>
     <use xlink:href="#mbc36a549ed" x="325.402869" y="151.019205" style="fill: #1f77b4; stroke: #1f77b4"/>
     <use xlink:href="#mbc36a549ed" x="191.347954" y="122.230756" style="fill: #1f77b4; stroke: #1f77b4"/>
     <use xlink:href="#mbc36a549ed" x="306.580179" y="95.723405" style="fill: #1f77b4; stroke: #1f77b4"/>
     <use xlink:href="#mbc36a549ed" x="298.198317" y="107.411345" style="fill: #1f77b4; stroke: #1f77b4"/>
     <use xlink:href="#mbc36a549ed" x="287.874885" y="142.617689" style="fill: #1f77b4; stroke: #1f77b4"/>
     <use xlink:href="#mbc36a549ed" x="238.966091" y="118.203431" style="fill: #1f77b4; stroke: #1f77b4"/>
     <use xlink:href="#mbc36a549ed" x="196.446819" y="138.389716" style="fill: #1f77b4; stroke: #1f77b4"/>
     <use xlink:href="#mbc36a549ed" x="118.634504" y="148.487431" style="fill: #1f77b4; stroke: #1f77b4"/>
     <use xlink:href="#mbc36a549ed" x="202.965507" y="104.914798" style="fill: #1f77b4; stroke: #1f77b4"/>
     <use xlink:href="#mbc36a549ed" x="304.743335" y="82.752888" style="fill: #1f77b4; stroke: #1f77b4"/>
     <use xlink:href="#mbc36a549ed" x="212.978605" y="148.885612" style="fill: #1f77b4; stroke: #1f77b4"/>
     <use xlink:href="#mbc36a549ed" x="263.431277" y="30.27077" style="fill: #1f77b4; stroke: #1f77b4"/>
     <use xlink:href="#mbc36a549ed" x="173.875287" y="177.538762" style="fill: #1f77b4; stroke: #1f77b4"/>
     <use xlink:href="#mbc36a549ed" x="184.998689" y="127.256291" style="fill: #1f77b4; stroke: #1f77b4"/>
     <use xlink:href="#mbc36a549ed" x="316.820663" y="89.664209" style="fill: #1f77b4; stroke: #1f77b4"/>
     <use xlink:href="#mbc36a549ed" x="352.263394" y="137.074676" style="fill: #1f77b4; stroke: #1f77b4"/>
     <use xlink:href="#mbc36a549ed" x="375.913474" y="176.960411" style="fill: #1f77b4; stroke: #1f77b4"/>
     <use xlink:href="#mbc36a549ed" x="221.833867" y="120.106349" style="fill: #1f77b4; stroke: #1f77b4"/>
     <use xlink:href="#mbc36a549ed" x="174.548808" y="144.70596" style="fill: #1f77b4; stroke: #1f77b4"/>
     <use xlink:href="#mbc36a549ed" x="304.63055" y="123.361061" style="fill: #1f77b4; stroke: #1f77b4"/>
     <use xlink:href="#mbc36a549ed" x="281.391681" y="48.745861" style="fill: #1f77b4; stroke: #1f77b4"/>
     <use xlink:href="#mbc36a549ed" x="307.632908" y="77.18656" style="fill: #1f77b4; stroke: #1f77b4"/>
     <use xlink:href="#mbc36a549ed" x="264.567993" y="102.177895" style="fill: #1f77b4; stroke: #1f77b4"/>
     <use xlink:href="#mbc36a549ed" x="200.06188" y="170.44151" style="fill: #1f77b4; stroke: #1f77b4"/>
    </g>
   </g>
   <g id="patch_3">
    <path d="M 36.465625 188.475314 
L 36.465625 22.318125 
" style="fill: none; stroke: #000000; stroke-width: 0.8; stroke-linejoin: miter; stroke-linecap: square"/>
   </g>
   <g id="patch_4">
    <path d="M 393.585625 188.475314 
L 393.585625 22.318125 
" style="fill: none; stroke: #000000; stroke-width: 0.8; stroke-linejoin: miter; stroke-linecap: square"/>
   </g>
   <g id="patch_5">
    <path d="M 36.465625 188.475314 
L 393.585625 188.475314 
" style="fill: none; stroke: #000000; stroke-width: 0.8; stroke-linejoin: miter; stroke-linecap: square"/>
   </g>
   <g id="patch_6">
    <path d="M 36.465625 22.318125 
L 393.585625 22.318125 
" style="fill: none; stroke: #000000; stroke-width: 0.8; stroke-linejoin: miter; stroke-linecap: square"/>
   </g>
   <g id="text_14">
    <!-- Point Pattern -->
    <g transform="translate(176.640625 16.318125) scale(0.12 -0.12)">
     <defs>
      <path id="DejaVuSans-50" d="M 1259 4147 
L 1259 2394 
L 2053 2394 
Q 2494 2394 2734 2622 
Q 2975 2850 2975 3272 
Q 2975 3691 2734 3919 
Q 2494 4147 2053 4147 
L 1259 4147 
z
M 628 4666 
L 2053 4666 
Q 2838 4666 3239 4311 
Q 3641 3956 3641 3272 
Q 3641 2581 3239 2228 
Q 2838 1875 2053 1875 
L 1259 1875 
L 1259 0 
L 628 0 
L 628 4666 
z
" transform="scale(0.015625)"/>
      <path id="DejaVuSans-6f" d="M 1959 3097 
Q 1497 3097 1228 2736 
Q 959 2375 959 1747 
Q 959 1119 1226 758 
Q 1494 397 1959 397 
Q 2419 397 2687 759 
Q 2956 1122 2956 1747 
Q 2956 2369 2687 2733 
Q 2419 3097 1959 3097 
z
M 1959 3584 
Q 2709 3584 3137 3096 
Q 3566 2609 3566 1747 
Q 3566 888 3137 398 
Q 2709 -91 1959 -91 
Q 1206 -91 779 398 
Q 353 888 353 1747 
Q 353 2609 779 3096 
Q 1206 3584 1959 3584 
z
" transform="scale(0.015625)"/>
      <path id="DejaVuSans-69" d="M 603 3500 
L 1178 3500 
L 1178 0 
L 603 0 
L 603 3500 
z
M 603 4863 
L 1178 4863 
L 1178 4134 
L 603 4134 
L 603 4863 
z
" transform="scale(0.015625)"/>
      <path id="DejaVuSans-6e" d="M 3513 2113 
L 3513 0 
L 2938 0 
L 2938 2094 
Q 2938 2591 2744 2837 
Q 2550 3084 2163 3084 
Q 1697 3084 1428 2787 
Q 1159 2491 1159 1978 
L 1159 0 
L 581 0 
L 581 3500 
L 1159 3500 
L 1159 2956 
Q 1366 3272 1645 3428 
Q 1925 3584 2291 3584 
Q 2894 3584 3203 3211 
Q 3513 2838 3513 2113 
z
" transform="scale(0.015625)"/>
      <path id="DejaVuSans-74" d="M 1172 4494 
L 1172 3500 
L 2356 3500 
L 2356 3053 
L 1172 3053 
L 1172 1153 
Q 1172 725 1289 603 
Q 1406 481 1766 481 
L 2356 481 
L 2356 0 
L 1766 0 
Q 1100 0 847 248 
Q 594 497 594 1153 
L 594 3053 
L 172 3053 
L 172 3500 
L 594 3500 
L 594 4494 
L 1172 4494 
z
" transform="scale(0.015625)"/>
      <path id="DejaVuSans-20" transform="scale(0.015625)"/>
      <path id="DejaVuSans-61" d="M 2194 1759 
Q 1497 1759 1228 1600 
Q 959 1441 959 1056 
Q 959 750 1161 570 
Q 1363 391 1709 391 
Q 2188 391 2477 730 
Q 2766 1069 2766 1631 
L 2766 1759 
L 2194 1759 
z
M 3341 1997 
L 3341 0 
L 2766 0 
L 2766 531 
Q 2569 213 2275 61 
Q 1981 -91 1556 -91 
Q 1019 -91 701 211 
Q 384 513 384 1019 
Q 384 1609 779 1909 
Q 1175 2209 1959 2209 
L 2766 2209 
L 2766 2266 
Q 2766 2663 2505 2880 
Q 2244 3097 1772 3097 
Q 1472 3097 1187 3025 
Q 903 2953 641 2809 
L 641 3341 
Q 956 3463 1253 3523 
Q 1550 3584 1831 3584 
Q 2591 3584 2966 3190 
Q 3341 2797 3341 1997 
z
" transform="scale(0.015625)"/>
      <path id="DejaVuSans-72" d="M 2631 2963 
Q 2534 3019 2420 3045 
Q 2306 3072 2169 3072 
Q 1681 3072 1420 2755 
Q 1159 2438 1159 1844 
L 1159 0 
L 581 0 
L 581 3500 
L 1159 3500 
L 1159 2956 
Q 1341 3275 1631 3429 
Q 1922 3584 2338 3584 
Q 2397 3584 2469 3576 
Q 2541 3569 2628 3553 
L 2631 2963 
z
" transform="scale(0.015625)"/>
     </defs>
     <use xlink:href="#DejaVuSans-50"/>
     <use xlink:href="#DejaVuSans-6f" transform="translate(56.677734 0)"/>
     <use xlink:href="#DejaVuSans-69" transform="translate(117.859375 0)"/>
     <use xlink:href="#DejaVuSans-6e" transform="translate(145.642578 0)"/>
     <use xlink:href="#DejaVuSans-74" transform="translate(209.021484 0)"/>
     <use xlink:href="#DejaVuSans-20" transform="translate(248.230469 0)"/>
     <use xlink:href="#DejaVuSans-50" transform="translate(280.017578 0)"/>
     <use xlink:href="#DejaVuSans-61" transform="translate(335.820312 0)"/>
     <use xlink:href="#DejaVuSans-74" transform="translate(397.099609 0)"/>
     <use xlink:href="#DejaVuSans-74" transform="translate(436.308594 0)"/>
     <use xlink:href="#DejaVuSans-65" transform="translate(475.517578 0)"/>
     <use xlink:href="#DejaVuSans-72" transform="translate(537.041016 0)"/>
     <use xlink:href="#DejaVuSans-6e" transform="translate(576.404297 0)"/>
    </g>
   </g>
  </g>
 </g>
 <defs>
  <clipPath id="pf77e55475e">
   <rect x="36.465625" y="22.318125" width="357.12" height="166.157189"/>
  </clipPath>
 </defs>
</svg>
