<?xml version="1.0" encoding="utf-8" standalone="no"?>
<!DOCTYPE svg PUBLIC "-//W3C//DTD SVG 1.1//EN"
  "http://www.w3.org/Graphics/SVG/1.1/DTD/svg11.dtd">
<svg xmlns:xlink="http://www.w3.org/1999/xlink" width="394.423125pt" height="215.183014pt" viewBox="0 0 394.423125 215.183014" xmlns="http://www.w3.org/2000/svg" version="1.1">
 <metadata>
  <rdf:RDF xmlns:dc="http://purl.org/dc/elements/1.1/" xmlns:cc="http://creativecommons.org/ns#" xmlns:rdf="http://www.w3.org/1999/02/22-rdf-syntax-ns#">
   <cc:Work>
    <dc:type rdf:resource="http://purl.org/dc/dcmitype/StillImage"/>
    <dc:date>2026-01-13T03:20:33.872010</dc:date>
    <dc:format>image/svg+xml</dc:format>
    <dc:creator>
     <cc:Agent>
      <dc:title>Matplotlib v3.10.8, https://matplotlib.org/</dc:title>
     </cc:Agent>
    </dc:creator>
   </cc:Work>
  </rdf:RDF>
 </metadata>
 <defs>
  <style type="text/css">*{stroke-linejoin: round; stroke-linecap: butt}</style>
 </defs>
 <g id="figure_1">
  <g id="patch_1">
   <path d="M 0 215.183014 
L 394.423125 215.183014 
L 394.423125 0 
L 0 0 
z
" style="fill: #ffffff"/>
  </g>
  <g id="axes_1">
   <g id="patch_2">
    <path d="M 30.103125 178.626764 
L 387.223125 178.626764 
L 387.223125 22.318125 
L 30.103125 22.318125 
z
" style="fill: #ffffff"/>
   </g>
   <g id="PatchCollection_1">
    <path d="M 78.513106 168.800253 
L 73.175744 168.681507 
L 64.427943 168.645073 
L 62.969041 168.521873 
L 61.942064 167.988033 
L 54.563158 167.884613 
L 46.335852 167.670923 
L 47.466773 166.817805 
L 52.042653 164.787292 
L 54.796869 164.841982 
L 56.994326 164.389841 
L 57.726238 163.639034 
L 60.262349 162.66993 
L 64.87394 161.582326 
L 67.415885 161.359401 
L 67.977487 160.834408 
L 67.858538 159.477682 
L 70.278226 156.054633 
L 71.114816 155.695387 
L 74.844044 155.517835 
L 77.699688 154.142383 
L 78.412271 152.295288 
L 78.222316 150.239116 
L 80.359276 148.779974 
L 83.82153 147.470907 
L 83.986731 145.928884 
L 84.416977 145.474547 
L 83.959403 144.613128 
L 84.062578 143.797454 
L 89.980986 139.841405 
L 90.681036 139.588855 
L 96.294499 137.193825 
L 98.313137 136.748489 
L 100.850566 134.639105 
L 113.685164 123.845975 
L 114.602486 125.041563 
L 114.112621 125.695329 
L 113.012138 126.173562 
L 112.549873 126.95804 
L 115.126402 129.454224 
L 114.870749 131.569557 
L 116.001311 133.086511 
L 117.281952 133.830331 
L 117.47215 134.723157 
L 118.227402 135.771015 
L 119.133188 136.067478 
L 120.014252 135.706732 
L 121.585066 136.439977 
L 122.094604 137.496657 
L 123.509013 138.235571 
L 124.884501 139.721716 
L 129.109983 139.679251 
L 131.0944 138.335411 
L 131.485814 137.443884 
L 132.265966 137.371883 
L 135.055472 136.021024 
L 135.540234 134.643379 
L 136.787172 133.304063 
L 138.591632 135.498507 
L 142.021538 138.09504 
L 145.201718 136.42267 
L 149.676814 135.888131 
L 151.183332 134.912377 
L 151.469306 135.384566 
L 151.880555 135.610979 
L 153.182508 135.147104 
L 156.221885 133.304186 
L 156.49171 132.746106 
L 155.372171 130.922006 
L 156.40487 129.239411 
L 158.369478 129.738647 
L 158.385795 130.769084 
L 159.513909 131.03529 
L 159.786843 131.749451 
L 160.37653 131.377132 
L 160.428108 130.958422 
L 161.067426 130.715725 
L 162.014488 130.922823 
L 166.158785 128.118404 
L 168.263692 126.989011 
L 169.572323 126.700168 
L 170.380941 127.394681 
L 170.429744 128.687447 
L 170.896692 129.218766 
L 172.797858 128.62324 
L 174.217755 127.123855 
L 175.607705 126.612761 
L 175.78173 125.882466 
L 178.070791 124.899891 
L 178.338376 123.683535 
L 177.279333 124.073005 
L 176.599688 123.834596 
L 176.941747 122.220787 
L 179.637329 120.740653 
L 180.683199 119.408348 
L 179.311661 118.624506 
L 177.523121 118.645838 
L 177.367825 118.081147 
L 177.713157 117.147241 
L 177.424364 116.609197 
L 179.447642 114.495476 
L 179.256865 112.988902 
L 180.559089 111.932357 
L 180.427237 110.796552 
L 182.410614 108.815661 
L 182.37924 107.983262 
L 182.840182 107.154767 
L 184.424532 106.460607 
L 184.874261 105.325462 
L 186.834386 103.323532 
L 188.896262 101.6467 
L 190.171656 99.274585 
L 190.49956 97.880538 
L 191.596809 96.129265 
L 191.317987 95.261873 
L 192.249226 93.253352 
L 192.01751 92.450224 
L 195.219623 88.975999 
L 196.639456 88.068295 
L 196.90016 87.268957 
L 196.271431 86.61188 
L 196.355077 85.863032 
L 197.713643 83.926234 
L 198.90241 84.014205 
L 199.361 81.935022 
L 200.704655 80.196085 
L 200.330818 76.809106 
L 201.344262 75.806441 
L 201.178726 74.386447 
L 202.175068 72.331188 
L 206.224621 74.134247 
L 208.202945 78.537278 
L 214.687171 80.820633 
L 216.363734 79.595707 
L 217.871917 77.477131 
L 221.65999 68.800131 
L 221.895862 68.527988 
L 223.133731 68.723201 
L 223.134978 66.39701 
L 224.241545 63.722197 
L 224.278603 62.338216 
L 225.066137 61.869962 
L 226.768521 59.56768 
L 231.436022 63.496532 
L 233.274928 60.04819 
L 234.083467 57.779098 
L 235.702427 56.225695 
L 236.116516 55.354172 
L 236.628729 55.291006 
L 236.854286 56.511743 
L 238.298836 55.667182 
L 239.519641 54.238261 
L 240.091956 52.811735 
L 241.321862 53.380105 
L 242.97921 51.078332 
L 243.117942 50.612126 
L 242.537628 50.063297 
L 243.547484 48.97151 
L 244.820981 47.166947 
L 245.412939 46.266428 
L 246.808093 45.884117 
L 247.423731 44.433928 
L 248.4559 43.340738 
L 247.601248 42.056037 
L 247.618898 41.352687 
L 248.474433 39.739454 
L 247.914531 39.145921 
L 250.529774 35.006247 
L 250.400454 34.550066 
L 249.575938 34.05457 
L 250.121295 33.111623 
L 250.113728 29.423063 
L 252.813261 30.96662 
L 254.63905 32.477872 
L 262.203915 38.31516 
L 270.052199 44.514566 
L 270.436815 44.038703 
L 270.893167 41.363719 
L 272.208156 38.897175 
L 272.472227 37.042043 
L 273.617126 35.39441 
L 275.42577 35.280716 
L 277.830593 36.110377 
L 279.621265 36.106998 
L 280.682387 37.493917 
L 282.528378 38.344986 
L 283.662963 39.311574 
L 283.794103 39.811735 
L 283.246215 41.854029 
L 281.85199 42.852449 
L 282.062429 44.821178 
L 283.360374 45.386303 
L 284.141299 46.476466 
L 285.173457 47.117537 
L 288.433932 46.90376 
L 289.272429 47.157073 
L 291.93084 48.745812 
L 292.496999 51.228311 
L 295.983042 51.620754 
L 297.162001 53.156969 
L 298.847322 53.882856 
L 299.327206 55.29243 
L 300.466656 56.390764 
L 300.466895 57.555269 
L 300.304819 58.001025 
L 300.713624 58.732374 
L 300.381479 59.997477 
L 300.487931 63.354831 
L 300.09823 63.699392 
L 299.152752 63.582074 
L 298.748849 64.146975 
L 297.59028 65.465667 
L 297.466033 66.909538 
L 294.964264 68.246823 
L 294.983043 66.400723 
L 293.756849 66.938335 
L 291.161905 74.257032 
L 289.961466 77.459616 
L 291.971102 80.973231 
L 290.775 81.926919 
L 293.891446 82.412529 
L 300.896504 79.987863 
L 303.198025 84.498363 
L 305.762869 88.158677 
L 318.969555 91.543414 
L 320.857345 93.690088 
L 320.62566 96.067633 
L 320.077709 97.168742 
L 321.937607 96.615114 
L 328.076607 99.021116 
L 332.40154 102.050583 
L 332.779097 103.965333 
L 330.116744 106.592455 
L 330.871091 110.421987 
L 329.107436 111.43109 
L 330.466845 112.446152 
L 329.759874 115.144742 
L 323.437347 113.830383 
L 320.353912 108.460492 
L 318.323065 107.283648 
L 312.67954 101.708217 
L 310.884726 101.652047 
L 314.455813 107.359186 
L 316.452882 108.418063 
L 321.069156 114.645496 
L 331.097135 118.55826 
L 329.849567 119.884332 
L 323.456006 118.865219 
L 326.575549 120.527749 
L 329.601198 120.352499 
L 333.804846 126.235222 
L 333.154637 129.172944 
L 332.147985 129.017063 
L 330.536286 126.235637 
L 326.22066 123.321655 
L 325.653389 125.244609 
L 327.477923 125.483945 
L 328.084899 127.351668 
L 326.073787 127.232736 
L 328.698732 131.183539 
L 326.142379 133.150569 
L 318.351459 125.913751 
L 316.361369 125.700048 
L 317.804956 127.905707 
L 320.881252 131.660077 
L 327.666029 135.412105 
L 328.246754 138.047536 
L 328.822706 137.018387 
L 330.167312 138.243424 
L 331.119809 136.712875 
L 333.252282 139.27157 
L 329.022236 140.177713 
L 333.628815 141.569811 
L 333.199187 144.20425 
L 329.730148 145.833614 
L 328.175027 147.129049 
L 323.864028 142.368047 
L 324.431446 141.336 
L 322.456339 140.002763 
L 322.388235 141.829492 
L 320.08213 139.409742 
L 320.554986 137.142232 
L 318.975799 134.923173 
L 317.062623 134.686649 
L 315.253691 136.666058 
L 313.223538 134.477999 
L 310.846705 134.412614 
L 309.970942 130.618572 
L 309.991622 133.697261 
L 307.599795 134.90691 
L 309.246224 136.559691 
L 313.238033 136.081567 
L 316.000924 138.703985 
L 317.571669 136.338179 
L 318.24146 138.745622 
L 318.676978 143.263794 
L 322.149929 144.541094 
L 320.836911 146.040043 
L 323.075378 145.385416 
L 325.721244 147.4178 
L 324.759806 149.866031 
L 326.103982 149.467765 
L 325.98539 150.614121 
L 323.234144 153.351241 
L 323.286175 155.588751 
L 325.245126 151.914898 
L 328.918739 150.190439 
L 331.326106 149.494915 
L 331.693877 152.055691 
L 329.721678 153.32851 
L 329.468493 153.815575 
L 332.68015 152.703237 
L 333.684121 153.50294 
L 332.832766 148.030468 
L 333.691773 146.982044 
L 336.940115 148.161893 
L 337.429451 149.62344 
L 340.208711 148.16313 
L 345.012715 148.325268 
L 350.520792 165.861246 
L 349.589735 165.895095 
L 349.83598 163.803125 
L 347.261362 157.991052 
L 345.812992 166.071834 
L 344.699733 166.126548 
L 343.228198 163.927571 
L 343.965328 166.153059 
L 340.784738 166.305734 
L 332.866259 166.753074 
L 326.334389 167.076989 
L 323.757819 167.22414 
L 309.781755 167.896896 
L 309.684087 167.901597 
L 299.795144 168.204497 
L 294.229543 168.53663 
L 276.905585 169.183208 
L 271.640572 169.380812 
L 265.677744 169.591183 
L 255.16681 170.234901 
L 249.803699 170.576555 
L 238.926657 170.625953 
L 236.61503 170.802559 
L 223.047633 170.966659 
L 220.206086 170.840296 
L 208.7667 171.13768 
L 200.684542 171.242884 
L 188.72361 171.521826 
L 187.784656 171.42922 
L 172.67676 171.359226 
L 165.819554 171.090895 
L 156.960176 170.819298 
L 154.413672 170.736951 
L 137.180866 170.344662 
L 124.523087 169.466222 
L 125.213782 168.605118 
L 118.33013 168.362229 
L 114.846327 168.233141 
L 114.408916 169.082856 
L 105.64074 169.026163 
L 103.204017 169.048126 
L 100.075655 169.116982 
L 87.832633 168.943915 
L 78.513106 168.800253 
z
" clip-path="url(#p3158324696)" style="fill: none; stroke: #000000; stroke-opacity: 0.3"/>
    <path d="M 347.67163 126.616432 
L 346.931741 137.574538 
L 345.439112 138.443962 
L 343.132695 129.704768 
L 345.923227 121.018531 
L 344.741181 121.338962 
L 345.045072 119.260327 
L 345.876719 117.513494 
L 348.331982 117.608459 
L 345.465836 117.309187 
L 345.846941 116.107364 
L 347.490434 116.286977 
L 346.738273 115.753599 
L 350.509963 109.737812 
L 350.95719 105.922989 
L 354.185607 104.056308 
L 354.452855 102.408727 
L 352.439801 99.004562 
L 355.30663 98.325479 
L 355.618147 96.901316 
L 356.379302 95.580411 
L 366.038473 94.021612 
L 357.543113 110.05145 
L 358.67676 110.954574 
L 354.700253 115.441105 
L 356.678932 116.774007 
L 353.705743 117.018829 
L 352.717931 119.387909 
L 354.740319 120.103218 
L 350.649003 121.517935 
L 350.4754 123.607686 
L 351.671234 124.420391 
L 350.257974 124.010864 
L 347.67163 126.616432 
z
" clip-path="url(#p3158324696)" style="fill: none; stroke: #000000; stroke-opacity: 0.3"/>
    <path d="M 367.326733 98.70194 
L 369.915496 93.255567 
L 370.990398 93.143349 
L 369.030363 96.455491 
L 367.703202 100.137709 
L 365.941925 100.882568 
L 367.448467 99.515085 
L 366.155944 99.639081 
L 367.326733 98.70194 
z
" clip-path="url(#p3158324696)" style="fill: none; stroke: #000000; stroke-opacity: 0.3"/>
   </g>
   <g id="PatchCollection_2">
    <path d="M 345.003805 163.538625 
L 313.238951 99.343244 
L 271.985383 42.223271 
L 256.41983 38.629685 
L 248.981252 41.986675 
L 102.960355 140.222233 
L 89.198356 150.815949 
L 87.409261 164.023017 
L 121.860451 166.028686 
L 193.181244 168.077762 
L 294.037898 166.976112 
L 345.003805 163.538625 
z
" clip-path="url(#p3158324696)" style="fill: none; stroke: #000000; stroke-opacity: 0.3"/>
   </g>
   <g id="matplotlib.axis_1">
    <g id="xtick_1">
     <g id="line2d_1">
      <defs>
       <path id="m11288958d5" d="M 0 0 
L 0 3.5 
" style="stroke: #000000; stroke-width: 0.8"/>
      </defs>
      <g>
       <use xlink:href="#m11288958d5" x="63.468683" y="178.626764" style="stroke: #000000; stroke-width: 0.8"/>
      </g>
     </g>
     <g id="text_1">
      <!-- 0.3 -->
      <g transform="translate(55.51712 193.225202) scale(0.1 -0.1)">
       <defs>
        <path id="DejaVuSans-30" d="M 2034 4250 
Q 1547 4250 1301 3770 
Q 1056 3291 1056 2328 
Q 1056 1369 1301 889 
Q 1547 409 2034 409 
Q 2525 409 2770 889 
Q 3016 1369 3016 2328 
Q 3016 3291 2770 3770 
Q 2525 4250 2034 4250 
z
M 2034 4750 
Q 2819 4750 3233 4129 
Q 3647 3509 3647 2328 
Q 3647 1150 3233 529 
Q 2819 -91 2034 -91 
Q 1250 -91 836 529 
Q 422 1150 422 2328 
Q 422 3509 836 4129 
Q 1250 4750 2034 4750 
z
" transform="scale(0.015625)"/>
        <path id="DejaVuSans-2e" d="M 684 794 
L 1344 794 
L 1344 0 
L 684 0 
L 684 794 
z
" transform="scale(0.015625)"/>
        <path id="DejaVuSans-33" d="M 2597 2516 
Q 3050 2419 3304 2112 
Q 3559 1806 3559 1356 
Q 3559 666 3084 287 
Q 2609 -91 1734 -91 
Q 1441 -91 1130 -33 
Q 819 25 488 141 
L 488 750 
Q 750 597 1062 519 
Q 1375 441 1716 441 
Q 2309 441 2620 675 
Q 2931 909 2931 1356 
Q 2931 1769 2642 2001 
Q 2353 2234 1838 2234 
L 1294 2234 
L 1294 2753 
L 1863 2753 
Q 2328 2753 2575 2939 
Q 2822 3125 2822 3475 
Q 2822 3834 2567 4026 
Q 2313 4219 1838 4219 
Q 1578 4219 1281 4162 
Q 984 4106 628 3988 
L 628 4550 
Q 988 4650 1302 4700 
Q 1616 4750 1894 4750 
Q 2613 4750 3031 4423 
Q 3450 4097 3450 3541 
Q 3450 3153 3228 2886 
Q 3006 2619 2597 2516 
z
" transform="scale(0.015625)"/>
       </defs>
       <use xlink:href="#DejaVuSans-30"/>
       <use xlink:href="#DejaVuSans-2e" transform="translate(63.623047 0)"/>
       <use xlink:href="#DejaVuSans-33" transform="translate(95.410156 0)"/>
      </g>
     </g>
    </g>
    <g id="xtick_2">
     <g id="line2d_2">
      <g>
       <use xlink:href="#m11288958d5" x="107.058117" y="178.626764" style="stroke: #000000; stroke-width: 0.8"/>
      </g>
     </g>
     <g id="text_2">
      <!-- 0.4 -->
      <g transform="translate(99.106554 193.225202) scale(0.1 -0.1)">
       <defs>
        <path id="DejaVuSans-34" d="M 2419 4116 
L 825 1625 
L 2419 1625 
L 2419 4116 
z
M 2253 4666 
L 3047 4666 
L 3047 1625 
L 3713 1625 
L 3713 1100 
L 3047 1100 
L 3047 0 
L 2419 0 
L 2419 1100 
L 313 1100 
L 313 1709 
L 2253 4666 
z
" transform="scale(0.015625)"/>
       </defs>
       <use xlink:href="#DejaVuSans-30"/>
       <use xlink:href="#DejaVuSans-2e" transform="translate(63.623047 0)"/>
       <use xlink:href="#DejaVuSans-34" transform="translate(95.410156 0)"/>
      </g>
     </g>
    </g>
    <g id="xtick_3">
     <g id="line2d_3">
      <g>
       <use xlink:href="#m11288958d5" x="150.647551" y="178.626764" style="stroke: #000000; stroke-width: 0.8"/>
      </g>
     </g>
     <g id="text_3">
      <!-- 0.5 -->
      <g transform="translate(142.695988 193.225202) scale(0.1 -0.1)">
       <defs>
        <path id="DejaVuSans-35" d="M 691 4666 
L 3169 4666 
L 3169 4134 
L 1269 4134 
L 1269 2991 
Q 1406 3038 1543 3061 
Q 1681 3084 1819 3084 
Q 2600 3084 3056 2656 
Q 3513 2228 3513 1497 
Q 3513 744 3044 326 
Q 2575 -91 1722 -91 
Q 1428 -91 1123 -41 
Q 819 9 494 109 
L 494 744 
Q 775 591 1075 516 
Q 1375 441 1709 441 
Q 2250 441 2565 725 
Q 2881 1009 2881 1497 
Q 2881 1984 2565 2268 
Q 2250 2553 1709 2553 
Q 1456 2553 1204 2497 
Q 953 2441 691 2322 
L 691 4666 
z
" transform="scale(0.015625)"/>
       </defs>
       <use xlink:href="#DejaVuSans-30"/>
       <use xlink:href="#DejaVuSans-2e" transform="translate(63.623047 0)"/>
       <use xlink:href="#DejaVuSans-35" transform="translate(95.410156 0)"/>
      </g>
     </g>
    </g>
    <g id="xtick_4">
     <g id="line2d_4">
      <g>
       <use xlink:href="#m11288958d5" x="194.236985" y="178.626764" style="stroke: #000000; stroke-width: 0.8"/>
      </g>
     </g>
     <g id="text_4">
      <!-- 0.6 -->
      <g transform="translate(186.285422 193.225202) scale(0.1 -0.1)">
       <defs>
        <path id="DejaVuSans-36" d="M 2113 2584 
Q 1688 2584 1439 2293 
Q 1191 2003 1191 1497 
Q 1191 994 1439 701 
Q 1688 409 2113 409 
Q 2538 409 2786 701 
Q 3034 994 3034 1497 
Q 3034 2003 2786 2293 
Q 2538 2584 2113 2584 
z
M 3366 4563 
L 3366 3988 
Q 3128 4100 2886 4159 
Q 2644 4219 2406 4219 
Q 1781 4219 1451 3797 
Q 1122 3375 1075 2522 
Q 1259 2794 1537 2939 
Q 1816 3084 2150 3084 
Q 2853 3084 3261 2657 
Q 3669 2231 3669 1497 
Q 3669 778 3244 343 
Q 2819 -91 2113 -91 
Q 1303 -91 875 529 
Q 447 1150 447 2328 
Q 447 3434 972 4092 
Q 1497 4750 2381 4750 
Q 2619 4750 2861 4703 
Q 3103 4656 3366 4563 
z
" transform="scale(0.015625)"/>
       </defs>
       <use xlink:href="#DejaVuSans-30"/>
       <use xlink:href="#DejaVuSans-2e" transform="translate(63.623047 0)"/>
       <use xlink:href="#DejaVuSans-36" transform="translate(95.410156 0)"/>
      </g>
     </g>
    </g>
    <g id="xtick_5">
     <g id="line2d_5">
      <g>
       <use xlink:href="#m11288958d5" x="237.826419" y="178.626764" style="stroke: #000000; stroke-width: 0.8"/>
      </g>
     </g>
     <g id="text_5">
      <!-- 0.7 -->
      <g transform="translate(229.874856 193.225202) scale(0.1 -0.1)">
       <defs>
        <path id="DejaVuSans-37" d="M 525 4666 
L 3525 4666 
L 3525 4397 
L 1831 0 
L 1172 0 
L 2766 4134 
L 525 4134 
L 525 4666 
z
" transform="scale(0.015625)"/>
       </defs>
       <use xlink:href="#DejaVuSans-30"/>
       <use xlink:href="#DejaVuSans-2e" transform="translate(63.623047 0)"/>
       <use xlink:href="#DejaVuSans-37" transform="translate(95.410156 0)"/>
      </g>
     </g>
    </g>
    <g id="xtick_6">
     <g id="line2d_6">
      <g>
       <use xlink:href="#m11288958d5" x="281.415852" y="178.626764" style="stroke: #000000; stroke-width: 0.8"/>
      </g>
     </g>
     <g id="text_6">
      <!-- 0.8 -->
      <g transform="translate(273.46429 193.225202) scale(0.1 -0.1)">
       <defs>
        <path id="DejaVuSans-38" d="M 2034 2216 
Q 1584 2216 1326 1975 
Q 1069 1734 1069 1313 
Q 1069 891 1326 650 
Q 1584 409 2034 409 
Q 2484 409 2743 651 
Q 3003 894 3003 1313 
Q 3003 1734 2745 1975 
Q 2488 2216 2034 2216 
z
M 1403 2484 
Q 997 2584 770 2862 
Q 544 3141 544 3541 
Q 544 4100 942 4425 
Q 1341 4750 2034 4750 
Q 2731 4750 3128 4425 
Q 3525 4100 3525 3541 
Q 3525 3141 3298 2862 
Q 3072 2584 2669 2484 
Q 3125 2378 3379 2068 
Q 3634 1759 3634 1313 
Q 3634 634 3220 271 
Q 2806 -91 2034 -91 
Q 1263 -91 848 271 
Q 434 634 434 1313 
Q 434 1759 690 2068 
Q 947 2378 1403 2484 
z
M 1172 3481 
Q 1172 3119 1398 2916 
Q 1625 2713 2034 2713 
Q 2441 2713 2670 2916 
Q 2900 3119 2900 3481 
Q 2900 3844 2670 4047 
Q 2441 4250 2034 4250 
Q 1625 4250 1398 4047 
Q 1172 3844 1172 3481 
z
" transform="scale(0.015625)"/>
       </defs>
       <use xlink:href="#DejaVuSans-30"/>
       <use xlink:href="#DejaVuSans-2e" transform="translate(63.623047 0)"/>
       <use xlink:href="#DejaVuSans-38" transform="translate(95.410156 0)"/>
      </g>
     </g>
    </g>
    <g id="xtick_7">
     <g id="line2d_7">
      <g>
       <use xlink:href="#m11288958d5" x="325.005286" y="178.626764" style="stroke: #000000; stroke-width: 0.8"/>
      </g>
     </g>
     <g id="text_7">
      <!-- 0.9 -->
      <g transform="translate(317.053724 193.225202) scale(0.1 -0.1)">
       <defs>
        <path id="DejaVuSans-39" d="M 703 97 
L 703 672 
Q 941 559 1184 500 
Q 1428 441 1663 441 
Q 2288 441 2617 861 
Q 2947 1281 2994 2138 
Q 2813 1869 2534 1725 
Q 2256 1581 1919 1581 
Q 1219 1581 811 2004 
Q 403 2428 403 3163 
Q 403 3881 828 4315 
Q 1253 4750 1959 4750 
Q 2769 4750 3195 4129 
Q 3622 3509 3622 2328 
Q 3622 1225 3098 567 
Q 2575 -91 1691 -91 
Q 1453 -91 1209 -44 
Q 966 3 703 97 
z
M 1959 2075 
Q 2384 2075 2632 2365 
Q 2881 2656 2881 3163 
Q 2881 3666 2632 3958 
Q 2384 4250 1959 4250 
Q 1534 4250 1286 3958 
Q 1038 3666 1038 3163 
Q 1038 2656 1286 2365 
Q 1534 2075 1959 2075 
z
" transform="scale(0.015625)"/>
       </defs>
       <use xlink:href="#DejaVuSans-30"/>
       <use xlink:href="#DejaVuSans-2e" transform="translate(63.623047 0)"/>
       <use xlink:href="#DejaVuSans-39" transform="translate(95.410156 0)"/>
      </g>
     </g>
    </g>
    <g id="xtick_8">
     <g id="line2d_8">
      <g>
       <use xlink:href="#m11288958d5" x="368.59472" y="178.626764" style="stroke: #000000; stroke-width: 0.8"/>
      </g>
     </g>
     <g id="text_8">
      <!-- 1.0 -->
      <g transform="translate(360.643158 193.225202) scale(0.1 -0.1)">
       <defs>
        <path id="DejaVuSans-31" d="M 794 531 
L 1825 531 
L 1825 4091 
L 703 3866 
L 703 4441 
L 1819 4666 
L 2450 4666 
L 2450 531 
L 3481 531 
L 3481 0 
L 794 0 
L 794 531 
z
" transform="scale(0.015625)"/>
       </defs>
       <use xlink:href="#DejaVuSans-31"/>
       <use xlink:href="#DejaVuSans-2e" transform="translate(63.623047 0)"/>
       <use xlink:href="#DejaVuSans-30" transform="translate(95.410156 0)"/>
      </g>
     </g>
    </g>
    <g id="text_9">
     <!-- 1e6 -->
     <g transform="translate(368.345 205.903327) scale(0.1 -0.1)">
      <defs>
       <path id="DejaVuSans-65" d="M 3597 1894 
L 3597 1613 
L 953 1613 
Q 991 1019 1311 708 
Q 1631 397 2203 397 
Q 2534 397 2845 478 
Q 3156 559 3463 722 
L 3463 178 
Q 3153 47 2828 -22 
Q 2503 -91 2169 -91 
Q 1331 -91 842 396 
Q 353 884 353 1716 
Q 353 2575 817 3079 
Q 1281 3584 2069 3584 
Q 2775 3584 3186 3129 
Q 3597 2675 3597 1894 
z
M 3022 2063 
Q 3016 2534 2758 2815 
Q 2500 3097 2075 3097 
Q 1594 3097 1305 2825 
Q 1016 2553 972 2059 
L 3022 2063 
z
" transform="scale(0.015625)"/>
      </defs>
      <use xlink:href="#DejaVuSans-31"/>
      <use xlink:href="#DejaVuSans-65" transform="translate(63.623047 0)"/>
      <use xlink:href="#DejaVuSans-36" transform="translate(125.146484 0)"/>
     </g>
    </g>
   </g>
   <g id="matplotlib.axis_2">
    <g id="ytick_1">
     <g id="line2d_9">
      <defs>
       <path id="mdfe00d602d" d="M 0 0 
L -3.5 0 
" style="stroke: #000000; stroke-width: 0.8"/>
      </defs>
      <g>
       <use xlink:href="#mdfe00d602d" x="30.103125" y="147.480269" style="stroke: #000000; stroke-width: 0.8"/>
      </g>
     </g>
     <g id="text_10">
      <!-- 4.1 -->
      <g transform="translate(7.2 151.279488) scale(0.1 -0.1)">
       <use xlink:href="#DejaVuSans-34"/>
       <use xlink:href="#DejaVuSans-2e" transform="translate(63.623047 0)"/>
       <use xlink:href="#DejaVuSans-31" transform="translate(95.410156 0)"/>
      </g>
     </g>
    </g>
    <g id="ytick_2">
     <g id="line2d_10">
      <g>
       <use xlink:href="#mdfe00d602d" x="30.103125" y="103.890835" style="stroke: #000000; stroke-width: 0.8"/>
      </g>
     </g>
     <g id="text_11">
      <!-- 4.2 -->
      <g transform="translate(7.2 107.690054) scale(0.1 -0.1)">
       <defs>
        <path id="DejaVuSans-32" d="M 1228 531 
L 3431 531 
L 3431 0 
L 469 0 
L 469 531 
Q 828 903 1448 1529 
Q 2069 2156 2228 2338 
Q 2531 2678 2651 2914 
Q 2772 3150 2772 3378 
Q 2772 3750 2511 3984 
Q 2250 4219 1831 4219 
Q 1534 4219 1204 4116 
Q 875 4013 500 3803 
L 500 4441 
Q 881 4594 1212 4672 
Q 1544 4750 1819 4750 
Q 2544 4750 2975 4387 
Q 3406 4025 3406 3419 
Q 3406 3131 3298 2873 
Q 3191 2616 2906 2266 
Q 2828 2175 2409 1742 
Q 1991 1309 1228 531 
z
" transform="scale(0.015625)"/>
       </defs>
       <use xlink:href="#DejaVuSans-34"/>
       <use xlink:href="#DejaVuSans-2e" transform="translate(63.623047 0)"/>
       <use xlink:href="#DejaVuSans-32" transform="translate(95.410156 0)"/>
      </g>
     </g>
    </g>
    <g id="ytick_3">
     <g id="line2d_11">
      <g>
       <use xlink:href="#mdfe00d602d" x="30.103125" y="60.301401" style="stroke: #000000; stroke-width: 0.8"/>
      </g>
     </g>
     <g id="text_12">
      <!-- 4.3 -->
      <g transform="translate(7.2 64.10062) scale(0.1 -0.1)">
       <use xlink:href="#DejaVuSans-34"/>
       <use xlink:href="#DejaVuSans-2e" transform="translate(63.623047 0)"/>
       <use xlink:href="#DejaVuSans-33" transform="translate(95.410156 0)"/>
      </g>
     </g>
    </g>
    <g id="text_13">
     <!-- 1e6 -->
     <g transform="translate(30.103125 19.318125) scale(0.1 -0.1)">
      <use xlink:href="#DejaVuSans-31"/>
      <use xlink:href="#DejaVuSans-65" transform="translate(63.623047 0)"/>
      <use xlink:href="#DejaVuSans-36" transform="translate(125.146484 0)"/>
     </g>
    </g>
   </g>
   <g id="line2d_12">
    <defs>
     <path id="m6a46bb653a" d="M 0 1.5 
C 0.397805 1.5 0.77937 1.341951 1.06066 1.06066 
C 1.341951 0.77937 1.5 0.397805 1.5 0 
C 1.5 -0.397805 1.341951 -0.77937 1.06066 -1.06066 
C 0.77937 -1.341951 0.397805 -1.5 0 -1.5 
C -0.397805 -1.5 -0.77937 -1.341951 -1.06066 -1.06066 
C -1.341951 -0.77937 -1.5 -0.397805 -1.5 0 
C -1.5 0.397805 -1.341951 0.77937 -1.06066 1.06066 
C -0.77937 1.341951 -0.397805 1.5 0 1.5 
z
" style="stroke: #1f77b4"/>
    </defs>
    <g clip-path="url(#p3158324696)">
     <use xlink:href="#m6a46bb653a" x="285.425211" y="136.614151" style="fill: #1f77b4; stroke: #1f77b4"/>
     <use xlink:href="#m6a46bb653a" x="178.506087" y="150.622641" style="fill: #1f77b4; stroke: #1f77b4"/>
     <use xlink:href="#m6a46bb653a" x="212.507855" y="146.878312" style="fill: #1f77b4; stroke: #1f77b4"/>
     <use xlink:href="#m6a46bb653a" x="333.898999" y="149.382373" style="fill: #1f77b4; stroke: #1f77b4"/>
     <use xlink:href="#m6a46bb653a" x="121.860451" y="166.028686" style="fill: #1f77b4; stroke: #1f77b4"/>
     <use xlink:href="#m6a46bb653a" x="304.179009" y="105.245373" style="fill: #1f77b4; stroke: #1f77b4"/>
     <use xlink:href="#m6a46bb653a" x="255.327836" y="82.221472" style="fill: #1f77b4; stroke: #1f77b4"/>
     <use xlink:href="#m6a46bb653a" x="110.16361" y="153.634164" style="fill: #1f77b4; stroke: #1f77b4"/>
     <use xlink:href="#m6a46bb653a" x="328.502763" y="160.804089" style="fill: #1f77b4; stroke: #1f77b4"/>
     <use xlink:href="#m6a46bb653a" x="246.651688" y="91.025551" style="fill: #1f77b4; stroke: #1f77b4"/>
     <use xlink:href="#m6a46bb653a" x="209.05795" y="142.477463" style="fill: #1f77b4; stroke: #1f77b4"/>
     <use xlink:href="#m6a46bb653a" x="228.739888" y="102.470793" style="fill: #1f77b4; stroke: #1f77b4"/>
     <use xlink:href="#m6a46bb653a" x="284.121471" y="116.944104" style="fill: #1f77b4; stroke: #1f77b4"/>
     <use xlink:href="#m6a46bb653a" x="254.325482" y="49.953176" style="fill: #1f77b4; stroke: #1f77b4"/>
     <use xlink:href="#m6a46bb653a" x="174.812258" y="136.878699" style="fill: #1f77b4; stroke: #1f77b4"/>
     <use xlink:href="#m6a46bb653a" x="172.598556" y="149.020962" style="fill: #1f77b4; stroke: #1f77b4"/>
     <use xlink:href="#m6a46bb653a" x="102.960355" y="140.222233" style="fill: #1f77b4; stroke: #1f77b4"/>
     <use xlink:href="#m6a46bb653a" x="288.386019" y="72.455448" style="fill: #1f77b4; stroke: #1f77b4"/>
     <use xlink:href="#m6a46bb653a" x="244.267893" y="167.017664" style="fill: #1f77b4; stroke: #1f77b4"/>
     <use xlink:href="#m6a46bb653a" x="140.483486" y="154.538896" style="fill: #1f77b4; stroke: #1f77b4"/>
     <use xlink:href="#m6a46bb653a" x="228.599303" y="159.160895" style="fill: #1f77b4; stroke: #1f77b4"/>
     <use xlink:href="#m6a46bb653a" x="227.987517" y="154.345228" style="fill: #1f77b4; stroke: #1f77b4"/>
     <use xlink:href="#m6a46bb653a" x="256.41983" y="38.629685" style="fill: #1f77b4; stroke: #1f77b4"/>
     <use xlink:href="#m6a46bb653a" x="187.844026" y="143.64617" style="fill: #1f77b4; stroke: #1f77b4"/>
     <use xlink:href="#m6a46bb653a" x="234.294783" y="106.445787" style="fill: #1f77b4; stroke: #1f77b4"/>
     <use xlink:href="#m6a46bb653a" x="131.748409" y="145.714355" style="fill: #1f77b4; stroke: #1f77b4"/>
     <use xlink:href="#m6a46bb653a" x="294.037898" y="166.976112" style="fill: #1f77b4; stroke: #1f77b4"/>
     <use xlink:href="#m6a46bb653a" x="148.138641" y="137.564699" style="fill: #1f77b4; stroke: #1f77b4"/>
     <use xlink:href="#m6a46bb653a" x="120.80266" y="144.256462" style="fill: #1f77b4; stroke: #1f77b4"/>
     <use xlink:href="#m6a46bb653a" x="301.197904" y="145.154744" style="fill: #1f77b4; stroke: #1f77b4"/>
     <use xlink:href="#m6a46bb653a" x="309.79716" y="122.713638" style="fill: #1f77b4; stroke: #1f77b4"/>
     <use xlink:href="#m6a46bb653a" x="271.985383" y="42.223271" style="fill: #1f77b4; stroke: #1f77b4"/>
     <use xlink:href="#m6a46bb653a" x="152.395623" y="148.250207" style="fill: #1f77b4; stroke: #1f77b4"/>
     <use xlink:href="#m6a46bb653a" x="266.546833" y="150.778171" style="fill: #1f77b4; stroke: #1f77b4"/>
     <use xlink:href="#m6a46bb653a" x="89.198356" y="150.815949" style="fill: #1f77b4; stroke: #1f77b4"/>
     <use xlink:href="#m6a46bb653a" x="287.160283" y="165.640672" style="fill: #1f77b4; stroke: #1f77b4"/>
     <use xlink:href="#m6a46bb653a" x="345.003805" y="163.538625" style="fill: #1f77b4; stroke: #1f77b4"/>
     <use xlink:href="#m6a46bb653a" x="91.040509" y="151.269957" style="fill: #1f77b4; stroke: #1f77b4"/>
     <use xlink:href="#m6a46bb653a" x="308.935229" y="162.886456" style="fill: #1f77b4; stroke: #1f77b4"/>
     <use xlink:href="#m6a46bb653a" x="185.371477" y="125.304056" style="fill: #1f77b4; stroke: #1f77b4"/>
     <use xlink:href="#m6a46bb653a" x="226.315491" y="64.942764" style="fill: #1f77b4; stroke: #1f77b4"/>
     <use xlink:href="#m6a46bb653a" x="260.17832" y="81.502791" style="fill: #1f77b4; stroke: #1f77b4"/>
     <use xlink:href="#m6a46bb653a" x="289.484079" y="157.423435" style="fill: #1f77b4; stroke: #1f77b4"/>
     <use xlink:href="#m6a46bb653a" x="258.296084" y="109.297351" style="fill: #1f77b4; stroke: #1f77b4"/>
     <use xlink:href="#m6a46bb653a" x="248.981252" y="41.986675" style="fill: #1f77b4; stroke: #1f77b4"/>
     <use xlink:href="#m6a46bb653a" x="185.967491" y="166.048421" style="fill: #1f77b4; stroke: #1f77b4"/>
     <use xlink:href="#m6a46bb653a" x="129.897645" y="152.897823" style="fill: #1f77b4; stroke: #1f77b4"/>
     <use xlink:href="#m6a46bb653a" x="273.152773" y="76.496637" style="fill: #1f77b4; stroke: #1f77b4"/>
     <use xlink:href="#m6a46bb653a" x="313.238951" y="99.343244" style="fill: #1f77b4; stroke: #1f77b4"/>
     <use xlink:href="#m6a46bb653a" x="218.174128" y="123.907536" style="fill: #1f77b4; stroke: #1f77b4"/>
     <use xlink:href="#m6a46bb653a" x="201.923934" y="118.310884" style="fill: #1f77b4; stroke: #1f77b4"/>
     <use xlink:href="#m6a46bb653a" x="261.744751" y="133.925797" style="fill: #1f77b4; stroke: #1f77b4"/>
     <use xlink:href="#m6a46bb653a" x="189.749213" y="119.11781" style="fill: #1f77b4; stroke: #1f77b4"/>
     <use xlink:href="#m6a46bb653a" x="202.562929" y="111.503748" style="fill: #1f77b4; stroke: #1f77b4"/>
     <use xlink:href="#m6a46bb653a" x="294.052952" y="140.584675" style="fill: #1f77b4; stroke: #1f77b4"/>
     <use xlink:href="#m6a46bb653a" x="243.157807" y="100.144113" style="fill: #1f77b4; stroke: #1f77b4"/>
     <use xlink:href="#m6a46bb653a" x="176.836478" y="123.287012" style="fill: #1f77b4; stroke: #1f77b4"/>
     <use xlink:href="#m6a46bb653a" x="259.839923" y="165.788736" style="fill: #1f77b4; stroke: #1f77b4"/>
     <use xlink:href="#m6a46bb653a" x="295.517184" y="111.626612" style="fill: #1f77b4; stroke: #1f77b4"/>
     <use xlink:href="#m6a46bb653a" x="128.704824" y="166.173922" style="fill: #1f77b4; stroke: #1f77b4"/>
     <use xlink:href="#m6a46bb653a" x="299.751496" y="142.95883" style="fill: #1f77b4; stroke: #1f77b4"/>
     <use xlink:href="#m6a46bb653a" x="318.657786" y="149.34644" style="fill: #1f77b4; stroke: #1f77b4"/>
     <use xlink:href="#m6a46bb653a" x="163.619334" y="137.501107" style="fill: #1f77b4; stroke: #1f77b4"/>
     <use xlink:href="#m6a46bb653a" x="196.554976" y="122.815568" style="fill: #1f77b4; stroke: #1f77b4"/>
     <use xlink:href="#m6a46bb653a" x="290.249892" y="143.955896" style="fill: #1f77b4; stroke: #1f77b4"/>
     <use xlink:href="#m6a46bb653a" x="223.13442" y="116.366979" style="fill: #1f77b4; stroke: #1f77b4"/>
     <use xlink:href="#m6a46bb653a" x="282.408076" y="101.412734" style="fill: #1f77b4; stroke: #1f77b4"/>
     <use xlink:href="#m6a46bb653a" x="190.149916" y="122.129335" style="fill: #1f77b4; stroke: #1f77b4"/>
     <use xlink:href="#m6a46bb653a" x="125.323882" y="145.947662" style="fill: #1f77b4; stroke: #1f77b4"/>
     <use xlink:href="#m6a46bb653a" x="242.401912" y="114.802724" style="fill: #1f77b4; stroke: #1f77b4"/>
     <use xlink:href="#m6a46bb653a" x="308.070238" y="106.670524" style="fill: #1f77b4; stroke: #1f77b4"/>
     <use xlink:href="#m6a46bb653a" x="184.2711" y="155.081805" style="fill: #1f77b4; stroke: #1f77b4"/>
     <use xlink:href="#m6a46bb653a" x="175.218748" y="135.155293" style="fill: #1f77b4; stroke: #1f77b4"/>
     <use xlink:href="#m6a46bb653a" x="109.118191" y="143.518402" style="fill: #1f77b4; stroke: #1f77b4"/>
     <use xlink:href="#m6a46bb653a" x="208.277443" y="157.907742" style="fill: #1f77b4; stroke: #1f77b4"/>
     <use xlink:href="#m6a46bb653a" x="254.868168" y="79.148916" style="fill: #1f77b4; stroke: #1f77b4"/>
     <use xlink:href="#m6a46bb653a" x="232.51631" y="85.903226" style="fill: #1f77b4; stroke: #1f77b4"/>
     <use xlink:href="#m6a46bb653a" x="201.775427" y="143.291389" style="fill: #1f77b4; stroke: #1f77b4"/>
     <use xlink:href="#m6a46bb653a" x="87.409261" y="164.023017" style="fill: #1f77b4; stroke: #1f77b4"/>
     <use xlink:href="#m6a46bb653a" x="259.16104" y="83.389451" style="fill: #1f77b4; stroke: #1f77b4"/>
     <use xlink:href="#m6a46bb653a" x="273.56758" y="114.353738" style="fill: #1f77b4; stroke: #1f77b4"/>
     <use xlink:href="#m6a46bb653a" x="222.545168" y="98.219777" style="fill: #1f77b4; stroke: #1f77b4"/>
     <use xlink:href="#m6a46bb653a" x="277.880043" y="54.304348" style="fill: #1f77b4; stroke: #1f77b4"/>
     <use xlink:href="#m6a46bb653a" x="160.581154" y="131.526749" style="fill: #1f77b4; stroke: #1f77b4"/>
     <use xlink:href="#m6a46bb653a" x="267.480273" y="45.923992" style="fill: #1f77b4; stroke: #1f77b4"/>
     <use xlink:href="#m6a46bb653a" x="226.343303" y="66.544259" style="fill: #1f77b4; stroke: #1f77b4"/>
     <use xlink:href="#m6a46bb653a" x="317.811837" y="121.175878" style="fill: #1f77b4; stroke: #1f77b4"/>
     <use xlink:href="#m6a46bb653a" x="254.768422" y="145.391907" style="fill: #1f77b4; stroke: #1f77b4"/>
     <use xlink:href="#m6a46bb653a" x="205.429389" y="101.948432" style="fill: #1f77b4; stroke: #1f77b4"/>
     <use xlink:href="#m6a46bb653a" x="191.33242" y="112.512148" style="fill: #1f77b4; stroke: #1f77b4"/>
     <use xlink:href="#m6a46bb653a" x="256.988634" y="58.58721" style="fill: #1f77b4; stroke: #1f77b4"/>
     <use xlink:href="#m6a46bb653a" x="331.548464" y="143.937753" style="fill: #1f77b4; stroke: #1f77b4"/>
     <use xlink:href="#m6a46bb653a" x="281.05617" y="140.011975" style="fill: #1f77b4; stroke: #1f77b4"/>
     <use xlink:href="#m6a46bb653a" x="252.599075" y="138.01464" style="fill: #1f77b4; stroke: #1f77b4"/>
     <use xlink:href="#m6a46bb653a" x="232.326925" y="81.849817" style="fill: #1f77b4; stroke: #1f77b4"/>
     <use xlink:href="#m6a46bb653a" x="249.861255" y="63.833311" style="fill: #1f77b4; stroke: #1f77b4"/>
     <use xlink:href="#m6a46bb653a" x="195.24788" y="148.956999" style="fill: #1f77b4; stroke: #1f77b4"/>
     <use xlink:href="#m6a46bb653a" x="229.62014" y="130.628495" style="fill: #1f77b4; stroke: #1f77b4"/>
     <use xlink:href="#m6a46bb653a" x="294.943331" y="112.698887" style="fill: #1f77b4; stroke: #1f77b4"/>
     <use xlink:href="#m6a46bb653a" x="193.181244" y="168.077762" style="fill: #1f77b4; stroke: #1f77b4"/>
    </g>
   </g>
   <g id="line2d_13">
    <defs>
     <path id="mb9aa812dba" d="M 0 -3 
L -3 3 
L 3 3 
z
" style="stroke: #00bfbf; stroke-linejoin: miter"/>
    </defs>
    <g clip-path="url(#p3158324696)">
     <use xlink:href="#mb9aa812dba" x="228.41109" y="123.938865" style="fill: #00bfbf; stroke: #00bfbf; stroke-linejoin: miter"/>
    </g>
   </g>
   <g id="line2d_14">
    <defs>
     <path id="m96af689e7d" d="M -0 3 
L 3 -3 
L -3 -3 
z
" style="stroke: #ff0000; stroke-linejoin: miter"/>
    </defs>
    <g clip-path="url(#p3158324696)">
     <use xlink:href="#m96af689e7d" x="233.405546" y="135.884722" style="fill: #ff0000; stroke: #ff0000; stroke-linejoin: miter"/>
    </g>
   </g>
   <g id="line2d_15">
    <defs>
     <path id="mb33e512cfb" d="M -3 0 
L 3 0 
M 0 3 
L 0 -3 
" style="stroke: #bf00bf"/>
    </defs>
    <g clip-path="url(#p3158324696)">
     <use xlink:href="#mb33e512cfb" x="229.580352" y="121.150724" style="fill: #bf00bf; stroke: #bf00bf"/>
    </g>
   </g>
   <g id="patch_3">
    <path d="M 30.103125 178.626764 
L 30.103125 22.318125 
" style="fill: none; stroke: #000000; stroke-width: 0.8; stroke-linejoin: miter; stroke-linecap: square"/>
   </g>
   <g id="patch_4">
    <path d="M 387.223125 178.626764 
L 387.223125 22.318125 
" style="fill: none; stroke: #000000; stroke-width: 0.8; stroke-linejoin: miter; stroke-linecap: square"/>
   </g>
   <g id="patch_5">
    <path d="M 30.103125 178.626764 
L 387.223125 178.626764 
" style="fill: none; stroke: #000000; stroke-width: 0.8; stroke-linejoin: miter; stroke-linecap: square"/>
   </g>
   <g id="patch_6">
    <path d="M 30.103125 22.318125 
L 387.223125 22.318125 
" style="fill: none; stroke: #000000; stroke-width: 0.8; stroke-linejoin: miter; stroke-linecap: square"/>
   </g>
   <g id="text_14">
    <!-- Centers -->
    <g transform="translate(185.342813 16.318125) scale(0.12 -0.12)">
     <defs>
      <path id="DejaVuSans-43" d="M 4122 4306 
L 4122 3641 
Q 3803 3938 3442 4084 
Q 3081 4231 2675 4231 
Q 1875 4231 1450 3742 
Q 1025 3253 1025 2328 
Q 1025 1406 1450 917 
Q 1875 428 2675 428 
Q 3081 428 3442 575 
Q 3803 722 4122 1019 
L 4122 359 
Q 3791 134 3420 21 
Q 3050 -91 2638 -91 
Q 1578 -91 968 557 
Q 359 1206 359 2328 
Q 359 3453 968 4101 
Q 1578 4750 2638 4750 
Q 3056 4750 3426 4639 
Q 3797 4528 4122 4306 
z
" transform="scale(0.015625)"/>
      <path id="DejaVuSans-6e" d="M 3513 2113 
L 3513 0 
L 2938 0 
L 2938 2094 
Q 2938 2591 2744 2837 
Q 2550 3084 2163 3084 
Q 1697 3084 1428 2787 
Q 1159 2491 1159 1978 
L 1159 0 
L 581 0 
L 581 3500 
L 1159 3500 
L 1159 2956 
Q 1366 3272 1645 3428 
Q 1925 3584 2291 3584 
Q 2894 3584 3203 3211 
Q 3513 2838 3513 2113 
z
" transform="scale(0.015625)"/>
      <path id="DejaVuSans-74" d="M 1172 4494 
L 1172 3500 
L 2356 3500 
L 2356 3053 
L 1172 3053 
L 1172 1153 
Q 1172 725 1289 603 
Q 1406 481 1766 481 
L 2356 481 
L 2356 0 
L 1766 0 
Q 1100 0 847 248 
Q 594 497 594 1153 
L 594 3053 
L 172 3053 
L 172 3500 
L 594 3500 
L 594 4494 
L 1172 4494 
z
" transform="scale(0.015625)"/>
      <path id="DejaVuSans-72" d="M 2631 2963 
Q 2534 3019 2420 3045 
Q 2306 3072 2169 3072 
Q 1681 3072 1420 2755 
Q 1159 2438 1159 1844 
L 1159 0 
L 581 0 
L 581 3500 
L 1159 3500 
L 1159 2956 
Q 1341 3275 1631 3429 
Q 1922 3584 2338 3584 
Q 2397 3584 2469 3576 
Q 2541 3569 2628 3553 
L 2631 2963 
z
" transform="scale(0.015625)"/>
      <path id="DejaVuSans-73" d="M 2834 3397 
L 2834 2853 
Q 2591 2978 2328 3040 
Q 2066 3103 1784 3103 
Q 1356 3103 1142 2972 
Q 928 2841 928 2578 
Q 928 2378 1081 2264 
Q 1234 2150 1697 2047 
L 1894 2003 
Q 2506 1872 2764 1633 
Q 3022 1394 3022 966 
Q 3022 478 2636 193 
Q 2250 -91 1575 -91 
Q 1294 -91 989 -36 
Q 684 19 347 128 
L 347 722 
Q 666 556 975 473 
Q 1284 391 1588 391 
Q 1994 391 2212 530 
Q 2431 669 2431 922 
Q 2431 1156 2273 1281 
Q 2116 1406 1581 1522 
L 1381 1569 
Q 847 1681 609 1914 
Q 372 2147 372 2553 
Q 372 3047 722 3315 
Q 1072 3584 1716 3584 
Q 2034 3584 2315 3537 
Q 2597 3491 2834 3397 
z
" transform="scale(0.015625)"/>
     </defs>
     <use xlink:href="#DejaVuSans-43"/>
     <use xlink:href="#DejaVuSans-65" transform="translate(69.824219 0)"/>
     <use xlink:href="#DejaVuSans-6e" transform="translate(131.347656 0)"/>
     <use xlink:href="#DejaVuSans-74" transform="translate(194.726562 0)"/>
     <use xlink:href="#DejaVuSans-65" transform="translate(233.935547 0)"/>
     <use xlink:href="#DejaVuSans-72" transform="translate(295.458984 0)"/>
     <use xlink:href="#DejaVuSans-73" transform="translate(336.572266 0)"/>
    </g>
   </g>
   <g id="legend_1">
    <g id="patch_7">
     <path d="M 37.103125 74.3525 
L 162.520313 74.3525 
Q 164.520313 74.3525 164.520313 72.3525 
L 164.520313 29.318125 
Q 164.520313 27.318125 162.520313 27.318125 
L 37.103125 27.318125 
Q 35.103125 27.318125 35.103125 29.318125 
L 35.103125 72.3525 
Q 35.103125 74.3525 37.103125 74.3525 
z
" style="fill: #ffffff; opacity: 0.8; stroke: #cccccc; stroke-linejoin: miter"/>
    </g>
    <g id="line2d_16">
     <g>
      <use xlink:href="#mb9aa812dba" x="49.103125" y="35.416562" style="fill: #00bfbf; stroke: #00bfbf; stroke-linejoin: miter"/>
     </g>
    </g>
    <g id="text_15">
     <!-- Mean Center -->
     <g transform="translate(67.103125 38.916562) scale(0.1 -0.1)">
      <defs>
       <path id="DejaVuSans-4d" d="M 628 4666 
L 1569 4666 
L 2759 1491 
L 3956 4666 
L 4897 4666 
L 4897 0 
L 4281 0 
L 4281 4097 
L 3078 897 
L 2444 897 
L 1241 4097 
L 1241 0 
L 628 0 
L 628 4666 
z
" transform="scale(0.015625)"/>
       <path id="DejaVuSans-61" d="M 2194 1759 
Q 1497 1759 1228 1600 
Q 959 1441 959 1056 
Q 959 750 1161 570 
Q 1363 391 1709 391 
Q 2188 391 2477 730 
Q 2766 1069 2766 1631 
L 2766 1759 
L 2194 1759 
z
M 3341 1997 
L 3341 0 
L 2766 0 
L 2766 531 
Q 2569 213 2275 61 
Q 1981 -91 1556 -91 
Q 1019 -91 701 211 
Q 384 513 384 1019 
Q 384 1609 779 1909 
Q 1175 2209 1959 2209 
L 2766 2209 
L 2766 2266 
Q 2766 2663 2505 2880 
Q 2244 3097 1772 3097 
Q 1472 3097 1187 3025 
Q 903 2953 641 2809 
L 641 3341 
Q 956 3463 1253 3523 
Q 1550 3584 1831 3584 
Q 2591 3584 2966 3190 
Q 3341 2797 3341 1997 
z
" transform="scale(0.015625)"/>
       <path id="DejaVuSans-20" transform="scale(0.015625)"/>
      </defs>
      <use xlink:href="#DejaVuSans-4d"/>
      <use xlink:href="#DejaVuSans-65" transform="translate(86.279297 0)"/>
      <use xlink:href="#DejaVuSans-61" transform="translate(147.802734 0)"/>
      <use xlink:href="#DejaVuSans-6e" transform="translate(209.082031 0)"/>
      <use xlink:href="#DejaVuSans-20" transform="translate(272.460938 0)"/>
      <use xlink:href="#DejaVuSans-43" transform="translate(304.248047 0)"/>
      <use xlink:href="#DejaVuSans-65" transform="translate(374.072266 0)"/>
      <use xlink:href="#DejaVuSans-6e" transform="translate(435.595703 0)"/>
      <use xlink:href="#DejaVuSans-74" transform="translate(498.974609 0)"/>
      <use xlink:href="#DejaVuSans-65" transform="translate(538.183594 0)"/>
      <use xlink:href="#DejaVuSans-72" transform="translate(599.707031 0)"/>
     </g>
    </g>
    <g id="line2d_17">
     <g>
      <use xlink:href="#m96af689e7d" x="49.103125" y="50.094687" style="fill: #ff0000; stroke: #ff0000; stroke-linejoin: miter"/>
     </g>
    </g>
    <g id="text_16">
     <!-- Manhattan Median -->
     <g transform="translate(67.103125 53.594687) scale(0.1 -0.1)">
      <defs>
       <path id="DejaVuSans-68" d="M 3513 2113 
L 3513 0 
L 2938 0 
L 2938 2094 
Q 2938 2591 2744 2837 
Q 2550 3084 2163 3084 
Q 1697 3084 1428 2787 
Q 1159 2491 1159 1978 
L 1159 0 
L 581 0 
L 581 4863 
L 1159 4863 
L 1159 2956 
Q 1366 3272 1645 3428 
Q 1925 3584 2291 3584 
Q 2894 3584 3203 3211 
Q 3513 2838 3513 2113 
z
" transform="scale(0.015625)"/>
       <path id="DejaVuSans-64" d="M 2906 2969 
L 2906 4863 
L 3481 4863 
L 3481 0 
L 2906 0 
L 2906 525 
Q 2725 213 2448 61 
Q 2172 -91 1784 -91 
Q 1150 -91 751 415 
Q 353 922 353 1747 
Q 353 2572 751 3078 
Q 1150 3584 1784 3584 
Q 2172 3584 2448 3432 
Q 2725 3281 2906 2969 
z
M 947 1747 
Q 947 1113 1208 752 
Q 1469 391 1925 391 
Q 2381 391 2643 752 
Q 2906 1113 2906 1747 
Q 2906 2381 2643 2742 
Q 2381 3103 1925 3103 
Q 1469 3103 1208 2742 
Q 947 2381 947 1747 
z
" transform="scale(0.015625)"/>
       <path id="DejaVuSans-69" d="M 603 3500 
L 1178 3500 
L 1178 0 
L 603 0 
L 603 3500 
z
M 603 4863 
L 1178 4863 
L 1178 4134 
L 603 4134 
L 603 4863 
z
" transform="scale(0.015625)"/>
      </defs>
      <use xlink:href="#DejaVuSans-4d"/>
      <use xlink:href="#DejaVuSans-61" transform="translate(86.279297 0)"/>
      <use xlink:href="#DejaVuSans-6e" transform="translate(147.558594 0)"/>
      <use xlink:href="#DejaVuSans-68" transform="translate(210.9375 0)"/>
      <use xlink:href="#DejaVuSans-61" transform="translate(274.316406 0)"/>
      <use xlink:href="#DejaVuSans-74" transform="translate(335.595703 0)"/>
      <use xlink:href="#DejaVuSans-74" transform="translate(374.804688 0)"/>
      <use xlink:href="#DejaVuSans-61" transform="translate(414.013672 0)"/>
      <use xlink:href="#DejaVuSans-6e" transform="translate(475.292969 0)"/>
      <use xlink:href="#DejaVuSans-20" transform="translate(538.671875 0)"/>
      <use xlink:href="#DejaVuSans-4d" transform="translate(570.458984 0)"/>
      <use xlink:href="#DejaVuSans-65" transform="translate(656.738281 0)"/>
      <use xlink:href="#DejaVuSans-64" transform="translate(718.261719 0)"/>
      <use xlink:href="#DejaVuSans-69" transform="translate(781.738281 0)"/>
      <use xlink:href="#DejaVuSans-61" transform="translate(809.521484 0)"/>
      <use xlink:href="#DejaVuSans-6e" transform="translate(870.800781 0)"/>
     </g>
    </g>
    <g id="line2d_18">
     <g>
      <use xlink:href="#mb33e512cfb" x="49.103125" y="64.772813" style="fill: #bf00bf; stroke: #bf00bf"/>
     </g>
    </g>
    <g id="text_17">
     <!-- Euclidean Median -->
     <g transform="translate(67.103125 68.272813) scale(0.1 -0.1)">
      <defs>
       <path id="DejaVuSans-45" d="M 628 4666 
L 3578 4666 
L 3578 4134 
L 1259 4134 
L 1259 2753 
L 3481 2753 
L 3481 2222 
L 1259 2222 
L 1259 531 
L 3634 531 
L 3634 0 
L 628 0 
L 628 4666 
z
" transform="scale(0.015625)"/>
       <path id="DejaVuSans-75" d="M 544 1381 
L 544 3500 
L 1119 3500 
L 1119 1403 
Q 1119 906 1312 657 
Q 1506 409 1894 409 
Q 2359 409 2629 706 
Q 2900 1003 2900 1516 
L 2900 3500 
L 3475 3500 
L 3475 0 
L 2900 0 
L 2900 538 
Q 2691 219 2414 64 
Q 2138 -91 1772 -91 
Q 1169 -91 856 284 
Q 544 659 544 1381 
z
M 1991 3584 
L 1991 3584 
z
" transform="scale(0.015625)"/>
       <path id="DejaVuSans-63" d="M 3122 3366 
L 3122 2828 
Q 2878 2963 2633 3030 
Q 2388 3097 2138 3097 
Q 1578 3097 1268 2742 
Q 959 2388 959 1747 
Q 959 1106 1268 751 
Q 1578 397 2138 397 
Q 2388 397 2633 464 
Q 2878 531 3122 666 
L 3122 134 
Q 2881 22 2623 -34 
Q 2366 -91 2075 -91 
Q 1284 -91 818 406 
Q 353 903 353 1747 
Q 353 2603 823 3093 
Q 1294 3584 2113 3584 
Q 2378 3584 2631 3529 
Q 2884 3475 3122 3366 
z
" transform="scale(0.015625)"/>
       <path id="DejaVuSans-6c" d="M 603 4863 
L 1178 4863 
L 1178 0 
L 603 0 
L 603 4863 
z
" transform="scale(0.015625)"/>
      </defs>
      <use xlink:href="#DejaVuSans-45"/>
      <use xlink:href="#DejaVuSans-75" transform="translate(63.183594 0)"/>
      <use xlink:href="#DejaVuSans-63" transform="translate(126.5625 0)"/>
      <use xlink:href="#DejaVuSans-6c" transform="translate(181.542969 0)"/>
      <use xlink:href="#DejaVuSans-69" transform="translate(209.326172 0)"/>
      <use xlink:href="#DejaVuSans-64" transform="translate(237.109375 0)"/>
      <use xlink:href="#DejaVuSans-65" transform="translate(300.585938 0)"/>
      <use xlink:href="#DejaVuSans-61" transform="translate(362.109375 0)"/>
      <use xlink:href="#DejaVuSans-6e" transform="translate(423.388672 0)"/>
      <use xlink:href="#DejaVuSans-20" transform="translate(486.767578 0)"/>
      <use xlink:href="#DejaVuSans-4d" transform="translate(518.554688 0)"/>
      <use xlink:href="#DejaVuSans-65" transform="translate(604.833984 0)"/>
      <use xlink:href="#DejaVuSans-64" transform="translate(666.357422 0)"/>
      <use xlink:href="#DejaVuSans-69" transform="translate(729.833984 0)"/>
      <use xlink:href="#DejaVuSans-61" transform="translate(757.617188 0)"/>
      <use xlink:href="#DejaVuSans-6e" transform="translate(818.896484 0)"/>
     </g>
    </g>
   </g>
  </g>
 </g>
 <defs>
  <clipPath id="p3158324696">
   <rect x="30.103125" y="22.318125" width="357.12" height="156.308639"/>
  </clipPath>
 </defs>
</svg>
