<?xml version="1.0" encoding="utf-8" standalone="no"?>
<!DOCTYPE svg PUBLIC "-//W3C//DTD SVG 1.1//EN"
  "http://www.w3.org/Graphics/SVG/1.1/DTD/svg11.dtd">
<svg xmlns:xlink="http://www.w3.org/1999/xlink" width="400.785625pt" height="215.225526pt" viewBox="0 0 400.785625 215.225526" xmlns="http://www.w3.org/2000/svg" version="1.1">
 <metadata>
  <rdf:RDF xmlns:dc="http://purl.org/dc/elements/1.1/" xmlns:cc="http://creativecommons.org/ns#" xmlns:rdf="http://www.w3.org/1999/02/22-rdf-syntax-ns#">
   <cc:Work>
    <dc:type rdf:resource="http://purl.org/dc/dcmitype/StillImage"/>
    <dc:date>2026-02-20T19:21:40.660249</dc:date>
    <dc:format>image/svg+xml</dc:format>
    <dc:creator>
     <cc:Agent>
      <dc:title>Matplotlib v3.10.8, https://matplotlib.org/</dc:title>
     </cc:Agent>
    </dc:creator>
   </cc:Work>
  </rdf:RDF>
 </metadata>
 <defs>
  <style type="text/css">*{stroke-linejoin: round; stroke-linecap: butt}</style>
 </defs>
 <g id="figure_1">
  <g id="patch_1">
   <path d="M 0 215.225526 
L 400.785625 215.225526 
L 400.785625 0 
L 0 0 
z
" style="fill: #ffffff"/>
  </g>
  <g id="axes_1">
   <g id="patch_2">
    <path d="M 36.465625 191.347401 
L 393.585625 191.347401 
L 393.585625 22.318125 
L 36.465625 22.318125 
z
" style="fill: #ffffff"/>
   </g>
   <g id="PatchCollection_1">
    <path d="M 59.412554 181.744912 
L 53.083315 181.604098 
L 42.709854 181.560893 
L 40.979835 181.414798 
L 39.762009 180.781752 
L 31.011834 180.659112 
L 21.255595 180.405711 
L 22.596682 179.394053 
L 28.022927 176.986196 
L 31.288977 177.05105 
L 33.894801 176.514885 
L 34.762729 175.62455 
L 37.770141 174.475352 
L 43.238734 173.185631 
L 46.253065 172.921279 
L 46.919033 172.298723 
L 46.777979 170.689868 
L 49.647333 166.630692 
L 50.639391 166.204685 
L 55.061646 165.994137 
L 58.447972 164.363076 
L 59.292979 162.172723 
L 59.067724 159.73444 
L 61.601808 158.004137 
L 65.707475 156.451797 
L 65.903376 154.62321 
L 66.413578 154.08444 
L 65.870971 153.062939 
L 65.993319 152.095683 
L 73.011582 147.404456 
L 73.841728 147.104973 
L 80.498376 144.26486 
L 82.89215 143.736764 
L 85.901125 141.23538 
L 101.120859 128.436494 
L 102.208653 129.854266 
L 101.627753 130.629525 
L 100.322761 131.19663 
L 99.774589 132.126893 
L 102.829931 135.086959 
L 102.526768 137.595398 
L 103.86743 139.394257 
L 105.386061 140.276306 
L 105.611604 141.335052 
L 106.50721 142.577639 
L 107.581324 142.929196 
L 108.626122 142.501411 
L 110.488851 143.370919 
L 111.093079 144.623969 
L 112.770336 145.5002 
L 114.40144 147.262524 
L 119.41217 147.212168 
L 121.765365 145.618593 
L 122.229518 144.561389 
L 123.154649 144.476007 
L 126.462547 142.874109 
L 127.037396 141.240448 
L 128.51606 139.652238 
L 130.655855 142.25449 
L 134.723162 145.333553 
L 138.494335 143.350395 
L 143.801066 142.716521 
L 145.58755 141.559435 
L 145.926669 142.119375 
L 146.414343 142.387864 
L 147.958246 141.837784 
L 151.562449 139.652384 
L 151.882418 138.990592 
L 150.554828 136.827508 
L 151.779441 134.832226 
L 154.109144 135.424238 
L 154.128493 136.646169 
L 155.466252 136.961845 
L 155.789906 137.808723 
L 156.489179 137.367213 
L 156.550342 136.870692 
L 157.308468 136.582892 
L 158.43153 136.828477 
L 163.345987 133.502895 
L 165.842062 132.16362 
L 167.393884 131.821099 
L 168.352774 132.644678 
L 168.410646 134.177688 
L 168.96437 134.807744 
L 171.218842 134.101548 
L 172.902607 132.323523 
L 174.55086 131.717449 
L 174.757226 130.851439 
L 177.471677 129.686266 
L 177.788989 128.243867 
L 176.533138 128.705714 
L 175.72719 128.423 
L 176.132816 126.509286 
L 179.329335 124.754089 
L 180.569566 123.174193 
L 178.943146 122.244686 
L 176.82223 122.269981 
L 176.638075 121.600351 
L 177.047582 120.492892 
L 176.705121 119.854859 
L 179.104397 117.348331 
L 178.878167 115.561781 
L 180.422391 114.308892 
L 180.266036 112.962013 
L 182.617997 110.613 
L 182.580793 109.625911 
L 183.127394 108.643452 
L 185.006174 107.820292 
L 185.53948 106.474195 
L 187.863866 104.100235 
L 190.308914 102.111785 
L 191.821323 99.298845 
L 192.210164 97.645734 
L 193.511321 95.569011 
L 193.180685 94.540426 
L 194.284981 92.158649 
L 194.010204 91.206271 
L 197.807386 87.086407 
L 199.491076 86.010019 
L 199.800227 85.062135 
L 199.054659 84.282949 
L 199.153849 83.394938 
L 200.764886 81.098212 
L 202.174569 81.202532 
L 202.718381 78.736961 
L 204.311736 76.674866 
L 203.868427 72.658464 
L 205.070205 71.469467 
L 204.873907 69.785586 
L 206.055405 67.348385 
L 210.857513 69.486518 
L 213.203482 74.707793 
L 220.892712 77.415478 
L 222.880842 75.962916 
L 224.6693 73.450632 
L 229.161334 63.16113 
L 229.44104 62.838413 
L 230.908951 63.069903 
L 230.910429 60.311421 
L 232.222636 57.139531 
L 232.266582 55.498356 
L 233.200468 54.943084 
L 235.219216 52.212953 
L 240.754109 56.871929 
L 242.934751 52.782759 
L 243.893546 50.091988 
L 245.813367 48.249906 
L 246.304409 47.216422 
L 246.911811 47.141518 
L 247.179284 48.589111 
L 248.892284 47.5876 
L 250.339959 45.893134 
L 251.018631 44.201508 
L 252.477098 44.875501 
L 254.442441 42.145975 
L 254.606955 41.593131 
L 253.918797 40.94231 
L 255.116322 39.64763 
L 256.62648 37.507713 
L 257.328446 36.439845 
L 258.982871 35.986486 
L 259.712916 34.2668 
L 260.9369 32.970456 
L 259.923423 31.44701 
L 259.944353 30.612952 
L 260.958877 28.699921 
L 260.294925 27.996088 
L 263.396174 23.087113 
L 263.242823 22.546157 
L 262.265082 21.95858 
L 262.911786 20.840399 
L 262.902812 16.46637 
L 266.104017 18.296776 
L 268.269103 20.088874 
L 277.239796 27.010942 
L 286.546577 34.362423 
L 287.002668 33.798128 
L 287.543827 30.626034 
L 289.103189 27.701117 
L 289.416333 25.501233 
L 290.773997 23.547411 
L 292.918752 23.412588 
L 295.77048 24.39643 
L 297.893923 24.392423 
L 299.15224 26.037082 
L 301.341283 27.046311 
L 302.686716 28.192526 
L 302.842226 28.785635 
L 302.19252 31.207462 
L 300.539198 32.391424 
L 300.788744 34.726015 
L 302.327895 35.39616 
L 303.253944 36.688915 
L 304.477915 37.449121 
L 308.344305 37.195616 
L 309.338625 37.496004 
L 312.491065 39.379988 
L 313.162437 42.323826 
L 317.296314 42.7892 
L 318.694366 44.610898 
L 320.692881 45.471682 
L 321.261945 47.143207 
L 322.613146 48.44565 
L 322.61343 49.826563 
L 322.421234 50.355157 
L 322.90601 51.222417 
L 322.51214 52.722622 
L 322.638374 56.703894 
L 322.176253 57.112488 
L 321.055071 56.973368 
L 320.576108 57.643248 
L 319.202235 59.207001 
L 319.054898 60.919195 
L 316.08821 62.504997 
L 316.110478 60.315825 
L 314.656413 60.953344 
L 311.579233 69.632121 
L 310.15571 73.429861 
L 312.538809 77.596434 
L 311.120428 78.727352 
L 314.816022 79.303206 
L 323.122875 76.427949 
L 325.852103 81.776664 
L 328.893588 86.117198 
L 344.554556 90.130941 
L 346.793167 92.676546 
L 346.518426 95.495925 
L 345.868646 96.80166 
L 348.07418 96.145149 
L 355.35403 98.998273 
L 360.482693 102.590725 
L 360.930414 104.861305 
L 357.773298 107.976642 
L 358.667831 112.51784 
L 356.576425 113.714472 
L 358.188461 114.918169 
L 357.350109 118.118255 
L 349.852627 116.55964 
L 346.196177 110.191828 
L 343.787926 108.796284 
L 337.095628 102.184735 
L 334.967272 102.118127 
L 339.201997 108.88586 
L 341.570195 110.141514 
L 347.04434 117.526231 
L 358.935883 122.166129 
L 357.45647 123.738633 
L 349.874753 122.530131 
L 353.574021 124.501621 
L 357.161945 124.293802 
L 362.146785 131.269749 
L 361.375743 134.753407 
L 360.182019 134.568558 
L 358.270807 131.270241 
L 353.15318 127.814736 
L 352.48049 130.095044 
L 354.644088 130.378858 
L 355.363863 132.593672 
L 352.979013 132.452638 
L 356.091769 137.137644 
L 353.060352 139.47022 
L 343.821596 130.888538 
L 341.461675 130.63512 
L 343.173533 133.250671 
L 346.821517 137.702739 
L 354.867151 142.152031 
L 355.555797 145.277221 
L 356.238782 144.056819 
L 357.833264 145.509512 
L 358.96277 143.694531 
L 361.491534 146.728726 
L 356.475392 147.803262 
L 361.938041 149.454063 
L 361.428571 152.578077 
L 357.314859 154.510235 
L 355.470741 156.046409 
L 350.358601 150.40064 
L 351.031466 149.176801 
L 348.689312 147.595801 
L 348.608552 149.762002 
L 345.873888 146.892575 
L 346.434618 144.203678 
L 344.561961 141.572238 
L 342.293247 141.291759 
L 340.14815 143.639014 
L 337.740721 141.044335 
L 334.922185 140.966798 
L 333.883674 136.467685 
L 333.908197 140.118507 
L 331.071882 141.552952 
L 333.024277 143.512881 
L 337.757909 142.945903 
L 341.034246 146.055663 
L 342.896893 143.250204 
L 343.691156 146.105037 
L 344.207608 151.46285 
L 348.325959 152.977518 
L 346.768935 154.755026 
L 349.423391 153.978747 
L 352.560955 156.388821 
L 351.420847 159.292022 
L 353.01482 158.819745 
L 352.874189 160.179135 
L 349.611662 163.424912 
L 349.673362 166.078232 
L 351.996357 161.721644 
L 356.352661 159.676718 
L 359.207405 158.851939 
L 359.64352 161.888601 
L 357.304815 163.397956 
L 357.004579 163.975535 
L 360.813079 162.656484 
L 362.003624 163.604802 
L 360.994056 157.115345 
L 362.012699 155.872085 
L 365.864701 157.271194 
L 366.444973 159.004349 
L 369.74072 157.272661 
L 375.437483 157.46493 
L 381.969161 178.25973 
L 380.86508 178.299869 
L 381.157086 175.819136 
L 378.104011 168.926968 
L 376.38648 178.509453 
L 375.066337 178.574335 
L 373.321337 175.966708 
L 374.195454 178.605773 
L 370.423794 178.78682 
L 361.033774 179.317293 
L 353.288045 179.701403 
L 350.232654 179.8759 
L 333.659329 180.673678 
L 333.543511 180.679253 
L 321.816843 181.038443 
L 315.21695 181.432298 
L 294.673571 182.199033 
L 288.430128 182.43336 
L 281.359189 182.682825 
L 268.894941 183.44617 
L 262.535169 183.851315 
L 249.636777 183.909893 
L 246.895566 184.119319 
L 230.806853 184.313915 
L 227.437243 184.164069 
L 213.872003 184.516718 
L 204.287886 184.641472 
L 190.104178 184.972252 
L 188.990732 184.862436 
L 171.075239 184.779434 
L 162.943714 184.461239 
L 152.437942 184.139169 
L 149.418205 184.041519 
L 128.982917 183.576328 
L 113.972862 182.534642 
L 114.791914 181.513514 
L 106.629029 181.225487 
L 102.497808 181.07241 
L 101.97911 182.080033 
L 91.581489 182.012804 
L 88.691934 182.038848 
L 84.982208 182.1205 
L 70.463987 181.915272 
L 59.412554 181.744912 
z
" clip-path="url(#p58bca4f2a5)" style="fill: none; stroke: #000000; stroke-opacity: 0.3"/>
    <path d="M 378.590522 131.721802 
L 377.713134 144.716323 
L 375.94312 145.747318 
L 373.208087 135.384064 
L 376.517201 125.083608 
L 375.115488 125.463587 
L 375.475853 122.998666 
L 376.462051 120.927207 
L 379.373591 121.03982 
L 375.97481 120.684933 
L 376.426738 119.259767 
L 378.375652 119.472759 
L 377.483713 118.84026 
L 381.956319 111.706521 
L 382.486658 107.182765 
L 386.315032 104.969187 
L 386.631945 103.015425 
L 384.244792 98.978643 
L 387.644382 98.173361 
L 388.01379 96.484537 
L 388.916395 94.918159 
L 400.370591 93.069679 
L 390.296485 112.078444 
L 391.640805 113.149401 
L 386.925319 118.469693 
L 389.271708 120.050297 
L 385.745992 120.340615 
L 384.574608 123.149957 
L 386.972829 123.998196 
L 382.121199 125.675819 
L 381.915333 128.153922 
L 383.333397 129.117656 
L 381.657502 128.632025 
L 378.590522 131.721802 
z
" clip-path="url(#p58bca4f2a5)" style="fill: none; stroke: #000000; stroke-opacity: 0.3"/>
    <path d="M 401.785625 100.558802 
L 400.256102 101.20565 
L 401.785625 99.817307 
M 401.785625 99.608693 
L 400.509893 99.731079 
L 401.785625 98.709937 
" clip-path="url(#p58bca4f2a5)" style="fill: none; stroke: #000000; stroke-opacity: 0.3"/>
   </g>
   <g id="PatchCollection_2">
    <path d="M 272.499543 30.001274 
L 52.698352 169.864038 
L 72.149847 178.336558 
L 161.699368 183.664252 
L 228.517836 182.198224 
L 377.352898 170.465878 
L 375.300049 157.857231 
L 336.397905 88.066168 
L 298.905917 30.269969 
L 272.499543 30.001274 
z
" clip-path="url(#p58bca4f2a5)" style="fill: none; stroke: #000000; stroke-opacity: 0.3"/>
   </g>
   <g id="matplotlib.axis_1">
    <g id="xtick_1">
     <g id="line2d_1">
      <defs>
       <path id="m59ee8f8b7b" d="M 0 0 
L 0 3.5 
" style="stroke: #000000; stroke-width: 0.8"/>
      </defs>
      <g>
       <use xlink:href="#m59ee8f8b7b" x="41.572329" y="191.347401" style="stroke: #000000; stroke-width: 0.8"/>
      </g>
     </g>
     <g id="text_1">
      <!-- 300000 -->
      <g transform="translate(22.484829 205.945838) scale(0.1 -0.1)">
       <defs>
        <path id="DejaVuSans-33" d="M 2597 2516 
Q 3050 2419 3304 2112 
Q 3559 1806 3559 1356 
Q 3559 666 3084 287 
Q 2609 -91 1734 -91 
Q 1441 -91 1130 -33 
Q 819 25 488 141 
L 488 750 
Q 750 597 1062 519 
Q 1375 441 1716 441 
Q 2309 441 2620 675 
Q 2931 909 2931 1356 
Q 2931 1769 2642 2001 
Q 2353 2234 1838 2234 
L 1294 2234 
L 1294 2753 
L 1863 2753 
Q 2328 2753 2575 2939 
Q 2822 3125 2822 3475 
Q 2822 3834 2567 4026 
Q 2313 4219 1838 4219 
Q 1578 4219 1281 4162 
Q 984 4106 628 3988 
L 628 4550 
Q 988 4650 1302 4700 
Q 1616 4750 1894 4750 
Q 2613 4750 3031 4423 
Q 3450 4097 3450 3541 
Q 3450 3153 3228 2886 
Q 3006 2619 2597 2516 
z
" transform="scale(0.015625)"/>
        <path id="DejaVuSans-30" d="M 2034 4250 
Q 1547 4250 1301 3770 
Q 1056 3291 1056 2328 
Q 1056 1369 1301 889 
Q 1547 409 2034 409 
Q 2525 409 2770 889 
Q 3016 1369 3016 2328 
Q 3016 3291 2770 3770 
Q 2525 4250 2034 4250 
z
M 2034 4750 
Q 2819 4750 3233 4129 
Q 3647 3509 3647 2328 
Q 3647 1150 3233 529 
Q 2819 -91 2034 -91 
Q 1250 -91 836 529 
Q 422 1150 422 2328 
Q 422 3509 836 4129 
Q 1250 4750 2034 4750 
z
" transform="scale(0.015625)"/>
       </defs>
       <use xlink:href="#DejaVuSans-33"/>
       <use xlink:href="#DejaVuSans-30" transform="translate(63.623047 0)"/>
       <use xlink:href="#DejaVuSans-30" transform="translate(127.246094 0)"/>
       <use xlink:href="#DejaVuSans-30" transform="translate(190.869141 0)"/>
       <use xlink:href="#DejaVuSans-30" transform="translate(254.492188 0)"/>
       <use xlink:href="#DejaVuSans-30" transform="translate(318.115234 0)"/>
      </g>
     </g>
    </g>
    <g id="xtick_2">
     <g id="line2d_2">
      <g>
       <use xlink:href="#m59ee8f8b7b" x="93.262265" y="191.347401" style="stroke: #000000; stroke-width: 0.8"/>
      </g>
     </g>
     <g id="text_2">
      <!-- 400000 -->
      <g transform="translate(74.174765 205.945838) scale(0.1 -0.1)">
       <defs>
        <path id="DejaVuSans-34" d="M 2419 4116 
L 825 1625 
L 2419 1625 
L 2419 4116 
z
M 2253 4666 
L 3047 4666 
L 3047 1625 
L 3713 1625 
L 3713 1100 
L 3047 1100 
L 3047 0 
L 2419 0 
L 2419 1100 
L 313 1100 
L 313 1709 
L 2253 4666 
z
" transform="scale(0.015625)"/>
       </defs>
       <use xlink:href="#DejaVuSans-34"/>
       <use xlink:href="#DejaVuSans-30" transform="translate(63.623047 0)"/>
       <use xlink:href="#DejaVuSans-30" transform="translate(127.246094 0)"/>
       <use xlink:href="#DejaVuSans-30" transform="translate(190.869141 0)"/>
       <use xlink:href="#DejaVuSans-30" transform="translate(254.492188 0)"/>
       <use xlink:href="#DejaVuSans-30" transform="translate(318.115234 0)"/>
      </g>
     </g>
    </g>
    <g id="xtick_3">
     <g id="line2d_3">
      <g>
       <use xlink:href="#m59ee8f8b7b" x="144.952201" y="191.347401" style="stroke: #000000; stroke-width: 0.8"/>
      </g>
     </g>
     <g id="text_3">
      <!-- 500000 -->
      <g transform="translate(125.864701 205.945838) scale(0.1 -0.1)">
       <defs>
        <path id="DejaVuSans-35" d="M 691 4666 
L 3169 4666 
L 3169 4134 
L 1269 4134 
L 1269 2991 
Q 1406 3038 1543 3061 
Q 1681 3084 1819 3084 
Q 2600 3084 3056 2656 
Q 3513 2228 3513 1497 
Q 3513 744 3044 326 
Q 2575 -91 1722 -91 
Q 1428 -91 1123 -41 
Q 819 9 494 109 
L 494 744 
Q 775 591 1075 516 
Q 1375 441 1709 441 
Q 2250 441 2565 725 
Q 2881 1009 2881 1497 
Q 2881 1984 2565 2268 
Q 2250 2553 1709 2553 
Q 1456 2553 1204 2497 
Q 953 2441 691 2322 
L 691 4666 
z
" transform="scale(0.015625)"/>
       </defs>
       <use xlink:href="#DejaVuSans-35"/>
       <use xlink:href="#DejaVuSans-30" transform="translate(63.623047 0)"/>
       <use xlink:href="#DejaVuSans-30" transform="translate(127.246094 0)"/>
       <use xlink:href="#DejaVuSans-30" transform="translate(190.869141 0)"/>
       <use xlink:href="#DejaVuSans-30" transform="translate(254.492188 0)"/>
       <use xlink:href="#DejaVuSans-30" transform="translate(318.115234 0)"/>
      </g>
     </g>
    </g>
    <g id="xtick_4">
     <g id="line2d_4">
      <g>
       <use xlink:href="#m59ee8f8b7b" x="196.642138" y="191.347401" style="stroke: #000000; stroke-width: 0.8"/>
      </g>
     </g>
     <g id="text_4">
      <!-- 600000 -->
      <g transform="translate(177.554638 205.945838) scale(0.1 -0.1)">
       <defs>
        <path id="DejaVuSans-36" d="M 2113 2584 
Q 1688 2584 1439 2293 
Q 1191 2003 1191 1497 
Q 1191 994 1439 701 
Q 1688 409 2113 409 
Q 2538 409 2786 701 
Q 3034 994 3034 1497 
Q 3034 2003 2786 2293 
Q 2538 2584 2113 2584 
z
M 3366 4563 
L 3366 3988 
Q 3128 4100 2886 4159 
Q 2644 4219 2406 4219 
Q 1781 4219 1451 3797 
Q 1122 3375 1075 2522 
Q 1259 2794 1537 2939 
Q 1816 3084 2150 3084 
Q 2853 3084 3261 2657 
Q 3669 2231 3669 1497 
Q 3669 778 3244 343 
Q 2819 -91 2113 -91 
Q 1303 -91 875 529 
Q 447 1150 447 2328 
Q 447 3434 972 4092 
Q 1497 4750 2381 4750 
Q 2619 4750 2861 4703 
Q 3103 4656 3366 4563 
z
" transform="scale(0.015625)"/>
       </defs>
       <use xlink:href="#DejaVuSans-36"/>
       <use xlink:href="#DejaVuSans-30" transform="translate(63.623047 0)"/>
       <use xlink:href="#DejaVuSans-30" transform="translate(127.246094 0)"/>
       <use xlink:href="#DejaVuSans-30" transform="translate(190.869141 0)"/>
       <use xlink:href="#DejaVuSans-30" transform="translate(254.492188 0)"/>
       <use xlink:href="#DejaVuSans-30" transform="translate(318.115234 0)"/>
      </g>
     </g>
    </g>
    <g id="xtick_5">
     <g id="line2d_5">
      <g>
       <use xlink:href="#m59ee8f8b7b" x="248.332074" y="191.347401" style="stroke: #000000; stroke-width: 0.8"/>
      </g>
     </g>
     <g id="text_5">
      <!-- 700000 -->
      <g transform="translate(229.244574 205.945838) scale(0.1 -0.1)">
       <defs>
        <path id="DejaVuSans-37" d="M 525 4666 
L 3525 4666 
L 3525 4397 
L 1831 0 
L 1172 0 
L 2766 4134 
L 525 4134 
L 525 4666 
z
" transform="scale(0.015625)"/>
       </defs>
       <use xlink:href="#DejaVuSans-37"/>
       <use xlink:href="#DejaVuSans-30" transform="translate(63.623047 0)"/>
       <use xlink:href="#DejaVuSans-30" transform="translate(127.246094 0)"/>
       <use xlink:href="#DejaVuSans-30" transform="translate(190.869141 0)"/>
       <use xlink:href="#DejaVuSans-30" transform="translate(254.492188 0)"/>
       <use xlink:href="#DejaVuSans-30" transform="translate(318.115234 0)"/>
      </g>
     </g>
    </g>
    <g id="xtick_6">
     <g id="line2d_6">
      <g>
       <use xlink:href="#m59ee8f8b7b" x="300.02201" y="191.347401" style="stroke: #000000; stroke-width: 0.8"/>
      </g>
     </g>
     <g id="text_6">
      <!-- 800000 -->
      <g transform="translate(280.93451 205.945838) scale(0.1 -0.1)">
       <defs>
        <path id="DejaVuSans-38" d="M 2034 2216 
Q 1584 2216 1326 1975 
Q 1069 1734 1069 1313 
Q 1069 891 1326 650 
Q 1584 409 2034 409 
Q 2484 409 2743 651 
Q 3003 894 3003 1313 
Q 3003 1734 2745 1975 
Q 2488 2216 2034 2216 
z
M 1403 2484 
Q 997 2584 770 2862 
Q 544 3141 544 3541 
Q 544 4100 942 4425 
Q 1341 4750 2034 4750 
Q 2731 4750 3128 4425 
Q 3525 4100 3525 3541 
Q 3525 3141 3298 2862 
Q 3072 2584 2669 2484 
Q 3125 2378 3379 2068 
Q 3634 1759 3634 1313 
Q 3634 634 3220 271 
Q 2806 -91 2034 -91 
Q 1263 -91 848 271 
Q 434 634 434 1313 
Q 434 1759 690 2068 
Q 947 2378 1403 2484 
z
M 1172 3481 
Q 1172 3119 1398 2916 
Q 1625 2713 2034 2713 
Q 2441 2713 2670 2916 
Q 2900 3119 2900 3481 
Q 2900 3844 2670 4047 
Q 2441 4250 2034 4250 
Q 1625 4250 1398 4047 
Q 1172 3844 1172 3481 
z
" transform="scale(0.015625)"/>
       </defs>
       <use xlink:href="#DejaVuSans-38"/>
       <use xlink:href="#DejaVuSans-30" transform="translate(63.623047 0)"/>
       <use xlink:href="#DejaVuSans-30" transform="translate(127.246094 0)"/>
       <use xlink:href="#DejaVuSans-30" transform="translate(190.869141 0)"/>
       <use xlink:href="#DejaVuSans-30" transform="translate(254.492188 0)"/>
       <use xlink:href="#DejaVuSans-30" transform="translate(318.115234 0)"/>
      </g>
     </g>
    </g>
    <g id="xtick_7">
     <g id="line2d_7">
      <g>
       <use xlink:href="#m59ee8f8b7b" x="351.711947" y="191.347401" style="stroke: #000000; stroke-width: 0.8"/>
      </g>
     </g>
     <g id="text_7">
      <!-- 900000 -->
      <g transform="translate(332.624447 205.945838) scale(0.1 -0.1)">
       <defs>
        <path id="DejaVuSans-39" d="M 703 97 
L 703 672 
Q 941 559 1184 500 
Q 1428 441 1663 441 
Q 2288 441 2617 861 
Q 2947 1281 2994 2138 
Q 2813 1869 2534 1725 
Q 2256 1581 1919 1581 
Q 1219 1581 811 2004 
Q 403 2428 403 3163 
Q 403 3881 828 4315 
Q 1253 4750 1959 4750 
Q 2769 4750 3195 4129 
Q 3622 3509 3622 2328 
Q 3622 1225 3098 567 
Q 2575 -91 1691 -91 
Q 1453 -91 1209 -44 
Q 966 3 703 97 
z
M 1959 2075 
Q 2384 2075 2632 2365 
Q 2881 2656 2881 3163 
Q 2881 3666 2632 3958 
Q 2384 4250 1959 4250 
Q 1534 4250 1286 3958 
Q 1038 3666 1038 3163 
Q 1038 2656 1286 2365 
Q 1534 2075 1959 2075 
z
" transform="scale(0.015625)"/>
       </defs>
       <use xlink:href="#DejaVuSans-39"/>
       <use xlink:href="#DejaVuSans-30" transform="translate(63.623047 0)"/>
       <use xlink:href="#DejaVuSans-30" transform="translate(127.246094 0)"/>
       <use xlink:href="#DejaVuSans-30" transform="translate(190.869141 0)"/>
       <use xlink:href="#DejaVuSans-30" transform="translate(254.492188 0)"/>
       <use xlink:href="#DejaVuSans-30" transform="translate(318.115234 0)"/>
      </g>
     </g>
    </g>
   </g>
   <g id="matplotlib.axis_2">
    <g id="ytick_1">
     <g id="line2d_8">
      <defs>
       <path id="m713e6f71dd" d="M 0 0 
L -3.5 0 
" style="stroke: #000000; stroke-width: 0.8"/>
      </defs>
      <g>
       <use xlink:href="#m713e6f71dd" x="36.465625" y="182.307867" style="stroke: #000000; stroke-width: 0.8"/>
      </g>
     </g>
     <g id="text_8">
      <!-- 4.05 -->
      <g transform="translate(7.2 186.107086) scale(0.1 -0.1)">
       <defs>
        <path id="DejaVuSans-2e" d="M 684 794 
L 1344 794 
L 1344 0 
L 684 0 
L 684 794 
z
" transform="scale(0.015625)"/>
       </defs>
       <use xlink:href="#DejaVuSans-34"/>
       <use xlink:href="#DejaVuSans-2e" transform="translate(63.623047 0)"/>
       <use xlink:href="#DejaVuSans-30" transform="translate(95.410156 0)"/>
       <use xlink:href="#DejaVuSans-35" transform="translate(159.033203 0)"/>
      </g>
     </g>
    </g>
    <g id="ytick_2">
     <g id="line2d_9">
      <g>
       <use xlink:href="#m713e6f71dd" x="36.465625" y="156.462899" style="stroke: #000000; stroke-width: 0.8"/>
      </g>
     </g>
     <g id="text_9">
      <!-- 4.10 -->
      <g transform="translate(7.2 160.262118) scale(0.1 -0.1)">
       <defs>
        <path id="DejaVuSans-31" d="M 794 531 
L 1825 531 
L 1825 4091 
L 703 3866 
L 703 4441 
L 1819 4666 
L 2450 4666 
L 2450 531 
L 3481 531 
L 3481 0 
L 794 0 
L 794 531 
z
" transform="scale(0.015625)"/>
       </defs>
       <use xlink:href="#DejaVuSans-34"/>
       <use xlink:href="#DejaVuSans-2e" transform="translate(63.623047 0)"/>
       <use xlink:href="#DejaVuSans-31" transform="translate(95.410156 0)"/>
       <use xlink:href="#DejaVuSans-30" transform="translate(159.033203 0)"/>
      </g>
     </g>
    </g>
    <g id="ytick_3">
     <g id="line2d_10">
      <g>
       <use xlink:href="#m713e6f71dd" x="36.465625" y="130.617931" style="stroke: #000000; stroke-width: 0.8"/>
      </g>
     </g>
     <g id="text_10">
      <!-- 4.15 -->
      <g transform="translate(7.2 134.41715) scale(0.1 -0.1)">
       <use xlink:href="#DejaVuSans-34"/>
       <use xlink:href="#DejaVuSans-2e" transform="translate(63.623047 0)"/>
       <use xlink:href="#DejaVuSans-31" transform="translate(95.410156 0)"/>
       <use xlink:href="#DejaVuSans-35" transform="translate(159.033203 0)"/>
      </g>
     </g>
    </g>
    <g id="ytick_4">
     <g id="line2d_11">
      <g>
       <use xlink:href="#m713e6f71dd" x="36.465625" y="104.772963" style="stroke: #000000; stroke-width: 0.8"/>
      </g>
     </g>
     <g id="text_11">
      <!-- 4.20 -->
      <g transform="translate(7.2 108.572182) scale(0.1 -0.1)">
       <defs>
        <path id="DejaVuSans-32" d="M 1228 531 
L 3431 531 
L 3431 0 
L 469 0 
L 469 531 
Q 828 903 1448 1529 
Q 2069 2156 2228 2338 
Q 2531 2678 2651 2914 
Q 2772 3150 2772 3378 
Q 2772 3750 2511 3984 
Q 2250 4219 1831 4219 
Q 1534 4219 1204 4116 
Q 875 4013 500 3803 
L 500 4441 
Q 881 4594 1212 4672 
Q 1544 4750 1819 4750 
Q 2544 4750 2975 4387 
Q 3406 4025 3406 3419 
Q 3406 3131 3298 2873 
Q 3191 2616 2906 2266 
Q 2828 2175 2409 1742 
Q 1991 1309 1228 531 
z
" transform="scale(0.015625)"/>
       </defs>
       <use xlink:href="#DejaVuSans-34"/>
       <use xlink:href="#DejaVuSans-2e" transform="translate(63.623047 0)"/>
       <use xlink:href="#DejaVuSans-32" transform="translate(95.410156 0)"/>
       <use xlink:href="#DejaVuSans-30" transform="translate(159.033203 0)"/>
      </g>
     </g>
    </g>
    <g id="ytick_5">
     <g id="line2d_12">
      <g>
       <use xlink:href="#m713e6f71dd" x="36.465625" y="78.927995" style="stroke: #000000; stroke-width: 0.8"/>
      </g>
     </g>
     <g id="text_12">
      <!-- 4.25 -->
      <g transform="translate(7.2 82.727214) scale(0.1 -0.1)">
       <use xlink:href="#DejaVuSans-34"/>
       <use xlink:href="#DejaVuSans-2e" transform="translate(63.623047 0)"/>
       <use xlink:href="#DejaVuSans-32" transform="translate(95.410156 0)"/>
       <use xlink:href="#DejaVuSans-35" transform="translate(159.033203 0)"/>
      </g>
     </g>
    </g>
    <g id="ytick_6">
     <g id="line2d_13">
      <g>
       <use xlink:href="#m713e6f71dd" x="36.465625" y="53.083027" style="stroke: #000000; stroke-width: 0.8"/>
      </g>
     </g>
     <g id="text_13">
      <!-- 4.30 -->
      <g transform="translate(7.2 56.882245) scale(0.1 -0.1)">
       <use xlink:href="#DejaVuSans-34"/>
       <use xlink:href="#DejaVuSans-2e" transform="translate(63.623047 0)"/>
       <use xlink:href="#DejaVuSans-33" transform="translate(95.410156 0)"/>
       <use xlink:href="#DejaVuSans-30" transform="translate(159.033203 0)"/>
      </g>
     </g>
    </g>
    <g id="ytick_7">
     <g id="line2d_14">
      <g>
       <use xlink:href="#m713e6f71dd" x="36.465625" y="27.238059" style="stroke: #000000; stroke-width: 0.8"/>
      </g>
     </g>
     <g id="text_14">
      <!-- 4.35 -->
      <g transform="translate(7.2 31.037277) scale(0.1 -0.1)">
       <use xlink:href="#DejaVuSans-34"/>
       <use xlink:href="#DejaVuSans-2e" transform="translate(63.623047 0)"/>
       <use xlink:href="#DejaVuSans-33" transform="translate(95.410156 0)"/>
       <use xlink:href="#DejaVuSans-35" transform="translate(159.033203 0)"/>
      </g>
     </g>
    </g>
    <g id="text_15">
     <!-- 1e6 -->
     <g transform="translate(36.465625 19.318125) scale(0.1 -0.1)">
      <defs>
       <path id="DejaVuSans-65" d="M 3597 1894 
L 3597 1613 
L 953 1613 
Q 991 1019 1311 708 
Q 1631 397 2203 397 
Q 2534 397 2845 478 
Q 3156 559 3463 722 
L 3463 178 
Q 3153 47 2828 -22 
Q 2503 -91 2169 -91 
Q 1331 -91 842 396 
Q 353 884 353 1716 
Q 353 2575 817 3079 
Q 1281 3584 2069 3584 
Q 2775 3584 3186 3129 
Q 3597 2675 3597 1894 
z
M 3022 2063 
Q 3016 2534 2758 2815 
Q 2500 3097 2075 3097 
Q 1594 3097 1305 2825 
Q 1016 2553 972 2059 
L 3022 2063 
z
" transform="scale(0.015625)"/>
      </defs>
      <use xlink:href="#DejaVuSans-31"/>
      <use xlink:href="#DejaVuSans-65" transform="translate(63.623047 0)"/>
      <use xlink:href="#DejaVuSans-36" transform="translate(125.146484 0)"/>
     </g>
    </g>
   </g>
   <g id="line2d_15">
    <defs>
     <path id="m66016bd5a7" d="M 0 1.5 
C 0.397805 1.5 0.77937 1.341951 1.06066 1.06066 
C 1.341951 0.77937 1.5 0.397805 1.5 0 
C 1.5 -0.397805 1.341951 -0.77937 1.06066 -1.06066 
C 0.77937 -1.341951 0.397805 -1.5 0 -1.5 
C -0.397805 -1.5 -0.77937 -1.341951 -1.06066 -1.06066 
C -1.341951 -0.77937 -1.5 -0.397805 -1.5 0 
C -1.5 0.397805 -1.341951 0.77937 -1.06066 1.06066 
C -0.77937 1.341951 -0.397805 1.5 0 1.5 
z
" style="stroke: #1f77b4"/>
    </defs>
    <g clip-path="url(#p58bca4f2a5)">
     <use xlink:href="#m66016bd5a7" x="213.822709" y="93.781929" style="fill: #1f77b4; stroke: #1f77b4"/>
     <use xlink:href="#m66016bd5a7" x="319.182817" y="142.915845" style="fill: #1f77b4; stroke: #1f77b4"/>
     <use xlink:href="#m66016bd5a7" x="141.736433" y="170.979588" style="fill: #1f77b4; stroke: #1f77b4"/>
     <use xlink:href="#m66016bd5a7" x="155.695232" y="165.918642" style="fill: #1f77b4; stroke: #1f77b4"/>
     <use xlink:href="#m66016bd5a7" x="333.881726" y="99.245216" style="fill: #1f77b4; stroke: #1f77b4"/>
     <use xlink:href="#m66016bd5a7" x="219.061469" y="126.404179" style="fill: #1f77b4; stroke: #1f77b4"/>
     <use xlink:href="#m66016bd5a7" x="154.992596" y="163.088592" style="fill: #1f77b4; stroke: #1f77b4"/>
     <use xlink:href="#m66016bd5a7" x="342.219626" y="140.836314" style="fill: #1f77b4; stroke: #1f77b4"/>
     <use xlink:href="#m66016bd5a7" x="336.053636" y="93.224277" style="fill: #1f77b4; stroke: #1f77b4"/>
     <use xlink:href="#m66016bd5a7" x="332.655003" y="145.19706" style="fill: #1f77b4; stroke: #1f77b4"/>
     <use xlink:href="#m66016bd5a7" x="251.767156" y="137.956506" style="fill: #1f77b4; stroke: #1f77b4"/>
     <use xlink:href="#m66016bd5a7" x="169.013724" y="167.317352" style="fill: #1f77b4; stroke: #1f77b4"/>
     <use xlink:href="#m66016bd5a7" x="236.096814" y="86.905562" style="fill: #1f77b4; stroke: #1f77b4"/>
     <use xlink:href="#m66016bd5a7" x="265.578037" y="84.137436" style="fill: #1f77b4; stroke: #1f77b4"/>
     <use xlink:href="#m66016bd5a7" x="235.780457" y="96.955853" style="fill: #1f77b4; stroke: #1f77b4"/>
     <use xlink:href="#m66016bd5a7" x="255.969732" y="144.007462" style="fill: #1f77b4; stroke: #1f77b4"/>
     <use xlink:href="#m66016bd5a7" x="231.200646" y="172.882994" style="fill: #1f77b4; stroke: #1f77b4"/>
     <use xlink:href="#m66016bd5a7" x="259.784455" y="122.852158" style="fill: #1f77b4; stroke: #1f77b4"/>
     <use xlink:href="#m66016bd5a7" x="375.300049" y="157.857231" style="fill: #1f77b4; stroke: #1f77b4"/>
     <use xlink:href="#m66016bd5a7" x="289.743055" y="101.572458" style="fill: #1f77b4; stroke: #1f77b4"/>
     <use xlink:href="#m66016bd5a7" x="279.330655" y="46.13569" style="fill: #1f77b4; stroke: #1f77b4"/>
     <use xlink:href="#m66016bd5a7" x="243.970787" y="103.894173" style="fill: #1f77b4; stroke: #1f77b4"/>
     <use xlink:href="#m66016bd5a7" x="261.300469" y="145.108938" style="fill: #1f77b4; stroke: #1f77b4"/>
     <use xlink:href="#m66016bd5a7" x="345.632383" y="137.947756" style="fill: #1f77b4; stroke: #1f77b4"/>
     <use xlink:href="#m66016bd5a7" x="336.397905" y="88.066168" style="fill: #1f77b4; stroke: #1f77b4"/>
     <use xlink:href="#m66016bd5a7" x="257.850513" y="114.167867" style="fill: #1f77b4; stroke: #1f77b4"/>
     <use xlink:href="#m66016bd5a7" x="228.517836" y="182.198224" style="fill: #1f77b4; stroke: #1f77b4"/>
     <use xlink:href="#m66016bd5a7" x="314.130295" y="97.932169" style="fill: #1f77b4; stroke: #1f77b4"/>
     <use xlink:href="#m66016bd5a7" x="108.312034" y="164.360571" style="fill: #1f77b4; stroke: #1f77b4"/>
     <use xlink:href="#m66016bd5a7" x="110.726196" y="167.77732" style="fill: #1f77b4; stroke: #1f77b4"/>
     <use xlink:href="#m66016bd5a7" x="255.060915" y="77.145338" style="fill: #1f77b4; stroke: #1f77b4"/>
     <use xlink:href="#m66016bd5a7" x="232.258041" y="134.391408" style="fill: #1f77b4; stroke: #1f77b4"/>
     <use xlink:href="#m66016bd5a7" x="292.876967" y="97.152279" style="fill: #1f77b4; stroke: #1f77b4"/>
     <use xlink:href="#m66016bd5a7" x="88.464441" y="158.303831" style="fill: #1f77b4; stroke: #1f77b4"/>
     <use xlink:href="#m66016bd5a7" x="247.657013" y="64.229643" style="fill: #1f77b4; stroke: #1f77b4"/>
     <use xlink:href="#m66016bd5a7" x="283.447246" y="66.652665" style="fill: #1f77b4; stroke: #1f77b4"/>
     <use xlink:href="#m66016bd5a7" x="313.645693" y="55.885225" style="fill: #1f77b4; stroke: #1f77b4"/>
     <use xlink:href="#m66016bd5a7" x="316.811772" y="165.441208" style="fill: #1f77b4; stroke: #1f77b4"/>
     <use xlink:href="#m66016bd5a7" x="70.149114" y="160.801925" style="fill: #1f77b4; stroke: #1f77b4"/>
     <use xlink:href="#m66016bd5a7" x="266.440032" y="151.295113" style="fill: #1f77b4; stroke: #1f77b4"/>
     <use xlink:href="#m66016bd5a7" x="257.995374" y="125.775499" style="fill: #1f77b4; stroke: #1f77b4"/>
     <use xlink:href="#m66016bd5a7" x="290.410526" y="51.907352" style="fill: #1f77b4; stroke: #1f77b4"/>
     <use xlink:href="#m66016bd5a7" x="281.408135" y="69.651244" style="fill: #1f77b4; stroke: #1f77b4"/>
     <use xlink:href="#m66016bd5a7" x="159.486879" y="174.673469" style="fill: #1f77b4; stroke: #1f77b4"/>
     <use xlink:href="#m66016bd5a7" x="224.431922" y="76.658859" style="fill: #1f77b4; stroke: #1f77b4"/>
     <use xlink:href="#m66016bd5a7" x="192.378781" y="140.518799" style="fill: #1f77b4; stroke: #1f77b4"/>
     <use xlink:href="#m66016bd5a7" x="321.622328" y="138.187003" style="fill: #1f77b4; stroke: #1f77b4"/>
     <use xlink:href="#m66016bd5a7" x="257.897207" y="58.503849" style="fill: #1f77b4; stroke: #1f77b4"/>
     <use xlink:href="#m66016bd5a7" x="172.608514" y="163.600119" style="fill: #1f77b4; stroke: #1f77b4"/>
     <use xlink:href="#m66016bd5a7" x="320.984535" y="125.555748" style="fill: #1f77b4; stroke: #1f77b4"/>
     <use xlink:href="#m66016bd5a7" x="135.07844" y="169.388001" style="fill: #1f77b4; stroke: #1f77b4"/>
     <use xlink:href="#m66016bd5a7" x="297.08393" y="143.886419" style="fill: #1f77b4; stroke: #1f77b4"/>
     <use xlink:href="#m66016bd5a7" x="103.396476" y="166.19395" style="fill: #1f77b4; stroke: #1f77b4"/>
     <use xlink:href="#m66016bd5a7" x="228.216912" y="164.084025" style="fill: #1f77b4; stroke: #1f77b4"/>
     <use xlink:href="#m66016bd5a7" x="287.690899" y="147.86329" style="fill: #1f77b4; stroke: #1f77b4"/>
     <use xlink:href="#m66016bd5a7" x="283.03445" y="85.851754" style="fill: #1f77b4; stroke: #1f77b4"/>
     <use xlink:href="#m66016bd5a7" x="272.499543" y="30.001274" style="fill: #1f77b4; stroke: #1f77b4"/>
     <use xlink:href="#m66016bd5a7" x="289.560908" y="100.455981" style="fill: #1f77b4; stroke: #1f77b4"/>
     <use xlink:href="#m66016bd5a7" x="109.032525" y="166.065567" style="fill: #1f77b4; stroke: #1f77b4"/>
     <use xlink:href="#m66016bd5a7" x="272.230526" y="70.886343" style="fill: #1f77b4; stroke: #1f77b4"/>
     <use xlink:href="#m66016bd5a7" x="193.940314" y="135.080505" style="fill: #1f77b4; stroke: #1f77b4"/>
     <use xlink:href="#m66016bd5a7" x="94.226876" y="165.994931" style="fill: #1f77b4; stroke: #1f77b4"/>
     <use xlink:href="#m66016bd5a7" x="339.682524" y="169.816553" style="fill: #1f77b4; stroke: #1f77b4"/>
     <use xlink:href="#m66016bd5a7" x="263.273672" y="111.560031" style="fill: #1f77b4; stroke: #1f77b4"/>
     <use xlink:href="#m66016bd5a7" x="188.456311" y="155.813427" style="fill: #1f77b4; stroke: #1f77b4"/>
     <use xlink:href="#m66016bd5a7" x="125.243713" y="174.619864" style="fill: #1f77b4; stroke: #1f77b4"/>
     <use xlink:href="#m66016bd5a7" x="204.882933" y="130.822084" style="fill: #1f77b4; stroke: #1f77b4"/>
     <use xlink:href="#m66016bd5a7" x="298.905917" y="30.269969" style="fill: #1f77b4; stroke: #1f77b4"/>
     <use xlink:href="#m66016bd5a7" x="310.437701" y="143.724648" style="fill: #1f77b4; stroke: #1f77b4"/>
     <use xlink:href="#m66016bd5a7" x="207.645307" y="140.289707" style="fill: #1f77b4; stroke: #1f77b4"/>
     <use xlink:href="#m66016bd5a7" x="286.192445" y="128.304957" style="fill: #1f77b4; stroke: #1f77b4"/>
     <use xlink:href="#m66016bd5a7" x="263.622235" y="132.394515" style="fill: #1f77b4; stroke: #1f77b4"/>
     <use xlink:href="#m66016bd5a7" x="305.914227" y="166.888372" style="fill: #1f77b4; stroke: #1f77b4"/>
     <use xlink:href="#m66016bd5a7" x="161.699368" y="183.664252" style="fill: #1f77b4; stroke: #1f77b4"/>
     <use xlink:href="#m66016bd5a7" x="270.57741" y="155.790223" style="fill: #1f77b4; stroke: #1f77b4"/>
     <use xlink:href="#m66016bd5a7" x="274.287601" y="51.754081" style="fill: #1f77b4; stroke: #1f77b4"/>
     <use xlink:href="#m66016bd5a7" x="250.658891" y="56.322597" style="fill: #1f77b4; stroke: #1f77b4"/>
     <use xlink:href="#m66016bd5a7" x="140.662725" y="160.810249" style="fill: #1f77b4; stroke: #1f77b4"/>
     <use xlink:href="#m66016bd5a7" x="293.669834" y="41.131575" style="fill: #1f77b4; stroke: #1f77b4"/>
     <use xlink:href="#m66016bd5a7" x="377.352898" y="170.465878" style="fill: #1f77b4; stroke: #1f77b4"/>
     <use xlink:href="#m66016bd5a7" x="206.527389" y="158.047733" style="fill: #1f77b4; stroke: #1f77b4"/>
     <use xlink:href="#m66016bd5a7" x="177.483532" y="120.438339" style="fill: #1f77b4; stroke: #1f77b4"/>
     <use xlink:href="#m66016bd5a7" x="317.917724" y="113.418735" style="fill: #1f77b4; stroke: #1f77b4"/>
     <use xlink:href="#m66016bd5a7" x="52.698352" y="169.864038" style="fill: #1f77b4; stroke: #1f77b4"/>
     <use xlink:href="#m66016bd5a7" x="163.531892" y="167.722986" style="fill: #1f77b4; stroke: #1f77b4"/>
     <use xlink:href="#m66016bd5a7" x="266.145024" y="92.586211" style="fill: #1f77b4; stroke: #1f77b4"/>
     <use xlink:href="#m66016bd5a7" x="333.856817" y="166.829805" style="fill: #1f77b4; stroke: #1f77b4"/>
     <use xlink:href="#m66016bd5a7" x="323.192858" y="133.463088" style="fill: #1f77b4; stroke: #1f77b4"/>
     <use xlink:href="#m66016bd5a7" x="201.138841" y="130.255325" style="fill: #1f77b4; stroke: #1f77b4"/>
     <use xlink:href="#m66016bd5a7" x="72.149847" y="178.336558" style="fill: #1f77b4; stroke: #1f77b4"/>
     <use xlink:href="#m66016bd5a7" x="246.069074" y="157.57558" style="fill: #1f77b4; stroke: #1f77b4"/>
     <use xlink:href="#m66016bd5a7" x="314.144283" y="109.988793" style="fill: #1f77b4; stroke: #1f77b4"/>
     <use xlink:href="#m66016bd5a7" x="259.281764" y="117.853267" style="fill: #1f77b4; stroke: #1f77b4"/>
     <use xlink:href="#m66016bd5a7" x="249.932963" y="161.950781" style="fill: #1f77b4; stroke: #1f77b4"/>
     <use xlink:href="#m66016bd5a7" x="298.711967" y="44.609083" style="fill: #1f77b4; stroke: #1f77b4"/>
     <use xlink:href="#m66016bd5a7" x="297.761615" y="164.643873" style="fill: #1f77b4; stroke: #1f77b4"/>
     <use xlink:href="#m66016bd5a7" x="90.041447" y="164.167933" style="fill: #1f77b4; stroke: #1f77b4"/>
     <use xlink:href="#m66016bd5a7" x="175.024822" y="135.903418" style="fill: #1f77b4; stroke: #1f77b4"/>
     <use xlink:href="#m66016bd5a7" x="242.543286" y="78.131447" style="fill: #1f77b4; stroke: #1f77b4"/>
     <use xlink:href="#m66016bd5a7" x="257.204161" y="113.126885" style="fill: #1f77b4; stroke: #1f77b4"/>
    </g>
   </g>
   <g id="patch_3">
    <path d="M 36.465625 191.347401 
L 36.465625 22.318125 
" style="fill: none; stroke: #000000; stroke-width: 0.8; stroke-linejoin: miter; stroke-linecap: square"/>
   </g>
   <g id="patch_4">
    <path d="M 393.585625 191.347401 
L 393.585625 22.318125 
" style="fill: none; stroke: #000000; stroke-width: 0.8; stroke-linejoin: miter; stroke-linecap: square"/>
   </g>
   <g id="patch_5">
    <path d="M 36.465625 191.347401 
L 393.585625 191.347401 
" style="fill: none; stroke: #000000; stroke-width: 0.8; stroke-linejoin: miter; stroke-linecap: square"/>
   </g>
   <g id="patch_6">
    <path d="M 36.465625 22.318125 
L 393.585625 22.318125 
" style="fill: none; stroke: #000000; stroke-width: 0.8; stroke-linejoin: miter; stroke-linecap: square"/>
   </g>
   <g id="text_16">
    <!-- Point Pattern -->
    <g transform="translate(176.640625 16.318125) scale(0.12 -0.12)">
     <defs>
      <path id="DejaVuSans-50" d="M 1259 4147 
L 1259 2394 
L 2053 2394 
Q 2494 2394 2734 2622 
Q 2975 2850 2975 3272 
Q 2975 3691 2734 3919 
Q 2494 4147 2053 4147 
L 1259 4147 
z
M 628 4666 
L 2053 4666 
Q 2838 4666 3239 4311 
Q 3641 3956 3641 3272 
Q 3641 2581 3239 2228 
Q 2838 1875 2053 1875 
L 1259 1875 
L 1259 0 
L 628 0 
L 628 4666 
z
" transform="scale(0.015625)"/>
      <path id="DejaVuSans-6f" d="M 1959 3097 
Q 1497 3097 1228 2736 
Q 959 2375 959 1747 
Q 959 1119 1226 758 
Q 1494 397 1959 397 
Q 2419 397 2687 759 
Q 2956 1122 2956 1747 
Q 2956 2369 2687 2733 
Q 2419 3097 1959 3097 
z
M 1959 3584 
Q 2709 3584 3137 3096 
Q 3566 2609 3566 1747 
Q 3566 888 3137 398 
Q 2709 -91 1959 -91 
Q 1206 -91 779 398 
Q 353 888 353 1747 
Q 353 2609 779 3096 
Q 1206 3584 1959 3584 
z
" transform="scale(0.015625)"/>
      <path id="DejaVuSans-69" d="M 603 3500 
L 1178 3500 
L 1178 0 
L 603 0 
L 603 3500 
z
M 603 4863 
L 1178 4863 
L 1178 4134 
L 603 4134 
L 603 4863 
z
" transform="scale(0.015625)"/>
      <path id="DejaVuSans-6e" d="M 3513 2113 
L 3513 0 
L 2938 0 
L 2938 2094 
Q 2938 2591 2744 2837 
Q 2550 3084 2163 3084 
Q 1697 3084 1428 2787 
Q 1159 2491 1159 1978 
L 1159 0 
L 581 0 
L 581 3500 
L 1159 3500 
L 1159 2956 
Q 1366 3272 1645 3428 
Q 1925 3584 2291 3584 
Q 2894 3584 3203 3211 
Q 3513 2838 3513 2113 
z
" transform="scale(0.015625)"/>
      <path id="DejaVuSans-74" d="M 1172 4494 
L 1172 3500 
L 2356 3500 
L 2356 3053 
L 1172 3053 
L 1172 1153 
Q 1172 725 1289 603 
Q 1406 481 1766 481 
L 2356 481 
L 2356 0 
L 1766 0 
Q 1100 0 847 248 
Q 594 497 594 1153 
L 594 3053 
L 172 3053 
L 172 3500 
L 594 3500 
L 594 4494 
L 1172 4494 
z
" transform="scale(0.015625)"/>
      <path id="DejaVuSans-20" transform="scale(0.015625)"/>
      <path id="DejaVuSans-61" d="M 2194 1759 
Q 1497 1759 1228 1600 
Q 959 1441 959 1056 
Q 959 750 1161 570 
Q 1363 391 1709 391 
Q 2188 391 2477 730 
Q 2766 1069 2766 1631 
L 2766 1759 
L 2194 1759 
z
M 3341 1997 
L 3341 0 
L 2766 0 
L 2766 531 
Q 2569 213 2275 61 
Q 1981 -91 1556 -91 
Q 1019 -91 701 211 
Q 384 513 384 1019 
Q 384 1609 779 1909 
Q 1175 2209 1959 2209 
L 2766 2209 
L 2766 2266 
Q 2766 2663 2505 2880 
Q 2244 3097 1772 3097 
Q 1472 3097 1187 3025 
Q 903 2953 641 2809 
L 641 3341 
Q 956 3463 1253 3523 
Q 1550 3584 1831 3584 
Q 2591 3584 2966 3190 
Q 3341 2797 3341 1997 
z
" transform="scale(0.015625)"/>
      <path id="DejaVuSans-72" d="M 2631 2963 
Q 2534 3019 2420 3045 
Q 2306 3072 2169 3072 
Q 1681 3072 1420 2755 
Q 1159 2438 1159 1844 
L 1159 0 
L 581 0 
L 581 3500 
L 1159 3500 
L 1159 2956 
Q 1341 3275 1631 3429 
Q 1922 3584 2338 3584 
Q 2397 3584 2469 3576 
Q 2541 3569 2628 3553 
L 2631 2963 
z
" transform="scale(0.015625)"/>
     </defs>
     <use xlink:href="#DejaVuSans-50"/>
     <use xlink:href="#DejaVuSans-6f" transform="translate(56.677734 0)"/>
     <use xlink:href="#DejaVuSans-69" transform="translate(117.859375 0)"/>
     <use xlink:href="#DejaVuSans-6e" transform="translate(145.642578 0)"/>
     <use xlink:href="#DejaVuSans-74" transform="translate(209.021484 0)"/>
     <use xlink:href="#DejaVuSans-20" transform="translate(248.230469 0)"/>
     <use xlink:href="#DejaVuSans-50" transform="translate(280.017578 0)"/>
     <use xlink:href="#DejaVuSans-61" transform="translate(335.820312 0)"/>
     <use xlink:href="#DejaVuSans-74" transform="translate(397.099609 0)"/>
     <use xlink:href="#DejaVuSans-74" transform="translate(436.308594 0)"/>
     <use xlink:href="#DejaVuSans-65" transform="translate(475.517578 0)"/>
     <use xlink:href="#DejaVuSans-72" transform="translate(537.041016 0)"/>
     <use xlink:href="#DejaVuSans-6e" transform="translate(576.404297 0)"/>
    </g>
   </g>
  </g>
 </g>
 <defs>
  <clipPath id="p58bca4f2a5">
   <rect x="36.465625" y="22.318125" width="357.12" height="169.029276"/>
  </clipPath>
 </defs>
</svg>
