<?xml version="1.0" encoding="utf-8" standalone="no"?>
<!DOCTYPE svg PUBLIC "-//W3C//DTD SVG 1.1//EN"
  "http://www.w3.org/Graphics/SVG/1.1/DTD/svg11.dtd">
<svg xmlns:xlink="http://www.w3.org/1999/xlink" width="309.207067pt" height="312.30825pt" viewBox="0 0 309.207067 312.30825" xmlns="http://www.w3.org/2000/svg" version="1.1">
 <metadata>
  <rdf:RDF xmlns:dc="http://purl.org/dc/elements/1.1/" xmlns:cc="http://creativecommons.org/ns#" xmlns:rdf="http://www.w3.org/1999/02/22-rdf-syntax-ns#">
   <cc:Work>
    <dc:type rdf:resource="http://purl.org/dc/dcmitype/StillImage"/>
    <dc:date>2026-02-20T19:21:33.762083</dc:date>
    <dc:format>image/svg+xml</dc:format>
    <dc:creator>
     <cc:Agent>
      <dc:title>Matplotlib v3.10.8, https://matplotlib.org/</dc:title>
     </cc:Agent>
    </dc:creator>
   </cc:Work>
  </rdf:RDF>
 </metadata>
 <defs>
  <style type="text/css">*{stroke-linejoin: round; stroke-linecap: butt}</style>
 </defs>
 <g id="figure_1">
  <g id="patch_1">
   <path d="M 0 312.30825 
L 309.207067 312.30825 
L 309.207067 0 
L 0 0 
z
" style="fill: #ffffff"/>
  </g>
  <g id="axes_1">
   <g id="patch_2">
    <path d="M 26.925 288.430125 
L 302.007067 288.430125 
L 302.007067 22.318125 
L 26.925 22.318125 
z
" style="fill: #ffffff"/>
   </g>
   <g id="PathCollection_1">
    <defs>
     <path id="md61c1bcd58" d="M 0 1.581139 
C 0.419323 1.581139 0.821528 1.41454 1.118034 1.118034 
C 1.41454 0.821528 1.581139 0.419323 1.581139 0 
C 1.581139 -0.419323 1.41454 -0.821528 1.118034 -1.118034 
C 0.821528 -1.41454 0.419323 -1.581139 0 -1.581139 
C -0.419323 -1.581139 -0.821528 -1.41454 -1.118034 -1.118034 
C -1.41454 -0.821528 -1.581139 -0.419323 -1.581139 0 
C -1.581139 0.419323 -1.41454 0.821528 -1.118034 1.118034 
C -0.821528 1.41454 -0.419323 1.581139 0 1.581139 
z
" style="stroke: #1f77b4"/>
    </defs>
    <g clip-path="url(#p55ec9640d0)">
     <use xlink:href="#md61c1bcd58" x="289.503337" y="39.850529" style="fill: #1f77b4; stroke: #1f77b4"/>
     <use xlink:href="#md61c1bcd58" x="251.448506" y="34.414125" style="fill: #1f77b4; stroke: #1f77b4"/>
     <use xlink:href="#md61c1bcd58" x="248.730303" y="48.005136" style="fill: #1f77b4; stroke: #1f77b4"/>
     <use xlink:href="#md61c1bcd58" x="246.012101" y="42.568732" style="fill: #1f77b4; stroke: #1f77b4"/>
     <use xlink:href="#md61c1bcd58" x="240.575697" y="42.568732" style="fill: #1f77b4; stroke: #1f77b4"/>
     <use xlink:href="#md61c1bcd58" x="213.393674" y="39.850529" style="fill: #1f77b4; stroke: #1f77b4"/>
     <use xlink:href="#md61c1bcd58" x="207.95727" y="48.005136" style="fill: #1f77b4; stroke: #1f77b4"/>
     <use xlink:href="#md61c1bcd58" x="107.383787" y="102.369181" style="fill: #1f77b4; stroke: #1f77b4"/>
     <use xlink:href="#md61c1bcd58" x="191.648056" y="53.441541" style="fill: #1f77b4; stroke: #1f77b4"/>
     <use xlink:href="#md61c1bcd58" x="188.929854" y="42.568732" style="fill: #1f77b4; stroke: #1f77b4"/>
     <use xlink:href="#md61c1bcd58" x="178.057045" y="42.568732" style="fill: #1f77b4; stroke: #1f77b4"/>
     <use xlink:href="#md61c1bcd58" x="169.902438" y="48.005136" style="fill: #1f77b4; stroke: #1f77b4"/>
     <use xlink:href="#md61c1bcd58" x="167.184236" y="48.005136" style="fill: #1f77b4; stroke: #1f77b4"/>
     <use xlink:href="#md61c1bcd58" x="120.974798" y="48.005136" style="fill: #1f77b4; stroke: #1f77b4"/>
     <use xlink:href="#md61c1bcd58" x="118.256596" y="56.159743" style="fill: #1f77b4; stroke: #1f77b4"/>
     <use xlink:href="#md61c1bcd58" x="93.792775" y="56.159743" style="fill: #1f77b4; stroke: #1f77b4"/>
     <use xlink:href="#md61c1bcd58" x="91.074573" y="56.159743" style="fill: #1f77b4; stroke: #1f77b4"/>
     <use xlink:href="#md61c1bcd58" x="91.074573" y="58.877945" style="fill: #1f77b4; stroke: #1f77b4"/>
     <use xlink:href="#md61c1bcd58" x="93.792775" y="72.468956" style="fill: #1f77b4; stroke: #1f77b4"/>
     <use xlink:href="#md61c1bcd58" x="96.510978" y="67.032552" style="fill: #1f77b4; stroke: #1f77b4"/>
     <use xlink:href="#md61c1bcd58" x="107.383787" y="61.596147" style="fill: #1f77b4; stroke: #1f77b4"/>
     <use xlink:href="#md61c1bcd58" x="107.383787" y="64.31435" style="fill: #1f77b4; stroke: #1f77b4"/>
     <use xlink:href="#md61c1bcd58" x="107.383787" y="67.032552" style="fill: #1f77b4; stroke: #1f77b4"/>
     <use xlink:href="#md61c1bcd58" x="107.383787" y="69.750754" style="fill: #1f77b4; stroke: #1f77b4"/>
     <use xlink:href="#md61c1bcd58" x="115.538393" y="64.31435" style="fill: #1f77b4; stroke: #1f77b4"/>
     <use xlink:href="#md61c1bcd58" x="118.256596" y="64.31435" style="fill: #1f77b4; stroke: #1f77b4"/>
     <use xlink:href="#md61c1bcd58" x="118.256596" y="64.31435" style="fill: #1f77b4; stroke: #1f77b4"/>
     <use xlink:href="#md61c1bcd58" x="120.974798" y="67.032552" style="fill: #1f77b4; stroke: #1f77b4"/>
     <use xlink:href="#md61c1bcd58" x="123.693" y="72.468956" style="fill: #1f77b4; stroke: #1f77b4"/>
     <use xlink:href="#md61c1bcd58" x="120.974798" y="77.905361" style="fill: #1f77b4; stroke: #1f77b4"/>
     <use xlink:href="#md61c1bcd58" x="120.974798" y="86.059968" style="fill: #1f77b4; stroke: #1f77b4"/>
     <use xlink:href="#md61c1bcd58" x="123.693" y="83.341765" style="fill: #1f77b4; stroke: #1f77b4"/>
     <use xlink:href="#md61c1bcd58" x="126.411202" y="58.877945" style="fill: #1f77b4; stroke: #1f77b4"/>
     <use xlink:href="#md61c1bcd58" x="126.411202" y="64.31435" style="fill: #1f77b4; stroke: #1f77b4"/>
     <use xlink:href="#md61c1bcd58" x="137.284011" y="69.750754" style="fill: #1f77b4; stroke: #1f77b4"/>
     <use xlink:href="#md61c1bcd58" x="140.002213" y="72.468956" style="fill: #1f77b4; stroke: #1f77b4"/>
     <use xlink:href="#md61c1bcd58" x="142.720416" y="75.187159" style="fill: #1f77b4; stroke: #1f77b4"/>
     <use xlink:href="#md61c1bcd58" x="145.438618" y="67.032552" style="fill: #1f77b4; stroke: #1f77b4"/>
     <use xlink:href="#md61c1bcd58" x="150.875022" y="88.77817" style="fill: #1f77b4; stroke: #1f77b4"/>
     <use xlink:href="#md61c1bcd58" x="153.593225" y="72.468956" style="fill: #1f77b4; stroke: #1f77b4"/>
     <use xlink:href="#md61c1bcd58" x="159.029629" y="72.468956" style="fill: #1f77b4; stroke: #1f77b4"/>
     <use xlink:href="#md61c1bcd58" x="161.747831" y="69.750754" style="fill: #1f77b4; stroke: #1f77b4"/>
     <use xlink:href="#md61c1bcd58" x="161.747831" y="72.468956" style="fill: #1f77b4; stroke: #1f77b4"/>
     <use xlink:href="#md61c1bcd58" x="164.466034" y="75.187159" style="fill: #1f77b4; stroke: #1f77b4"/>
     <use xlink:href="#md61c1bcd58" x="164.466034" y="72.468956" style="fill: #1f77b4; stroke: #1f77b4"/>
     <use xlink:href="#md61c1bcd58" x="169.902438" y="61.596147" style="fill: #1f77b4; stroke: #1f77b4"/>
     <use xlink:href="#md61c1bcd58" x="172.62064" y="64.31435" style="fill: #1f77b4; stroke: #1f77b4"/>
     <use xlink:href="#md61c1bcd58" x="175.338843" y="67.032552" style="fill: #1f77b4; stroke: #1f77b4"/>
     <use xlink:href="#md61c1bcd58" x="183.493449" y="61.596147" style="fill: #1f77b4; stroke: #1f77b4"/>
     <use xlink:href="#md61c1bcd58" x="188.929854" y="53.441541" style="fill: #1f77b4; stroke: #1f77b4"/>
     <use xlink:href="#md61c1bcd58" x="188.929854" y="72.468956" style="fill: #1f77b4; stroke: #1f77b4"/>
     <use xlink:href="#md61c1bcd58" x="197.084461" y="56.159743" style="fill: #1f77b4; stroke: #1f77b4"/>
     <use xlink:href="#md61c1bcd58" x="221.548281" y="75.187159" style="fill: #1f77b4; stroke: #1f77b4"/>
     <use xlink:href="#md61c1bcd58" x="226.984685" y="69.750754" style="fill: #1f77b4; stroke: #1f77b4"/>
     <use xlink:href="#md61c1bcd58" x="229.702888" y="72.468956" style="fill: #1f77b4; stroke: #1f77b4"/>
     <use xlink:href="#md61c1bcd58" x="235.139292" y="69.750754" style="fill: #1f77b4; stroke: #1f77b4"/>
     <use xlink:href="#md61c1bcd58" x="237.857494" y="72.468956" style="fill: #1f77b4; stroke: #1f77b4"/>
     <use xlink:href="#md61c1bcd58" x="243.293899" y="53.441541" style="fill: #1f77b4; stroke: #1f77b4"/>
     <use xlink:href="#md61c1bcd58" x="251.448506" y="53.441541" style="fill: #1f77b4; stroke: #1f77b4"/>
     <use xlink:href="#md61c1bcd58" x="256.88491" y="83.341765" style="fill: #1f77b4; stroke: #1f77b4"/>
     <use xlink:href="#md61c1bcd58" x="213.393674" y="124.114799" style="fill: #1f77b4; stroke: #1f77b4"/>
     <use xlink:href="#md61c1bcd58" x="207.95727" y="99.650979" style="fill: #1f77b4; stroke: #1f77b4"/>
     <use xlink:href="#md61c1bcd58" x="194.366258" y="121.396597" style="fill: #1f77b4; stroke: #1f77b4"/>
     <use xlink:href="#md61c1bcd58" x="183.493449" y="118.678395" style="fill: #1f77b4; stroke: #1f77b4"/>
     <use xlink:href="#md61c1bcd58" x="178.057045" y="107.805586" style="fill: #1f77b4; stroke: #1f77b4"/>
     <use xlink:href="#md61c1bcd58" x="175.338843" y="132.269406" style="fill: #1f77b4; stroke: #1f77b4"/>
     <use xlink:href="#md61c1bcd58" x="172.62064" y="126.833001" style="fill: #1f77b4; stroke: #1f77b4"/>
     <use xlink:href="#md61c1bcd58" x="169.902438" y="88.77817" style="fill: #1f77b4; stroke: #1f77b4"/>
     <use xlink:href="#md61c1bcd58" x="169.902438" y="91.496372" style="fill: #1f77b4; stroke: #1f77b4"/>
     <use xlink:href="#md61c1bcd58" x="156.311427" y="126.833001" style="fill: #1f77b4; stroke: #1f77b4"/>
     <use xlink:href="#md61c1bcd58" x="153.593225" y="129.551204" style="fill: #1f77b4; stroke: #1f77b4"/>
     <use xlink:href="#md61c1bcd58" x="150.875022" y="132.269406" style="fill: #1f77b4; stroke: #1f77b4"/>
     <use xlink:href="#md61c1bcd58" x="148.15682" y="126.833001" style="fill: #1f77b4; stroke: #1f77b4"/>
     <use xlink:href="#md61c1bcd58" x="140.002213" y="99.650979" style="fill: #1f77b4; stroke: #1f77b4"/>
     <use xlink:href="#md61c1bcd58" x="134.565809" y="110.523788" style="fill: #1f77b4; stroke: #1f77b4"/>
     <use xlink:href="#md61c1bcd58" x="129.129404" y="102.369181" style="fill: #1f77b4; stroke: #1f77b4"/>
     <use xlink:href="#md61c1bcd58" x="118.256596" y="107.805586" style="fill: #1f77b4; stroke: #1f77b4"/>
     <use xlink:href="#md61c1bcd58" x="115.538393" y="99.650979" style="fill: #1f77b4; stroke: #1f77b4"/>
     <use xlink:href="#md61c1bcd58" x="112.820191" y="126.833001" style="fill: #1f77b4; stroke: #1f77b4"/>
     <use xlink:href="#md61c1bcd58" x="104.665584" y="105.087383" style="fill: #1f77b4; stroke: #1f77b4"/>
     <use xlink:href="#md61c1bcd58" x="99.22918" y="107.805586" style="fill: #1f77b4; stroke: #1f77b4"/>
     <use xlink:href="#md61c1bcd58" x="53.019742" y="151.296822" style="fill: #1f77b4; stroke: #1f77b4"/>
     <use xlink:href="#md61c1bcd58" x="63.892551" y="148.578619" style="fill: #1f77b4; stroke: #1f77b4"/>
     <use xlink:href="#md61c1bcd58" x="126.411202" y="156.733226" style="fill: #1f77b4; stroke: #1f77b4"/>
     <use xlink:href="#md61c1bcd58" x="131.847607" y="164.887833" style="fill: #1f77b4; stroke: #1f77b4"/>
     <use xlink:href="#md61c1bcd58" x="134.565809" y="170.324237" style="fill: #1f77b4; stroke: #1f77b4"/>
     <use xlink:href="#md61c1bcd58" x="134.565809" y="140.424013" style="fill: #1f77b4; stroke: #1f77b4"/>
     <use xlink:href="#md61c1bcd58" x="137.284011" y="143.142215" style="fill: #1f77b4; stroke: #1f77b4"/>
     <use xlink:href="#md61c1bcd58" x="137.284011" y="156.733226" style="fill: #1f77b4; stroke: #1f77b4"/>
     <use xlink:href="#md61c1bcd58" x="140.002213" y="151.296822" style="fill: #1f77b4; stroke: #1f77b4"/>
     <use xlink:href="#md61c1bcd58" x="145.438618" y="151.296822" style="fill: #1f77b4; stroke: #1f77b4"/>
     <use xlink:href="#md61c1bcd58" x="161.747831" y="159.451428" style="fill: #1f77b4; stroke: #1f77b4"/>
     <use xlink:href="#md61c1bcd58" x="169.902438" y="137.70581" style="fill: #1f77b4; stroke: #1f77b4"/>
     <use xlink:href="#md61c1bcd58" x="175.338843" y="140.424013" style="fill: #1f77b4; stroke: #1f77b4"/>
     <use xlink:href="#md61c1bcd58" x="178.057045" y="143.142215" style="fill: #1f77b4; stroke: #1f77b4"/>
     <use xlink:href="#md61c1bcd58" x="186.211652" y="137.70581" style="fill: #1f77b4; stroke: #1f77b4"/>
     <use xlink:href="#md61c1bcd58" x="221.548281" y="151.296822" style="fill: #1f77b4; stroke: #1f77b4"/>
     <use xlink:href="#md61c1bcd58" x="221.548281" y="156.733226" style="fill: #1f77b4; stroke: #1f77b4"/>
     <use xlink:href="#md61c1bcd58" x="226.984685" y="154.015024" style="fill: #1f77b4; stroke: #1f77b4"/>
     <use xlink:href="#md61c1bcd58" x="226.984685" y="154.015024" style="fill: #1f77b4; stroke: #1f77b4"/>
     <use xlink:href="#md61c1bcd58" x="232.42109" y="162.169631" style="fill: #1f77b4; stroke: #1f77b4"/>
     <use xlink:href="#md61c1bcd58" x="235.139292" y="162.169631" style="fill: #1f77b4; stroke: #1f77b4"/>
     <use xlink:href="#md61c1bcd58" x="237.857494" y="167.606035" style="fill: #1f77b4; stroke: #1f77b4"/>
     <use xlink:href="#md61c1bcd58" x="237.857494" y="167.606035" style="fill: #1f77b4; stroke: #1f77b4"/>
     <use xlink:href="#md61c1bcd58" x="267.757719" y="154.015024" style="fill: #1f77b4; stroke: #1f77b4"/>
     <use xlink:href="#md61c1bcd58" x="270.475921" y="154.015024" style="fill: #1f77b4; stroke: #1f77b4"/>
     <use xlink:href="#md61c1bcd58" x="270.475921" y="151.296822" style="fill: #1f77b4; stroke: #1f77b4"/>
     <use xlink:href="#md61c1bcd58" x="278.630528" y="151.296822" style="fill: #1f77b4; stroke: #1f77b4"/>
     <use xlink:href="#md61c1bcd58" x="281.34873" y="154.015024" style="fill: #1f77b4; stroke: #1f77b4"/>
     <use xlink:href="#md61c1bcd58" x="270.475921" y="178.478844" style="fill: #1f77b4; stroke: #1f77b4"/>
     <use xlink:href="#md61c1bcd58" x="254.166708" y="186.633451" style="fill: #1f77b4; stroke: #1f77b4"/>
     <use xlink:href="#md61c1bcd58" x="251.448506" y="175.760642" style="fill: #1f77b4; stroke: #1f77b4"/>
     <use xlink:href="#md61c1bcd58" x="248.730303" y="192.069855" style="fill: #1f77b4; stroke: #1f77b4"/>
     <use xlink:href="#md61c1bcd58" x="246.012101" y="189.351653" style="fill: #1f77b4; stroke: #1f77b4"/>
     <use xlink:href="#md61c1bcd58" x="237.857494" y="173.04244" style="fill: #1f77b4; stroke: #1f77b4"/>
     <use xlink:href="#md61c1bcd58" x="232.42109" y="181.197046" style="fill: #1f77b4; stroke: #1f77b4"/>
     <use xlink:href="#md61c1bcd58" x="226.984685" y="173.04244" style="fill: #1f77b4; stroke: #1f77b4"/>
     <use xlink:href="#md61c1bcd58" x="218.830079" y="213.815473" style="fill: #1f77b4; stroke: #1f77b4"/>
     <use xlink:href="#md61c1bcd58" x="202.520865" y="202.942664" style="fill: #1f77b4; stroke: #1f77b4"/>
     <use xlink:href="#md61c1bcd58" x="199.802663" y="197.50626" style="fill: #1f77b4; stroke: #1f77b4"/>
     <use xlink:href="#md61c1bcd58" x="197.084461" y="200.224462" style="fill: #1f77b4; stroke: #1f77b4"/>
     <use xlink:href="#md61c1bcd58" x="191.648056" y="194.788058" style="fill: #1f77b4; stroke: #1f77b4"/>
     <use xlink:href="#md61c1bcd58" x="180.775247" y="211.097271" style="fill: #1f77b4; stroke: #1f77b4"/>
     <use xlink:href="#md61c1bcd58" x="175.338843" y="189.351653" style="fill: #1f77b4; stroke: #1f77b4"/>
     <use xlink:href="#md61c1bcd58" x="175.338843" y="194.788058" style="fill: #1f77b4; stroke: #1f77b4"/>
     <use xlink:href="#md61c1bcd58" x="161.747831" y="192.069855" style="fill: #1f77b4; stroke: #1f77b4"/>
     <use xlink:href="#md61c1bcd58" x="159.029629" y="194.788058" style="fill: #1f77b4; stroke: #1f77b4"/>
     <use xlink:href="#md61c1bcd58" x="156.311427" y="202.942664" style="fill: #1f77b4; stroke: #1f77b4"/>
     <use xlink:href="#md61c1bcd58" x="131.847607" y="205.660867" style="fill: #1f77b4; stroke: #1f77b4"/>
     <use xlink:href="#md61c1bcd58" x="93.792775" y="186.633451" style="fill: #1f77b4; stroke: #1f77b4"/>
     <use xlink:href="#md61c1bcd58" x="91.074573" y="189.351653" style="fill: #1f77b4; stroke: #1f77b4"/>
     <use xlink:href="#md61c1bcd58" x="93.792775" y="197.50626" style="fill: #1f77b4; stroke: #1f77b4"/>
     <use xlink:href="#md61c1bcd58" x="91.074573" y="194.788058" style="fill: #1f77b4; stroke: #1f77b4"/>
     <use xlink:href="#md61c1bcd58" x="93.792775" y="211.097271" style="fill: #1f77b4; stroke: #1f77b4"/>
     <use xlink:href="#md61c1bcd58" x="85.638169" y="213.815473" style="fill: #1f77b4; stroke: #1f77b4"/>
     <use xlink:href="#md61c1bcd58" x="80.201764" y="183.915249" style="fill: #1f77b4; stroke: #1f77b4"/>
     <use xlink:href="#md61c1bcd58" x="72.047157" y="181.197046" style="fill: #1f77b4; stroke: #1f77b4"/>
     <use xlink:href="#md61c1bcd58" x="69.328955" y="194.788058" style="fill: #1f77b4; stroke: #1f77b4"/>
     <use xlink:href="#md61c1bcd58" x="61.174348" y="200.224462" style="fill: #1f77b4; stroke: #1f77b4"/>
     <use xlink:href="#md61c1bcd58" x="53.019742" y="192.069855" style="fill: #1f77b4; stroke: #1f77b4"/>
     <use xlink:href="#md61c1bcd58" x="39.42873" y="186.633451" style="fill: #1f77b4; stroke: #1f77b4"/>
     <use xlink:href="#md61c1bcd58" x="91.074573" y="249.152103" style="fill: #1f77b4; stroke: #1f77b4"/>
     <use xlink:href="#md61c1bcd58" x="93.792775" y="254.588507" style="fill: #1f77b4; stroke: #1f77b4"/>
     <use xlink:href="#md61c1bcd58" x="112.820191" y="246.4339" style="fill: #1f77b4; stroke: #1f77b4"/>
     <use xlink:href="#md61c1bcd58" x="115.538393" y="224.688282" style="fill: #1f77b4; stroke: #1f77b4"/>
     <use xlink:href="#md61c1bcd58" x="120.974798" y="221.97008" style="fill: #1f77b4; stroke: #1f77b4"/>
     <use xlink:href="#md61c1bcd58" x="140.002213" y="216.533676" style="fill: #1f77b4; stroke: #1f77b4"/>
     <use xlink:href="#md61c1bcd58" x="142.720416" y="221.97008" style="fill: #1f77b4; stroke: #1f77b4"/>
     <use xlink:href="#md61c1bcd58" x="142.720416" y="221.97008" style="fill: #1f77b4; stroke: #1f77b4"/>
     <use xlink:href="#md61c1bcd58" x="148.15682" y="224.688282" style="fill: #1f77b4; stroke: #1f77b4"/>
     <use xlink:href="#md61c1bcd58" x="150.875022" y="227.406485" style="fill: #1f77b4; stroke: #1f77b4"/>
     <use xlink:href="#md61c1bcd58" x="150.875022" y="249.152103" style="fill: #1f77b4; stroke: #1f77b4"/>
     <use xlink:href="#md61c1bcd58" x="164.466034" y="249.152103" style="fill: #1f77b4; stroke: #1f77b4"/>
     <use xlink:href="#md61c1bcd58" x="172.62064" y="224.688282" style="fill: #1f77b4; stroke: #1f77b4"/>
     <use xlink:href="#md61c1bcd58" x="175.338843" y="221.97008" style="fill: #1f77b4; stroke: #1f77b4"/>
     <use xlink:href="#md61c1bcd58" x="188.929854" y="219.251878" style="fill: #1f77b4; stroke: #1f77b4"/>
     <use xlink:href="#md61c1bcd58" x="197.084461" y="232.842889" style="fill: #1f77b4; stroke: #1f77b4"/>
     <use xlink:href="#md61c1bcd58" x="205.239067" y="227.406485" style="fill: #1f77b4; stroke: #1f77b4"/>
     <use xlink:href="#md61c1bcd58" x="207.95727" y="230.124687" style="fill: #1f77b4; stroke: #1f77b4"/>
     <use xlink:href="#md61c1bcd58" x="207.95727" y="219.251878" style="fill: #1f77b4; stroke: #1f77b4"/>
     <use xlink:href="#md61c1bcd58" x="226.984685" y="224.688282" style="fill: #1f77b4; stroke: #1f77b4"/>
     <use xlink:href="#md61c1bcd58" x="169.902438" y="265.461316" style="fill: #1f77b4; stroke: #1f77b4"/>
     <use xlink:href="#md61c1bcd58" x="164.466034" y="260.024912" style="fill: #1f77b4; stroke: #1f77b4"/>
     <use xlink:href="#md61c1bcd58" x="156.311427" y="254.588507" style="fill: #1f77b4; stroke: #1f77b4"/>
     <use xlink:href="#md61c1bcd58" x="123.693" y="270.897721" style="fill: #1f77b4; stroke: #1f77b4"/>
     <use xlink:href="#md61c1bcd58" x="118.256596" y="273.615923" style="fill: #1f77b4; stroke: #1f77b4"/>
     <use xlink:href="#md61c1bcd58" x="120.974798" y="276.334125" style="fill: #1f77b4; stroke: #1f77b4"/>
     <use xlink:href="#md61c1bcd58" x="118.256596" y="270.897721" style="fill: #1f77b4; stroke: #1f77b4"/>
    </g>
   </g>
   <g id="PatchCollection_1">
    <path d="M 122.786933 276.334125 
L 122.786933 195.694125 
L 39.42873 195.694125 
L 39.42873 276.334125 
L 122.786933 276.334125 
z
" clip-path="url(#p55ec9640d0)" style="fill: none; stroke: #ff0000"/>
    <path d="M 206.145135 276.334125 
L 206.145135 195.694125 
L 122.786933 195.694125 
L 122.786933 276.334125 
L 206.145135 276.334125 
z
" clip-path="url(#p55ec9640d0)" style="fill: none; stroke: #ff0000"/>
    <path d="M 289.503337 276.334125 
L 289.503337 195.694125 
L 206.145135 195.694125 
L 206.145135 276.334125 
L 289.503337 276.334125 
z
" clip-path="url(#p55ec9640d0)" style="fill: none; stroke: #ff0000"/>
    <path d="M 122.786933 195.694125 
L 122.786933 115.054125 
L 39.42873 115.054125 
L 39.42873 195.694125 
L 122.786933 195.694125 
z
" clip-path="url(#p55ec9640d0)" style="fill: none; stroke: #ff0000"/>
    <path d="M 206.145135 195.694125 
L 206.145135 115.054125 
L 122.786933 115.054125 
L 122.786933 195.694125 
L 206.145135 195.694125 
z
" clip-path="url(#p55ec9640d0)" style="fill: none; stroke: #ff0000"/>
    <path d="M 289.503337 195.694125 
L 289.503337 115.054125 
L 206.145135 115.054125 
L 206.145135 195.694125 
L 289.503337 195.694125 
z
" clip-path="url(#p55ec9640d0)" style="fill: none; stroke: #ff0000"/>
    <path d="M 122.786933 115.054125 
L 122.786933 34.414125 
L 39.42873 34.414125 
L 39.42873 115.054125 
L 122.786933 115.054125 
z
" clip-path="url(#p55ec9640d0)" style="fill: none; stroke: #ff0000"/>
    <path d="M 206.145135 115.054125 
L 206.145135 34.414125 
L 122.786933 34.414125 
L 122.786933 115.054125 
L 206.145135 115.054125 
z
" clip-path="url(#p55ec9640d0)" style="fill: none; stroke: #ff0000"/>
    <path d="M 289.503337 115.054125 
L 289.503337 34.414125 
L 206.145135 34.414125 
L 206.145135 115.054125 
L 289.503337 115.054125 
z
" clip-path="url(#p55ec9640d0)" style="fill: none; stroke: #ff0000"/>
   </g>
   <g id="matplotlib.axis_1">
    <g id="xtick_1">
     <g id="line2d_1">
      <defs>
       <path id="m76dd55e489" d="M 0 0 
L 0 3.5 
" style="stroke: #000000; stroke-width: 0.8"/>
      </defs>
      <g>
       <use xlink:href="#m76dd55e489" x="33.992326" y="288.430125" style="stroke: #000000; stroke-width: 0.8"/>
      </g>
     </g>
     <g id="text_1">
      <!-- 0 -->
      <g transform="translate(30.811076 303.028562) scale(0.1 -0.1)">
       <defs>
        <path id="DejaVuSans-30" d="M 2034 4250 
Q 1547 4250 1301 3770 
Q 1056 3291 1056 2328 
Q 1056 1369 1301 889 
Q 1547 409 2034 409 
Q 2525 409 2770 889 
Q 3016 1369 3016 2328 
Q 3016 3291 2770 3770 
Q 2525 4250 2034 4250 
z
M 2034 4750 
Q 2819 4750 3233 4129 
Q 3647 3509 3647 2328 
Q 3647 1150 3233 529 
Q 2819 -91 2034 -91 
Q 1250 -91 836 529 
Q 422 1150 422 2328 
Q 422 3509 836 4129 
Q 1250 4750 2034 4750 
z
" transform="scale(0.015625)"/>
       </defs>
       <use xlink:href="#DejaVuSans-30"/>
      </g>
     </g>
    </g>
    <g id="xtick_2">
     <g id="line2d_2">
      <g>
       <use xlink:href="#m76dd55e489" x="88.356371" y="288.430125" style="stroke: #000000; stroke-width: 0.8"/>
      </g>
     </g>
     <g id="text_2">
      <!-- 20 -->
      <g transform="translate(81.993871 303.028562) scale(0.1 -0.1)">
       <defs>
        <path id="DejaVuSans-32" d="M 1228 531 
L 3431 531 
L 3431 0 
L 469 0 
L 469 531 
Q 828 903 1448 1529 
Q 2069 2156 2228 2338 
Q 2531 2678 2651 2914 
Q 2772 3150 2772 3378 
Q 2772 3750 2511 3984 
Q 2250 4219 1831 4219 
Q 1534 4219 1204 4116 
Q 875 4013 500 3803 
L 500 4441 
Q 881 4594 1212 4672 
Q 1544 4750 1819 4750 
Q 2544 4750 2975 4387 
Q 3406 4025 3406 3419 
Q 3406 3131 3298 2873 
Q 3191 2616 2906 2266 
Q 2828 2175 2409 1742 
Q 1991 1309 1228 531 
z
" transform="scale(0.015625)"/>
       </defs>
       <use xlink:href="#DejaVuSans-32"/>
       <use xlink:href="#DejaVuSans-30" transform="translate(63.623047 0)"/>
      </g>
     </g>
    </g>
    <g id="xtick_3">
     <g id="line2d_3">
      <g>
       <use xlink:href="#m76dd55e489" x="142.720416" y="288.430125" style="stroke: #000000; stroke-width: 0.8"/>
      </g>
     </g>
     <g id="text_3">
      <!-- 40 -->
      <g transform="translate(136.357916 303.028562) scale(0.1 -0.1)">
       <defs>
        <path id="DejaVuSans-34" d="M 2419 4116 
L 825 1625 
L 2419 1625 
L 2419 4116 
z
M 2253 4666 
L 3047 4666 
L 3047 1625 
L 3713 1625 
L 3713 1100 
L 3047 1100 
L 3047 0 
L 2419 0 
L 2419 1100 
L 313 1100 
L 313 1709 
L 2253 4666 
z
" transform="scale(0.015625)"/>
       </defs>
       <use xlink:href="#DejaVuSans-34"/>
       <use xlink:href="#DejaVuSans-30" transform="translate(63.623047 0)"/>
      </g>
     </g>
    </g>
    <g id="xtick_4">
     <g id="line2d_4">
      <g>
       <use xlink:href="#m76dd55e489" x="197.084461" y="288.430125" style="stroke: #000000; stroke-width: 0.8"/>
      </g>
     </g>
     <g id="text_4">
      <!-- 60 -->
      <g transform="translate(190.721961 303.028562) scale(0.1 -0.1)">
       <defs>
        <path id="DejaVuSans-36" d="M 2113 2584 
Q 1688 2584 1439 2293 
Q 1191 2003 1191 1497 
Q 1191 994 1439 701 
Q 1688 409 2113 409 
Q 2538 409 2786 701 
Q 3034 994 3034 1497 
Q 3034 2003 2786 2293 
Q 2538 2584 2113 2584 
z
M 3366 4563 
L 3366 3988 
Q 3128 4100 2886 4159 
Q 2644 4219 2406 4219 
Q 1781 4219 1451 3797 
Q 1122 3375 1075 2522 
Q 1259 2794 1537 2939 
Q 1816 3084 2150 3084 
Q 2853 3084 3261 2657 
Q 3669 2231 3669 1497 
Q 3669 778 3244 343 
Q 2819 -91 2113 -91 
Q 1303 -91 875 529 
Q 447 1150 447 2328 
Q 447 3434 972 4092 
Q 1497 4750 2381 4750 
Q 2619 4750 2861 4703 
Q 3103 4656 3366 4563 
z
" transform="scale(0.015625)"/>
       </defs>
       <use xlink:href="#DejaVuSans-36"/>
       <use xlink:href="#DejaVuSans-30" transform="translate(63.623047 0)"/>
      </g>
     </g>
    </g>
    <g id="xtick_5">
     <g id="line2d_5">
      <g>
       <use xlink:href="#m76dd55e489" x="251.448506" y="288.430125" style="stroke: #000000; stroke-width: 0.8"/>
      </g>
     </g>
     <g id="text_5">
      <!-- 80 -->
      <g transform="translate(245.086006 303.028562) scale(0.1 -0.1)">
       <defs>
        <path id="DejaVuSans-38" d="M 2034 2216 
Q 1584 2216 1326 1975 
Q 1069 1734 1069 1313 
Q 1069 891 1326 650 
Q 1584 409 2034 409 
Q 2484 409 2743 651 
Q 3003 894 3003 1313 
Q 3003 1734 2745 1975 
Q 2488 2216 2034 2216 
z
M 1403 2484 
Q 997 2584 770 2862 
Q 544 3141 544 3541 
Q 544 4100 942 4425 
Q 1341 4750 2034 4750 
Q 2731 4750 3128 4425 
Q 3525 4100 3525 3541 
Q 3525 3141 3298 2862 
Q 3072 2584 2669 2484 
Q 3125 2378 3379 2068 
Q 3634 1759 3634 1313 
Q 3634 634 3220 271 
Q 2806 -91 2034 -91 
Q 1263 -91 848 271 
Q 434 634 434 1313 
Q 434 1759 690 2068 
Q 947 2378 1403 2484 
z
M 1172 3481 
Q 1172 3119 1398 2916 
Q 1625 2713 2034 2713 
Q 2441 2713 2670 2916 
Q 2900 3119 2900 3481 
Q 2900 3844 2670 4047 
Q 2441 4250 2034 4250 
Q 1625 4250 1398 4047 
Q 1172 3844 1172 3481 
z
" transform="scale(0.015625)"/>
       </defs>
       <use xlink:href="#DejaVuSans-38"/>
       <use xlink:href="#DejaVuSans-30" transform="translate(63.623047 0)"/>
      </g>
     </g>
    </g>
   </g>
   <g id="matplotlib.axis_2">
    <g id="ytick_1">
     <g id="line2d_6">
      <defs>
       <path id="m3fe32042b7" d="M 0 0 
L -3.5 0 
" style="stroke: #000000; stroke-width: 0.8"/>
      </defs>
      <g>
       <use xlink:href="#m3fe32042b7" x="26.925" y="238.279294" style="stroke: #000000; stroke-width: 0.8"/>
      </g>
     </g>
     <g id="text_6">
      <!-- 20 -->
      <g transform="translate(7.2 242.078512) scale(0.1 -0.1)">
       <use xlink:href="#DejaVuSans-32"/>
       <use xlink:href="#DejaVuSans-30" transform="translate(63.623047 0)"/>
      </g>
     </g>
    </g>
    <g id="ytick_2">
     <g id="line2d_7">
      <g>
       <use xlink:href="#m3fe32042b7" x="26.925" y="183.915249" style="stroke: #000000; stroke-width: 0.8"/>
      </g>
     </g>
     <g id="text_7">
      <!-- 40 -->
      <g transform="translate(7.2 187.714467) scale(0.1 -0.1)">
       <use xlink:href="#DejaVuSans-34"/>
       <use xlink:href="#DejaVuSans-30" transform="translate(63.623047 0)"/>
      </g>
     </g>
    </g>
    <g id="ytick_3">
     <g id="line2d_8">
      <g>
       <use xlink:href="#m3fe32042b7" x="26.925" y="129.551204" style="stroke: #000000; stroke-width: 0.8"/>
      </g>
     </g>
     <g id="text_8">
      <!-- 60 -->
      <g transform="translate(7.2 133.350422) scale(0.1 -0.1)">
       <use xlink:href="#DejaVuSans-36"/>
       <use xlink:href="#DejaVuSans-30" transform="translate(63.623047 0)"/>
      </g>
     </g>
    </g>
    <g id="ytick_4">
     <g id="line2d_9">
      <g>
       <use xlink:href="#m3fe32042b7" x="26.925" y="75.187159" style="stroke: #000000; stroke-width: 0.8"/>
      </g>
     </g>
     <g id="text_9">
      <!-- 80 -->
      <g transform="translate(7.2 78.986377) scale(0.1 -0.1)">
       <use xlink:href="#DejaVuSans-38"/>
       <use xlink:href="#DejaVuSans-30" transform="translate(63.623047 0)"/>
      </g>
     </g>
    </g>
   </g>
   <g id="line2d_10">
    <path d="M 289.503337 276.334125 
L 289.503337 34.414125 
L 39.42873 34.414125 
L 39.42873 276.334125 
L 289.503337 276.334125 
" clip-path="url(#p55ec9640d0)" style="fill: none; stroke: #1f77b4; stroke-width: 1.5; stroke-linecap: square"/>
   </g>
   <g id="patch_3">
    <path d="M 26.925 288.430125 
L 26.925 22.318125 
" style="fill: none; stroke: #000000; stroke-width: 0.8; stroke-linejoin: miter; stroke-linecap: square"/>
   </g>
   <g id="patch_4">
    <path d="M 302.007067 288.430125 
L 302.007067 22.318125 
" style="fill: none; stroke: #000000; stroke-width: 0.8; stroke-linejoin: miter; stroke-linecap: square"/>
   </g>
   <g id="patch_5">
    <path d="M 26.925 288.430125 
L 302.007067 288.430125 
" style="fill: none; stroke: #000000; stroke-width: 0.8; stroke-linejoin: miter; stroke-linecap: square"/>
   </g>
   <g id="patch_6">
    <path d="M 26.925 22.318125 
L 302.007067 22.318125 
" style="fill: none; stroke: #000000; stroke-width: 0.8; stroke-linejoin: miter; stroke-linecap: square"/>
   </g>
   <g id="text_10">
    <!-- 12 -->
    <g transform="translate(74.745331 238.7735) scale(0.1 -0.1)">
     <defs>
      <path id="DejaVuSans-31" d="M 794 531 
L 1825 531 
L 1825 4091 
L 703 3866 
L 703 4441 
L 1819 4666 
L 2450 4666 
L 2450 531 
L 3481 531 
L 3481 0 
L 794 0 
L 794 531 
z
" transform="scale(0.015625)"/>
     </defs>
     <use xlink:href="#DejaVuSans-31"/>
     <use xlink:href="#DejaVuSans-32" transform="translate(63.623047 0)"/>
    </g>
   </g>
   <g id="text_11">
    <!-- 22 -->
    <g transform="translate(158.103534 238.7735) scale(0.1 -0.1)">
     <use xlink:href="#DejaVuSans-32"/>
     <use xlink:href="#DejaVuSans-32" transform="translate(63.623047 0)"/>
    </g>
   </g>
   <g id="text_12">
    <!-- 4 -->
    <g transform="translate(244.642986 238.7735) scale(0.1 -0.1)">
     <use xlink:href="#DejaVuSans-34"/>
    </g>
   </g>
   <g id="text_13">
    <!-- 11 -->
    <g transform="translate(74.745331 158.1335) scale(0.1 -0.1)">
     <use xlink:href="#DejaVuSans-31"/>
     <use xlink:href="#DejaVuSans-31" transform="translate(63.623047 0)"/>
    </g>
   </g>
   <g id="text_14">
    <!-- 26 -->
    <g transform="translate(158.103534 158.1335) scale(0.1 -0.1)">
     <use xlink:href="#DejaVuSans-32"/>
     <use xlink:href="#DejaVuSans-36" transform="translate(63.623047 0)"/>
    </g>
   </g>
   <g id="text_15">
    <!-- 22 -->
    <g transform="translate(241.461736 158.1335) scale(0.1 -0.1)">
     <use xlink:href="#DejaVuSans-32"/>
     <use xlink:href="#DejaVuSans-32" transform="translate(63.623047 0)"/>
    </g>
   </g>
   <g id="text_16">
    <!-- 22 -->
    <g transform="translate(74.745331 77.4935) scale(0.1 -0.1)">
     <use xlink:href="#DejaVuSans-32"/>
     <use xlink:href="#DejaVuSans-32" transform="translate(63.623047 0)"/>
    </g>
   </g>
   <g id="text_17">
    <!-- 33 -->
    <g transform="translate(158.103534 77.4935) scale(0.1 -0.1)">
     <defs>
      <path id="DejaVuSans-33" d="M 2597 2516 
Q 3050 2419 3304 2112 
Q 3559 1806 3559 1356 
Q 3559 666 3084 287 
Q 2609 -91 1734 -91 
Q 1441 -91 1130 -33 
Q 819 25 488 141 
L 488 750 
Q 750 597 1062 519 
Q 1375 441 1716 441 
Q 2309 441 2620 675 
Q 2931 909 2931 1356 
Q 2931 1769 2642 2001 
Q 2353 2234 1838 2234 
L 1294 2234 
L 1294 2753 
L 1863 2753 
Q 2328 2753 2575 2939 
Q 2822 3125 2822 3475 
Q 2822 3834 2567 4026 
Q 2313 4219 1838 4219 
Q 1578 4219 1281 4162 
Q 984 4106 628 3988 
L 628 4550 
Q 988 4650 1302 4700 
Q 1616 4750 1894 4750 
Q 2613 4750 3031 4423 
Q 3450 4097 3450 3541 
Q 3450 3153 3228 2886 
Q 3006 2619 2597 2516 
z
" transform="scale(0.015625)"/>
     </defs>
     <use xlink:href="#DejaVuSans-33"/>
     <use xlink:href="#DejaVuSans-33" transform="translate(63.623047 0)"/>
    </g>
   </g>
   <g id="text_18">
    <!-- 16 -->
    <g transform="translate(241.461736 77.4935) scale(0.1 -0.1)">
     <use xlink:href="#DejaVuSans-31"/>
     <use xlink:href="#DejaVuSans-36" transform="translate(63.623047 0)"/>
    </g>
   </g>
   <g id="text_19">
    <!-- Quadrat Count -->
    <g transform="translate(120.233846 16.318125) scale(0.12 -0.12)">
     <defs>
      <path id="DejaVuSans-51" d="M 2522 4238 
Q 1834 4238 1429 3725 
Q 1025 3213 1025 2328 
Q 1025 1447 1429 934 
Q 1834 422 2522 422 
Q 3209 422 3611 934 
Q 4013 1447 4013 2328 
Q 4013 3213 3611 3725 
Q 3209 4238 2522 4238 
z
M 3406 84 
L 4238 -825 
L 3475 -825 
L 2784 -78 
Q 2681 -84 2626 -87 
Q 2572 -91 2522 -91 
Q 1538 -91 948 567 
Q 359 1225 359 2328 
Q 359 3434 948 4092 
Q 1538 4750 2522 4750 
Q 3503 4750 4090 4092 
Q 4678 3434 4678 2328 
Q 4678 1516 4351 937 
Q 4025 359 3406 84 
z
" transform="scale(0.015625)"/>
      <path id="DejaVuSans-75" d="M 544 1381 
L 544 3500 
L 1119 3500 
L 1119 1403 
Q 1119 906 1312 657 
Q 1506 409 1894 409 
Q 2359 409 2629 706 
Q 2900 1003 2900 1516 
L 2900 3500 
L 3475 3500 
L 3475 0 
L 2900 0 
L 2900 538 
Q 2691 219 2414 64 
Q 2138 -91 1772 -91 
Q 1169 -91 856 284 
Q 544 659 544 1381 
z
M 1991 3584 
L 1991 3584 
z
" transform="scale(0.015625)"/>
      <path id="DejaVuSans-61" d="M 2194 1759 
Q 1497 1759 1228 1600 
Q 959 1441 959 1056 
Q 959 750 1161 570 
Q 1363 391 1709 391 
Q 2188 391 2477 730 
Q 2766 1069 2766 1631 
L 2766 1759 
L 2194 1759 
z
M 3341 1997 
L 3341 0 
L 2766 0 
L 2766 531 
Q 2569 213 2275 61 
Q 1981 -91 1556 -91 
Q 1019 -91 701 211 
Q 384 513 384 1019 
Q 384 1609 779 1909 
Q 1175 2209 1959 2209 
L 2766 2209 
L 2766 2266 
Q 2766 2663 2505 2880 
Q 2244 3097 1772 3097 
Q 1472 3097 1187 3025 
Q 903 2953 641 2809 
L 641 3341 
Q 956 3463 1253 3523 
Q 1550 3584 1831 3584 
Q 2591 3584 2966 3190 
Q 3341 2797 3341 1997 
z
" transform="scale(0.015625)"/>
      <path id="DejaVuSans-64" d="M 2906 2969 
L 2906 4863 
L 3481 4863 
L 3481 0 
L 2906 0 
L 2906 525 
Q 2725 213 2448 61 
Q 2172 -91 1784 -91 
Q 1150 -91 751 415 
Q 353 922 353 1747 
Q 353 2572 751 3078 
Q 1150 3584 1784 3584 
Q 2172 3584 2448 3432 
Q 2725 3281 2906 2969 
z
M 947 1747 
Q 947 1113 1208 752 
Q 1469 391 1925 391 
Q 2381 391 2643 752 
Q 2906 1113 2906 1747 
Q 2906 2381 2643 2742 
Q 2381 3103 1925 3103 
Q 1469 3103 1208 2742 
Q 947 2381 947 1747 
z
" transform="scale(0.015625)"/>
      <path id="DejaVuSans-72" d="M 2631 2963 
Q 2534 3019 2420 3045 
Q 2306 3072 2169 3072 
Q 1681 3072 1420 2755 
Q 1159 2438 1159 1844 
L 1159 0 
L 581 0 
L 581 3500 
L 1159 3500 
L 1159 2956 
Q 1341 3275 1631 3429 
Q 1922 3584 2338 3584 
Q 2397 3584 2469 3576 
Q 2541 3569 2628 3553 
L 2631 2963 
z
" transform="scale(0.015625)"/>
      <path id="DejaVuSans-74" d="M 1172 4494 
L 1172 3500 
L 2356 3500 
L 2356 3053 
L 1172 3053 
L 1172 1153 
Q 1172 725 1289 603 
Q 1406 481 1766 481 
L 2356 481 
L 2356 0 
L 1766 0 
Q 1100 0 847 248 
Q 594 497 594 1153 
L 594 3053 
L 172 3053 
L 172 3500 
L 594 3500 
L 594 4494 
L 1172 4494 
z
" transform="scale(0.015625)"/>
      <path id="DejaVuSans-20" transform="scale(0.015625)"/>
      <path id="DejaVuSans-43" d="M 4122 4306 
L 4122 3641 
Q 3803 3938 3442 4084 
Q 3081 4231 2675 4231 
Q 1875 4231 1450 3742 
Q 1025 3253 1025 2328 
Q 1025 1406 1450 917 
Q 1875 428 2675 428 
Q 3081 428 3442 575 
Q 3803 722 4122 1019 
L 4122 359 
Q 3791 134 3420 21 
Q 3050 -91 2638 -91 
Q 1578 -91 968 557 
Q 359 1206 359 2328 
Q 359 3453 968 4101 
Q 1578 4750 2638 4750 
Q 3056 4750 3426 4639 
Q 3797 4528 4122 4306 
z
" transform="scale(0.015625)"/>
      <path id="DejaVuSans-6f" d="M 1959 3097 
Q 1497 3097 1228 2736 
Q 959 2375 959 1747 
Q 959 1119 1226 758 
Q 1494 397 1959 397 
Q 2419 397 2687 759 
Q 2956 1122 2956 1747 
Q 2956 2369 2687 2733 
Q 2419 3097 1959 3097 
z
M 1959 3584 
Q 2709 3584 3137 3096 
Q 3566 2609 3566 1747 
Q 3566 888 3137 398 
Q 2709 -91 1959 -91 
Q 1206 -91 779 398 
Q 353 888 353 1747 
Q 353 2609 779 3096 
Q 1206 3584 1959 3584 
z
" transform="scale(0.015625)"/>
      <path id="DejaVuSans-6e" d="M 3513 2113 
L 3513 0 
L 2938 0 
L 2938 2094 
Q 2938 2591 2744 2837 
Q 2550 3084 2163 3084 
Q 1697 3084 1428 2787 
Q 1159 2491 1159 1978 
L 1159 0 
L 581 0 
L 581 3500 
L 1159 3500 
L 1159 2956 
Q 1366 3272 1645 3428 
Q 1925 3584 2291 3584 
Q 2894 3584 3203 3211 
Q 3513 2838 3513 2113 
z
" transform="scale(0.015625)"/>
     </defs>
     <use xlink:href="#DejaVuSans-51"/>
     <use xlink:href="#DejaVuSans-75" transform="translate(78.710938 0)"/>
     <use xlink:href="#DejaVuSans-61" transform="translate(142.089844 0)"/>
     <use xlink:href="#DejaVuSans-64" transform="translate(203.369141 0)"/>
     <use xlink:href="#DejaVuSans-72" transform="translate(266.845703 0)"/>
     <use xlink:href="#DejaVuSans-61" transform="translate(307.958984 0)"/>
     <use xlink:href="#DejaVuSans-74" transform="translate(369.238281 0)"/>
     <use xlink:href="#DejaVuSans-20" transform="translate(408.447266 0)"/>
     <use xlink:href="#DejaVuSans-43" transform="translate(440.234375 0)"/>
     <use xlink:href="#DejaVuSans-6f" transform="translate(510.058594 0)"/>
     <use xlink:href="#DejaVuSans-75" transform="translate(571.240234 0)"/>
     <use xlink:href="#DejaVuSans-6e" transform="translate(634.619141 0)"/>
     <use xlink:href="#DejaVuSans-74" transform="translate(697.998047 0)"/>
    </g>
   </g>
  </g>
 </g>
 <defs>
  <clipPath id="p55ec9640d0">
   <rect x="26.925" y="22.318125" width="275.082067" height="266.112"/>
  </clipPath>
 </defs>
</svg>
