<svg xmlns="http://www.w3.org/2000/svg" xmlns:xlink="http://www.w3.org/1999/xlink" width="100.0" height="100.0" viewBox="8.703643845442402 19.7399476704404 77.25323291649067 78.79342353113682" preserveAspectRatio="xMinYMin meet"><g transform="matrix(1,0,0,-1,0,118.27331887201763)"><path fill-rule="evenodd" fill="#66cc99" stroke="#555555" stroke-width="1.5758684706227364" opacity="0.6" d="M 66.66255386361054,27.61948163633854 L 63.62614298858584,25.96584466773318 L 60.43279385506939,24.631660778358295 L 57.11326016087963,23.6297788884076 L 53.69951083013366,22.96984766816523 L 50.22442213503167,22.65822261603806 L 46.7214610793839,22.697904851628934 L 43.22436309306973,23.088512213317088 L 39.76680714140525,23.826282938681395 L 36.382091378297886,24.90411189233025 L 33.10281246681956,26.31161899223853 L 29.960551655524736,28.035249175612947 L 26.98557063376079,30.05840294155528 L 24.20652009505623,32.36159621333104 L 21.650163815283324,34.92264798067978 L 19.341120902862368,37.7168939150682 L 17.30162870329136,40.71742390065836 L 15.551328641351862,43.89534119343223 L 14.107077063451971,47.22004071263414 L 12.982782901794675,50.659503784428594 L 12.189273723758976,54.18060649923264 L 11.734191456504927,57.749438713071385 L 11.621918791040063,61.331630620804404 L 11.853536974507467,64.89268375613474 L 12.426815397184182,68.39830323069906 L 13.336233074474482,71.81472801259122 L 14.573031817007429,75.10905606355345 L 16.125300576789915,78.24956120359218 L 17.97809015710843,81.20599865143399 L 20.113557181467105,83.94989629830357 L 22.511135935056,86.45482890989443 L 25.147736423828416,88.69667261582097 L 27.99796674376456,90.65383723567885 L 31.034377618789758,92.30747420428426 L 34.22772675230608,93.64165809365933 L 37.54726044649584,94.64353998361003 L 40.96100977724194,95.3034712038522 L 44.436098472343815,95.61509625597957 L 47.93905952799156,95.5754140203887 L 51.43615751430575,95.18480665870055 L 54.89371346597022,94.44703593333624 L 58.278429229077574,93.36920697968738 L 61.55770814055593,91.9616998797791 L 64.69996895185074,90.23806969640468 L 67.67494997361469,88.21491593046235 L 70.45400051231925,85.91172265868659 L 73.01035679209215,83.35067089133784 L 75.31939970451312,80.55642495694943 L 77.3588919040841,77.55589497135927 L 79.10919196602362,74.37797767858538 L 80.5534435439235,71.05327815938348 L 81.67773770558081,67.61381508758902 L 82.4712468836165,64.092712372785 L 82.92632915087056,60.52388015894624 L 83.03860181633542,56.94168825121322 L 82.80698363286801,53.38063511588288 L 82.2337052101913,49.875015641318576 L 81.32428753290098,46.45859085942642 L 80.08748879036806,43.16426280846419 L 78.53522003058556,40.02375766842545 L 76.68243045026718,37.06732022058345 L 74.54696342590837,34.323422573714055 L 72.14938467231947,31.818489962123195 L 69.51278418354717,29.57664625619646 L 66.66255386361054,27.61948163633854 z" /></g></svg>