<?xml version="1.0" encoding="utf-8" standalone="no"?>
<!DOCTYPE svg PUBLIC "-//W3C//DTD SVG 1.1//EN"
  "http://www.w3.org/Graphics/SVG/1.1/DTD/svg11.dtd">
<svg xmlns:xlink="http://www.w3.org/1999/xlink" width="293.1595pt" height="297.190125pt" viewBox="0 0 293.1595 297.190125" xmlns="http://www.w3.org/2000/svg" version="1.1">
 <metadata>
  <rdf:RDF xmlns:dc="http://purl.org/dc/elements/1.1/" xmlns:cc="http://creativecommons.org/ns#" xmlns:rdf="http://www.w3.org/1999/02/22-rdf-syntax-ns#">
   <cc:Work>
    <dc:type rdf:resource="http://purl.org/dc/dcmitype/StillImage"/>
    <dc:date>2026-02-19T18:38:26.908899</dc:date>
    <dc:format>image/svg+xml</dc:format>
    <dc:creator>
     <cc:Agent>
      <dc:title>Matplotlib v3.10.8, https://matplotlib.org/</dc:title>
     </cc:Agent>
    </dc:creator>
   </cc:Work>
  </rdf:RDF>
 </metadata>
 <defs>
  <style type="text/css">*{stroke-linejoin: round; stroke-linecap: butt}</style>
 </defs>
 <g id="figure_1">
  <g id="patch_1">
   <path d="M 0 297.190125 
L 293.1595 297.190125 
L 293.1595 0 
L 0 0 
z
" style="fill: #ffffff"/>
  </g>
  <g id="axes_1">
   <g id="patch_2">
    <path d="M 33.2875 273.312 
L 285.9595 273.312 
L 285.9595 7.2 
L 33.2875 7.2 
z
" style="fill: #ffffff"/>
   </g>
   <g id="PathCollection_1">
    <defs>
     <path id="mea38803726" d="M 0 3 
C 0.795609 3 1.55874 2.683901 2.12132 2.12132 
C 2.683901 1.55874 3 0.795609 3 0 
C 3 -0.795609 2.683901 -1.55874 2.12132 -2.12132 
C 1.55874 -2.683901 0.795609 -3 0 -3 
C -0.795609 -3 -1.55874 -2.683901 -2.12132 -2.12132 
C -2.683901 -1.55874 -3 -0.795609 -3 0 
C -3 0.795609 -2.683901 1.55874 -2.12132 2.12132 
C -1.55874 2.683901 -0.795609 3 0 3 
z
" style="stroke: #1f77b4"/>
    </defs>
    <g clip-path="url(#p9981833859)">
     <use xlink:href="#mea38803726" x="105.8635" y="197.681455" style="fill: #1f77b4; stroke: #1f77b4"/>
     <use xlink:href="#mea38803726" x="223.158045" y="46.176" style="fill: #1f77b4; stroke: #1f77b4"/>
     <use xlink:href="#mea38803726" x="186.5035" y="256.328727" style="fill: #1f77b4; stroke: #1f77b4"/>
     <use xlink:href="#mea38803726" x="44.772591" y="180.576" style="fill: #1f77b4; stroke: #1f77b4"/>
     <use xlink:href="#mea38803726" x="78.9835" y="36.401455" style="fill: #1f77b4; stroke: #1f77b4"/>
     <use xlink:href="#mea38803726" x="267.1435" y="139.034182" style="fill: #1f77b4; stroke: #1f77b4"/>
     <use xlink:href="#mea38803726" x="176.728955" y="112.154182" style="fill: #1f77b4; stroke: #1f77b4"/>
     <use xlink:href="#mea38803726" x="272.030773" y="251.441455" style="fill: #1f77b4; stroke: #1f77b4"/>
     <use xlink:href="#mea38803726" x="122.968955" y="129.259636" style="fill: #1f77b4; stroke: #1f77b4"/>
     <use xlink:href="#mea38803726" x="191.390773" y="251.441455" style="fill: #1f77b4; stroke: #1f77b4"/>
     <use xlink:href="#mea38803726" x="272.030773" y="251.441455" style="fill: #1f77b4; stroke: #1f77b4"/>
     <use xlink:href="#mea38803726" x="164.510773" y="63.281455" style="fill: #1f77b4; stroke: #1f77b4"/>
     <use xlink:href="#mea38803726" x="223.158045" y="19.296" style="fill: #1f77b4; stroke: #1f77b4"/>
     <use xlink:href="#mea38803726" x="188.947136" y="168.357818" style="fill: #1f77b4; stroke: #1f77b4"/>
     <use xlink:href="#mea38803726" x="147.405318" y="227.005091" style="fill: #1f77b4; stroke: #1f77b4"/>
     <use xlink:href="#mea38803726" x="115.638045" y="90.161455" style="fill: #1f77b4; stroke: #1f77b4"/>
     <use xlink:href="#mea38803726" x="201.165318" y="129.259636" style="fill: #1f77b4; stroke: #1f77b4"/>
     <use xlink:href="#mea38803726" x="196.278045" y="202.568727" style="fill: #1f77b4; stroke: #1f77b4"/>
     <use xlink:href="#mea38803726" x="142.518045" y="38.845091" style="fill: #1f77b4; stroke: #1f77b4"/>
     <use xlink:href="#mea38803726" x="166.954409" y="256.328727" style="fill: #1f77b4; stroke: #1f77b4"/>
     <use xlink:href="#mea38803726" x="274.474409" y="168.357818" style="fill: #1f77b4; stroke: #1f77b4"/>
     <use xlink:href="#mea38803726" x="166.954409" y="170.801455" style="fill: #1f77b4; stroke: #1f77b4"/>
     <use xlink:href="#mea38803726" x="232.932591" y="256.328727" style="fill: #1f77b4; stroke: #1f77b4"/>
     <use xlink:href="#mea38803726" x="206.052591" y="117.041455" style="fill: #1f77b4; stroke: #1f77b4"/>
     <use xlink:href="#mea38803726" x="169.398045" y="95.048727" style="fill: #1f77b4; stroke: #1f77b4"/>
     <use xlink:href="#mea38803726" x="237.819864" y="244.110545" style="fill: #1f77b4; stroke: #1f77b4"/>
     <use xlink:href="#mea38803726" x="83.870773" y="190.350545" style="fill: #1f77b4; stroke: #1f77b4"/>
     <use xlink:href="#mea38803726" x="196.278045" y="202.568727" style="fill: #1f77b4; stroke: #1f77b4"/>
     <use xlink:href="#mea38803726" x="176.728955" y="119.485091" style="fill: #1f77b4; stroke: #1f77b4"/>
     <use xlink:href="#mea38803726" x="110.750773" y="200.125091" style="fill: #1f77b4; stroke: #1f77b4"/>
     <use xlink:href="#mea38803726" x="142.518045" y="63.281455" style="fill: #1f77b4; stroke: #1f77b4"/>
     <use xlink:href="#mea38803726" x="171.841682" y="195.237818" style="fill: #1f77b4; stroke: #1f77b4"/>
     <use xlink:href="#mea38803726" x="64.321682" y="73.056" style="fill: #1f77b4; stroke: #1f77b4"/>
     <use xlink:href="#mea38803726" x="47.216227" y="156.139636" style="fill: #1f77b4; stroke: #1f77b4"/>
     <use xlink:href="#mea38803726" x="69.208955" y="197.681455" style="fill: #1f77b4; stroke: #1f77b4"/>
     <use xlink:href="#mea38803726" x="52.1035" y="248.997818" style="fill: #1f77b4; stroke: #1f77b4"/>
     <use xlink:href="#mea38803726" x="230.488955" y="209.899636" style="fill: #1f77b4; stroke: #1f77b4"/>
     <use xlink:href="#mea38803726" x="179.172591" y="143.921455" style="fill: #1f77b4; stroke: #1f77b4"/>
     <use xlink:href="#mea38803726" x="198.721682" y="244.110545" style="fill: #1f77b4; stroke: #1f77b4"/>
     <use xlink:href="#mea38803726" x="64.321682" y="244.110545" style="fill: #1f77b4; stroke: #1f77b4"/>
     <use xlink:href="#mea38803726" x="100.976227" y="222.117818" style="fill: #1f77b4; stroke: #1f77b4"/>
     <use xlink:href="#mea38803726" x="132.7435" y="139.034182" style="fill: #1f77b4; stroke: #1f77b4"/>
     <use xlink:href="#mea38803726" x="223.158045" y="202.568727" style="fill: #1f77b4; stroke: #1f77b4"/>
     <use xlink:href="#mea38803726" x="242.707136" y="117.041455" style="fill: #1f77b4; stroke: #1f77b4"/>
     <use xlink:href="#mea38803726" x="120.525318" y="95.048727" style="fill: #1f77b4; stroke: #1f77b4"/>
     <use xlink:href="#mea38803726" x="230.488955" y="261.216" style="fill: #1f77b4; stroke: #1f77b4"/>
     <use xlink:href="#mea38803726" x="103.419864" y="222.117818" style="fill: #1f77b4; stroke: #1f77b4"/>
     <use xlink:href="#mea38803726" x="242.707136" y="248.997818" style="fill: #1f77b4; stroke: #1f77b4"/>
     <use xlink:href="#mea38803726" x="267.1435" y="207.456" style="fill: #1f77b4; stroke: #1f77b4"/>
     <use xlink:href="#mea38803726" x="254.925318" y="251.441455" style="fill: #1f77b4; stroke: #1f77b4"/>
    </g>
   </g>
   <g id="matplotlib.axis_1">
    <g id="xtick_1">
     <g id="line2d_1">
      <defs>
       <path id="mfedce82414" d="M 0 0 
L 0 3.5 
" style="stroke: #000000; stroke-width: 0.8"/>
      </defs>
      <g>
       <use xlink:href="#mfedce82414" x="44.772591" y="273.312" style="stroke: #000000; stroke-width: 0.8"/>
      </g>
     </g>
     <g id="text_1">
      <!-- 0 -->
      <g transform="translate(41.591341 287.910437) scale(0.1 -0.1)">
       <defs>
        <path id="DejaVuSans-30" d="M 2034 4250 
Q 1547 4250 1301 3770 
Q 1056 3291 1056 2328 
Q 1056 1369 1301 889 
Q 1547 409 2034 409 
Q 2525 409 2770 889 
Q 3016 1369 3016 2328 
Q 3016 3291 2770 3770 
Q 2525 4250 2034 4250 
z
M 2034 4750 
Q 2819 4750 3233 4129 
Q 3647 3509 3647 2328 
Q 3647 1150 3233 529 
Q 2819 -91 2034 -91 
Q 1250 -91 836 529 
Q 422 1150 422 2328 
Q 422 3509 836 4129 
Q 1250 4750 2034 4750 
z
" transform="scale(0.015625)"/>
       </defs>
       <use xlink:href="#DejaVuSans-30"/>
      </g>
     </g>
    </g>
    <g id="xtick_2">
     <g id="line2d_2">
      <g>
       <use xlink:href="#mfedce82414" x="93.645318" y="273.312" style="stroke: #000000; stroke-width: 0.8"/>
      </g>
     </g>
     <g id="text_2">
      <!-- 20 -->
      <g transform="translate(87.282818 287.910437) scale(0.1 -0.1)">
       <defs>
        <path id="DejaVuSans-32" d="M 1228 531 
L 3431 531 
L 3431 0 
L 469 0 
L 469 531 
Q 828 903 1448 1529 
Q 2069 2156 2228 2338 
Q 2531 2678 2651 2914 
Q 2772 3150 2772 3378 
Q 2772 3750 2511 3984 
Q 2250 4219 1831 4219 
Q 1534 4219 1204 4116 
Q 875 4013 500 3803 
L 500 4441 
Q 881 4594 1212 4672 
Q 1544 4750 1819 4750 
Q 2544 4750 2975 4387 
Q 3406 4025 3406 3419 
Q 3406 3131 3298 2873 
Q 3191 2616 2906 2266 
Q 2828 2175 2409 1742 
Q 1991 1309 1228 531 
z
" transform="scale(0.015625)"/>
       </defs>
       <use xlink:href="#DejaVuSans-32"/>
       <use xlink:href="#DejaVuSans-30" transform="translate(63.623047 0)"/>
      </g>
     </g>
    </g>
    <g id="xtick_3">
     <g id="line2d_3">
      <g>
       <use xlink:href="#mfedce82414" x="142.518045" y="273.312" style="stroke: #000000; stroke-width: 0.8"/>
      </g>
     </g>
     <g id="text_3">
      <!-- 40 -->
      <g transform="translate(136.155545 287.910437) scale(0.1 -0.1)">
       <defs>
        <path id="DejaVuSans-34" d="M 2419 4116 
L 825 1625 
L 2419 1625 
L 2419 4116 
z
M 2253 4666 
L 3047 4666 
L 3047 1625 
L 3713 1625 
L 3713 1100 
L 3047 1100 
L 3047 0 
L 2419 0 
L 2419 1100 
L 313 1100 
L 313 1709 
L 2253 4666 
z
" transform="scale(0.015625)"/>
       </defs>
       <use xlink:href="#DejaVuSans-34"/>
       <use xlink:href="#DejaVuSans-30" transform="translate(63.623047 0)"/>
      </g>
     </g>
    </g>
    <g id="xtick_4">
     <g id="line2d_4">
      <g>
       <use xlink:href="#mfedce82414" x="191.390773" y="273.312" style="stroke: #000000; stroke-width: 0.8"/>
      </g>
     </g>
     <g id="text_4">
      <!-- 60 -->
      <g transform="translate(185.028273 287.910437) scale(0.1 -0.1)">
       <defs>
        <path id="DejaVuSans-36" d="M 2113 2584 
Q 1688 2584 1439 2293 
Q 1191 2003 1191 1497 
Q 1191 994 1439 701 
Q 1688 409 2113 409 
Q 2538 409 2786 701 
Q 3034 994 3034 1497 
Q 3034 2003 2786 2293 
Q 2538 2584 2113 2584 
z
M 3366 4563 
L 3366 3988 
Q 3128 4100 2886 4159 
Q 2644 4219 2406 4219 
Q 1781 4219 1451 3797 
Q 1122 3375 1075 2522 
Q 1259 2794 1537 2939 
Q 1816 3084 2150 3084 
Q 2853 3084 3261 2657 
Q 3669 2231 3669 1497 
Q 3669 778 3244 343 
Q 2819 -91 2113 -91 
Q 1303 -91 875 529 
Q 447 1150 447 2328 
Q 447 3434 972 4092 
Q 1497 4750 2381 4750 
Q 2619 4750 2861 4703 
Q 3103 4656 3366 4563 
z
" transform="scale(0.015625)"/>
       </defs>
       <use xlink:href="#DejaVuSans-36"/>
       <use xlink:href="#DejaVuSans-30" transform="translate(63.623047 0)"/>
      </g>
     </g>
    </g>
    <g id="xtick_5">
     <g id="line2d_5">
      <g>
       <use xlink:href="#mfedce82414" x="240.2635" y="273.312" style="stroke: #000000; stroke-width: 0.8"/>
      </g>
     </g>
     <g id="text_5">
      <!-- 80 -->
      <g transform="translate(233.901 287.910437) scale(0.1 -0.1)">
       <defs>
        <path id="DejaVuSans-38" d="M 2034 2216 
Q 1584 2216 1326 1975 
Q 1069 1734 1069 1313 
Q 1069 891 1326 650 
Q 1584 409 2034 409 
Q 2484 409 2743 651 
Q 3003 894 3003 1313 
Q 3003 1734 2745 1975 
Q 2488 2216 2034 2216 
z
M 1403 2484 
Q 997 2584 770 2862 
Q 544 3141 544 3541 
Q 544 4100 942 4425 
Q 1341 4750 2034 4750 
Q 2731 4750 3128 4425 
Q 3525 4100 3525 3541 
Q 3525 3141 3298 2862 
Q 3072 2584 2669 2484 
Q 3125 2378 3379 2068 
Q 3634 1759 3634 1313 
Q 3634 634 3220 271 
Q 2806 -91 2034 -91 
Q 1263 -91 848 271 
Q 434 634 434 1313 
Q 434 1759 690 2068 
Q 947 2378 1403 2484 
z
M 1172 3481 
Q 1172 3119 1398 2916 
Q 1625 2713 2034 2713 
Q 2441 2713 2670 2916 
Q 2900 3119 2900 3481 
Q 2900 3844 2670 4047 
Q 2441 4250 2034 4250 
Q 1625 4250 1398 4047 
Q 1172 3844 1172 3481 
z
" transform="scale(0.015625)"/>
       </defs>
       <use xlink:href="#DejaVuSans-38"/>
       <use xlink:href="#DejaVuSans-30" transform="translate(63.623047 0)"/>
      </g>
     </g>
    </g>
   </g>
   <g id="matplotlib.axis_2">
    <g id="ytick_1">
     <g id="line2d_6">
      <defs>
       <path id="m678d5a7dab" d="M 0 0 
L -3.5 0 
" style="stroke: #000000; stroke-width: 0.8"/>
      </defs>
      <g>
       <use xlink:href="#m678d5a7dab" x="33.2875" y="261.216" style="stroke: #000000; stroke-width: 0.8"/>
      </g>
     </g>
     <g id="text_6">
      <!-- 0 -->
      <g transform="translate(19.925 265.015219) scale(0.1 -0.1)">
       <use xlink:href="#DejaVuSans-30"/>
      </g>
     </g>
    </g>
    <g id="ytick_2">
     <g id="line2d_7">
      <g>
       <use xlink:href="#m678d5a7dab" x="33.2875" y="212.343273" style="stroke: #000000; stroke-width: 0.8"/>
      </g>
     </g>
     <g id="text_7">
      <!-- 20 -->
      <g transform="translate(13.5625 216.142491) scale(0.1 -0.1)">
       <use xlink:href="#DejaVuSans-32"/>
       <use xlink:href="#DejaVuSans-30" transform="translate(63.623047 0)"/>
      </g>
     </g>
    </g>
    <g id="ytick_3">
     <g id="line2d_8">
      <g>
       <use xlink:href="#m678d5a7dab" x="33.2875" y="163.470545" style="stroke: #000000; stroke-width: 0.8"/>
      </g>
     </g>
     <g id="text_8">
      <!-- 40 -->
      <g transform="translate(13.5625 167.269764) scale(0.1 -0.1)">
       <use xlink:href="#DejaVuSans-34"/>
       <use xlink:href="#DejaVuSans-30" transform="translate(63.623047 0)"/>
      </g>
     </g>
    </g>
    <g id="ytick_4">
     <g id="line2d_9">
      <g>
       <use xlink:href="#m678d5a7dab" x="33.2875" y="114.597818" style="stroke: #000000; stroke-width: 0.8"/>
      </g>
     </g>
     <g id="text_9">
      <!-- 60 -->
      <g transform="translate(13.5625 118.397037) scale(0.1 -0.1)">
       <use xlink:href="#DejaVuSans-36"/>
       <use xlink:href="#DejaVuSans-30" transform="translate(63.623047 0)"/>
      </g>
     </g>
    </g>
    <g id="ytick_5">
     <g id="line2d_10">
      <g>
       <use xlink:href="#m678d5a7dab" x="33.2875" y="65.725091" style="stroke: #000000; stroke-width: 0.8"/>
      </g>
     </g>
     <g id="text_10">
      <!-- 80 -->
      <g transform="translate(13.5625 69.52431) scale(0.1 -0.1)">
       <use xlink:href="#DejaVuSans-38"/>
       <use xlink:href="#DejaVuSans-30" transform="translate(63.623047 0)"/>
      </g>
     </g>
    </g>
    <g id="ytick_6">
     <g id="line2d_11">
      <g>
       <use xlink:href="#m678d5a7dab" x="33.2875" y="16.852364" style="stroke: #000000; stroke-width: 0.8"/>
      </g>
     </g>
     <g id="text_11">
      <!-- 100 -->
      <g transform="translate(7.2 20.651582) scale(0.1 -0.1)">
       <defs>
        <path id="DejaVuSans-31" d="M 794 531 
L 1825 531 
L 1825 4091 
L 703 3866 
L 703 4441 
L 1819 4666 
L 2450 4666 
L 2450 531 
L 3481 531 
L 3481 0 
L 794 0 
L 794 531 
z
" transform="scale(0.015625)"/>
       </defs>
       <use xlink:href="#DejaVuSans-31"/>
       <use xlink:href="#DejaVuSans-30" transform="translate(63.623047 0)"/>
       <use xlink:href="#DejaVuSans-30" transform="translate(127.246094 0)"/>
      </g>
     </g>
    </g>
   </g>
   <g id="patch_3">
    <path d="M 33.2875 273.312 
L 33.2875 7.2 
" style="fill: none; stroke: #000000; stroke-width: 0.8; stroke-linejoin: miter; stroke-linecap: square"/>
   </g>
   <g id="patch_4">
    <path d="M 285.9595 273.312 
L 285.9595 7.2 
" style="fill: none; stroke: #000000; stroke-width: 0.8; stroke-linejoin: miter; stroke-linecap: square"/>
   </g>
   <g id="patch_5">
    <path d="M 33.2875 273.312 
L 285.9595 273.312 
" style="fill: none; stroke: #000000; stroke-width: 0.8; stroke-linejoin: miter; stroke-linecap: square"/>
   </g>
   <g id="patch_6">
    <path d="M 33.2875 7.2 
L 285.9595 7.2 
" style="fill: none; stroke: #000000; stroke-width: 0.8; stroke-linejoin: miter; stroke-linecap: square"/>
   </g>
  </g>
 </g>
 <defs>
  <clipPath id="p9981833859">
   <rect x="33.2875" y="7.2" width="252.672" height="266.112"/>
  </clipPath>
 </defs>
</svg>
