<?xml version="1.0" encoding="utf-8" standalone="no"?>
<!DOCTYPE svg PUBLIC "-//W3C//DTD SVG 1.1//EN"
  "http://www.w3.org/Graphics/SVG/1.1/DTD/svg11.dtd">
<svg xmlns:xlink="http://www.w3.org/1999/xlink" width="405.016191pt" height="236.010477pt" viewBox="0 0 405.016191 236.010477" xmlns="http://www.w3.org/2000/svg" version="1.1">
 <metadata>
  <rdf:RDF xmlns:dc="http://purl.org/dc/elements/1.1/" xmlns:cc="http://creativecommons.org/ns#" xmlns:rdf="http://www.w3.org/1999/02/22-rdf-syntax-ns#">
   <cc:Work>
    <dc:type rdf:resource="http://purl.org/dc/dcmitype/StillImage"/>
    <dc:date>2026-02-19T18:38:02.314791</dc:date>
    <dc:format>image/svg+xml</dc:format>
    <dc:creator>
     <cc:Agent>
      <dc:title>Matplotlib v3.10.8, https://matplotlib.org/</dc:title>
     </cc:Agent>
    </dc:creator>
   </cc:Work>
  </rdf:RDF>
 </metadata>
 <defs>
  <style type="text/css">*{stroke-linejoin: round; stroke-linecap: butt}</style>
 </defs>
 <g id="figure_1">
  <g id="patch_1">
   <path d="M 0 236.010477 
L 405.016191 236.010477 
L 405.016191 -0 
L 0 -0 
z
" style="fill: #ffffff"/>
  </g>
  <g id="axes_1">
   <g id="patch_2">
    <path d="M 36.465625 199.454227 
L 393.585625 199.454227 
L 393.585625 22.318125 
L 36.465625 22.318125 
z
" style="fill: #ffffff"/>
   </g>
   <g id="PatchCollection_1">
    <path d="M 48.409311 191.423435 
L 42.126697 191.283658 
L 31.829653 191.240771 
L 30.112379 191.095753 
L 28.903523 190.467369 
L 20.217807 190.345633 
L 10.533438 190.094099 
L 11.864645 189.089893 
L 17.250918 186.699774 
L 20.492908 186.76415 
L 23.079537 186.231935 
L 23.941071 185.348159 
L 26.926329 184.207426 
L 32.354637 182.927206 
L 35.346763 182.664801 
L 36.007825 182.046831 
L 35.86781 180.449828 
L 38.716027 176.420554 
L 39.700777 175.997685 
L 44.090455 175.788689 
L 47.451835 174.169643 
L 48.290618 171.995425 
L 48.067022 169.575104 
L 50.582439 167.857547 
L 54.657861 166.316642 
L 54.852319 164.501526 
L 55.358763 163.966725 
L 54.820152 162.952748 
L 54.941599 161.992618 
L 61.908162 157.335949 
L 62.732192 157.038672 
L 69.339804 154.219481 
L 71.715945 153.695275 
L 74.702754 151.212318 
L 89.81037 138.507715 
L 90.890152 139.915043 
L 90.313531 140.684591 
L 89.018152 141.247519 
L 88.474019 142.170929 
L 91.506853 145.109189 
L 91.205923 147.59915 
L 92.536709 149.384758 
L 94.044153 150.260309 
L 94.268035 151.311255 
L 95.157043 152.544689 
L 96.223244 152.893656 
L 97.260346 152.469022 
L 99.109353 153.332126 
L 99.70913 154.575944 
L 101.374032 155.44572 
L 102.993119 157.195063 
L 107.966938 157.145077 
L 110.302798 155.563242 
L 110.763532 154.513825 
L 111.681848 154.429073 
L 114.965379 152.838975 
L 115.535993 151.217349 
L 117.003764 149.640838 
L 119.127796 152.223921 
L 123.165141 155.280301 
L 126.908534 153.311753 
L 132.176172 152.682547 
L 133.949496 151.533986 
L 134.286117 152.089801 
L 134.770198 152.356311 
L 136.302729 151.810284 
L 139.880381 149.640983 
L 140.197992 148.984066 
L 138.880182 146.836917 
L 140.095774 144.856333 
L 142.408315 145.443984 
L 142.427522 146.656913 
L 143.755426 146.970264 
L 144.076696 147.810904 
L 144.770817 147.372646 
L 144.83153 146.879782 
L 145.584072 146.594103 
L 146.69886 146.837879 
L 151.577115 143.536795 
L 154.054802 142.207385 
L 155.595193 141.867388 
L 156.547019 142.684899 
L 156.604464 144.206616 
L 157.15411 144.832031 
L 159.391974 144.131037 
L 161.063336 142.366111 
L 162.699446 141.764501 
L 162.904292 140.90487 
L 165.598747 139.748281 
L 165.913722 138.316507 
L 164.667122 138.774952 
L 163.867111 138.49432 
L 164.269749 136.594704 
L 167.44272 134.852437 
L 168.673815 133.28418 
L 167.059376 132.36152 
L 164.954084 132.386629 
L 164.771286 131.721931 
L 165.177776 130.62263 
L 164.837838 129.989297 
L 167.21944 127.501234 
L 166.994876 125.727845 
L 168.527725 124.484185 
L 168.372522 123.147227 
L 170.707157 120.815519 
L 170.670227 119.835701 
L 171.212801 118.860479 
L 173.077741 118.043384 
L 173.607118 116.707203 
L 175.914382 114.35073 
L 178.341419 112.376929 
L 179.842686 109.58471 
L 180.228662 107.943776 
L 181.520235 105.882352 
L 181.192034 104.861344 
L 182.288195 102.497112 
L 182.015442 101.55175 
L 185.784652 97.462236 
L 187.455939 96.393777 
L 187.762813 95.452875 
L 187.022737 94.679429 
L 187.121196 93.79796 
L 188.720366 91.518153 
L 190.119665 91.621705 
L 190.659471 89.174296 
L 192.241088 87.127391 
L 191.801045 83.140576 
L 192.99397 81.960338 
L 192.799118 80.288862 
L 193.971912 77.869615 
L 198.738645 79.991997 
L 201.067332 85.174809 
L 208.69992 87.862547 
L 210.673403 86.420686 
L 212.448686 83.926909 
L 216.90763 73.713205 
L 217.185276 73.392865 
L 218.642373 73.62265 
L 218.64384 70.884489 
L 219.946381 67.735964 
L 219.990003 66.106879 
L 220.917009 65.555697 
L 222.920887 62.845678 
L 228.415006 67.470334 
L 230.579585 63.411287 
L 231.531317 60.740337 
L 233.436995 58.911826 
L 233.92442 57.885955 
L 234.527347 57.811602 
L 234.79285 59.248532 
L 236.493231 58.254399 
L 237.930242 56.572415 
L 238.603915 54.89325 
L 240.051637 55.562278 
L 242.002503 52.852859 
L 242.165805 52.304088 
L 241.482717 51.658061 
L 242.671419 50.372918 
L 244.170453 48.248765 
L 244.867248 47.188764 
L 246.509485 46.738745 
L 247.234153 45.031726 
L 248.44912 43.744932 
L 247.443108 42.232709 
L 247.463884 41.404795 
L 248.470935 39.505856 
L 247.811874 38.807208 
L 250.890278 33.934395 
L 250.738056 33.397424 
L 249.767517 32.814175 
L 250.409458 31.704232 
L 250.40055 27.362424 
L 253.578173 29.179347 
L 255.72731 30.958243 
L 264.63192 37.829319 
L 273.870142 45.126645 
L 274.322874 44.566507 
L 274.860045 41.41778 
L 276.407921 38.51441 
L 276.718758 36.330732 
L 278.06642 34.391302 
L 280.195377 34.257473 
L 283.026097 35.234067 
L 285.133898 35.230089 
L 286.382945 36.862633 
L 288.555862 37.864428 
L 289.891384 39.002199 
L 290.045748 39.590939 
L 289.400829 41.994925 
L 287.759686 43.170166 
L 288.007394 45.487559 
L 289.535206 46.152767 
L 290.454434 47.435999 
L 291.669388 48.190605 
L 295.507296 47.938967 
L 296.494291 48.237142 
L 299.623509 50.107248 
L 300.289935 53.0294 
L 304.393359 53.491345 
L 305.781113 55.299625 
L 307.764905 56.154067 
L 308.329777 57.813278 
L 309.671025 59.106127 
L 309.671307 60.476868 
L 309.480527 61.001568 
L 309.961732 61.862439 
L 309.570763 63.351593 
L 309.696068 67.303537 
L 309.237351 67.709121 
L 308.124428 67.571025 
L 307.648993 68.235971 
L 306.285241 69.788205 
L 306.138989 71.487786 
L 303.194155 73.061905 
L 303.21626 70.88886 
L 301.772906 71.521683 
L 298.718394 80.136527 
L 297.305357 83.906291 
L 299.670901 88.042171 
L 298.262969 89.164758 
L 301.931339 89.73637 
L 310.176999 86.882293 
L 312.886122 92.191607 
L 315.905202 96.500166 
L 331.450803 100.484342 
L 333.672923 103.011194 
L 333.400206 105.809804 
L 332.755213 107.105921 
L 334.9445 106.454246 
L 342.170722 109.286352 
L 347.261604 112.852341 
L 347.706027 115.106194 
L 344.572169 118.198581 
L 345.460112 122.706327 
L 343.384112 123.894143 
L 344.984273 125.088973 
L 344.152097 128.265486 
L 336.709845 126.718353 
L 333.080331 120.39745 
L 330.68982 119.012185 
L 324.046822 112.449341 
L 321.934144 112.383224 
L 326.137674 119.101101 
L 328.488426 120.347506 
L 333.922246 127.677823 
L 345.726189 132.283541 
L 344.257675 133.844461 
L 336.731808 132.644862 
L 340.403825 134.601829 
L 343.965319 134.395541 
L 348.913437 141.320099 
L 348.148076 144.778094 
L 346.963145 144.594607 
L 345.066012 141.320588 
L 339.986085 137.890537 
L 339.31835 140.154048 
L 341.46601 140.435771 
L 342.180483 142.63427 
L 339.813201 142.494274 
L 342.903026 147.144768 
L 339.893941 149.46016 
L 330.723242 140.941696 
L 328.380706 140.690145 
L 330.079953 143.286428 
L 333.701064 147.705701 
L 341.68743 152.122216 
L 342.371003 155.224384 
L 343.048956 154.012973 
L 344.631693 155.454964 
L 345.752878 153.653353 
L 348.263014 156.665196 
L 343.283823 157.731817 
L 348.706231 159.370458 
L 348.200515 162.471458 
L 344.117106 164.389383 
L 342.286573 165.914241 
L 337.212092 160.310061 
L 337.88 159.095238 
L 335.5551 157.525884 
L 335.474935 159.676128 
L 332.760416 156.827839 
L 333.317016 154.15875 
L 331.458153 151.546695 
L 329.206152 151.268281 
L 327.076857 153.598246 
L 324.687162 151.02268 
L 321.889389 150.945715 
L 320.858529 146.479744 
L 320.882871 150.103672 
L 318.067449 151.527551 
L 320.005462 153.473041 
L 324.704224 152.91024 
L 327.956426 155.997092 
L 329.805351 153.212299 
L 330.593763 156.046102 
L 331.106411 161.364446 
L 335.194424 162.867957 
L 333.64887 164.632371 
L 336.283772 163.86181 
L 339.398223 166.25413 
L 338.266513 169.135945 
L 339.848743 168.667146 
L 339.709149 170.016522 
L 336.470655 173.238389 
L 336.531901 175.872164 
L 338.837784 171.547669 
L 343.161996 169.517806 
L 345.99571 168.699104 
L 346.428613 171.713396 
L 344.107137 173.211632 
L 343.809113 173.784956 
L 347.589556 172.475623 
L 348.771332 173.416954 
L 347.769201 166.975303 
L 348.780339 165.741201 
L 352.603965 167.130003 
L 353.179963 168.850391 
L 356.451432 167.131459 
L 362.106229 167.322312 
L 368.589792 187.963926 
L 367.493844 188.00377 
L 367.783699 185.541311 
L 364.753114 178.699914 
L 363.048236 188.211809 
L 361.737818 188.276214 
L 360.005672 185.687796 
L 360.87335 188.30742 
L 357.129474 188.487134 
L 347.808625 189.013698 
L 340.119956 189.394979 
L 337.087073 189.56819 
L 320.635836 190.360092 
L 320.520871 190.365625 
L 308.880588 190.722169 
L 302.329314 191.113123 
L 281.937268 191.874211 
L 275.739818 192.106811 
L 268.720967 192.354438 
L 256.348537 193.11216 
L 250.035615 193.514321 
L 237.232239 193.572467 
L 234.511222 193.78035 
L 218.541027 193.973512 
L 215.19624 193.824771 
L 201.730928 194.174822 
L 192.217414 194.298657 
L 178.13819 194.627 
L 177.032946 194.517993 
L 159.249429 194.435603 
L 151.177805 194.119751 
L 140.749424 193.800054 
L 137.751933 193.703123 
L 117.467181 193.241359 
L 102.567699 192.207347 
L 103.380717 191.193741 
L 95.277965 190.907836 
L 91.177176 190.755887 
L 90.662299 191.756087 
L 80.341273 191.689353 
L 77.473004 191.715205 
L 73.790606 191.796256 
L 59.379334 191.592539 
L 48.409311 191.423435 
z
" clip-path="url(#p5a39dbf51b)" style="fill: none; stroke: #000000; stroke-opacity: 0.3"/>
    <path d="M 365.236041 141.768822 
L 364.365117 154.667619 
L 362.608142 155.691018 
L 359.893256 145.404106 
L 363.177994 135.179528 
L 361.786607 135.556708 
L 362.144316 133.109945 
L 363.12325 131.053746 
L 366.013342 131.165529 
L 362.639598 130.813256 
L 363.088197 129.398589 
L 365.022755 129.610012 
L 364.137385 128.982172 
L 368.577045 121.900984 
L 369.103476 117.410552 
L 372.903649 115.213281 
L 373.218226 113.273911 
L 370.848659 109.266867 
L 374.223205 108.467517 
L 374.589893 106.791134 
L 375.485849 105.236295 
L 386.855667 103.401431 
L 376.855772 122.270168 
L 378.190189 123.333235 
L 373.509439 128.614335 
L 375.838544 130.183295 
L 372.3388 130.471475 
L 371.176046 133.260121 
L 373.5566 134.102112 
L 368.740709 135.767377 
L 368.53636 138.227225 
L 369.943978 139.18386 
L 368.280429 138.701806 
L 365.236041 141.768822 
z
" clip-path="url(#p5a39dbf51b)" style="fill: none; stroke: #000000; stroke-opacity: 0.3"/>
    <path d="M 388.372079 108.91065 
L 391.419314 102.49972 
L 392.684582 102.367628 
L 390.377423 106.266353 
L 388.815221 110.600695 
L 386.742021 111.477468 
L 388.515372 109.867804 
L 386.993942 110.01376 
L 388.372079 108.91065 
z
" clip-path="url(#p5a39dbf51b)" style="fill: none; stroke: #000000; stroke-opacity: 0.3"/>
   </g>
   <g id="matplotlib.axis_1">
    <g id="xtick_1">
     <g id="line2d_1">
      <defs>
       <path id="mca296bd42b" d="M 0 0 
L 0 3.5 
" style="stroke: #000000; stroke-width: 0.8"/>
      </defs>
      <g>
       <use xlink:href="#mca296bd42b" x="82.009668" y="199.454227" style="stroke: #000000; stroke-width: 0.8"/>
      </g>
     </g>
     <g id="text_1">
      <!-- 0.4 -->
      <g transform="translate(74.058105 214.052665) scale(0.1 -0.1)">
       <defs>
        <path id="DejaVuSans-30" d="M 2034 4250 
Q 1547 4250 1301 3770 
Q 1056 3291 1056 2328 
Q 1056 1369 1301 889 
Q 1547 409 2034 409 
Q 2525 409 2770 889 
Q 3016 1369 3016 2328 
Q 3016 3291 2770 3770 
Q 2525 4250 2034 4250 
z
M 2034 4750 
Q 2819 4750 3233 4129 
Q 3647 3509 3647 2328 
Q 3647 1150 3233 529 
Q 2819 -91 2034 -91 
Q 1250 -91 836 529 
Q 422 1150 422 2328 
Q 422 3509 836 4129 
Q 1250 4750 2034 4750 
z
" transform="scale(0.015625)"/>
        <path id="DejaVuSans-2e" d="M 684 794 
L 1344 794 
L 1344 0 
L 684 0 
L 684 794 
z
" transform="scale(0.015625)"/>
        <path id="DejaVuSans-34" d="M 2419 4116 
L 825 1625 
L 2419 1625 
L 2419 4116 
z
M 2253 4666 
L 3047 4666 
L 3047 1625 
L 3713 1625 
L 3713 1100 
L 3047 1100 
L 3047 0 
L 2419 0 
L 2419 1100 
L 313 1100 
L 313 1709 
L 2253 4666 
z
" transform="scale(0.015625)"/>
       </defs>
       <use xlink:href="#DejaVuSans-30"/>
       <use xlink:href="#DejaVuSans-2e" transform="translate(63.623047 0)"/>
       <use xlink:href="#DejaVuSans-34" transform="translate(95.410156 0)"/>
      </g>
     </g>
    </g>
    <g id="xtick_2">
     <g id="line2d_2">
      <g>
       <use xlink:href="#mca296bd42b" x="133.318828" y="199.454227" style="stroke: #000000; stroke-width: 0.8"/>
      </g>
     </g>
     <g id="text_2">
      <!-- 0.5 -->
      <g transform="translate(125.367265 214.052665) scale(0.1 -0.1)">
       <defs>
        <path id="DejaVuSans-35" d="M 691 4666 
L 3169 4666 
L 3169 4134 
L 1269 4134 
L 1269 2991 
Q 1406 3038 1543 3061 
Q 1681 3084 1819 3084 
Q 2600 3084 3056 2656 
Q 3513 2228 3513 1497 
Q 3513 744 3044 326 
Q 2575 -91 1722 -91 
Q 1428 -91 1123 -41 
Q 819 9 494 109 
L 494 744 
Q 775 591 1075 516 
Q 1375 441 1709 441 
Q 2250 441 2565 725 
Q 2881 1009 2881 1497 
Q 2881 1984 2565 2268 
Q 2250 2553 1709 2553 
Q 1456 2553 1204 2497 
Q 953 2441 691 2322 
L 691 4666 
z
" transform="scale(0.015625)"/>
       </defs>
       <use xlink:href="#DejaVuSans-30"/>
       <use xlink:href="#DejaVuSans-2e" transform="translate(63.623047 0)"/>
       <use xlink:href="#DejaVuSans-35" transform="translate(95.410156 0)"/>
      </g>
     </g>
    </g>
    <g id="xtick_3">
     <g id="line2d_3">
      <g>
       <use xlink:href="#mca296bd42b" x="184.627988" y="199.454227" style="stroke: #000000; stroke-width: 0.8"/>
      </g>
     </g>
     <g id="text_3">
      <!-- 0.6 -->
      <g transform="translate(176.676425 214.052665) scale(0.1 -0.1)">
       <defs>
        <path id="DejaVuSans-36" d="M 2113 2584 
Q 1688 2584 1439 2293 
Q 1191 2003 1191 1497 
Q 1191 994 1439 701 
Q 1688 409 2113 409 
Q 2538 409 2786 701 
Q 3034 994 3034 1497 
Q 3034 2003 2786 2293 
Q 2538 2584 2113 2584 
z
M 3366 4563 
L 3366 3988 
Q 3128 4100 2886 4159 
Q 2644 4219 2406 4219 
Q 1781 4219 1451 3797 
Q 1122 3375 1075 2522 
Q 1259 2794 1537 2939 
Q 1816 3084 2150 3084 
Q 2853 3084 3261 2657 
Q 3669 2231 3669 1497 
Q 3669 778 3244 343 
Q 2819 -91 2113 -91 
Q 1303 -91 875 529 
Q 447 1150 447 2328 
Q 447 3434 972 4092 
Q 1497 4750 2381 4750 
Q 2619 4750 2861 4703 
Q 3103 4656 3366 4563 
z
" transform="scale(0.015625)"/>
       </defs>
       <use xlink:href="#DejaVuSans-30"/>
       <use xlink:href="#DejaVuSans-2e" transform="translate(63.623047 0)"/>
       <use xlink:href="#DejaVuSans-36" transform="translate(95.410156 0)"/>
      </g>
     </g>
    </g>
    <g id="xtick_4">
     <g id="line2d_4">
      <g>
       <use xlink:href="#mca296bd42b" x="235.937148" y="199.454227" style="stroke: #000000; stroke-width: 0.8"/>
      </g>
     </g>
     <g id="text_4">
      <!-- 0.7 -->
      <g transform="translate(227.985585 214.052665) scale(0.1 -0.1)">
       <defs>
        <path id="DejaVuSans-37" d="M 525 4666 
L 3525 4666 
L 3525 4397 
L 1831 0 
L 1172 0 
L 2766 4134 
L 525 4134 
L 525 4666 
z
" transform="scale(0.015625)"/>
       </defs>
       <use xlink:href="#DejaVuSans-30"/>
       <use xlink:href="#DejaVuSans-2e" transform="translate(63.623047 0)"/>
       <use xlink:href="#DejaVuSans-37" transform="translate(95.410156 0)"/>
      </g>
     </g>
    </g>
    <g id="xtick_5">
     <g id="line2d_5">
      <g>
       <use xlink:href="#mca296bd42b" x="287.246308" y="199.454227" style="stroke: #000000; stroke-width: 0.8"/>
      </g>
     </g>
     <g id="text_5">
      <!-- 0.8 -->
      <g transform="translate(279.294745 214.052665) scale(0.1 -0.1)">
       <defs>
        <path id="DejaVuSans-38" d="M 2034 2216 
Q 1584 2216 1326 1975 
Q 1069 1734 1069 1313 
Q 1069 891 1326 650 
Q 1584 409 2034 409 
Q 2484 409 2743 651 
Q 3003 894 3003 1313 
Q 3003 1734 2745 1975 
Q 2488 2216 2034 2216 
z
M 1403 2484 
Q 997 2584 770 2862 
Q 544 3141 544 3541 
Q 544 4100 942 4425 
Q 1341 4750 2034 4750 
Q 2731 4750 3128 4425 
Q 3525 4100 3525 3541 
Q 3525 3141 3298 2862 
Q 3072 2584 2669 2484 
Q 3125 2378 3379 2068 
Q 3634 1759 3634 1313 
Q 3634 634 3220 271 
Q 2806 -91 2034 -91 
Q 1263 -91 848 271 
Q 434 634 434 1313 
Q 434 1759 690 2068 
Q 947 2378 1403 2484 
z
M 1172 3481 
Q 1172 3119 1398 2916 
Q 1625 2713 2034 2713 
Q 2441 2713 2670 2916 
Q 2900 3119 2900 3481 
Q 2900 3844 2670 4047 
Q 2441 4250 2034 4250 
Q 1625 4250 1398 4047 
Q 1172 3844 1172 3481 
z
" transform="scale(0.015625)"/>
       </defs>
       <use xlink:href="#DejaVuSans-30"/>
       <use xlink:href="#DejaVuSans-2e" transform="translate(63.623047 0)"/>
       <use xlink:href="#DejaVuSans-38" transform="translate(95.410156 0)"/>
      </g>
     </g>
    </g>
    <g id="xtick_6">
     <g id="line2d_6">
      <g>
       <use xlink:href="#mca296bd42b" x="338.555468" y="199.454227" style="stroke: #000000; stroke-width: 0.8"/>
      </g>
     </g>
     <g id="text_6">
      <!-- 0.9 -->
      <g transform="translate(330.603906 214.052665) scale(0.1 -0.1)">
       <defs>
        <path id="DejaVuSans-39" d="M 703 97 
L 703 672 
Q 941 559 1184 500 
Q 1428 441 1663 441 
Q 2288 441 2617 861 
Q 2947 1281 2994 2138 
Q 2813 1869 2534 1725 
Q 2256 1581 1919 1581 
Q 1219 1581 811 2004 
Q 403 2428 403 3163 
Q 403 3881 828 4315 
Q 1253 4750 1959 4750 
Q 2769 4750 3195 4129 
Q 3622 3509 3622 2328 
Q 3622 1225 3098 567 
Q 2575 -91 1691 -91 
Q 1453 -91 1209 -44 
Q 966 3 703 97 
z
M 1959 2075 
Q 2384 2075 2632 2365 
Q 2881 2656 2881 3163 
Q 2881 3666 2632 3958 
Q 2384 4250 1959 4250 
Q 1534 4250 1286 3958 
Q 1038 3666 1038 3163 
Q 1038 2656 1286 2365 
Q 1534 2075 1959 2075 
z
" transform="scale(0.015625)"/>
       </defs>
       <use xlink:href="#DejaVuSans-30"/>
       <use xlink:href="#DejaVuSans-2e" transform="translate(63.623047 0)"/>
       <use xlink:href="#DejaVuSans-39" transform="translate(95.410156 0)"/>
      </g>
     </g>
    </g>
    <g id="xtick_7">
     <g id="line2d_7">
      <g>
       <use xlink:href="#mca296bd42b" x="389.864628" y="199.454227" style="stroke: #000000; stroke-width: 0.8"/>
      </g>
     </g>
     <g id="text_7">
      <!-- 1.0 -->
      <g transform="translate(381.913066 214.052665) scale(0.1 -0.1)">
       <defs>
        <path id="DejaVuSans-31" d="M 794 531 
L 1825 531 
L 1825 4091 
L 703 3866 
L 703 4441 
L 1819 4666 
L 2450 4666 
L 2450 531 
L 3481 531 
L 3481 0 
L 794 0 
L 794 531 
z
" transform="scale(0.015625)"/>
       </defs>
       <use xlink:href="#DejaVuSans-31"/>
       <use xlink:href="#DejaVuSans-2e" transform="translate(63.623047 0)"/>
       <use xlink:href="#DejaVuSans-30" transform="translate(95.410156 0)"/>
      </g>
     </g>
    </g>
    <g id="text_8">
     <!-- 1e6 -->
     <g transform="translate(374.7075 226.73079) scale(0.1 -0.1)">
      <defs>
       <path id="DejaVuSans-65" d="M 3597 1894 
L 3597 1613 
L 953 1613 
Q 991 1019 1311 708 
Q 1631 397 2203 397 
Q 2534 397 2845 478 
Q 3156 559 3463 722 
L 3463 178 
Q 3153 47 2828 -22 
Q 2503 -91 2169 -91 
Q 1331 -91 842 396 
Q 353 884 353 1716 
Q 353 2575 817 3079 
Q 1281 3584 2069 3584 
Q 2775 3584 3186 3129 
Q 3597 2675 3597 1894 
z
M 3022 2063 
Q 3016 2534 2758 2815 
Q 2500 3097 2075 3097 
Q 1594 3097 1305 2825 
Q 1016 2553 972 2059 
L 3022 2063 
z
" transform="scale(0.015625)"/>
      </defs>
      <use xlink:href="#DejaVuSans-31"/>
      <use xlink:href="#DejaVuSans-65" transform="translate(63.623047 0)"/>
      <use xlink:href="#DejaVuSans-36" transform="translate(125.146484 0)"/>
     </g>
    </g>
   </g>
   <g id="matplotlib.axis_2">
    <g id="ytick_1">
     <g id="line2d_8">
      <defs>
       <path id="m4fc700c855" d="M 0 0 
L -3.5 0 
" style="stroke: #000000; stroke-width: 0.8"/>
      </defs>
      <g>
       <use xlink:href="#m4fc700c855" x="36.465625" y="191.982243" style="stroke: #000000; stroke-width: 0.8"/>
      </g>
     </g>
     <g id="text_9">
      <!-- 4.05 -->
      <g transform="translate(7.2 195.781462) scale(0.1 -0.1)">
       <use xlink:href="#DejaVuSans-34"/>
       <use xlink:href="#DejaVuSans-2e" transform="translate(63.623047 0)"/>
       <use xlink:href="#DejaVuSans-30" transform="translate(95.410156 0)"/>
       <use xlink:href="#DejaVuSans-35" transform="translate(159.033203 0)"/>
      </g>
     </g>
    </g>
    <g id="ytick_2">
     <g id="line2d_9">
      <g>
       <use xlink:href="#m4fc700c855" x="36.465625" y="166.327663" style="stroke: #000000; stroke-width: 0.8"/>
      </g>
     </g>
     <g id="text_10">
      <!-- 4.10 -->
      <g transform="translate(7.2 170.126882) scale(0.1 -0.1)">
       <use xlink:href="#DejaVuSans-34"/>
       <use xlink:href="#DejaVuSans-2e" transform="translate(63.623047 0)"/>
       <use xlink:href="#DejaVuSans-31" transform="translate(95.410156 0)"/>
       <use xlink:href="#DejaVuSans-30" transform="translate(159.033203 0)"/>
      </g>
     </g>
    </g>
    <g id="ytick_3">
     <g id="line2d_10">
      <g>
       <use xlink:href="#m4fc700c855" x="36.465625" y="140.673083" style="stroke: #000000; stroke-width: 0.8"/>
      </g>
     </g>
     <g id="text_11">
      <!-- 4.15 -->
      <g transform="translate(7.2 144.472302) scale(0.1 -0.1)">
       <use xlink:href="#DejaVuSans-34"/>
       <use xlink:href="#DejaVuSans-2e" transform="translate(63.623047 0)"/>
       <use xlink:href="#DejaVuSans-31" transform="translate(95.410156 0)"/>
       <use xlink:href="#DejaVuSans-35" transform="translate(159.033203 0)"/>
      </g>
     </g>
    </g>
    <g id="ytick_4">
     <g id="line2d_11">
      <g>
       <use xlink:href="#m4fc700c855" x="36.465625" y="115.018503" style="stroke: #000000; stroke-width: 0.8"/>
      </g>
     </g>
     <g id="text_12">
      <!-- 4.20 -->
      <g transform="translate(7.2 118.817721) scale(0.1 -0.1)">
       <defs>
        <path id="DejaVuSans-32" d="M 1228 531 
L 3431 531 
L 3431 0 
L 469 0 
L 469 531 
Q 828 903 1448 1529 
Q 2069 2156 2228 2338 
Q 2531 2678 2651 2914 
Q 2772 3150 2772 3378 
Q 2772 3750 2511 3984 
Q 2250 4219 1831 4219 
Q 1534 4219 1204 4116 
Q 875 4013 500 3803 
L 500 4441 
Q 881 4594 1212 4672 
Q 1544 4750 1819 4750 
Q 2544 4750 2975 4387 
Q 3406 4025 3406 3419 
Q 3406 3131 3298 2873 
Q 3191 2616 2906 2266 
Q 2828 2175 2409 1742 
Q 1991 1309 1228 531 
z
" transform="scale(0.015625)"/>
       </defs>
       <use xlink:href="#DejaVuSans-34"/>
       <use xlink:href="#DejaVuSans-2e" transform="translate(63.623047 0)"/>
       <use xlink:href="#DejaVuSans-32" transform="translate(95.410156 0)"/>
       <use xlink:href="#DejaVuSans-30" transform="translate(159.033203 0)"/>
      </g>
     </g>
    </g>
    <g id="ytick_5">
     <g id="line2d_12">
      <g>
       <use xlink:href="#m4fc700c855" x="36.465625" y="89.363923" style="stroke: #000000; stroke-width: 0.8"/>
      </g>
     </g>
     <g id="text_13">
      <!-- 4.25 -->
      <g transform="translate(7.2 93.163141) scale(0.1 -0.1)">
       <use xlink:href="#DejaVuSans-34"/>
       <use xlink:href="#DejaVuSans-2e" transform="translate(63.623047 0)"/>
       <use xlink:href="#DejaVuSans-32" transform="translate(95.410156 0)"/>
       <use xlink:href="#DejaVuSans-35" transform="translate(159.033203 0)"/>
      </g>
     </g>
    </g>
    <g id="ytick_6">
     <g id="line2d_13">
      <g>
       <use xlink:href="#m4fc700c855" x="36.465625" y="63.709343" style="stroke: #000000; stroke-width: 0.8"/>
      </g>
     </g>
     <g id="text_14">
      <!-- 4.30 -->
      <g transform="translate(7.2 67.508561) scale(0.1 -0.1)">
       <defs>
        <path id="DejaVuSans-33" d="M 2597 2516 
Q 3050 2419 3304 2112 
Q 3559 1806 3559 1356 
Q 3559 666 3084 287 
Q 2609 -91 1734 -91 
Q 1441 -91 1130 -33 
Q 819 25 488 141 
L 488 750 
Q 750 597 1062 519 
Q 1375 441 1716 441 
Q 2309 441 2620 675 
Q 2931 909 2931 1356 
Q 2931 1769 2642 2001 
Q 2353 2234 1838 2234 
L 1294 2234 
L 1294 2753 
L 1863 2753 
Q 2328 2753 2575 2939 
Q 2822 3125 2822 3475 
Q 2822 3834 2567 4026 
Q 2313 4219 1838 4219 
Q 1578 4219 1281 4162 
Q 984 4106 628 3988 
L 628 4550 
Q 988 4650 1302 4700 
Q 1616 4750 1894 4750 
Q 2613 4750 3031 4423 
Q 3450 4097 3450 3541 
Q 3450 3153 3228 2886 
Q 3006 2619 2597 2516 
z
" transform="scale(0.015625)"/>
       </defs>
       <use xlink:href="#DejaVuSans-34"/>
       <use xlink:href="#DejaVuSans-2e" transform="translate(63.623047 0)"/>
       <use xlink:href="#DejaVuSans-33" transform="translate(95.410156 0)"/>
       <use xlink:href="#DejaVuSans-30" transform="translate(159.033203 0)"/>
      </g>
     </g>
    </g>
    <g id="ytick_7">
     <g id="line2d_14">
      <g>
       <use xlink:href="#m4fc700c855" x="36.465625" y="38.054763" style="stroke: #000000; stroke-width: 0.8"/>
      </g>
     </g>
     <g id="text_15">
      <!-- 4.35 -->
      <g transform="translate(7.2 41.853981) scale(0.1 -0.1)">
       <use xlink:href="#DejaVuSans-34"/>
       <use xlink:href="#DejaVuSans-2e" transform="translate(63.623047 0)"/>
       <use xlink:href="#DejaVuSans-33" transform="translate(95.410156 0)"/>
       <use xlink:href="#DejaVuSans-35" transform="translate(159.033203 0)"/>
      </g>
     </g>
    </g>
    <g id="text_16">
     <!-- 1e6 -->
     <g transform="translate(36.465625 19.318125) scale(0.1 -0.1)">
      <use xlink:href="#DejaVuSans-31"/>
      <use xlink:href="#DejaVuSans-65" transform="translate(63.623047 0)"/>
      <use xlink:href="#DejaVuSans-36" transform="translate(125.146484 0)"/>
     </g>
    </g>
   </g>
   <g id="line2d_15">
    <defs>
     <path id="m6ac83ace1c" d="M 0 1.5 
C 0.397805 1.5 0.77937 1.341951 1.06066 1.06066 
C 1.341951 0.77937 1.5 0.397805 1.5 0 
C 1.5 -0.397805 1.341951 -0.77937 1.06066 -1.06066 
C 0.77937 -1.341951 0.397805 -1.5 0 -1.5 
C -0.397805 -1.5 -0.77937 -1.341951 -1.06066 -1.06066 
C -1.341951 -0.77937 -1.5 -0.397805 -1.5 0 
C -1.5 0.397805 -1.341951 0.77937 -1.06066 1.06066 
C -0.77937 1.341951 -0.397805 1.5 0 1.5 
z
" style="stroke: #1f77b4"/>
    </defs>
    <g clip-path="url(#p5a39dbf51b)">
     <use xlink:href="#m6ac83ace1c" x="317.857771" y="134.177016" style="fill: #1f77b4; stroke: #1f77b4"/>
     <use xlink:href="#m6ac83ace1c" x="228.354309" y="91.111905" style="fill: #1f77b4; stroke: #1f77b4"/>
     <use xlink:href="#m6ac83ace1c" x="245.849664" y="176.90483" style="fill: #1f77b4; stroke: #1f77b4"/>
     <use xlink:href="#m6ac83ace1c" x="279.123627" y="71.931559" style="fill: #1f77b4; stroke: #1f77b4"/>
     <use xlink:href="#m6ac83ace1c" x="95.368355" y="184.303951" style="fill: #1f77b4; stroke: #1f77b4"/>
     <use xlink:href="#m6ac83ace1c" x="98.945488" y="184.412154" style="fill: #1f77b4; stroke: #1f77b4"/>
     <use xlink:href="#m6ac83ace1c" x="206.809233" y="129.526361" style="fill: #1f77b4; stroke: #1f77b4"/>
     <use xlink:href="#m6ac83ace1c" x="199.89306" y="95.838611" style="fill: #1f77b4; stroke: #1f77b4"/>
     <use xlink:href="#m6ac83ace1c" x="189.180167" y="131.067572" style="fill: #1f77b4; stroke: #1f77b4"/>
     <use xlink:href="#m6ac83ace1c" x="331.6717" y="176.152183" style="fill: #1f77b4; stroke: #1f77b4"/>
     <use xlink:href="#m6ac83ace1c" x="256.056599" y="61.720498" style="fill: #1f77b4; stroke: #1f77b4"/>
     <use xlink:href="#m6ac83ace1c" x="53.228739" y="167.653084" style="fill: #1f77b4; stroke: #1f77b4"/>
     <use xlink:href="#m6ac83ace1c" x="207.193998" y="163.743771" style="fill: #1f77b4; stroke: #1f77b4"/>
     <use xlink:href="#m6ac83ace1c" x="217.111294" y="130.027989" style="fill: #1f77b4; stroke: #1f77b4"/>
     <use xlink:href="#m6ac83ace1c" x="200.928053" y="129.185844" style="fill: #1f77b4; stroke: #1f77b4"/>
     <use xlink:href="#m6ac83ace1c" x="288.194302" y="157.96917" style="fill: #1f77b4; stroke: #1f77b4"/>
     <use xlink:href="#m6ac83ace1c" x="288.386081" y="58.67396" style="fill: #1f77b4; stroke: #1f77b4"/>
     <use xlink:href="#m6ac83ace1c" x="67.60173" y="163.796568" style="fill: #1f77b4; stroke: #1f77b4"/>
     <use xlink:href="#m6ac83ace1c" x="271.574609" y="147.334223" style="fill: #1f77b4; stroke: #1f77b4"/>
     <use xlink:href="#m6ac83ace1c" x="209.729641" y="107.169776" style="fill: #1f77b4; stroke: #1f77b4"/>
     <use xlink:href="#m6ac83ace1c" x="243.462159" y="120.365016" style="fill: #1f77b4; stroke: #1f77b4"/>
     <use xlink:href="#m6ac83ace1c" x="286.339482" y="44.191656" style="fill: #1f77b4; stroke: #1f77b4"/>
     <use xlink:href="#m6ac83ace1c" x="114.233011" y="180.312045" style="fill: #1f77b4; stroke: #1f77b4"/>
     <use xlink:href="#m6ac83ace1c" x="283.354989" y="85.422869" style="fill: #1f77b4; stroke: #1f77b4"/>
     <use xlink:href="#m6ac83ace1c" x="377.352898" y="119.256339" style="fill: #1f77b4; stroke: #1f77b4"/>
     <use xlink:href="#m6ac83ace1c" x="190.930784" y="100.488039" style="fill: #1f77b4; stroke: #1f77b4"/>
     <use xlink:href="#m6ac83ace1c" x="236.42058" y="109.582612" style="fill: #1f77b4; stroke: #1f77b4"/>
     <use xlink:href="#m6ac83ace1c" x="217.331852" y="177.537757" style="fill: #1f77b4; stroke: #1f77b4"/>
     <use xlink:href="#m6ac83ace1c" x="188.811818" y="151.944529" style="fill: #1f77b4; stroke: #1f77b4"/>
     <use xlink:href="#m6ac83ace1c" x="124.520846" y="157.468005" style="fill: #1f77b4; stroke: #1f77b4"/>
     <use xlink:href="#m6ac83ace1c" x="163.874553" y="180.389777" style="fill: #1f77b4; stroke: #1f77b4"/>
     <use xlink:href="#m6ac83ace1c" x="283.162849" y="45.62201" style="fill: #1f77b4; stroke: #1f77b4"/>
     <use xlink:href="#m6ac83ace1c" x="181.337673" y="191.402586" style="fill: #1f77b4; stroke: #1f77b4"/>
     <use xlink:href="#m6ac83ace1c" x="118.306527" y="161.502634" style="fill: #1f77b4; stroke: #1f77b4"/>
     <use xlink:href="#m6ac83ace1c" x="253.089624" y="30.369766" style="fill: #1f77b4; stroke: #1f77b4"/>
     <use xlink:href="#m6ac83ace1c" x="300.23489" y="189.442388" style="fill: #1f77b4; stroke: #1f77b4"/>
     <use xlink:href="#m6ac83ace1c" x="322.747576" y="157.11822" style="fill: #1f77b4; stroke: #1f77b4"/>
     <use xlink:href="#m6ac83ace1c" x="258.543163" y="72.676895" style="fill: #1f77b4; stroke: #1f77b4"/>
     <use xlink:href="#m6ac83ace1c" x="256.096013" y="49.670484" style="fill: #1f77b4; stroke: #1f77b4"/>
     <use xlink:href="#m6ac83ace1c" x="237.360176" y="131.136055" style="fill: #1f77b4; stroke: #1f77b4"/>
     <use xlink:href="#m6ac83ace1c" x="314.216653" y="188.403176" style="fill: #1f77b4; stroke: #1f77b4"/>
     <use xlink:href="#m6ac83ace1c" x="79.417794" y="158.768835" style="fill: #1f77b4; stroke: #1f77b4"/>
     <use xlink:href="#m6ac83ace1c" x="323.570259" y="116.289032" style="fill: #1f77b4; stroke: #1f77b4"/>
     <use xlink:href="#m6ac83ace1c" x="302.109906" y="67.974503" style="fill: #1f77b4; stroke: #1f77b4"/>
     <use xlink:href="#m6ac83ace1c" x="69.890073" y="177.475882" style="fill: #1f77b4; stroke: #1f77b4"/>
     <use xlink:href="#m6ac83ace1c" x="183.949427" y="143.609648" style="fill: #1f77b4; stroke: #1f77b4"/>
     <use xlink:href="#m6ac83ace1c" x="278.043428" y="70.668707" style="fill: #1f77b4; stroke: #1f77b4"/>
     <use xlink:href="#m6ac83ace1c" x="254.471241" y="113.648497" style="fill: #1f77b4; stroke: #1f77b4"/>
     <use xlink:href="#m6ac83ace1c" x="275.285424" y="158.026941" style="fill: #1f77b4; stroke: #1f77b4"/>
     <use xlink:href="#m6ac83ace1c" x="339.521306" y="112.783304" style="fill: #1f77b4; stroke: #1f77b4"/>
     <use xlink:href="#m6ac83ace1c" x="52.698352" y="188.30147" style="fill: #1f77b4; stroke: #1f77b4"/>
     <use xlink:href="#m6ac83ace1c" x="319.919107" y="110.615717" style="fill: #1f77b4; stroke: #1f77b4"/>
     <use xlink:href="#m6ac83ace1c" x="304.916311" y="142.960063" style="fill: #1f77b4; stroke: #1f77b4"/>
     <use xlink:href="#m6ac83ace1c" x="99.861629" y="174.178805" style="fill: #1f77b4; stroke: #1f77b4"/>
     <use xlink:href="#m6ac83ace1c" x="269.163203" y="125.25598" style="fill: #1f77b4; stroke: #1f77b4"/>
     <use xlink:href="#m6ac83ace1c" x="252.011801" y="131.93324" style="fill: #1f77b4; stroke: #1f77b4"/>
     <use xlink:href="#m6ac83ace1c" x="251.908844" y="140.065204" style="fill: #1f77b4; stroke: #1f77b4"/>
     <use xlink:href="#m6ac83ace1c" x="240.948944" y="160.862908" style="fill: #1f77b4; stroke: #1f77b4"/>
     <use xlink:href="#m6ac83ace1c" x="126.330776" y="163.88748" style="fill: #1f77b4; stroke: #1f77b4"/>
     <use xlink:href="#m6ac83ace1c" x="198.210143" y="185.244683" style="fill: #1f77b4; stroke: #1f77b4"/>
     <use xlink:href="#m6ac83ace1c" x="206.659134" y="160.434047" style="fill: #1f77b4; stroke: #1f77b4"/>
     <use xlink:href="#m6ac83ace1c" x="104.168515" y="173.590405" style="fill: #1f77b4; stroke: #1f77b4"/>
     <use xlink:href="#m6ac83ace1c" x="68.941551" y="174.970578" style="fill: #1f77b4; stroke: #1f77b4"/>
     <use xlink:href="#m6ac83ace1c" x="266.496222" y="149.08281" style="fill: #1f77b4; stroke: #1f77b4"/>
     <use xlink:href="#m6ac83ace1c" x="274.962954" y="180.688375" style="fill: #1f77b4; stroke: #1f77b4"/>
     <use xlink:href="#m6ac83ace1c" x="314.836166" y="95.195783" style="fill: #1f77b4; stroke: #1f77b4"/>
     <use xlink:href="#m6ac83ace1c" x="297.712946" y="165.833425" style="fill: #1f77b4; stroke: #1f77b4"/>
     <use xlink:href="#m6ac83ace1c" x="251.299861" y="130.614016" style="fill: #1f77b4; stroke: #1f77b4"/>
     <use xlink:href="#m6ac83ace1c" x="161.534157" y="163.811306" style="fill: #1f77b4; stroke: #1f77b4"/>
     <use xlink:href="#m6ac83ace1c" x="259.227625" y="76.047313" style="fill: #1f77b4; stroke: #1f77b4"/>
     <use xlink:href="#m6ac83ace1c" x="210.241735" y="108.749855" style="fill: #1f77b4; stroke: #1f77b4"/>
     <use xlink:href="#m6ac83ace1c" x="188.185447" y="168.894119" style="fill: #1f77b4; stroke: #1f77b4"/>
     <use xlink:href="#m6ac83ace1c" x="188.422258" y="118.396095" style="fill: #1f77b4; stroke: #1f77b4"/>
     <use xlink:href="#m6ac83ace1c" x="296.854064" y="179.993659" style="fill: #1f77b4; stroke: #1f77b4"/>
     <use xlink:href="#m6ac83ace1c" x="244.556284" y="127.282983" style="fill: #1f77b4; stroke: #1f77b4"/>
     <use xlink:href="#m6ac83ace1c" x="201.592657" y="98.610396" style="fill: #1f77b4; stroke: #1f77b4"/>
     <use xlink:href="#m6ac83ace1c" x="278.106174" y="182.58465" style="fill: #1f77b4; stroke: #1f77b4"/>
     <use xlink:href="#m6ac83ace1c" x="221.235134" y="171.369719" style="fill: #1f77b4; stroke: #1f77b4"/>
     <use xlink:href="#m6ac83ace1c" x="260.475249" y="67.579102" style="fill: #1f77b4; stroke: #1f77b4"/>
     <use xlink:href="#m6ac83ace1c" x="250.312112" y="74.477798" style="fill: #1f77b4; stroke: #1f77b4"/>
     <use xlink:href="#m6ac83ace1c" x="363.885414" y="130.904131" style="fill: #1f77b4; stroke: #1f77b4"/>
     <use xlink:href="#m6ac83ace1c" x="209.427311" y="123.097126" style="fill: #1f77b4; stroke: #1f77b4"/>
     <use xlink:href="#m6ac83ace1c" x="252.375738" y="132.256436" style="fill: #1f77b4; stroke: #1f77b4"/>
     <use xlink:href="#m6ac83ace1c" x="319.511982" y="138.13133" style="fill: #1f77b4; stroke: #1f77b4"/>
     <use xlink:href="#m6ac83ace1c" x="306.480485" y="94.299401" style="fill: #1f77b4; stroke: #1f77b4"/>
     <use xlink:href="#m6ac83ace1c" x="243.287021" y="50.627036" style="fill: #1f77b4; stroke: #1f77b4"/>
     <use xlink:href="#m6ac83ace1c" x="65.868588" y="156.342402" style="fill: #1f77b4; stroke: #1f77b4"/>
     <use xlink:href="#m6ac83ace1c" x="251.949717" y="45.4165" style="fill: #1f77b4; stroke: #1f77b4"/>
     <use xlink:href="#m6ac83ace1c" x="112.333154" y="166.86848" style="fill: #1f77b4; stroke: #1f77b4"/>
     <use xlink:href="#m6ac83ace1c" x="190.262075" y="110.947828" style="fill: #1f77b4; stroke: #1f77b4"/>
     <use xlink:href="#m6ac83ace1c" x="316.096721" y="131.693124" style="fill: #1f77b4; stroke: #1f77b4"/>
     <use xlink:href="#m6ac83ace1c" x="229.561091" y="135.35044" style="fill: #1f77b4; stroke: #1f77b4"/>
     <use xlink:href="#m6ac83ace1c" x="271.864802" y="66.996789" style="fill: #1f77b4; stroke: #1f77b4"/>
     <use xlink:href="#m6ac83ace1c" x="219.31557" y="183.481173" style="fill: #1f77b4; stroke: #1f77b4"/>
     <use xlink:href="#m6ac83ace1c" x="90.583559" y="152.076351" style="fill: #1f77b4; stroke: #1f77b4"/>
     <use xlink:href="#m6ac83ace1c" x="247.796828" y="153.816136" style="fill: #1f77b4; stroke: #1f77b4"/>
     <use xlink:href="#m6ac83ace1c" x="286.272412" y="115.541427" style="fill: #1f77b4; stroke: #1f77b4"/>
     <use xlink:href="#m6ac83ace1c" x="300.595726" y="118.243917" style="fill: #1f77b4; stroke: #1f77b4"/>
     <use xlink:href="#m6ac83ace1c" x="309.766935" y="107.995381" style="fill: #1f77b4; stroke: #1f77b4"/>
     <use xlink:href="#m6ac83ace1c" x="255.248593" y="75.654946" style="fill: #1f77b4; stroke: #1f77b4"/>
    </g>
   </g>
   <g id="patch_3">
    <path d="M 36.465625 199.454227 
L 36.465625 22.318125 
" style="fill: none; stroke: #000000; stroke-width: 0.8; stroke-linejoin: miter; stroke-linecap: square"/>
   </g>
   <g id="patch_4">
    <path d="M 393.585625 199.454227 
L 393.585625 22.318125 
" style="fill: none; stroke: #000000; stroke-width: 0.8; stroke-linejoin: miter; stroke-linecap: square"/>
   </g>
   <g id="patch_5">
    <path d="M 36.465625 199.454227 
L 393.585625 199.454227 
" style="fill: none; stroke: #000000; stroke-width: 0.8; stroke-linejoin: miter; stroke-linecap: square"/>
   </g>
   <g id="patch_6">
    <path d="M 36.465625 22.318125 
L 393.585625 22.318125 
" style="fill: none; stroke: #000000; stroke-width: 0.8; stroke-linejoin: miter; stroke-linecap: square"/>
   </g>
   <g id="text_17">
    <!-- Point Pattern -->
    <g transform="translate(176.640625 16.318125) scale(0.12 -0.12)">
     <defs>
      <path id="DejaVuSans-50" d="M 1259 4147 
L 1259 2394 
L 2053 2394 
Q 2494 2394 2734 2622 
Q 2975 2850 2975 3272 
Q 2975 3691 2734 3919 
Q 2494 4147 2053 4147 
L 1259 4147 
z
M 628 4666 
L 2053 4666 
Q 2838 4666 3239 4311 
Q 3641 3956 3641 3272 
Q 3641 2581 3239 2228 
Q 2838 1875 2053 1875 
L 1259 1875 
L 1259 0 
L 628 0 
L 628 4666 
z
" transform="scale(0.015625)"/>
      <path id="DejaVuSans-6f" d="M 1959 3097 
Q 1497 3097 1228 2736 
Q 959 2375 959 1747 
Q 959 1119 1226 758 
Q 1494 397 1959 397 
Q 2419 397 2687 759 
Q 2956 1122 2956 1747 
Q 2956 2369 2687 2733 
Q 2419 3097 1959 3097 
z
M 1959 3584 
Q 2709 3584 3137 3096 
Q 3566 2609 3566 1747 
Q 3566 888 3137 398 
Q 2709 -91 1959 -91 
Q 1206 -91 779 398 
Q 353 888 353 1747 
Q 353 2609 779 3096 
Q 1206 3584 1959 3584 
z
" transform="scale(0.015625)"/>
      <path id="DejaVuSans-69" d="M 603 3500 
L 1178 3500 
L 1178 0 
L 603 0 
L 603 3500 
z
M 603 4863 
L 1178 4863 
L 1178 4134 
L 603 4134 
L 603 4863 
z
" transform="scale(0.015625)"/>
      <path id="DejaVuSans-6e" d="M 3513 2113 
L 3513 0 
L 2938 0 
L 2938 2094 
Q 2938 2591 2744 2837 
Q 2550 3084 2163 3084 
Q 1697 3084 1428 2787 
Q 1159 2491 1159 1978 
L 1159 0 
L 581 0 
L 581 3500 
L 1159 3500 
L 1159 2956 
Q 1366 3272 1645 3428 
Q 1925 3584 2291 3584 
Q 2894 3584 3203 3211 
Q 3513 2838 3513 2113 
z
" transform="scale(0.015625)"/>
      <path id="DejaVuSans-74" d="M 1172 4494 
L 1172 3500 
L 2356 3500 
L 2356 3053 
L 1172 3053 
L 1172 1153 
Q 1172 725 1289 603 
Q 1406 481 1766 481 
L 2356 481 
L 2356 0 
L 1766 0 
Q 1100 0 847 248 
Q 594 497 594 1153 
L 594 3053 
L 172 3053 
L 172 3500 
L 594 3500 
L 594 4494 
L 1172 4494 
z
" transform="scale(0.015625)"/>
      <path id="DejaVuSans-20" transform="scale(0.015625)"/>
      <path id="DejaVuSans-61" d="M 2194 1759 
Q 1497 1759 1228 1600 
Q 959 1441 959 1056 
Q 959 750 1161 570 
Q 1363 391 1709 391 
Q 2188 391 2477 730 
Q 2766 1069 2766 1631 
L 2766 1759 
L 2194 1759 
z
M 3341 1997 
L 3341 0 
L 2766 0 
L 2766 531 
Q 2569 213 2275 61 
Q 1981 -91 1556 -91 
Q 1019 -91 701 211 
Q 384 513 384 1019 
Q 384 1609 779 1909 
Q 1175 2209 1959 2209 
L 2766 2209 
L 2766 2266 
Q 2766 2663 2505 2880 
Q 2244 3097 1772 3097 
Q 1472 3097 1187 3025 
Q 903 2953 641 2809 
L 641 3341 
Q 956 3463 1253 3523 
Q 1550 3584 1831 3584 
Q 2591 3584 2966 3190 
Q 3341 2797 3341 1997 
z
" transform="scale(0.015625)"/>
      <path id="DejaVuSans-72" d="M 2631 2963 
Q 2534 3019 2420 3045 
Q 2306 3072 2169 3072 
Q 1681 3072 1420 2755 
Q 1159 2438 1159 1844 
L 1159 0 
L 581 0 
L 581 3500 
L 1159 3500 
L 1159 2956 
Q 1341 3275 1631 3429 
Q 1922 3584 2338 3584 
Q 2397 3584 2469 3576 
Q 2541 3569 2628 3553 
L 2631 2963 
z
" transform="scale(0.015625)"/>
     </defs>
     <use xlink:href="#DejaVuSans-50"/>
     <use xlink:href="#DejaVuSans-6f" transform="translate(56.677734 0)"/>
     <use xlink:href="#DejaVuSans-69" transform="translate(117.859375 0)"/>
     <use xlink:href="#DejaVuSans-6e" transform="translate(145.642578 0)"/>
     <use xlink:href="#DejaVuSans-74" transform="translate(209.021484 0)"/>
     <use xlink:href="#DejaVuSans-20" transform="translate(248.230469 0)"/>
     <use xlink:href="#DejaVuSans-50" transform="translate(280.017578 0)"/>
     <use xlink:href="#DejaVuSans-61" transform="translate(335.820312 0)"/>
     <use xlink:href="#DejaVuSans-74" transform="translate(397.099609 0)"/>
     <use xlink:href="#DejaVuSans-74" transform="translate(436.308594 0)"/>
     <use xlink:href="#DejaVuSans-65" transform="translate(475.517578 0)"/>
     <use xlink:href="#DejaVuSans-72" transform="translate(537.041016 0)"/>
     <use xlink:href="#DejaVuSans-6e" transform="translate(576.404297 0)"/>
    </g>
   </g>
  </g>
 </g>
 <defs>
  <clipPath id="p5a39dbf51b">
   <rect x="36.465625" y="22.318125" width="357.12" height="177.136102"/>
  </clipPath>
 </defs>
</svg>
