<?xml version="1.0" encoding="utf-8" standalone="no"?>
<!DOCTYPE svg PUBLIC "-//W3C//DTD SVG 1.1//EN"
  "http://www.w3.org/Graphics/SVG/1.1/DTD/svg11.dtd">
<svg xmlns:xlink="http://www.w3.org/1999/xlink" width="342.781405pt" height="380.355937pt" viewBox="0 0 342.781405 380.355937" xmlns="http://www.w3.org/2000/svg" version="1.1">
 <metadata>
  <rdf:RDF xmlns:dc="http://purl.org/dc/elements/1.1/" xmlns:cc="http://creativecommons.org/ns#" xmlns:rdf="http://www.w3.org/1999/02/22-rdf-syntax-ns#">
   <cc:Work>
    <dc:type rdf:resource="http://purl.org/dc/dcmitype/StillImage"/>
    <dc:date>2026-02-19T18:38:27.670149</dc:date>
    <dc:format>image/svg+xml</dc:format>
    <dc:creator>
     <cc:Agent>
      <dc:title>Matplotlib v3.10.8, https://matplotlib.org/</dc:title>
     </cc:Agent>
    </dc:creator>
   </cc:Work>
  </rdf:RDF>
 </metadata>
 <defs>
  <style type="text/css">*{stroke-linejoin: round; stroke-linecap: butt}</style>
 </defs>
 <g id="figure_1">
  <g id="patch_1">
   <path d="M 0 380.355937 
L 342.781405 380.355937 
L 342.781405 0 
L 0 0 
z
" style="fill: #ffffff"/>
  </g>
  <g id="axes_1">
   <g id="patch_2">
    <path d="M 33.2875 356.477812 
L 335.581405 356.477812 
L 335.581405 23.837812 
L 33.2875 23.837812 
z
" style="fill: #ffffff"/>
   </g>
   <g id="PatchCollection_1">
    <path d="M 82.165487 203.674534 
L 82.26908 192.022214 
L 83.472019 180.644806 
L 85.762717 169.65188 
L 89.119115 159.149305 
L 93.508889 149.238225 
L 98.889761 140.014091 
L 105.209913 131.565736 
L 112.408477 123.974521 
L 120.416127 117.313554 
L 129.155745 111.646985 
L 138.543164 107.029385 
L 148.487978 103.505224 
L 158.894413 101.108442 
L 169.662249 99.862122 
L 180.687786 99.778265 
L 191.864842 100.85768 
L 203.085775 103.089971 
L 214.242523 106.45364 
L 225.22764 110.916293 
L 235.935333 116.434953 
L 246.26248 122.956471 
L 256.109627 130.418041 
L 265.381939 138.747806 
L 273.990119 147.865544 
L 281.851266 157.683447 
L 288.889672 168.106962 
L 295.037554 179.035707 
L 300.235705 190.364431 
L 304.434062 201.984032 
L 307.592195 213.782607 
L 309.679687 225.646529 
L 310.676436 237.461543 
L 310.572843 249.113863 
L 309.369904 260.491272 
L 307.079206 271.484198 
L 303.722808 281.986773 
L 299.333034 291.897852 
L 293.952162 301.121986 
L 287.63201 309.570342 
L 280.433446 317.161557 
L 272.425796 323.822523 
L 263.686178 329.489093 
L 254.298759 334.106693 
L 244.353945 337.630853 
L 233.94751 340.027635 
L 223.179674 341.273956 
L 212.154137 341.357813 
L 200.977081 340.278398 
L 189.756148 338.046107 
L 178.5994 334.682437 
L 167.614283 330.219784 
L 156.90659 324.701125 
L 146.579443 318.179607 
L 136.732296 310.718036 
L 127.459984 302.388272 
L 118.851804 293.270534 
L 110.990657 283.452631 
L 103.952251 273.029115 
L 97.804369 262.10037 
L 92.606218 250.771647 
L 88.407861 239.152046 
L 85.249728 227.353471 
L 83.162236 215.489548 
z
" clip-path="url(#p68924ff47c)" style="fill: #1f77b4"/>
   </g>
   <g id="PatchCollection_2">
    <path d="M 81.005262 149.08275 
L 81.682407 138.671873 
L 83.358408 128.423058 
L 86.017126 118.435008 
L 89.632955 108.803913 
L 94.171073 99.622524 
L 99.587775 90.979265 
L 105.830896 82.957374 
L 112.84031 75.634106 
L 120.548514 69.079989 
L 128.881272 63.358143 
L 137.758337 58.523671 
L 147.094217 54.623133 
L 156.799002 51.694092 
L 166.779231 49.764758 
L 176.938787 48.85371 
L 187.17983 48.969722 
L 197.403731 50.111678 
L 207.51203 52.268579 
L 217.407377 55.419654 
L 226.994476 59.534556 
L 236.180998 64.573655 
L 244.87847 70.488424 
L 253.003132 77.221898 
L 260.476738 84.709232 
L 267.227315 92.878319 
L 273.189849 101.650484 
L 278.306919 110.941249 
L 282.529245 120.661136 
L 285.816162 130.71654 
L 288.136017 141.01062 
L 289.466468 151.444239 
L 289.794701 161.916916 
L 289.117556 172.327793 
L 287.441555 182.576607 
L 284.782837 192.564657 
L 281.167008 202.195753 
L 276.62889 211.377141 
L 271.212188 220.020401 
L 264.969067 228.042292 
L 257.959653 235.365559 
L 250.251449 241.919676 
L 241.918691 247.641523 
L 233.041626 252.475995 
L 223.705746 256.376533 
L 214.000961 259.305573 
L 204.020732 261.234908 
L 193.861176 262.145956 
L 183.620133 262.029943 
L 173.396232 260.887988 
L 163.287933 258.731086 
L 153.392586 255.580012 
L 143.805487 251.46511 
L 134.618965 246.42601 
L 125.921493 240.511242 
L 117.796831 233.777767 
L 110.323225 226.290433 
L 103.572648 218.121347 
L 97.610114 209.349181 
L 92.493044 200.058417 
L 88.270718 190.338529 
L 84.983801 180.283126 
L 82.663946 169.989046 
L 81.333495 159.555426 
z
" clip-path="url(#p68924ff47c)" style="fill: #ffff00"/>
   </g>
   <g id="PathCollection_1">
    <defs>
     <path id="mf6b975289d" d="M 0 3 
C 0.795609 3 1.55874 2.683901 2.12132 2.12132 
C 2.683901 1.55874 3 0.795609 3 0 
C 3 -0.795609 2.683901 -1.55874 2.12132 -2.12132 
C 1.55874 -2.683901 0.795609 -3 0 -3 
C -0.795609 -3 -1.55874 -2.683901 -2.12132 -2.12132 
C -2.683901 -1.55874 -3 -0.795609 -3 0 
C -3 0.795609 -2.683901 1.55874 -2.12132 2.12132 
C -1.55874 2.683901 -0.795609 3 0 3 
z
" style="stroke: #000000"/>
    </defs>
    <g clip-path="url(#p68924ff47c)">
     <use xlink:href="#mf6b975289d" x="120.1166" y="252.37614" style="stroke: #000000"/>
     <use xlink:href="#mf6b975289d" x="260.44646" y="71.116739" style="stroke: #000000"/>
     <use xlink:href="#mf6b975289d" x="216.593379" y="322.54107" style="stroke: #000000"/>
     <use xlink:href="#mf6b975289d" x="47.028132" y="231.911369" style="stroke: #000000"/>
     <use xlink:href="#mf6b975289d" x="87.957674" y="59.422584" style="stroke: #000000"/>
     <use xlink:href="#mf6b975289d" x="313.070157" y="182.211211" style="stroke: #000000"/>
     <use xlink:href="#mf6b975289d" x="204.899224" y="150.052284" style="stroke: #000000"/>
     <use xlink:href="#mf6b975289d" x="318.917235" y="316.693992" style="stroke: #000000"/>
     <use xlink:href="#mf6b975289d" x="140.581372" y="170.517056" style="stroke: #000000"/>
     <use xlink:href="#mf6b975289d" x="222.440456" y="316.693992" style="stroke: #000000"/>
     <use xlink:href="#mf6b975289d" x="318.917235" y="316.693992" style="stroke: #000000"/>
     <use xlink:href="#mf6b975289d" x="190.28153" y="91.58151" style="stroke: #000000"/>
     <use xlink:href="#mf6b975289d" x="260.44646" y="38.957812" style="stroke: #000000"/>
     <use xlink:href="#mf6b975289d" x="219.516918" y="217.293675" style="stroke: #000000"/>
     <use xlink:href="#mf6b975289d" x="169.816759" y="287.458605" style="stroke: #000000"/>
     <use xlink:href="#mf6b975289d" x="131.810755" y="123.740436" style="stroke: #000000"/>
     <use xlink:href="#mf6b975289d" x="234.134611" y="170.517056" style="stroke: #000000"/>
     <use xlink:href="#mf6b975289d" x="228.287534" y="258.223218" style="stroke: #000000"/>
     <use xlink:href="#mf6b975289d" x="163.969682" y="62.346122" style="stroke: #000000"/>
     <use xlink:href="#mf6b975289d" x="193.205069" y="322.54107" style="stroke: #000000"/>
     <use xlink:href="#mf6b975289d" x="321.840773" y="217.293675" style="stroke: #000000"/>
     <use xlink:href="#mf6b975289d" x="193.205069" y="220.217214" style="stroke: #000000"/>
     <use xlink:href="#mf6b975289d" x="272.140615" y="322.54107" style="stroke: #000000"/>
     <use xlink:href="#mf6b975289d" x="239.981689" y="155.899362" style="stroke: #000000"/>
     <use xlink:href="#mf6b975289d" x="196.128608" y="129.587513" style="stroke: #000000"/>
     <use xlink:href="#mf6b975289d" x="277.987692" y="307.923376" style="stroke: #000000"/>
     <use xlink:href="#mf6b975289d" x="93.804752" y="243.605524" style="stroke: #000000"/>
     <use xlink:href="#mf6b975289d" x="228.287534" y="258.223218" style="stroke: #000000"/>
     <use xlink:href="#mf6b975289d" x="204.899224" y="158.822901" style="stroke: #000000"/>
     <use xlink:href="#mf6b975289d" x="125.963678" y="255.299679" style="stroke: #000000"/>
     <use xlink:href="#mf6b975289d" x="163.969682" y="91.58151" style="stroke: #000000"/>
     <use xlink:href="#mf6b975289d" x="199.052146" y="249.452602" style="stroke: #000000"/>
     <use xlink:href="#mf6b975289d" x="70.416442" y="103.275665" style="stroke: #000000"/>
     <use xlink:href="#mf6b975289d" x="49.951671" y="202.675982" style="stroke: #000000"/>
     <use xlink:href="#mf6b975289d" x="76.263519" y="252.37614" style="stroke: #000000"/>
     <use xlink:href="#mf6b975289d" x="55.798748" y="313.770454" style="stroke: #000000"/>
     <use xlink:href="#mf6b975289d" x="269.217076" y="266.993834" style="stroke: #000000"/>
     <use xlink:href="#mf6b975289d" x="207.822763" y="188.058288" style="stroke: #000000"/>
     <use xlink:href="#mf6b975289d" x="231.211072" y="307.923376" style="stroke: #000000"/>
     <use xlink:href="#mf6b975289d" x="70.416442" y="307.923376" style="stroke: #000000"/>
     <use xlink:href="#mf6b975289d" x="114.269523" y="281.611528" style="stroke: #000000"/>
     <use xlink:href="#mf6b975289d" x="152.275527" y="182.211211" style="stroke: #000000"/>
     <use xlink:href="#mf6b975289d" x="260.44646" y="258.223218" style="stroke: #000000"/>
     <use xlink:href="#mf6b975289d" x="283.83477" y="155.899362" style="stroke: #000000"/>
     <use xlink:href="#mf6b975289d" x="137.657833" y="129.587513" style="stroke: #000000"/>
     <use xlink:href="#mf6b975289d" x="269.217076" y="328.388147" style="stroke: #000000"/>
     <use xlink:href="#mf6b975289d" x="117.193062" y="281.611528" style="stroke: #000000"/>
     <use xlink:href="#mf6b975289d" x="283.83477" y="313.770454" style="stroke: #000000"/>
     <use xlink:href="#mf6b975289d" x="313.070157" y="264.070295" style="stroke: #000000"/>
     <use xlink:href="#mf6b975289d" x="298.452463" y="316.693992" style="stroke: #000000"/>
    </g>
   </g>
   <g id="PathCollection_2">
    <path d="M 120.1166 263.777895 
C 123.140381 263.777895 126.040722 262.576534 128.178858 260.438398 
C 130.316994 258.300262 131.518355 255.399921 131.518355 252.37614 
C 131.518355 249.35236 130.316994 246.452018 128.178858 244.313883 
C 126.040722 242.175747 123.140381 240.974386 120.1166 240.974386 
C 117.09282 240.974386 114.192478 242.175747 112.054343 244.313883 
C 109.916207 246.452018 108.714846 249.35236 108.714846 252.37614 
C 108.714846 255.399921 109.916207 258.300262 112.054343 260.438398 
C 114.192478 262.576534 117.09282 263.777895 120.1166 263.777895 
z
" clip-path="url(#p68924ff47c)" style="fill: #6495ed; fill-opacity: 0.6; stroke: #000000; stroke-opacity: 0.6"/>
    <path d="M 260.44646 92.092916 
C 266.009407 92.092916 271.345259 89.882733 275.278857 85.949136 
C 279.212454 82.015538 281.422637 76.679686 281.422637 71.116739 
C 281.422637 65.553791 279.212454 60.217939 275.278857 56.284342 
C 271.345259 52.350744 266.009407 50.140562 260.44646 50.140562 
C 254.883513 50.140562 249.547661 52.350744 245.614063 56.284342 
C 241.680465 60.217939 239.470283 65.553791 239.470283 71.116739 
C 239.470283 76.679686 241.680465 82.015538 245.614063 85.949136 
C 249.547661 89.882733 254.883513 92.092916 260.44646 92.092916 
z
" clip-path="url(#p68924ff47c)" style="fill: #6495ed; fill-opacity: 0.6; stroke: #000000; stroke-opacity: 0.6"/>
    <path d="M 216.593379 325.703348 
C 217.432025 325.703348 218.236435 325.37015 218.829447 324.777138 
C 219.422459 324.184126 219.755656 323.379716 219.755656 322.54107 
C 219.755656 321.702424 219.422459 320.898014 218.829447 320.305002 
C 218.236435 319.71199 217.432025 319.378792 216.593379 319.378792 
C 215.754733 319.378792 214.950323 319.71199 214.357311 320.305002 
C 213.764299 320.898014 213.431101 321.702424 213.431101 322.54107 
C 213.431101 323.379716 213.764299 324.184126 214.357311 324.777138 
C 214.950323 325.37015 215.754733 325.703348 216.593379 325.703348 
z
" clip-path="url(#p68924ff47c)" style="fill: #6495ed; fill-opacity: 0.6; stroke: #000000; stroke-opacity: 0.6"/>
    <path d="M 47.028132 244.756602 
C 50.434728 244.756602 53.702256 243.403147 56.111083 240.99432 
C 58.51991 238.585493 59.873365 235.317965 59.873365 231.911369 
C 59.873365 228.504774 58.51991 225.237245 56.111083 222.828418 
C 53.702256 220.419591 50.434728 219.066137 47.028132 219.066137 
C 43.621537 219.066137 40.354008 220.419591 37.945181 222.828418 
C 35.536354 225.237245 34.182899 228.504774 34.182899 231.911369 
C 34.182899 235.317965 35.536354 238.585493 37.945181 240.99432 
C 40.354008 243.403147 43.621537 244.756602 47.028132 244.756602 
z
" clip-path="url(#p68924ff47c)" style="fill: #6495ed; fill-opacity: 0.6; stroke: #000000; stroke-opacity: 0.6"/>
    <path d="M 87.957674 80.870194 
C 93.645647 80.870194 99.101421 78.610339 103.123425 74.588335 
C 107.145429 70.56633 109.405285 65.110556 109.405285 59.422584 
C 109.405285 53.734611 107.145429 48.278837 103.123425 44.256833 
C 99.101421 40.234829 93.645647 37.974973 87.957674 37.974973 
C 82.269702 37.974973 76.813928 40.234829 72.791923 44.256833 
C 68.769919 48.278837 66.510064 53.734611 66.510064 59.422584 
C 66.510064 65.110556 68.769919 70.56633 72.791923 74.588335 
C 76.813928 78.610339 82.269702 80.870194 87.957674 80.870194 
z
" clip-path="url(#p68924ff47c)" style="fill: #6495ed; fill-opacity: 0.6; stroke: #000000; stroke-opacity: 0.6"/>
    <path d="M 313.070157 198.022599 
C 317.263386 198.022599 321.285436 196.356611 324.250497 193.39155 
C 327.215558 190.42649 328.881545 186.40444 328.881545 182.211211 
C 328.881545 178.017981 327.215558 173.995931 324.250497 171.030871 
C 321.285436 168.06581 317.263386 166.399822 313.070157 166.399822 
C 308.876928 166.399822 304.854878 168.06581 301.889817 171.030871 
C 298.924756 173.995931 297.258769 178.017981 297.258769 182.211211 
C 297.258769 186.40444 298.924756 190.42649 301.889817 193.39155 
C 304.854878 196.356611 308.876928 198.022599 313.070157 198.022599 
z
" clip-path="url(#p68924ff47c)" style="fill: #6495ed; fill-opacity: 0.6; stroke: #000000; stroke-opacity: 0.6"/>
    <path d="M 204.899224 167.516534 
C 209.530797 167.516534 213.973296 165.67639 217.248313 162.401374 
C 220.52333 159.126357 222.363473 154.683858 222.363473 150.052284 
C 222.363473 145.420711 220.52333 140.978212 217.248313 137.703195 
C 213.973296 134.428179 209.530797 132.588035 204.899224 132.588035 
C 200.267651 132.588035 195.825151 134.428179 192.550135 137.703195 
C 189.275118 140.978212 187.434975 145.420711 187.434975 150.052284 
C 187.434975 154.683858 189.275118 159.126357 192.550135 162.401374 
C 195.825151 165.67639 200.267651 167.516534 204.899224 167.516534 
z
" clip-path="url(#p68924ff47c)" style="fill: #6495ed; fill-opacity: 0.6; stroke: #000000; stroke-opacity: 0.6"/>
    <path d="M 318.917235 321.166128 
C 320.103259 321.166128 321.240866 320.694916 322.079512 319.85627 
C 322.918158 319.017624 323.389371 317.880017 323.389371 316.693992 
C 323.389371 315.507968 322.918158 314.370361 322.079512 313.531715 
C 321.240866 312.693069 320.103259 312.221857 318.917235 312.221857 
C 317.73121 312.221857 316.593603 312.693069 315.754957 313.531715 
C 314.916311 314.370361 314.445099 315.507968 314.445099 316.693992 
C 314.445099 317.880017 314.916311 319.017624 315.754957 319.85627 
C 316.593603 320.694916 317.73121 321.166128 318.917235 321.166128 
z
" clip-path="url(#p68924ff47c)" style="fill: #6495ed; fill-opacity: 0.6; stroke: #000000; stroke-opacity: 0.6"/>
    <path d="M 140.581372 186.948732 
C 144.939103 186.948732 149.11894 185.217387 152.200322 182.136006 
C 155.281703 179.054624 157.013048 174.874787 157.013048 170.517056 
C 157.013048 166.159324 155.281703 161.979487 152.200322 158.898106 
C 149.11894 155.816724 144.939103 154.085379 140.581372 154.085379 
C 136.22364 154.085379 132.043803 155.816724 128.962422 158.898106 
C 125.88104 161.979487 124.149695 166.159324 124.149695 170.517056 
C 124.149695 174.874787 125.88104 179.054624 128.962422 182.136006 
C 132.043803 185.217387 136.22364 186.948732 140.581372 186.948732 
z
" clip-path="url(#p68924ff47c)" style="fill: #6495ed; fill-opacity: 0.6; stroke: #000000; stroke-opacity: 0.6"/>
    <path d="M 222.440456 321.166128 
C 223.626481 321.166128 224.764088 320.694916 225.602734 319.85627 
C 226.44138 319.017624 226.912592 317.880017 226.912592 316.693992 
C 226.912592 315.507968 226.44138 314.370361 225.602734 313.531715 
C 224.764088 312.693069 223.626481 312.221857 222.440456 312.221857 
C 221.254432 312.221857 220.116824 312.693069 219.278179 313.531715 
C 218.439533 314.370361 217.96832 315.507968 217.96832 316.693992 
C 217.96832 317.880017 218.439533 319.017624 219.278179 319.85627 
C 220.116824 320.694916 221.254432 321.166128 222.440456 321.166128 
z
" clip-path="url(#p68924ff47c)" style="fill: #6495ed; fill-opacity: 0.6; stroke: #000000; stroke-opacity: 0.6"/>
    <path d="M 318.917235 321.166128 
C 320.103259 321.166128 321.240866 320.694916 322.079512 319.85627 
C 322.918158 319.017624 323.389371 317.880017 323.389371 316.693992 
C 323.389371 315.507968 322.918158 314.370361 322.079512 313.531715 
C 321.240866 312.693069 320.103259 312.221857 318.917235 312.221857 
C 317.73121 312.221857 316.593603 312.693069 315.754957 313.531715 
C 314.916311 314.370361 314.445099 315.507968 314.445099 316.693992 
C 314.445099 317.880017 314.916311 319.017624 315.754957 319.85627 
C 316.593603 320.694916 317.73121 321.166128 318.917235 321.166128 
z
" clip-path="url(#p68924ff47c)" style="fill: #6495ed; fill-opacity: 0.6; stroke: #000000; stroke-opacity: 0.6"/>
    <path d="M 190.28153 111.706122 
C 195.61864 111.706122 200.737873 109.585666 204.51178 105.811759 
C 208.285686 102.037853 210.406142 96.918619 210.406142 91.58151 
C 210.406142 86.2444 208.285686 81.125167 204.51178 77.35126 
C 200.737873 73.577354 195.61864 71.456898 190.28153 71.456898 
C 184.944421 71.456898 179.825187 73.577354 176.051281 77.35126 
C 172.277374 81.125167 170.156918 86.2444 170.156918 91.58151 
C 170.156918 96.918619 172.277374 102.037853 176.051281 105.811759 
C 179.825187 109.585666 184.944421 111.706122 190.28153 111.706122 
z
" clip-path="url(#p68924ff47c)" style="fill: #6495ed; fill-opacity: 0.6; stroke: #000000; stroke-opacity: 0.6"/>
    <path d="M 260.44646 61.206408 
C 266.346856 61.206408 272.006382 58.862156 276.178593 54.689945 
C 280.350803 50.517735 282.695055 44.858209 282.695055 38.957812 
C 282.695055 33.057416 280.350803 27.39789 276.178593 23.22568 
C 272.006382 19.053469 266.346856 16.709217 260.44646 16.709217 
C 254.546063 16.709217 248.886537 19.053469 244.714327 23.22568 
C 240.542117 27.39789 238.197864 33.057416 238.197864 38.957812 
C 238.197864 44.858209 240.542117 50.517735 244.714327 54.689945 
C 248.886537 58.862156 254.546063 61.206408 260.44646 61.206408 
z
" clip-path="url(#p68924ff47c)" style="fill: #6495ed; fill-opacity: 0.6; stroke: #000000; stroke-opacity: 0.6"/>
    <path d="M 219.516918 231.077724 
C 223.17249 231.077724 226.678832 229.62535 229.263712 227.04047 
C 231.848592 224.45559 233.300966 220.949248 233.300966 217.293675 
C 233.300966 213.638103 231.848592 210.131761 229.263712 207.546881 
C 226.678832 204.962001 223.17249 203.509627 219.516918 203.509627 
C 215.861345 203.509627 212.355003 204.962001 209.770123 207.546881 
C 207.185243 210.131761 205.732869 213.638103 205.732869 217.293675 
C 205.732869 220.949248 207.185243 224.45559 209.770123 227.04047 
C 212.355003 229.62535 215.861345 231.077724 219.516918 231.077724 
z
" clip-path="url(#p68924ff47c)" style="fill: #6495ed; fill-opacity: 0.6; stroke: #000000; stroke-opacity: 0.6"/>
    <path d="M 169.816759 295.825205 
C 172.035607 295.825205 174.163876 294.943648 175.732839 293.374685 
C 177.301801 291.805722 178.183359 289.677453 178.183359 287.458605 
C 178.183359 285.239757 177.301801 283.111488 175.732839 281.542525 
C 174.163876 279.973563 172.035607 279.092005 169.816759 279.092005 
C 167.597911 279.092005 165.469642 279.973563 163.900679 281.542525 
C 162.331717 283.111488 161.450159 285.239757 161.450159 287.458605 
C 161.450159 289.677453 162.331717 291.805722 163.900679 293.374685 
C 165.469642 294.943648 167.597911 295.825205 169.816759 295.825205 
z
" clip-path="url(#p68924ff47c)" style="fill: #6495ed; fill-opacity: 0.6; stroke: #000000; stroke-opacity: 0.6"/>
    <path d="M 131.810755 142.448723 
C 136.772251 142.448723 141.531205 140.4775 145.039512 136.969192 
C 148.547819 133.460885 150.519042 128.701932 150.519042 123.740436 
C 150.519042 118.77894 148.547819 114.019987 145.039512 110.511679 
C 141.531205 107.003372 136.772251 105.032149 131.810755 105.032149 
C 126.84926 105.032149 122.090306 107.003372 118.581999 110.511679 
C 115.073692 114.019987 113.102468 118.77894 113.102468 123.740436 
C 113.102468 128.701932 115.073692 133.460885 118.581999 136.969192 
C 122.090306 140.4775 126.84926 142.448723 131.810755 142.448723 
z
" clip-path="url(#p68924ff47c)" style="fill: #6495ed; fill-opacity: 0.6; stroke: #000000; stroke-opacity: 0.6"/>
    <path d="M 234.134611 186.948732 
C 238.492343 186.948732 242.67218 185.217387 245.753561 182.136006 
C 248.834943 179.054624 250.566288 174.874787 250.566288 170.517056 
C 250.566288 166.159324 248.834943 161.979487 245.753561 158.898106 
C 242.67218 155.816724 238.492343 154.085379 234.134611 154.085379 
C 229.77688 154.085379 225.597043 155.816724 222.515661 158.898106 
C 219.43428 161.979487 217.702934 166.159324 217.702934 170.517056 
C 217.702934 174.874787 219.43428 179.054624 222.515661 182.136006 
C 225.597043 185.217387 229.77688 186.948732 234.134611 186.948732 
z
" clip-path="url(#p68924ff47c)" style="fill: #6495ed; fill-opacity: 0.6; stroke: #000000; stroke-opacity: 0.6"/>
    <path d="M 228.287534 269.177669 
C 231.192688 269.177669 233.979246 268.023439 236.0335 265.969184 
C 238.087755 263.91493 239.241985 261.128372 239.241985 258.223218 
C 239.241985 255.318063 238.087755 252.531505 236.0335 250.477251 
C 233.979246 248.422997 231.192688 247.268767 228.287534 247.268767 
C 225.382379 247.268767 222.595821 248.422997 220.541567 250.477251 
C 218.487313 252.531505 217.333083 255.318063 217.333083 258.223218 
C 217.333083 261.128372 218.487313 263.91493 220.541567 265.969184 
C 222.595821 268.023439 225.382379 269.177669 228.287534 269.177669 
z
" clip-path="url(#p68924ff47c)" style="fill: #6495ed; fill-opacity: 0.6; stroke: #000000; stroke-opacity: 0.6"/>
    <path d="M 163.969682 83.676851 
C 169.626657 83.676851 175.052699 81.429311 179.052785 77.429226 
C 183.05287 73.42914 185.300411 68.003098 185.300411 62.346122 
C 185.300411 56.689147 183.05287 51.263105 179.052785 47.263019 
C 175.052699 43.262934 169.626657 41.015393 163.969682 41.015393 
C 158.312706 41.015393 152.886664 43.262934 148.886578 47.263019 
C 144.886493 51.263105 142.638953 56.689147 142.638953 62.346122 
C 142.638953 68.003098 144.886493 73.42914 148.886578 77.429226 
C 152.886664 81.429311 158.312706 83.676851 163.969682 83.676851 
z
" clip-path="url(#p68924ff47c)" style="fill: #6495ed; fill-opacity: 0.6; stroke: #000000; stroke-opacity: 0.6"/>
    <path d="M 193.205069 325.703348 
C 194.043715 325.703348 194.848125 325.37015 195.441137 324.777138 
C 196.034149 324.184126 196.367347 323.379716 196.367347 322.54107 
C 196.367347 321.702424 196.034149 320.898014 195.441137 320.305002 
C 194.848125 319.71199 194.043715 319.378792 193.205069 319.378792 
C 192.366423 319.378792 191.562013 319.71199 190.969001 320.305002 
C 190.375989 320.898014 190.042791 321.702424 190.042791 322.54107 
C 190.042791 323.379716 190.375989 324.184126 190.969001 324.777138 
C 191.562013 325.37015 192.366423 325.703348 193.205069 325.703348 
z
" clip-path="url(#p68924ff47c)" style="fill: #6495ed; fill-opacity: 0.6; stroke: #000000; stroke-opacity: 0.6"/>
    <path d="M 321.840773 231.077724 
C 325.496346 231.077724 329.002688 229.62535 331.587568 227.04047 
C 334.172448 224.45559 335.624822 220.949248 335.624822 217.293675 
C 335.624822 213.638103 334.172448 210.131761 331.587568 207.546881 
C 329.002688 204.962001 325.496346 203.509627 321.840773 203.509627 
C 318.185201 203.509627 314.678859 204.962001 312.093979 207.546881 
C 309.509099 210.131761 308.056725 213.638103 308.056725 217.293675 
C 308.056725 220.949248 309.509099 224.45559 312.093979 227.04047 
C 314.678859 229.62535 318.185201 231.077724 321.840773 231.077724 
z
" clip-path="url(#p68924ff47c)" style="fill: #6495ed; fill-opacity: 0.6; stroke: #000000; stroke-opacity: 0.6"/>
    <path d="M 193.205069 233.818685 
C 196.812221 233.818685 200.272119 232.385548 202.822761 229.834906 
C 205.373403 227.284264 206.806539 223.824366 206.806539 220.217214 
C 206.806539 216.610062 205.373403 213.150164 202.822761 210.599522 
C 200.272119 208.04888 196.812221 206.615744 193.205069 206.615744 
C 189.597917 206.615744 186.138019 208.04888 183.587377 210.599522 
C 181.036735 213.150164 179.603598 216.610062 179.603598 220.217214 
C 179.603598 223.824366 181.036735 227.284264 183.587377 229.834906 
C 186.138019 232.385548 189.597917 233.818685 193.205069 233.818685 
z
" clip-path="url(#p68924ff47c)" style="fill: #6495ed; fill-opacity: 0.6; stroke: #000000; stroke-opacity: 0.6"/>
    <path d="M 272.140615 325.703348 
C 272.979261 325.703348 273.783671 325.37015 274.376683 324.777138 
C 274.969695 324.184126 275.302892 323.379716 275.302892 322.54107 
C 275.302892 321.702424 274.969695 320.898014 274.376683 320.305002 
C 273.783671 319.71199 272.979261 319.378792 272.140615 319.378792 
C 271.301969 319.378792 270.497559 319.71199 269.904547 320.305002 
C 269.311535 320.898014 268.978337 321.702424 268.978337 322.54107 
C 268.978337 323.379716 269.311535 324.184126 269.904547 324.777138 
C 270.497559 325.37015 271.301969 325.703348 272.140615 325.703348 
z
" clip-path="url(#p68924ff47c)" style="fill: #6495ed; fill-opacity: 0.6; stroke: #000000; stroke-opacity: 0.6"/>
    <path d="M 239.981689 173.074926 
C 244.536701 173.074926 248.905766 171.2652 252.126646 168.04432 
C 255.347527 164.823439 257.157253 160.454375 257.157253 155.899362 
C 257.157253 151.344349 255.347527 146.975285 252.126646 143.754404 
C 248.905766 140.533524 244.536701 138.723798 239.981689 138.723798 
C 235.426676 138.723798 231.057611 140.533524 227.836731 143.754404 
C 224.61585 146.975285 222.806125 151.344349 222.806125 155.899362 
C 222.806125 160.454375 224.61585 164.823439 227.836731 168.04432 
C 231.057611 171.2652 235.426676 173.074926 239.981689 173.074926 
z
" clip-path="url(#p68924ff47c)" style="fill: #6495ed; fill-opacity: 0.6; stroke: #000000; stroke-opacity: 0.6"/>
    <path d="M 196.128608 148.026602 
C 201.018711 148.026602 205.709187 146.083744 209.167012 142.625918 
C 212.624838 139.168093 214.567697 134.477617 214.567697 129.587513 
C 214.567697 124.69741 212.624838 120.006934 209.167012 116.549109 
C 205.709187 113.091283 201.018711 111.148424 196.128608 111.148424 
C 191.238504 111.148424 186.548028 113.091283 183.090203 116.549109 
C 179.632377 120.006934 177.689519 124.69741 177.689519 129.587513 
C 177.689519 134.477617 179.632377 139.168093 183.090203 142.625918 
C 186.548028 146.083744 191.238504 148.026602 196.128608 148.026602 
z
" clip-path="url(#p68924ff47c)" style="fill: #6495ed; fill-opacity: 0.6; stroke: #000000; stroke-opacity: 0.6"/>
    <path d="M 277.987692 313.839456 
C 279.556655 313.839456 281.061568 313.216101 282.170992 312.106676 
C 283.280417 310.997252 283.903772 309.492339 283.903772 307.923376 
C 283.903772 306.354414 283.280417 304.8495 282.170992 303.740076 
C 281.061568 302.630652 279.556655 302.007296 277.987692 302.007296 
C 276.41873 302.007296 274.913816 302.630652 273.804392 303.740076 
C 272.694968 304.8495 272.071612 306.354414 272.071612 307.923376 
C 272.071612 309.492339 272.694968 310.997252 273.804392 312.106676 
C 274.913816 313.216101 276.41873 313.839456 277.987692 313.839456 
z
" clip-path="url(#p68924ff47c)" style="fill: #6495ed; fill-opacity: 0.6; stroke: #000000; stroke-opacity: 0.6"/>
    <path d="M 93.804752 255.647119 
C 96.99822 255.647119 100.061322 254.37834 102.319445 252.120217 
C 104.577568 249.862094 105.846346 246.798992 105.846346 243.605524 
C 105.846346 240.412056 104.577568 237.348954 102.319445 235.090831 
C 100.061322 232.832708 96.99822 231.563929 93.804752 231.563929 
C 90.611284 231.563929 87.548182 232.832708 85.290059 235.090831 
C 83.031936 237.348954 81.763157 240.412056 81.763157 243.605524 
C 81.763157 246.798992 83.031936 249.862094 85.290059 252.120217 
C 87.548182 254.37834 90.611284 255.647119 93.804752 255.647119 
z
" clip-path="url(#p68924ff47c)" style="fill: #6495ed; fill-opacity: 0.6; stroke: #000000; stroke-opacity: 0.6"/>
    <path d="M 228.287534 269.177669 
C 231.192688 269.177669 233.979246 268.023439 236.0335 265.969184 
C 238.087755 263.91493 239.241985 261.128372 239.241985 258.223218 
C 239.241985 255.318063 238.087755 252.531505 236.0335 250.477251 
C 233.979246 248.422997 231.192688 247.268767 228.287534 247.268767 
C 225.382379 247.268767 222.595821 248.422997 220.541567 250.477251 
C 218.487313 252.531505 217.333083 255.318063 217.333083 258.223218 
C 217.333083 261.128372 218.487313 263.91493 220.541567 265.969184 
C 222.595821 268.023439 225.382379 269.177669 228.287534 269.177669 
z
" clip-path="url(#p68924ff47c)" style="fill: #6495ed; fill-opacity: 0.6; stroke: #000000; stroke-opacity: 0.6"/>
    <path d="M 204.899224 175.852287 
C 209.41547 175.852287 213.74735 174.057963 216.940818 170.864495 
C 220.134287 167.671027 221.92861 163.339147 221.92861 158.822901 
C 221.92861 154.306655 220.134287 149.974774 216.940818 146.781306 
C 213.74735 143.587838 209.41547 141.793514 204.899224 141.793514 
C 200.382978 141.793514 196.051097 143.587838 192.857629 146.781306 
C 189.664161 149.974774 187.869837 154.306655 187.869837 158.822901 
C 187.869837 163.339147 189.664161 167.671027 192.857629 170.864495 
C 196.051097 174.057963 200.382978 175.852287 204.899224 175.852287 
z
" clip-path="url(#p68924ff47c)" style="fill: #6495ed; fill-opacity: 0.6; stroke: #000000; stroke-opacity: 0.6"/>
    <path d="M 125.963678 266.480019 
C 128.928739 266.480019 131.772757 265.301988 133.869372 263.205373 
C 135.965987 261.108759 137.144018 258.26474 137.144018 255.299679 
C 137.144018 252.334618 135.965987 249.490599 133.869372 247.393985 
C 131.772757 245.29737 128.928739 244.119339 125.963678 244.119339 
C 122.998617 244.119339 120.154598 245.29737 118.057984 247.393985 
C 115.961369 249.490599 114.783338 252.334618 114.783338 255.299679 
C 114.783338 258.26474 115.961369 261.108759 118.057984 263.205373 
C 120.154598 265.301988 122.998617 266.480019 125.963678 266.480019 
z
" clip-path="url(#p68924ff47c)" style="fill: #6495ed; fill-opacity: 0.6; stroke: #000000; stroke-opacity: 0.6"/>
    <path d="M 163.969682 111.706122 
C 169.306791 111.706122 174.426025 109.585666 178.199931 105.811759 
C 181.973837 102.037853 184.094293 96.918619 184.094293 91.58151 
C 184.094293 86.2444 181.973837 81.125167 178.199931 77.35126 
C 174.426025 73.577354 169.306791 71.456898 163.969682 71.456898 
C 158.632572 71.456898 153.513338 73.577354 149.739432 77.35126 
C 145.965526 81.125167 143.84507 86.2444 143.84507 91.58151 
C 143.84507 96.918619 145.965526 102.037853 149.739432 105.811759 
C 153.513338 109.585666 158.632572 111.706122 163.969682 111.706122 
z
" clip-path="url(#p68924ff47c)" style="fill: #6495ed; fill-opacity: 0.6; stroke: #000000; stroke-opacity: 0.6"/>
    <path d="M 199.052146 261.071552 
C 202.133528 261.071552 205.089119 259.847306 207.267985 257.66844 
C 209.446851 255.489574 210.671096 252.533983 210.671096 249.452602 
C 210.671096 246.37122 209.446851 243.415629 207.267985 241.236763 
C 205.089119 239.057897 202.133528 237.833651 199.052146 237.833651 
C 195.970765 237.833651 193.015174 239.057897 190.836308 241.236763 
C 188.657442 243.415629 187.433196 246.37122 187.433196 249.452602 
C 187.433196 252.533983 188.657442 255.489574 190.836308 257.66844 
C 193.015174 259.847306 195.970765 261.071552 199.052146 261.071552 
z
" clip-path="url(#p68924ff47c)" style="fill: #6495ed; fill-opacity: 0.6; stroke: #000000; stroke-opacity: 0.6"/>
    <path d="M 70.416442 122.897082 
C 75.620103 122.897082 80.611335 120.829645 84.290879 117.150102 
C 87.970423 113.470558 90.037859 108.479325 90.037859 103.275665 
C 90.037859 98.072004 87.970423 93.080771 84.290879 89.401228 
C 80.611335 85.721684 75.620103 83.654248 70.416442 83.654248 
C 65.212781 83.654248 60.221549 85.721684 56.542005 89.401228 
C 52.862461 93.080771 50.795025 98.072004 50.795025 103.275665 
C 50.795025 108.479325 52.862461 113.470558 56.542005 117.150102 
C 60.221549 120.829645 65.212781 122.897082 70.416442 122.897082 
z
" clip-path="url(#p68924ff47c)" style="fill: #6495ed; fill-opacity: 0.6; stroke: #000000; stroke-opacity: 0.6"/>
    <path d="M 49.951671 217.33886 
C 53.840312 217.33886 57.570207 215.793887 60.319891 213.044202 
C 63.069576 210.294518 64.614549 206.564623 64.614549 202.675982 
C 64.614549 198.787341 63.069576 195.057445 60.319891 192.307761 
C 57.570207 189.558077 53.840312 188.013103 49.951671 188.013103 
C 46.06303 188.013103 42.333134 189.558077 39.58345 192.307761 
C 36.833766 195.057445 35.288792 198.787341 35.288792 202.675982 
C 35.288792 206.564623 36.833766 210.294518 39.58345 213.044202 
C 42.333134 215.793887 46.06303 217.33886 49.951671 217.33886 
z
" clip-path="url(#p68924ff47c)" style="fill: #6495ed; fill-opacity: 0.6; stroke: #000000; stroke-opacity: 0.6"/>
    <path d="M 76.263519 263.777895 
C 79.2873 263.777895 82.187641 262.576534 84.325777 260.438398 
C 86.463913 258.300262 87.665274 255.399921 87.665274 252.37614 
C 87.665274 249.35236 86.463913 246.452018 84.325777 244.313883 
C 82.187641 242.175747 79.2873 240.974386 76.263519 240.974386 
C 73.239739 240.974386 70.339397 242.175747 68.201262 244.313883 
C 66.063126 246.452018 64.861765 249.35236 64.861765 252.37614 
C 64.861765 255.399921 66.063126 258.300262 68.201262 260.438398 
C 70.339397 262.576534 73.239739 263.777895 76.263519 263.777895 
z
" clip-path="url(#p68924ff47c)" style="fill: #6495ed; fill-opacity: 0.6; stroke: #000000; stroke-opacity: 0.6"/>
    <path d="M 55.798748 318.770454 
C 57.124764 318.770454 58.396648 318.243622 59.334282 317.305988 
C 60.271917 316.368353 60.798748 315.096469 60.798748 313.770454 
C 60.798748 312.444438 60.271917 311.172554 59.334282 310.23492 
C 58.396648 309.297285 57.124764 308.770454 55.798748 308.770454 
C 54.472733 308.770454 53.200849 309.297285 52.263214 310.23492 
C 51.32558 311.172554 50.798748 312.444438 50.798748 313.770454 
C 50.798748 315.096469 51.32558 316.368353 52.263214 317.305988 
C 53.200849 318.243622 54.472733 318.770454 55.798748 318.770454 
z
" clip-path="url(#p68924ff47c)" style="fill: #6495ed; fill-opacity: 0.6; stroke: #000000; stroke-opacity: 0.6"/>
    <path d="M 269.217076 277.240785 
C 271.934599 277.240785 274.541185 276.161101 276.462764 274.239522 
C 278.384343 272.317943 279.464027 269.711357 279.464027 266.993834 
C 279.464027 264.276311 278.384343 261.669725 276.462764 259.748146 
C 274.541185 257.826567 271.934599 256.746883 269.217076 256.746883 
C 266.499553 256.746883 263.892967 257.826567 261.971388 259.748146 
C 260.049809 261.669725 258.970125 264.276311 258.970125 266.993834 
C 258.970125 269.711357 260.049809 272.317943 261.971388 274.239522 
C 263.892967 276.161101 266.499553 277.240785 269.217076 277.240785 
z
" clip-path="url(#p68924ff47c)" style="fill: #6495ed; fill-opacity: 0.6; stroke: #000000; stroke-opacity: 0.6"/>
    <path d="M 207.822763 203.550221 
C 211.931271 203.550221 215.872059 201.917894 218.777214 199.012739 
C 221.682368 196.107585 223.314696 192.166797 223.314696 188.058288 
C 223.314696 183.949779 221.682368 180.008991 218.777214 177.103837 
C 215.872059 174.198683 211.931271 172.566355 207.822763 172.566355 
C 203.714254 172.566355 199.773466 174.198683 196.868311 177.103837 
C 193.963157 180.008991 192.330829 183.949779 192.330829 188.058288 
C 192.330829 192.166797 193.963157 196.107585 196.868311 199.012739 
C 199.773466 201.917894 203.714254 203.550221 207.822763 203.550221 
z
" clip-path="url(#p68924ff47c)" style="fill: #6495ed; fill-opacity: 0.6; stroke: #000000; stroke-opacity: 0.6"/>
    <path d="M 231.211072 313.839456 
C 232.780035 313.839456 234.284948 313.216101 235.394373 312.106676 
C 236.503797 310.997252 237.127152 309.492339 237.127152 307.923376 
C 237.127152 306.354414 236.503797 304.8495 235.394373 303.740076 
C 234.284948 302.630652 232.780035 302.007296 231.211072 302.007296 
C 229.64211 302.007296 228.137196 302.630652 227.027772 303.740076 
C 225.918348 304.8495 225.294993 306.354414 225.294993 307.923376 
C 225.294993 309.492339 225.918348 310.997252 227.027772 312.106676 
C 228.137196 313.216101 229.64211 313.839456 231.211072 313.839456 
z
" clip-path="url(#p68924ff47c)" style="fill: #6495ed; fill-opacity: 0.6; stroke: #000000; stroke-opacity: 0.6"/>
    <path d="M 70.416442 313.839456 
C 71.985405 313.839456 73.490318 313.216101 74.599742 312.106676 
C 75.709166 310.997252 76.332522 309.492339 76.332522 307.923376 
C 76.332522 306.354414 75.709166 304.8495 74.599742 303.740076 
C 73.490318 302.630652 71.985405 302.007296 70.416442 302.007296 
C 68.847479 302.007296 67.342566 302.630652 66.233142 303.740076 
C 65.123718 304.8495 64.500362 306.354414 64.500362 307.923376 
C 64.500362 309.492339 65.123718 310.997252 66.233142 312.106676 
C 67.342566 313.216101 68.847479 313.839456 70.416442 313.839456 
z
" clip-path="url(#p68924ff47c)" style="fill: #6495ed; fill-opacity: 0.6; stroke: #000000; stroke-opacity: 0.6"/>
    <path d="M 114.269523 290.5558 
C 116.641572 290.5558 118.916787 289.613375 120.594078 287.936083 
C 122.27137 286.258791 123.213795 283.983576 123.213795 281.611528 
C 123.213795 279.239479 122.27137 276.964264 120.594078 275.286972 
C 118.916787 273.609681 116.641572 272.667256 114.269523 272.667256 
C 111.897474 272.667256 109.622259 273.609681 107.944968 275.286972 
C 106.267676 276.964264 105.325251 279.239479 105.325251 281.611528 
C 105.325251 283.983576 106.267676 286.258791 107.944968 287.936083 
C 109.622259 289.613375 111.897474 290.5558 114.269523 290.5558 
z
" clip-path="url(#p68924ff47c)" style="fill: #6495ed; fill-opacity: 0.6; stroke: #000000; stroke-opacity: 0.6"/>
    <path d="M 152.275527 198.022599 
C 156.468756 198.022599 160.490806 196.356611 163.455866 193.39155 
C 166.420927 190.42649 168.086915 186.40444 168.086915 182.211211 
C 168.086915 178.017981 166.420927 173.995931 163.455866 171.030871 
C 160.490806 168.06581 156.468756 166.399822 152.275527 166.399822 
C 148.082297 166.399822 144.060247 168.06581 141.095187 171.030871 
C 138.130126 173.995931 136.464138 178.017981 136.464138 182.211211 
C 136.464138 186.40444 138.130126 190.42649 141.095187 193.39155 
C 144.060247 196.356611 148.082297 198.022599 152.275527 198.022599 
z
" clip-path="url(#p68924ff47c)" style="fill: #6495ed; fill-opacity: 0.6; stroke: #000000; stroke-opacity: 0.6"/>
    <path d="M 260.44646 269.177669 
C 263.351614 269.177669 266.138172 268.023439 268.192427 265.969184 
C 270.246681 263.91493 271.400911 261.128372 271.400911 258.223218 
C 271.400911 255.318063 270.246681 252.531505 268.192427 250.477251 
C 266.138172 248.422997 263.351614 247.268767 260.44646 247.268767 
C 257.541305 247.268767 254.754748 248.422997 252.700493 250.477251 
C 250.646239 252.531505 249.492009 255.318063 249.492009 258.223218 
C 249.492009 261.128372 250.646239 263.91493 252.700493 265.969184 
C 254.754748 268.023439 257.541305 269.177669 260.44646 269.177669 
z
" clip-path="url(#p68924ff47c)" style="fill: #6495ed; fill-opacity: 0.6; stroke: #000000; stroke-opacity: 0.6"/>
    <path d="M 283.83477 173.074926 
C 288.389783 173.074926 292.758847 171.2652 295.979728 168.04432 
C 299.200608 164.823439 301.010334 160.454375 301.010334 155.899362 
C 301.010334 151.344349 299.200608 146.975285 295.979728 143.754404 
C 292.758847 140.533524 288.389783 138.723798 283.83477 138.723798 
C 279.279757 138.723798 274.910692 140.533524 271.689812 143.754404 
C 268.468931 146.975285 266.659206 151.344349 266.659206 155.899362 
C 266.659206 160.454375 268.468931 164.823439 271.689812 168.04432 
C 274.910692 171.2652 279.279757 173.074926 283.83477 173.074926 
z
" clip-path="url(#p68924ff47c)" style="fill: #6495ed; fill-opacity: 0.6; stroke: #000000; stroke-opacity: 0.6"/>
    <path d="M 137.657833 148.026602 
C 142.547936 148.026602 147.238412 146.083744 150.696238 142.625918 
C 154.154063 139.168093 156.096922 134.477617 156.096922 129.587513 
C 156.096922 124.69741 154.154063 120.006934 150.696238 116.549109 
C 147.238412 113.091283 142.547936 111.148424 137.657833 111.148424 
C 132.767729 111.148424 128.077253 113.091283 124.619428 116.549109 
C 121.161603 120.006934 119.218744 124.69741 119.218744 129.587513 
C 119.218744 134.477617 121.161603 139.168093 124.619428 142.625918 
C 128.077253 146.083744 132.767729 148.026602 137.657833 148.026602 
z
" clip-path="url(#p68924ff47c)" style="fill: #6495ed; fill-opacity: 0.6; stroke: #000000; stroke-opacity: 0.6"/>
    <path d="M 269.217076 328.388147 
C 269.217076 328.388147 269.217076 328.388147 269.217076 328.388147 
C 269.217076 328.388147 269.217076 328.388147 269.217076 328.388147 
C 269.217076 328.388147 269.217076 328.388147 269.217076 328.388147 
C 269.217076 328.388147 269.217076 328.388147 269.217076 328.388147 
C 269.217076 328.388147 269.217076 328.388147 269.217076 328.388147 
C 269.217076 328.388147 269.217076 328.388147 269.217076 328.388147 
C 269.217076 328.388147 269.217076 328.388147 269.217076 328.388147 
C 269.217076 328.388147 269.217076 328.388147 269.217076 328.388147 
z
" clip-path="url(#p68924ff47c)" style="fill: #6495ed; fill-opacity: 0.6; stroke: #000000; stroke-opacity: 0.6"/>
    <path d="M 117.193062 290.5558 
C 119.56511 290.5558 121.840325 289.613375 123.517617 287.936083 
C 125.194909 286.258791 126.137334 283.983576 126.137334 281.611528 
C 126.137334 279.239479 125.194909 276.964264 123.517617 275.286972 
C 121.840325 273.609681 119.56511 272.667256 117.193062 272.667256 
C 114.821013 272.667256 112.545798 273.609681 110.868506 275.286972 
C 109.191215 276.964264 108.24879 279.239479 108.24879 281.611528 
C 108.24879 283.983576 109.191215 286.258791 110.868506 287.936083 
C 112.545798 289.613375 114.821013 290.5558 117.193062 290.5558 
z
" clip-path="url(#p68924ff47c)" style="fill: #6495ed; fill-opacity: 0.6; stroke: #000000; stroke-opacity: 0.6"/>
    <path d="M 283.83477 318.770454 
C 285.160785 318.770454 286.432669 318.243622 287.370304 317.305988 
C 288.307938 316.368353 288.83477 315.096469 288.83477 313.770454 
C 288.83477 312.444438 288.307938 311.172554 287.370304 310.23492 
C 286.432669 309.297285 285.160785 308.770454 283.83477 308.770454 
C 282.508754 308.770454 281.23687 309.297285 280.299236 310.23492 
C 279.361601 311.172554 278.83477 312.444438 278.83477 313.770454 
C 278.83477 315.096469 279.361601 316.368353 280.299236 317.305988 
C 281.23687 318.243622 282.508754 318.770454 283.83477 318.770454 
z
" clip-path="url(#p68924ff47c)" style="fill: #6495ed; fill-opacity: 0.6; stroke: #000000; stroke-opacity: 0.6"/>
    <path d="M 313.070157 274.558384 
C 315.851631 274.558384 318.519557 273.453293 320.486356 271.486494 
C 322.453154 269.519695 323.558246 266.851769 323.558246 264.070295 
C 323.558246 261.288822 322.453154 258.620896 320.486356 256.654097 
C 318.519557 254.687298 315.851631 253.582207 313.070157 253.582207 
C 310.288683 253.582207 307.620757 254.687298 305.653959 256.654097 
C 303.68716 258.620896 302.582069 261.288822 302.582069 264.070295 
C 302.582069 266.851769 303.68716 269.519695 305.653959 271.486494 
C 307.620757 273.453293 310.288683 274.558384 313.070157 274.558384 
z
" clip-path="url(#p68924ff47c)" style="fill: #6495ed; fill-opacity: 0.6; stroke: #000000; stroke-opacity: 0.6"/>
    <path d="M 298.452463 321.166128 
C 299.638488 321.166128 300.776095 320.694916 301.614741 319.85627 
C 302.453387 319.017624 302.924599 317.880017 302.924599 316.693992 
C 302.924599 315.507968 302.453387 314.370361 301.614741 313.531715 
C 300.776095 312.693069 299.638488 312.221857 298.452463 312.221857 
C 297.266439 312.221857 296.128832 312.693069 295.290186 313.531715 
C 294.45154 314.370361 293.980327 315.507968 293.980327 316.693992 
C 293.980327 317.880017 294.45154 319.017624 295.290186 319.85627 
C 296.128832 320.694916 297.266439 321.166128 298.452463 321.166128 
z
" clip-path="url(#p68924ff47c)" style="fill: #6495ed; fill-opacity: 0.6; stroke: #000000; stroke-opacity: 0.6"/>
   </g>
   <g id="PathCollection_3">
    <g clip-path="url(#p68924ff47c)">
     <use xlink:href="#mf6b975289d" x="120.1166" y="252.37614" style="stroke: #000000"/>
     <use xlink:href="#mf6b975289d" x="260.44646" y="71.116739" style="stroke: #000000"/>
     <use xlink:href="#mf6b975289d" x="216.593379" y="322.54107" style="stroke: #000000"/>
     <use xlink:href="#mf6b975289d" x="47.028132" y="231.911369" style="stroke: #000000"/>
     <use xlink:href="#mf6b975289d" x="87.957674" y="59.422584" style="stroke: #000000"/>
     <use xlink:href="#mf6b975289d" x="313.070157" y="182.211211" style="stroke: #000000"/>
     <use xlink:href="#mf6b975289d" x="204.899224" y="150.052284" style="stroke: #000000"/>
     <use xlink:href="#mf6b975289d" x="318.917235" y="316.693992" style="stroke: #000000"/>
     <use xlink:href="#mf6b975289d" x="140.581372" y="170.517056" style="stroke: #000000"/>
     <use xlink:href="#mf6b975289d" x="222.440456" y="316.693992" style="stroke: #000000"/>
     <use xlink:href="#mf6b975289d" x="318.917235" y="316.693992" style="stroke: #000000"/>
     <use xlink:href="#mf6b975289d" x="190.28153" y="91.58151" style="stroke: #000000"/>
     <use xlink:href="#mf6b975289d" x="260.44646" y="38.957812" style="stroke: #000000"/>
     <use xlink:href="#mf6b975289d" x="219.516918" y="217.293675" style="stroke: #000000"/>
     <use xlink:href="#mf6b975289d" x="169.816759" y="287.458605" style="stroke: #000000"/>
     <use xlink:href="#mf6b975289d" x="131.810755" y="123.740436" style="stroke: #000000"/>
     <use xlink:href="#mf6b975289d" x="234.134611" y="170.517056" style="stroke: #000000"/>
     <use xlink:href="#mf6b975289d" x="228.287534" y="258.223218" style="stroke: #000000"/>
     <use xlink:href="#mf6b975289d" x="163.969682" y="62.346122" style="stroke: #000000"/>
     <use xlink:href="#mf6b975289d" x="193.205069" y="322.54107" style="stroke: #000000"/>
     <use xlink:href="#mf6b975289d" x="321.840773" y="217.293675" style="stroke: #000000"/>
     <use xlink:href="#mf6b975289d" x="193.205069" y="220.217214" style="stroke: #000000"/>
     <use xlink:href="#mf6b975289d" x="272.140615" y="322.54107" style="stroke: #000000"/>
     <use xlink:href="#mf6b975289d" x="239.981689" y="155.899362" style="stroke: #000000"/>
     <use xlink:href="#mf6b975289d" x="196.128608" y="129.587513" style="stroke: #000000"/>
     <use xlink:href="#mf6b975289d" x="277.987692" y="307.923376" style="stroke: #000000"/>
     <use xlink:href="#mf6b975289d" x="93.804752" y="243.605524" style="stroke: #000000"/>
     <use xlink:href="#mf6b975289d" x="228.287534" y="258.223218" style="stroke: #000000"/>
     <use xlink:href="#mf6b975289d" x="204.899224" y="158.822901" style="stroke: #000000"/>
     <use xlink:href="#mf6b975289d" x="125.963678" y="255.299679" style="stroke: #000000"/>
     <use xlink:href="#mf6b975289d" x="163.969682" y="91.58151" style="stroke: #000000"/>
     <use xlink:href="#mf6b975289d" x="199.052146" y="249.452602" style="stroke: #000000"/>
     <use xlink:href="#mf6b975289d" x="70.416442" y="103.275665" style="stroke: #000000"/>
     <use xlink:href="#mf6b975289d" x="49.951671" y="202.675982" style="stroke: #000000"/>
     <use xlink:href="#mf6b975289d" x="76.263519" y="252.37614" style="stroke: #000000"/>
     <use xlink:href="#mf6b975289d" x="55.798748" y="313.770454" style="stroke: #000000"/>
     <use xlink:href="#mf6b975289d" x="269.217076" y="266.993834" style="stroke: #000000"/>
     <use xlink:href="#mf6b975289d" x="207.822763" y="188.058288" style="stroke: #000000"/>
     <use xlink:href="#mf6b975289d" x="231.211072" y="307.923376" style="stroke: #000000"/>
     <use xlink:href="#mf6b975289d" x="70.416442" y="307.923376" style="stroke: #000000"/>
     <use xlink:href="#mf6b975289d" x="114.269523" y="281.611528" style="stroke: #000000"/>
     <use xlink:href="#mf6b975289d" x="152.275527" y="182.211211" style="stroke: #000000"/>
     <use xlink:href="#mf6b975289d" x="260.44646" y="258.223218" style="stroke: #000000"/>
     <use xlink:href="#mf6b975289d" x="283.83477" y="155.899362" style="stroke: #000000"/>
     <use xlink:href="#mf6b975289d" x="137.657833" y="129.587513" style="stroke: #000000"/>
     <use xlink:href="#mf6b975289d" x="269.217076" y="328.388147" style="stroke: #000000"/>
     <use xlink:href="#mf6b975289d" x="117.193062" y="281.611528" style="stroke: #000000"/>
     <use xlink:href="#mf6b975289d" x="283.83477" y="313.770454" style="stroke: #000000"/>
     <use xlink:href="#mf6b975289d" x="313.070157" y="264.070295" style="stroke: #000000"/>
     <use xlink:href="#mf6b975289d" x="298.452463" y="316.693992" style="stroke: #000000"/>
    </g>
   </g>
   <g id="matplotlib.axis_1">
    <g id="xtick_1">
     <g id="line2d_1">
      <defs>
       <path id="m1e003012dc" d="M 0 0 
L 0 3.5 
" style="stroke: #000000; stroke-width: 0.8"/>
      </defs>
      <g>
       <use xlink:href="#m1e003012dc" x="47.028132" y="356.477812" style="stroke: #000000; stroke-width: 0.8"/>
      </g>
     </g>
     <g id="text_1">
      <!-- 0 -->
      <g transform="translate(43.846882 371.07625) scale(0.1 -0.1)">
       <defs>
        <path id="DejaVuSans-30" d="M 2034 4250 
Q 1547 4250 1301 3770 
Q 1056 3291 1056 2328 
Q 1056 1369 1301 889 
Q 1547 409 2034 409 
Q 2525 409 2770 889 
Q 3016 1369 3016 2328 
Q 3016 3291 2770 3770 
Q 2525 4250 2034 4250 
z
M 2034 4750 
Q 2819 4750 3233 4129 
Q 3647 3509 3647 2328 
Q 3647 1150 3233 529 
Q 2819 -91 2034 -91 
Q 1250 -91 836 529 
Q 422 1150 422 2328 
Q 422 3509 836 4129 
Q 1250 4750 2034 4750 
z
" transform="scale(0.015625)"/>
       </defs>
       <use xlink:href="#DejaVuSans-30"/>
      </g>
     </g>
    </g>
    <g id="xtick_2">
     <g id="line2d_2">
      <g>
       <use xlink:href="#m1e003012dc" x="105.498907" y="356.477812" style="stroke: #000000; stroke-width: 0.8"/>
      </g>
     </g>
     <g id="text_2">
      <!-- 20 -->
      <g transform="translate(99.136407 371.07625) scale(0.1 -0.1)">
       <defs>
        <path id="DejaVuSans-32" d="M 1228 531 
L 3431 531 
L 3431 0 
L 469 0 
L 469 531 
Q 828 903 1448 1529 
Q 2069 2156 2228 2338 
Q 2531 2678 2651 2914 
Q 2772 3150 2772 3378 
Q 2772 3750 2511 3984 
Q 2250 4219 1831 4219 
Q 1534 4219 1204 4116 
Q 875 4013 500 3803 
L 500 4441 
Q 881 4594 1212 4672 
Q 1544 4750 1819 4750 
Q 2544 4750 2975 4387 
Q 3406 4025 3406 3419 
Q 3406 3131 3298 2873 
Q 3191 2616 2906 2266 
Q 2828 2175 2409 1742 
Q 1991 1309 1228 531 
z
" transform="scale(0.015625)"/>
       </defs>
       <use xlink:href="#DejaVuSans-32"/>
       <use xlink:href="#DejaVuSans-30" transform="translate(63.623047 0)"/>
      </g>
     </g>
    </g>
    <g id="xtick_3">
     <g id="line2d_3">
      <g>
       <use xlink:href="#m1e003012dc" x="163.969682" y="356.477812" style="stroke: #000000; stroke-width: 0.8"/>
      </g>
     </g>
     <g id="text_3">
      <!-- 40 -->
      <g transform="translate(157.607182 371.07625) scale(0.1 -0.1)">
       <defs>
        <path id="DejaVuSans-34" d="M 2419 4116 
L 825 1625 
L 2419 1625 
L 2419 4116 
z
M 2253 4666 
L 3047 4666 
L 3047 1625 
L 3713 1625 
L 3713 1100 
L 3047 1100 
L 3047 0 
L 2419 0 
L 2419 1100 
L 313 1100 
L 313 1709 
L 2253 4666 
z
" transform="scale(0.015625)"/>
       </defs>
       <use xlink:href="#DejaVuSans-34"/>
       <use xlink:href="#DejaVuSans-30" transform="translate(63.623047 0)"/>
      </g>
     </g>
    </g>
    <g id="xtick_4">
     <g id="line2d_4">
      <g>
       <use xlink:href="#m1e003012dc" x="222.440456" y="356.477812" style="stroke: #000000; stroke-width: 0.8"/>
      </g>
     </g>
     <g id="text_4">
      <!-- 60 -->
      <g transform="translate(216.077956 371.07625) scale(0.1 -0.1)">
       <defs>
        <path id="DejaVuSans-36" d="M 2113 2584 
Q 1688 2584 1439 2293 
Q 1191 2003 1191 1497 
Q 1191 994 1439 701 
Q 1688 409 2113 409 
Q 2538 409 2786 701 
Q 3034 994 3034 1497 
Q 3034 2003 2786 2293 
Q 2538 2584 2113 2584 
z
M 3366 4563 
L 3366 3988 
Q 3128 4100 2886 4159 
Q 2644 4219 2406 4219 
Q 1781 4219 1451 3797 
Q 1122 3375 1075 2522 
Q 1259 2794 1537 2939 
Q 1816 3084 2150 3084 
Q 2853 3084 3261 2657 
Q 3669 2231 3669 1497 
Q 3669 778 3244 343 
Q 2819 -91 2113 -91 
Q 1303 -91 875 529 
Q 447 1150 447 2328 
Q 447 3434 972 4092 
Q 1497 4750 2381 4750 
Q 2619 4750 2861 4703 
Q 3103 4656 3366 4563 
z
" transform="scale(0.015625)"/>
       </defs>
       <use xlink:href="#DejaVuSans-36"/>
       <use xlink:href="#DejaVuSans-30" transform="translate(63.623047 0)"/>
      </g>
     </g>
    </g>
    <g id="xtick_5">
     <g id="line2d_5">
      <g>
       <use xlink:href="#m1e003012dc" x="280.911231" y="356.477812" style="stroke: #000000; stroke-width: 0.8"/>
      </g>
     </g>
     <g id="text_5">
      <!-- 80 -->
      <g transform="translate(274.548731 371.07625) scale(0.1 -0.1)">
       <defs>
        <path id="DejaVuSans-38" d="M 2034 2216 
Q 1584 2216 1326 1975 
Q 1069 1734 1069 1313 
Q 1069 891 1326 650 
Q 1584 409 2034 409 
Q 2484 409 2743 651 
Q 3003 894 3003 1313 
Q 3003 1734 2745 1975 
Q 2488 2216 2034 2216 
z
M 1403 2484 
Q 997 2584 770 2862 
Q 544 3141 544 3541 
Q 544 4100 942 4425 
Q 1341 4750 2034 4750 
Q 2731 4750 3128 4425 
Q 3525 4100 3525 3541 
Q 3525 3141 3298 2862 
Q 3072 2584 2669 2484 
Q 3125 2378 3379 2068 
Q 3634 1759 3634 1313 
Q 3634 634 3220 271 
Q 2806 -91 2034 -91 
Q 1263 -91 848 271 
Q 434 634 434 1313 
Q 434 1759 690 2068 
Q 947 2378 1403 2484 
z
M 1172 3481 
Q 1172 3119 1398 2916 
Q 1625 2713 2034 2713 
Q 2441 2713 2670 2916 
Q 2900 3119 2900 3481 
Q 2900 3844 2670 4047 
Q 2441 4250 2034 4250 
Q 1625 4250 1398 4047 
Q 1172 3844 1172 3481 
z
" transform="scale(0.015625)"/>
       </defs>
       <use xlink:href="#DejaVuSans-38"/>
       <use xlink:href="#DejaVuSans-30" transform="translate(63.623047 0)"/>
      </g>
     </g>
    </g>
   </g>
   <g id="matplotlib.axis_2">
    <g id="ytick_1">
     <g id="line2d_6">
      <defs>
       <path id="m159b44315f" d="M 0 0 
L -3.5 0 
" style="stroke: #000000; stroke-width: 0.8"/>
      </defs>
      <g>
       <use xlink:href="#m159b44315f" x="33.2875" y="328.388147" style="stroke: #000000; stroke-width: 0.8"/>
      </g>
     </g>
     <g id="text_6">
      <!-- 0 -->
      <g transform="translate(19.925 332.187366) scale(0.1 -0.1)">
       <use xlink:href="#DejaVuSans-30"/>
      </g>
     </g>
    </g>
    <g id="ytick_2">
     <g id="line2d_7">
      <g>
       <use xlink:href="#m159b44315f" x="33.2875" y="269.917373" style="stroke: #000000; stroke-width: 0.8"/>
      </g>
     </g>
     <g id="text_7">
      <!-- 20 -->
      <g transform="translate(13.5625 273.716591) scale(0.1 -0.1)">
       <use xlink:href="#DejaVuSans-32"/>
       <use xlink:href="#DejaVuSans-30" transform="translate(63.623047 0)"/>
      </g>
     </g>
    </g>
    <g id="ytick_3">
     <g id="line2d_8">
      <g>
       <use xlink:href="#m159b44315f" x="33.2875" y="211.446598" style="stroke: #000000; stroke-width: 0.8"/>
      </g>
     </g>
     <g id="text_8">
      <!-- 40 -->
      <g transform="translate(13.5625 215.245817) scale(0.1 -0.1)">
       <use xlink:href="#DejaVuSans-34"/>
       <use xlink:href="#DejaVuSans-30" transform="translate(63.623047 0)"/>
      </g>
     </g>
    </g>
    <g id="ytick_4">
     <g id="line2d_9">
      <g>
       <use xlink:href="#m159b44315f" x="33.2875" y="152.975823" style="stroke: #000000; stroke-width: 0.8"/>
      </g>
     </g>
     <g id="text_9">
      <!-- 60 -->
      <g transform="translate(13.5625 156.775042) scale(0.1 -0.1)">
       <use xlink:href="#DejaVuSans-36"/>
       <use xlink:href="#DejaVuSans-30" transform="translate(63.623047 0)"/>
      </g>
     </g>
    </g>
    <g id="ytick_5">
     <g id="line2d_10">
      <g>
       <use xlink:href="#m159b44315f" x="33.2875" y="94.505048" style="stroke: #000000; stroke-width: 0.8"/>
      </g>
     </g>
     <g id="text_10">
      <!-- 80 -->
      <g transform="translate(13.5625 98.304267) scale(0.1 -0.1)">
       <use xlink:href="#DejaVuSans-38"/>
       <use xlink:href="#DejaVuSans-30" transform="translate(63.623047 0)"/>
      </g>
     </g>
    </g>
    <g id="ytick_6">
     <g id="line2d_11">
      <g>
       <use xlink:href="#m159b44315f" x="33.2875" y="36.034274" style="stroke: #000000; stroke-width: 0.8"/>
      </g>
     </g>
     <g id="text_11">
      <!-- 100 -->
      <g transform="translate(7.2 39.833493) scale(0.1 -0.1)">
       <defs>
        <path id="DejaVuSans-31" d="M 794 531 
L 1825 531 
L 1825 4091 
L 703 3866 
L 703 4441 
L 1819 4666 
L 2450 4666 
L 2450 531 
L 3481 531 
L 3481 0 
L 794 0 
L 794 531 
z
" transform="scale(0.015625)"/>
       </defs>
       <use xlink:href="#DejaVuSans-31"/>
       <use xlink:href="#DejaVuSans-30" transform="translate(63.623047 0)"/>
       <use xlink:href="#DejaVuSans-30" transform="translate(127.246094 0)"/>
      </g>
     </g>
    </g>
   </g>
   <g id="line2d_12">
    <path d="M 196.420961 220.568039 
" clip-path="url(#p68924ff47c)" style="fill: none; stroke: #ff0000; stroke-width: 1.5; stroke-linecap: square"/>
    <defs>
     <path id="m11e347bbc4" d="M 0 5 
C 1.326016 5 2.597899 4.473168 3.535534 3.535534 
C 4.473168 2.597899 5 1.326016 5 0 
C 5 -1.326016 4.473168 -2.597899 3.535534 -3.535534 
C 2.597899 -4.473168 1.326016 -5 0 -5 
C -1.326016 -5 -2.597899 -4.473168 -3.535534 -3.535534 
C -4.473168 -2.597899 -5 -1.326016 -5 0 
C -5 1.326016 -4.473168 2.597899 -3.535534 3.535534 
C -2.597899 4.473168 -1.326016 5 0 5 
z
" style="stroke: #ff0000"/>
    </defs>
    <g clip-path="url(#p68924ff47c)">
     <use xlink:href="#m11e347bbc4" x="196.420961" y="220.568039" style="fill: #ff0000; stroke: #ff0000"/>
    </g>
   </g>
   <g id="line2d_13">
    <path d="M 185.399981 155.499833 
" clip-path="url(#p68924ff47c)" style="fill: none; stroke: #008000; stroke-width: 1.5; stroke-linecap: square"/>
    <defs>
     <path id="m08c3f422a3" d="M 0 5 
C 1.326016 5 2.597899 4.473168 3.535534 3.535534 
C 4.473168 2.597899 5 1.326016 5 0 
C 5 -1.326016 4.473168 -2.597899 3.535534 -3.535534 
C 2.597899 -4.473168 1.326016 -5 0 -5 
C -1.326016 -5 -2.597899 -4.473168 -3.535534 -3.535534 
C -4.473168 -2.597899 -5 -1.326016 -5 0 
C -5 1.326016 -4.473168 2.597899 -3.535534 3.535534 
C -2.597899 4.473168 -1.326016 5 0 5 
z
" style="stroke: #008000"/>
    </defs>
    <g clip-path="url(#p68924ff47c)">
     <use xlink:href="#m08c3f422a3" x="185.399981" y="155.499833" style="fill: #008000; stroke: #008000"/>
    </g>
   </g>
   <g id="patch_3">
    <path d="M 33.2875 356.477813 
L 33.2875 23.837812 
" style="fill: none; stroke: #000000; stroke-width: 0.8; stroke-linejoin: miter; stroke-linecap: square"/>
   </g>
   <g id="patch_4">
    <path d="M 335.581405 356.477813 
L 335.581405 23.837812 
" style="fill: none; stroke: #000000; stroke-width: 0.8; stroke-linejoin: miter; stroke-linecap: square"/>
   </g>
   <g id="patch_5">
    <path d="M 33.2875 356.477812 
L 335.581405 356.477812 
" style="fill: none; stroke: #000000; stroke-width: 0.8; stroke-linejoin: miter; stroke-linecap: square"/>
   </g>
   <g id="patch_6">
    <path d="M 33.2875 23.837812 
L 335.581405 23.837812 
" style="fill: none; stroke: #000000; stroke-width: 0.8; stroke-linejoin: miter; stroke-linecap: square"/>
   </g>
   <g id="text_12">
    <!-- Marked Point Pattern -->
    <g transform="translate(111.669453 17.837812) scale(0.14 -0.14)">
     <defs>
      <path id="DejaVuSans-4d" d="M 628 4666 
L 1569 4666 
L 2759 1491 
L 3956 4666 
L 4897 4666 
L 4897 0 
L 4281 0 
L 4281 4097 
L 3078 897 
L 2444 897 
L 1241 4097 
L 1241 0 
L 628 0 
L 628 4666 
z
" transform="scale(0.015625)"/>
      <path id="DejaVuSans-61" d="M 2194 1759 
Q 1497 1759 1228 1600 
Q 959 1441 959 1056 
Q 959 750 1161 570 
Q 1363 391 1709 391 
Q 2188 391 2477 730 
Q 2766 1069 2766 1631 
L 2766 1759 
L 2194 1759 
z
M 3341 1997 
L 3341 0 
L 2766 0 
L 2766 531 
Q 2569 213 2275 61 
Q 1981 -91 1556 -91 
Q 1019 -91 701 211 
Q 384 513 384 1019 
Q 384 1609 779 1909 
Q 1175 2209 1959 2209 
L 2766 2209 
L 2766 2266 
Q 2766 2663 2505 2880 
Q 2244 3097 1772 3097 
Q 1472 3097 1187 3025 
Q 903 2953 641 2809 
L 641 3341 
Q 956 3463 1253 3523 
Q 1550 3584 1831 3584 
Q 2591 3584 2966 3190 
Q 3341 2797 3341 1997 
z
" transform="scale(0.015625)"/>
      <path id="DejaVuSans-72" d="M 2631 2963 
Q 2534 3019 2420 3045 
Q 2306 3072 2169 3072 
Q 1681 3072 1420 2755 
Q 1159 2438 1159 1844 
L 1159 0 
L 581 0 
L 581 3500 
L 1159 3500 
L 1159 2956 
Q 1341 3275 1631 3429 
Q 1922 3584 2338 3584 
Q 2397 3584 2469 3576 
Q 2541 3569 2628 3553 
L 2631 2963 
z
" transform="scale(0.015625)"/>
      <path id="DejaVuSans-6b" d="M 581 4863 
L 1159 4863 
L 1159 1991 
L 2875 3500 
L 3609 3500 
L 1753 1863 
L 3688 0 
L 2938 0 
L 1159 1709 
L 1159 0 
L 581 0 
L 581 4863 
z
" transform="scale(0.015625)"/>
      <path id="DejaVuSans-65" d="M 3597 1894 
L 3597 1613 
L 953 1613 
Q 991 1019 1311 708 
Q 1631 397 2203 397 
Q 2534 397 2845 478 
Q 3156 559 3463 722 
L 3463 178 
Q 3153 47 2828 -22 
Q 2503 -91 2169 -91 
Q 1331 -91 842 396 
Q 353 884 353 1716 
Q 353 2575 817 3079 
Q 1281 3584 2069 3584 
Q 2775 3584 3186 3129 
Q 3597 2675 3597 1894 
z
M 3022 2063 
Q 3016 2534 2758 2815 
Q 2500 3097 2075 3097 
Q 1594 3097 1305 2825 
Q 1016 2553 972 2059 
L 3022 2063 
z
" transform="scale(0.015625)"/>
      <path id="DejaVuSans-64" d="M 2906 2969 
L 2906 4863 
L 3481 4863 
L 3481 0 
L 2906 0 
L 2906 525 
Q 2725 213 2448 61 
Q 2172 -91 1784 -91 
Q 1150 -91 751 415 
Q 353 922 353 1747 
Q 353 2572 751 3078 
Q 1150 3584 1784 3584 
Q 2172 3584 2448 3432 
Q 2725 3281 2906 2969 
z
M 947 1747 
Q 947 1113 1208 752 
Q 1469 391 1925 391 
Q 2381 391 2643 752 
Q 2906 1113 2906 1747 
Q 2906 2381 2643 2742 
Q 2381 3103 1925 3103 
Q 1469 3103 1208 2742 
Q 947 2381 947 1747 
z
" transform="scale(0.015625)"/>
      <path id="DejaVuSans-20" transform="scale(0.015625)"/>
      <path id="DejaVuSans-50" d="M 1259 4147 
L 1259 2394 
L 2053 2394 
Q 2494 2394 2734 2622 
Q 2975 2850 2975 3272 
Q 2975 3691 2734 3919 
Q 2494 4147 2053 4147 
L 1259 4147 
z
M 628 4666 
L 2053 4666 
Q 2838 4666 3239 4311 
Q 3641 3956 3641 3272 
Q 3641 2581 3239 2228 
Q 2838 1875 2053 1875 
L 1259 1875 
L 1259 0 
L 628 0 
L 628 4666 
z
" transform="scale(0.015625)"/>
      <path id="DejaVuSans-6f" d="M 1959 3097 
Q 1497 3097 1228 2736 
Q 959 2375 959 1747 
Q 959 1119 1226 758 
Q 1494 397 1959 397 
Q 2419 397 2687 759 
Q 2956 1122 2956 1747 
Q 2956 2369 2687 2733 
Q 2419 3097 1959 3097 
z
M 1959 3584 
Q 2709 3584 3137 3096 
Q 3566 2609 3566 1747 
Q 3566 888 3137 398 
Q 2709 -91 1959 -91 
Q 1206 -91 779 398 
Q 353 888 353 1747 
Q 353 2609 779 3096 
Q 1206 3584 1959 3584 
z
" transform="scale(0.015625)"/>
      <path id="DejaVuSans-69" d="M 603 3500 
L 1178 3500 
L 1178 0 
L 603 0 
L 603 3500 
z
M 603 4863 
L 1178 4863 
L 1178 4134 
L 603 4134 
L 603 4863 
z
" transform="scale(0.015625)"/>
      <path id="DejaVuSans-6e" d="M 3513 2113 
L 3513 0 
L 2938 0 
L 2938 2094 
Q 2938 2591 2744 2837 
Q 2550 3084 2163 3084 
Q 1697 3084 1428 2787 
Q 1159 2491 1159 1978 
L 1159 0 
L 581 0 
L 581 3500 
L 1159 3500 
L 1159 2956 
Q 1366 3272 1645 3428 
Q 1925 3584 2291 3584 
Q 2894 3584 3203 3211 
Q 3513 2838 3513 2113 
z
" transform="scale(0.015625)"/>
      <path id="DejaVuSans-74" d="M 1172 4494 
L 1172 3500 
L 2356 3500 
L 2356 3053 
L 1172 3053 
L 1172 1153 
Q 1172 725 1289 603 
Q 1406 481 1766 481 
L 2356 481 
L 2356 0 
L 1766 0 
Q 1100 0 847 248 
Q 594 497 594 1153 
L 594 3053 
L 172 3053 
L 172 3500 
L 594 3500 
L 594 4494 
L 1172 4494 
z
" transform="scale(0.015625)"/>
     </defs>
     <use xlink:href="#DejaVuSans-4d"/>
     <use xlink:href="#DejaVuSans-61" transform="translate(86.279297 0)"/>
     <use xlink:href="#DejaVuSans-72" transform="translate(147.558594 0)"/>
     <use xlink:href="#DejaVuSans-6b" transform="translate(188.671875 0)"/>
     <use xlink:href="#DejaVuSans-65" transform="translate(242.957031 0)"/>
     <use xlink:href="#DejaVuSans-64" transform="translate(304.480469 0)"/>
     <use xlink:href="#DejaVuSans-20" transform="translate(367.957031 0)"/>
     <use xlink:href="#DejaVuSans-50" transform="translate(399.744141 0)"/>
     <use xlink:href="#DejaVuSans-6f" transform="translate(456.421875 0)"/>
     <use xlink:href="#DejaVuSans-69" transform="translate(517.603516 0)"/>
     <use xlink:href="#DejaVuSans-6e" transform="translate(545.386719 0)"/>
     <use xlink:href="#DejaVuSans-74" transform="translate(608.765625 0)"/>
     <use xlink:href="#DejaVuSans-20" transform="translate(647.974609 0)"/>
     <use xlink:href="#DejaVuSans-50" transform="translate(679.761719 0)"/>
     <use xlink:href="#DejaVuSans-61" transform="translate(735.564453 0)"/>
     <use xlink:href="#DejaVuSans-74" transform="translate(796.84375 0)"/>
     <use xlink:href="#DejaVuSans-74" transform="translate(836.052734 0)"/>
     <use xlink:href="#DejaVuSans-65" transform="translate(875.261719 0)"/>
     <use xlink:href="#DejaVuSans-72" transform="translate(936.785156 0)"/>
     <use xlink:href="#DejaVuSans-6e" transform="translate(976.148438 0)"/>
    </g>
   </g>
   <g id="legend_1">
    <g id="patch_7">
     <path d="M 40.2875 351.477812 
L 185.39375 351.477812 
Q 187.39375 351.477812 187.39375 349.477812 
L 187.39375 321.121562 
Q 187.39375 319.121562 185.39375 319.121562 
L 40.2875 319.121562 
Q 38.2875 319.121562 38.2875 321.121562 
L 38.2875 349.477812 
Q 38.2875 351.477812 40.2875 351.477812 
z
" style="fill: #ffffff; opacity: 0.8; stroke: #cccccc; stroke-linejoin: miter"/>
    </g>
    <g id="line2d_14">
     <path d="M 42.2875 327.22 
L 52.2875 327.22 
L 62.2875 327.22 
" style="fill: none; stroke: #ff0000; stroke-width: 1.5; stroke-linecap: square"/>
     <g>
      <use xlink:href="#m11e347bbc4" x="52.2875" y="327.22" style="fill: #ff0000; stroke: #ff0000"/>
     </g>
    </g>
    <g id="text_13">
     <!-- mean center -->
     <g transform="translate(70.2875 330.72) scale(0.1 -0.1)">
      <defs>
       <path id="DejaVuSans-6d" d="M 3328 2828 
Q 3544 3216 3844 3400 
Q 4144 3584 4550 3584 
Q 5097 3584 5394 3201 
Q 5691 2819 5691 2113 
L 5691 0 
L 5113 0 
L 5113 2094 
Q 5113 2597 4934 2840 
Q 4756 3084 4391 3084 
Q 3944 3084 3684 2787 
Q 3425 2491 3425 1978 
L 3425 0 
L 2847 0 
L 2847 2094 
Q 2847 2600 2669 2842 
Q 2491 3084 2119 3084 
Q 1678 3084 1418 2786 
Q 1159 2488 1159 1978 
L 1159 0 
L 581 0 
L 581 3500 
L 1159 3500 
L 1159 2956 
Q 1356 3278 1631 3431 
Q 1906 3584 2284 3584 
Q 2666 3584 2933 3390 
Q 3200 3197 3328 2828 
z
" transform="scale(0.015625)"/>
       <path id="DejaVuSans-63" d="M 3122 3366 
L 3122 2828 
Q 2878 2963 2633 3030 
Q 2388 3097 2138 3097 
Q 1578 3097 1268 2742 
Q 959 2388 959 1747 
Q 959 1106 1268 751 
Q 1578 397 2138 397 
Q 2388 397 2633 464 
Q 2878 531 3122 666 
L 3122 134 
Q 2881 22 2623 -34 
Q 2366 -91 2075 -91 
Q 1284 -91 818 406 
Q 353 903 353 1747 
Q 353 2603 823 3093 
Q 1294 3584 2113 3584 
Q 2378 3584 2631 3529 
Q 2884 3475 3122 3366 
z
" transform="scale(0.015625)"/>
      </defs>
      <use xlink:href="#DejaVuSans-6d"/>
      <use xlink:href="#DejaVuSans-65" transform="translate(97.412109 0)"/>
      <use xlink:href="#DejaVuSans-61" transform="translate(158.935547 0)"/>
      <use xlink:href="#DejaVuSans-6e" transform="translate(220.214844 0)"/>
      <use xlink:href="#DejaVuSans-20" transform="translate(283.59375 0)"/>
      <use xlink:href="#DejaVuSans-63" transform="translate(315.380859 0)"/>
      <use xlink:href="#DejaVuSans-65" transform="translate(370.361328 0)"/>
      <use xlink:href="#DejaVuSans-6e" transform="translate(431.884766 0)"/>
      <use xlink:href="#DejaVuSans-74" transform="translate(495.263672 0)"/>
      <use xlink:href="#DejaVuSans-65" transform="translate(534.472656 0)"/>
      <use xlink:href="#DejaVuSans-72" transform="translate(595.996094 0)"/>
     </g>
    </g>
    <g id="line2d_15">
     <path d="M 42.2875 341.898125 
L 52.2875 341.898125 
L 62.2875 341.898125 
" style="fill: none; stroke: #008000; stroke-width: 1.5; stroke-linecap: square"/>
     <g>
      <use xlink:href="#m08c3f422a3" x="52.2875" y="341.898125" style="fill: #008000; stroke: #008000"/>
     </g>
    </g>
    <g id="text_14">
     <!-- weighted mean center -->
     <g transform="translate(70.2875 345.398125) scale(0.1 -0.1)">
      <defs>
       <path id="DejaVuSans-77" d="M 269 3500 
L 844 3500 
L 1563 769 
L 2278 3500 
L 2956 3500 
L 3675 769 
L 4391 3500 
L 4966 3500 
L 4050 0 
L 3372 0 
L 2619 2869 
L 1863 0 
L 1184 0 
L 269 3500 
z
" transform="scale(0.015625)"/>
       <path id="DejaVuSans-67" d="M 2906 1791 
Q 2906 2416 2648 2759 
Q 2391 3103 1925 3103 
Q 1463 3103 1205 2759 
Q 947 2416 947 1791 
Q 947 1169 1205 825 
Q 1463 481 1925 481 
Q 2391 481 2648 825 
Q 2906 1169 2906 1791 
z
M 3481 434 
Q 3481 -459 3084 -895 
Q 2688 -1331 1869 -1331 
Q 1566 -1331 1297 -1286 
Q 1028 -1241 775 -1147 
L 775 -588 
Q 1028 -725 1275 -790 
Q 1522 -856 1778 -856 
Q 2344 -856 2625 -561 
Q 2906 -266 2906 331 
L 2906 616 
Q 2728 306 2450 153 
Q 2172 0 1784 0 
Q 1141 0 747 490 
Q 353 981 353 1791 
Q 353 2603 747 3093 
Q 1141 3584 1784 3584 
Q 2172 3584 2450 3431 
Q 2728 3278 2906 2969 
L 2906 3500 
L 3481 3500 
L 3481 434 
z
" transform="scale(0.015625)"/>
       <path id="DejaVuSans-68" d="M 3513 2113 
L 3513 0 
L 2938 0 
L 2938 2094 
Q 2938 2591 2744 2837 
Q 2550 3084 2163 3084 
Q 1697 3084 1428 2787 
Q 1159 2491 1159 1978 
L 1159 0 
L 581 0 
L 581 4863 
L 1159 4863 
L 1159 2956 
Q 1366 3272 1645 3428 
Q 1925 3584 2291 3584 
Q 2894 3584 3203 3211 
Q 3513 2838 3513 2113 
z
" transform="scale(0.015625)"/>
      </defs>
      <use xlink:href="#DejaVuSans-77"/>
      <use xlink:href="#DejaVuSans-65" transform="translate(81.787109 0)"/>
      <use xlink:href="#DejaVuSans-69" transform="translate(143.310547 0)"/>
      <use xlink:href="#DejaVuSans-67" transform="translate(171.09375 0)"/>
      <use xlink:href="#DejaVuSans-68" transform="translate(234.570312 0)"/>
      <use xlink:href="#DejaVuSans-74" transform="translate(297.949219 0)"/>
      <use xlink:href="#DejaVuSans-65" transform="translate(337.158203 0)"/>
      <use xlink:href="#DejaVuSans-64" transform="translate(398.681641 0)"/>
      <use xlink:href="#DejaVuSans-20" transform="translate(462.158203 0)"/>
      <use xlink:href="#DejaVuSans-6d" transform="translate(493.945312 0)"/>
      <use xlink:href="#DejaVuSans-65" transform="translate(591.357422 0)"/>
      <use xlink:href="#DejaVuSans-61" transform="translate(652.880859 0)"/>
      <use xlink:href="#DejaVuSans-6e" transform="translate(714.160156 0)"/>
      <use xlink:href="#DejaVuSans-20" transform="translate(777.539062 0)"/>
      <use xlink:href="#DejaVuSans-63" transform="translate(809.326172 0)"/>
      <use xlink:href="#DejaVuSans-65" transform="translate(864.306641 0)"/>
      <use xlink:href="#DejaVuSans-6e" transform="translate(925.830078 0)"/>
      <use xlink:href="#DejaVuSans-74" transform="translate(989.208984 0)"/>
      <use xlink:href="#DejaVuSans-65" transform="translate(1028.417969 0)"/>
      <use xlink:href="#DejaVuSans-72" transform="translate(1089.941406 0)"/>
     </g>
    </g>
   </g>
  </g>
 </g>
 <defs>
  <clipPath id="p68924ff47c">
   <rect x="33.2875" y="23.837812" width="302.293905" height="332.64"/>
  </clipPath>
 </defs>
</svg>
