<?xml version="1.0" encoding="utf-8" standalone="no"?>
<!DOCTYPE svg PUBLIC "-//W3C//DTD SVG 1.1//EN"
  "http://www.w3.org/Graphics/SVG/1.1/DTD/svg11.dtd">
<svg xmlns:xlink="http://www.w3.org/1999/xlink" width="356.3275pt" height="380.355937pt" viewBox="0 0 356.3275 380.355937" xmlns="http://www.w3.org/2000/svg" version="1.1">
 <metadata>
  <rdf:RDF xmlns:dc="http://purl.org/dc/elements/1.1/" xmlns:cc="http://creativecommons.org/ns#" xmlns:rdf="http://www.w3.org/1999/02/22-rdf-syntax-ns#">
   <cc:Work>
    <dc:type rdf:resource="http://purl.org/dc/dcmitype/StillImage"/>
    <dc:date>2026-02-19T14:48:10.529467</dc:date>
    <dc:format>image/svg+xml</dc:format>
    <dc:creator>
     <cc:Agent>
      <dc:title>Matplotlib v3.10.8, https://matplotlib.org/</dc:title>
     </cc:Agent>
    </dc:creator>
   </cc:Work>
  </rdf:RDF>
 </metadata>
 <defs>
  <style type="text/css">*{stroke-linejoin: round; stroke-linecap: butt}</style>
 </defs>
 <g id="figure_1">
  <g id="patch_1">
   <path d="M 0 380.355937 
L 356.3275 380.355937 
L 356.3275 0 
L 0 0 
z
" style="fill: #ffffff"/>
  </g>
  <g id="axes_1">
   <g id="patch_2">
    <path d="M 33.2875 356.477812 
L 349.1275 356.477812 
L 349.1275 23.837812 
L 33.2875 23.837812 
z
" style="fill: #ffffff"/>
   </g>
   <g id="PathCollection_1">
    <path d="M 124.0075 273.341385 
C 127.031281 273.341385 129.931622 272.140024 132.069758 270.001888 
C 134.207893 267.863753 135.409254 264.963411 135.409254 261.939631 
C 135.409254 258.91585 134.207893 256.015509 132.069758 253.877373 
C 129.931622 251.739237 127.031281 250.537876 124.0075 250.537876 
C 120.983719 250.537876 118.083378 251.739237 115.945242 253.877373 
C 113.807107 256.015509 112.605746 258.91585 112.605746 261.939631 
C 112.605746 264.963411 113.807107 267.863753 115.945242 270.001888 
C 118.083378 272.140024 120.983719 273.341385 124.0075 273.341385 
z
" clip-path="url(#p1207c0bb55)" style="fill: #6495ed; fill-opacity: 0.6; stroke: #000000; stroke-opacity: 0.6"/>
    <path d="M 270.625682 93.533989 
C 276.188629 93.533989 281.524481 91.323807 285.458079 87.390209 
C 289.391676 83.456612 291.601859 78.12076 291.601859 72.557812 
C 291.601859 66.994865 289.391676 61.659013 285.458079 57.725416 
C 281.524481 53.791818 276.188629 51.581636 270.625682 51.581636 
C 265.062735 51.581636 259.726883 53.791818 255.793285 57.725416 
C 251.859687 61.659013 249.649505 66.994865 249.649505 72.557812 
C 249.649505 78.12076 251.859687 83.456612 255.793285 87.390209 
C 259.726883 91.323807 265.062735 93.533989 270.625682 93.533989 
z
" clip-path="url(#p1207c0bb55)" style="fill: #6495ed; fill-opacity: 0.6; stroke: #000000; stroke-opacity: 0.6"/>
    <path d="M 224.8075 338.410999 
C 225.646146 338.410999 226.450556 338.077802 227.043568 337.48479 
C 227.63658 336.891777 227.969778 336.087367 227.969778 335.248722 
C 227.969778 334.410076 227.63658 333.605666 227.043568 333.012654 
C 226.450556 332.419641 225.646146 332.086444 224.8075 332.086444 
C 223.968854 332.086444 223.164444 332.419641 222.571432 333.012654 
C 221.97842 333.605666 221.645222 334.410076 221.645222 335.248722 
C 221.645222 336.087367 221.97842 336.891777 222.571432 337.48479 
C 223.164444 338.077802 223.968854 338.410999 224.8075 338.410999 
z
" clip-path="url(#p1207c0bb55)" style="fill: #6495ed; fill-opacity: 0.6; stroke: #000000; stroke-opacity: 0.6"/>
    <path d="M 47.643864 253.403045 
C 51.050459 253.403045 54.317988 252.04959 56.726815 249.640764 
C 59.135641 247.231937 60.489096 243.964408 60.489096 240.557812 
C 60.489096 237.151217 59.135641 233.883688 56.726815 231.474861 
C 54.317988 229.066035 51.050459 227.71258 47.643864 227.71258 
C 44.237268 227.71258 40.969739 229.066035 38.560913 231.474861 
C 36.152086 233.883688 34.798631 237.151217 34.798631 240.557812 
C 34.798631 243.964408 36.152086 247.231937 38.560913 249.640764 
C 40.969739 252.04959 44.237268 253.403045 47.643864 253.403045 
z
" clip-path="url(#p1207c0bb55)" style="fill: #6495ed; fill-opacity: 0.6; stroke: #000000; stroke-opacity: 0.6"/>
    <path d="M 90.4075 81.787241 
C 96.095473 81.787241 101.551247 79.527386 105.573251 75.505382 
C 109.595255 71.483377 111.855111 66.027603 111.855111 60.339631 
C 111.855111 54.651658 109.595255 49.195884 105.573251 45.17388 
C 101.551247 41.151876 96.095473 38.89202 90.4075 38.89202 
C 84.719527 38.89202 79.263753 41.151876 75.241749 45.17388 
C 71.219745 49.195884 68.959889 54.651658 68.959889 60.339631 
C 68.959889 66.027603 71.219745 71.483377 75.241749 75.505382 
C 79.263753 79.527386 84.719527 81.787241 90.4075 81.787241 
z
" clip-path="url(#p1207c0bb55)" style="fill: #6495ed; fill-opacity: 0.6; stroke: #000000; stroke-opacity: 0.6"/>
    <path d="M 325.6075 204.441928 
C 329.800729 204.441928 333.822779 202.77594 336.78784 199.81088 
C 339.752901 196.845819 341.418888 192.823769 341.418888 188.63054 
C 341.418888 184.437311 339.752901 180.415261 336.78784 177.4502 
C 333.822779 174.485139 329.800729 172.819151 325.6075 172.819151 
C 321.414271 172.819151 317.392221 174.485139 314.42716 177.4502 
C 311.462099 180.415261 309.796112 184.437311 309.796112 188.63054 
C 309.796112 192.823769 311.462099 196.845819 314.42716 199.81088 
C 317.392221 202.77594 321.414271 204.441928 325.6075 204.441928 
z
" clip-path="url(#p1207c0bb55)" style="fill: #6495ed; fill-opacity: 0.6; stroke: #000000; stroke-opacity: 0.6"/>
    <path d="M 212.589318 172.494789 
C 217.220891 172.494789 221.663391 170.654646 224.938407 167.379629 
C 228.213424 164.104612 230.053567 159.662113 230.053567 155.03054 
C 230.053567 150.398967 228.213424 145.956467 224.938407 142.681451 
C 221.663391 139.406434 217.220891 137.566291 212.589318 137.566291 
C 207.957745 137.566291 203.515246 139.406434 200.240229 142.681451 
C 196.965212 145.956467 195.125069 150.398967 195.125069 155.03054 
C 195.125069 159.662113 196.965212 164.104612 200.240229 167.379629 
C 203.515246 170.654646 207.957745 172.494789 212.589318 172.494789 
z
" clip-path="url(#p1207c0bb55)" style="fill: #6495ed; fill-opacity: 0.6; stroke: #000000; stroke-opacity: 0.6"/>
    <path d="M 331.716591 333.611767 
C 332.902615 333.611767 334.040223 333.140554 334.878869 332.301908 
C 335.717514 331.463263 336.188727 330.325655 336.188727 329.139631 
C 336.188727 327.953606 335.717514 326.815999 334.878869 325.977353 
C 334.040223 325.138707 332.902615 324.667495 331.716591 324.667495 
C 330.530567 324.667495 329.392959 325.138707 328.554313 325.977353 
C 327.715667 326.815999 327.244455 327.953606 327.244455 329.139631 
C 327.244455 330.325655 327.715667 331.463263 328.554313 332.301908 
C 329.392959 333.140554 330.530567 333.611767 331.716591 333.611767 
z
" clip-path="url(#p1207c0bb55)" style="fill: #6495ed; fill-opacity: 0.6; stroke: #000000; stroke-opacity: 0.6"/>
    <path d="M 145.389318 192.844035 
C 149.74705 192.844035 153.926887 191.11269 157.008268 188.031308 
C 160.08965 184.949926 161.820995 180.77009 161.820995 176.412358 
C 161.820995 172.054626 160.08965 167.874789 157.008268 164.793408 
C 153.926887 161.712026 149.74705 159.980681 145.389318 159.980681 
C 141.031587 159.980681 136.85175 161.712026 133.770368 164.793408 
C 130.688987 167.874789 128.957641 172.054626 128.957641 176.412358 
C 128.957641 180.77009 130.688987 184.949926 133.770368 188.031308 
C 136.85175 191.11269 141.031587 192.844035 145.389318 192.844035 
z
" clip-path="url(#p1207c0bb55)" style="fill: #6495ed; fill-opacity: 0.6; stroke: #000000; stroke-opacity: 0.6"/>
    <path d="M 230.916591 333.611767 
C 232.102615 333.611767 233.240223 333.140554 234.078869 332.301908 
C 234.917514 331.463263 235.388727 330.325655 235.388727 329.139631 
C 235.388727 327.953606 234.917514 326.815999 234.078869 325.977353 
C 233.240223 325.138707 232.102615 324.667495 230.916591 324.667495 
C 229.730567 324.667495 228.592959 325.138707 227.754313 325.977353 
C 226.915667 326.815999 226.444455 327.953606 226.444455 329.139631 
C 226.444455 330.325655 226.915667 331.463263 227.754313 332.301908 
C 228.592959 333.140554 229.730567 333.611767 230.916591 333.611767 
z
" clip-path="url(#p1207c0bb55)" style="fill: #6495ed; fill-opacity: 0.6; stroke: #000000; stroke-opacity: 0.6"/>
    <path d="M 331.716591 333.611767 
C 332.902615 333.611767 334.040223 333.140554 334.878869 332.301908 
C 335.717514 331.463263 336.188727 330.325655 336.188727 329.139631 
C 336.188727 327.953606 335.717514 326.815999 334.878869 325.977353 
C 334.040223 325.138707 332.902615 324.667495 331.716591 324.667495 
C 330.530567 324.667495 329.392959 325.138707 328.554313 325.977353 
C 327.715667 326.815999 327.244455 327.953606 327.244455 329.139631 
C 327.244455 330.325655 327.715667 331.463263 328.554313 332.301908 
C 329.392959 333.140554 330.530567 333.611767 331.716591 333.611767 
z
" clip-path="url(#p1207c0bb55)" style="fill: #6495ed; fill-opacity: 0.6; stroke: #000000; stroke-opacity: 0.6"/>
    <path d="M 197.316591 114.064242 
C 202.6537 114.064242 207.772934 111.943786 211.54684 108.16988 
C 215.320747 104.395974 217.441203 99.27674 217.441203 93.939631 
C 217.441203 88.602521 215.320747 83.483287 211.54684 79.709381 
C 207.772934 75.935475 202.6537 73.815019 197.316591 73.815019 
C 191.979481 73.815019 186.860248 75.935475 183.086341 79.709381 
C 179.312435 83.483287 177.191979 88.602521 177.191979 93.939631 
C 177.191979 99.27674 179.312435 104.395974 183.086341 108.16988 
C 186.860248 111.943786 191.979481 114.064242 197.316591 114.064242 
z
" clip-path="url(#p1207c0bb55)" style="fill: #6495ed; fill-opacity: 0.6; stroke: #000000; stroke-opacity: 0.6"/>
    <path d="M 270.625682 61.206408 
C 276.526078 61.206408 282.185604 58.862156 286.357815 54.689945 
C 290.530025 50.517735 292.874277 44.858209 292.874277 38.957812 
C 292.874277 33.057416 290.530025 27.39789 286.357815 23.22568 
C 282.185604 19.053469 276.526078 16.709217 270.625682 16.709217 
C 264.725285 16.709217 259.065759 19.053469 254.893549 23.22568 
C 250.721339 27.39789 248.377086 33.057416 248.377086 38.957812 
C 248.377086 44.858209 250.721339 50.517735 254.893549 54.689945 
C 259.065759 58.862156 264.725285 61.206408 270.625682 61.206408 
z
" clip-path="url(#p1207c0bb55)" style="fill: #6495ed; fill-opacity: 0.6; stroke: #000000; stroke-opacity: 0.6"/>
    <path d="M 227.862045 239.069134 
C 231.517618 239.069134 235.02396 237.61676 237.60884 235.03188 
C 240.19372 232.446999 241.646094 228.940658 241.646094 225.285085 
C 241.646094 221.629513 240.19372 218.123171 237.60884 215.538291 
C 235.02396 212.953411 231.517618 211.501036 227.862045 211.501036 
C 224.206473 211.501036 220.700131 212.953411 218.115251 215.538291 
C 215.530371 218.123171 214.077997 221.629513 214.077997 225.285085 
C 214.077997 228.940658 215.530371 232.446999 218.115251 235.03188 
C 220.700131 237.61676 224.206473 239.069134 227.862045 239.069134 
z
" clip-path="url(#p1207c0bb55)" style="fill: #6495ed; fill-opacity: 0.6; stroke: #000000; stroke-opacity: 0.6"/>
    <path d="M 175.934773 306.960776 
C 178.153621 306.960776 180.28189 306.079219 181.850853 304.510256 
C 183.419815 302.941293 184.301373 300.813024 184.301373 298.594176 
C 184.301373 296.375328 183.419815 294.247059 181.850853 292.678096 
C 180.28189 291.109134 178.153621 290.227576 175.934773 290.227576 
C 173.715924 290.227576 171.587656 291.109134 170.018693 292.678096 
C 168.44973 294.247059 167.568172 296.375328 167.568172 298.594176 
C 167.568172 300.813024 168.44973 302.941293 170.018693 304.510256 
C 171.587656 306.079219 173.715924 306.960776 175.934773 306.960776 
z
" clip-path="url(#p1207c0bb55)" style="fill: #6495ed; fill-opacity: 0.6; stroke: #000000; stroke-opacity: 0.6"/>
    <path d="M 136.225682 146.247918 
C 141.187178 146.247918 145.946131 144.276694 149.454438 140.768387 
C 152.962746 137.26008 154.933969 132.501126 154.933969 127.539631 
C 154.933969 122.578135 152.962746 117.819181 149.454438 114.310874 
C 145.946131 110.802567 141.187178 108.831344 136.225682 108.831344 
C 131.264186 108.831344 126.505233 110.802567 122.996925 114.310874 
C 119.488618 117.819181 117.517395 122.578135 117.517395 127.539631 
C 117.517395 132.501126 119.488618 137.26008 122.996925 140.768387 
C 126.505233 144.276694 131.264186 146.247918 136.225682 146.247918 
z
" clip-path="url(#p1207c0bb55)" style="fill: #6495ed; fill-opacity: 0.6; stroke: #000000; stroke-opacity: 0.6"/>
    <path d="M 243.134773 192.844035 
C 247.492504 192.844035 251.672341 191.11269 254.753723 188.031308 
C 257.835104 184.949926 259.566449 180.77009 259.566449 176.412358 
C 259.566449 172.054626 257.835104 167.874789 254.753723 164.793408 
C 251.672341 161.712026 247.492504 159.980681 243.134773 159.980681 
C 238.777041 159.980681 234.597204 161.712026 231.515823 164.793408 
C 228.434441 167.874789 226.703096 172.054626 226.703096 176.412358 
C 226.703096 180.77009 228.434441 184.949926 231.515823 188.031308 
C 234.597204 191.11269 238.777041 192.844035 243.134773 192.844035 
z
" clip-path="url(#p1207c0bb55)" style="fill: #6495ed; fill-opacity: 0.6; stroke: #000000; stroke-opacity: 0.6"/>
    <path d="M 237.025682 279.003173 
C 239.930836 279.003173 242.717394 277.848943 244.771649 275.794688 
C 246.825903 273.740434 247.980133 270.953876 247.980133 268.048722 
C 247.980133 265.143567 246.825903 262.357009 244.771649 260.302755 
C 242.717394 258.248501 239.930836 257.09427 237.025682 257.09427 
C 234.120527 257.09427 231.33397 258.248501 229.279715 260.302755 
C 227.225461 262.357009 226.071231 265.143567 226.071231 268.048722 
C 226.071231 270.953876 227.225461 273.740434 229.279715 275.794688 
C 231.33397 277.848943 234.120527 279.003173 237.025682 279.003173 
z
" clip-path="url(#p1207c0bb55)" style="fill: #6495ed; fill-opacity: 0.6; stroke: #000000; stroke-opacity: 0.6"/>
    <path d="M 169.825682 84.724905 
C 175.482657 84.724905 180.908699 82.477365 184.908785 78.477279 
C 188.908871 74.477194 191.156411 69.051152 191.156411 63.394176 
C 191.156411 57.737201 188.908871 52.311159 184.908785 48.311073 
C 180.908699 44.310987 175.482657 42.063447 169.825682 42.063447 
C 164.168706 42.063447 158.742664 44.310987 154.742579 48.311073 
C 150.742493 52.311159 148.494953 57.737201 148.494953 63.394176 
C 148.494953 69.051152 150.742493 74.477194 154.742579 78.477279 
C 158.742664 82.477365 164.168706 84.724905 169.825682 84.724905 
z
" clip-path="url(#p1207c0bb55)" style="fill: #6495ed; fill-opacity: 0.6; stroke: #000000; stroke-opacity: 0.6"/>
    <path d="M 200.371136 338.410999 
C 201.209782 338.410999 202.014192 338.077802 202.607204 337.48479 
C 203.200217 336.891777 203.533414 336.087367 203.533414 335.248722 
C 203.533414 334.410076 203.200217 333.605666 202.607204 333.012654 
C 202.014192 332.419641 201.209782 332.086444 200.371136 332.086444 
C 199.532491 332.086444 198.728081 332.419641 198.135068 333.012654 
C 197.542056 333.605666 197.208859 334.410076 197.208859 335.248722 
C 197.208859 336.087367 197.542056 336.891777 198.135068 337.48479 
C 198.728081 338.077802 199.532491 338.410999 200.371136 338.410999 
z
" clip-path="url(#p1207c0bb55)" style="fill: #6495ed; fill-opacity: 0.6; stroke: #000000; stroke-opacity: 0.6"/>
    <path d="M 334.771136 239.069134 
C 338.426709 239.069134 341.933051 237.61676 344.517931 235.03188 
C 347.102811 232.446999 348.555185 228.940658 348.555185 225.285085 
C 348.555185 221.629513 347.102811 218.123171 344.517931 215.538291 
C 341.933051 212.953411 338.426709 211.501036 334.771136 211.501036 
C 331.115564 211.501036 327.609222 212.953411 325.024342 215.538291 
C 322.439462 218.123171 320.987088 221.629513 320.987088 225.285085 
C 320.987088 228.940658 322.439462 232.446999 325.024342 235.03188 
C 327.609222 237.61676 331.115564 239.069134 334.771136 239.069134 
z
" clip-path="url(#p1207c0bb55)" style="fill: #6495ed; fill-opacity: 0.6; stroke: #000000; stroke-opacity: 0.6"/>
    <path d="M 200.371136 241.941101 
C 203.978289 241.941101 207.438187 240.507964 209.988828 237.957323 
C 212.53947 235.406681 213.972607 231.946783 213.972607 228.339631 
C 213.972607 224.732479 212.53947 221.27258 209.988828 218.721939 
C 207.438187 216.171297 203.978289 214.73816 200.371136 214.73816 
C 196.763984 214.73816 193.304086 216.171297 190.753444 218.721939 
C 188.202803 221.27258 186.769666 224.732479 186.769666 228.339631 
C 186.769666 231.946783 188.202803 235.406681 190.753444 237.957323 
C 193.304086 240.507964 196.763984 241.941101 200.371136 241.941101 
z
" clip-path="url(#p1207c0bb55)" style="fill: #6495ed; fill-opacity: 0.6; stroke: #000000; stroke-opacity: 0.6"/>
    <path d="M 282.843864 338.410999 
C 283.682509 338.410999 284.486919 338.077802 285.079932 337.48479 
C 285.672944 336.891777 286.006141 336.087367 286.006141 335.248722 
C 286.006141 334.410076 285.672944 333.605666 285.079932 333.012654 
C 284.486919 332.419641 283.682509 332.086444 282.843864 332.086444 
C 282.005218 332.086444 281.200808 332.419641 280.607796 333.012654 
C 280.014783 333.605666 279.681586 334.410076 279.681586 335.248722 
C 279.681586 336.087367 280.014783 336.891777 280.607796 337.48479 
C 281.200808 338.077802 282.005218 338.410999 282.843864 338.410999 
z
" clip-path="url(#p1207c0bb55)" style="fill: #6495ed; fill-opacity: 0.6; stroke: #000000; stroke-opacity: 0.6"/>
    <path d="M 249.243864 178.315195 
C 253.798876 178.315195 258.167941 176.505469 261.388821 173.284588 
C 264.609702 170.063708 266.419428 165.694644 266.419428 161.139631 
C 266.419428 156.584618 264.609702 152.215553 261.388821 148.994673 
C 258.167941 145.773792 253.798876 143.964067 249.243864 143.964067 
C 244.688851 143.964067 240.319786 145.773792 237.098906 148.994673 
C 233.878025 152.215553 232.0683 156.584618 232.0683 161.139631 
C 232.0683 165.694644 233.878025 170.063708 237.098906 173.284588 
C 240.319786 176.505469 244.688851 178.315195 249.243864 178.315195 
z
" clip-path="url(#p1207c0bb55)" style="fill: #6495ed; fill-opacity: 0.6; stroke: #000000; stroke-opacity: 0.6"/>
    <path d="M 203.425682 152.087811 
C 208.315785 152.087811 213.006261 150.144952 216.464087 146.687126 
C 219.921912 143.229301 221.864771 138.538825 221.864771 133.648722 
C 221.864771 128.758618 219.921912 124.068142 216.464087 120.610317 
C 213.006261 117.152491 208.315785 115.209633 203.425682 115.209633 
C 198.535578 115.209633 193.845102 117.152491 190.387277 120.610317 
C 186.929452 124.068142 184.986593 128.758618 184.986593 133.648722 
C 184.986593 138.538825 186.929452 143.229301 190.387277 146.687126 
C 193.845102 150.144952 198.535578 152.087811 203.425682 152.087811 
z
" clip-path="url(#p1207c0bb55)" style="fill: #6495ed; fill-opacity: 0.6; stroke: #000000; stroke-opacity: 0.6"/>
    <path d="M 288.952955 325.892074 
C 290.521917 325.892074 292.026831 325.268719 293.136255 324.159294 
C 294.245679 323.04987 294.869034 321.544957 294.869034 319.975994 
C 294.869034 318.407032 294.245679 316.902118 293.136255 315.792694 
C 292.026831 314.68327 290.521917 314.059915 288.952955 314.059915 
C 287.383992 314.059915 285.879079 314.68327 284.769654 315.792694 
C 283.66023 316.902118 283.036875 318.407032 283.036875 319.975994 
C 283.036875 321.544957 283.66023 323.04987 284.769654 324.159294 
C 285.879079 325.268719 287.383992 325.892074 288.952955 325.892074 
z
" clip-path="url(#p1207c0bb55)" style="fill: #6495ed; fill-opacity: 0.6; stroke: #000000; stroke-opacity: 0.6"/>
    <path d="M 96.516591 264.817589 
C 99.710059 264.817589 102.773161 263.548811 105.031284 261.290688 
C 107.289407 259.032564 108.558185 255.969463 108.558185 252.775994 
C 108.558185 249.582526 107.289407 246.519424 105.031284 244.261301 
C 102.773161 242.003178 99.710059 240.7344 96.516591 240.7344 
C 93.323123 240.7344 90.260021 242.003178 88.001898 244.261301 
C 85.743775 246.519424 84.474996 249.582526 84.474996 252.775994 
C 84.474996 255.969463 85.743775 259.032564 88.001898 261.290688 
C 90.260021 263.548811 93.323123 264.817589 96.516591 264.817589 
z
" clip-path="url(#p1207c0bb55)" style="fill: #6495ed; fill-opacity: 0.6; stroke: #000000; stroke-opacity: 0.6"/>
    <path d="M 237.025682 279.003173 
C 239.930836 279.003173 242.717394 277.848943 244.771649 275.794688 
C 246.825903 273.740434 247.980133 270.953876 247.980133 268.048722 
C 247.980133 265.143567 246.825903 262.357009 244.771649 260.302755 
C 242.717394 258.248501 239.930836 257.09427 237.025682 257.09427 
C 234.120527 257.09427 231.33397 258.248501 229.279715 260.302755 
C 227.225461 262.357009 226.071231 265.143567 226.071231 268.048722 
C 226.071231 270.953876 227.225461 273.740434 229.279715 275.794688 
C 231.33397 277.848943 234.120527 279.003173 237.025682 279.003173 
z
" clip-path="url(#p1207c0bb55)" style="fill: #6495ed; fill-opacity: 0.6; stroke: #000000; stroke-opacity: 0.6"/>
    <path d="M 212.589318 181.223563 
C 217.105564 181.223563 221.437445 179.429239 224.630913 176.235771 
C 227.824381 173.042303 229.618705 168.710422 229.618705 164.194176 
C 229.618705 159.67793 227.824381 155.34605 224.630913 152.152582 
C 221.437445 148.959113 217.105564 147.16479 212.589318 147.16479 
C 208.073072 147.16479 203.741192 148.959113 200.547724 152.152582 
C 197.354255 155.34605 195.559932 159.67793 195.559932 164.194176 
C 195.559932 168.710422 197.354255 173.042303 200.547724 176.235771 
C 203.741192 179.429239 208.073072 181.223563 212.589318 181.223563 
z
" clip-path="url(#p1207c0bb55)" style="fill: #6495ed; fill-opacity: 0.6; stroke: #000000; stroke-opacity: 0.6"/>
    <path d="M 130.116591 276.174516 
C 133.081652 276.174516 135.92567 274.996485 138.022285 272.89987 
C 140.1189 270.803256 141.296931 267.959237 141.296931 264.994176 
C 141.296931 262.029115 140.1189 259.185097 138.022285 257.088482 
C 135.92567 254.991867 133.081652 253.813836 130.116591 253.813836 
C 127.15153 253.813836 124.307511 254.991867 122.210897 257.088482 
C 120.114282 259.185097 118.936251 262.029115 118.936251 264.994176 
C 118.936251 267.959237 120.114282 270.803256 122.210897 272.89987 
C 124.307511 274.996485 127.15153 276.174516 130.116591 276.174516 
z
" clip-path="url(#p1207c0bb55)" style="fill: #6495ed; fill-opacity: 0.6; stroke: #000000; stroke-opacity: 0.6"/>
    <path d="M 169.825682 114.064242 
C 175.162791 114.064242 180.282025 111.943786 184.055931 108.16988 
C 187.829838 104.395974 189.950294 99.27674 189.950294 93.939631 
C 189.950294 88.602521 187.829838 83.483287 184.055931 79.709381 
C 180.282025 75.935475 175.162791 73.815019 169.825682 73.815019 
C 164.488572 73.815019 159.369339 75.935475 155.595432 79.709381 
C 151.821526 83.483287 149.70107 88.602521 149.70107 93.939631 
C 149.70107 99.27674 151.821526 104.395974 155.595432 108.16988 
C 159.369339 111.943786 164.488572 114.064242 169.825682 114.064242 
z
" clip-path="url(#p1207c0bb55)" style="fill: #6495ed; fill-opacity: 0.6; stroke: #000000; stroke-opacity: 0.6"/>
    <path d="M 206.480227 270.504035 
C 209.561609 270.504035 212.5172 269.279789 214.696066 267.100924 
C 216.874931 264.922058 218.099177 261.966467 218.099177 258.885085 
C 218.099177 255.803704 216.874931 252.848113 214.696066 250.669247 
C 212.5172 248.490381 209.561609 247.266135 206.480227 247.266135 
C 203.398846 247.266135 200.443255 248.490381 198.264389 250.669247 
C 196.085523 252.848113 194.861277 255.803704 194.861277 258.885085 
C 194.861277 261.966467 196.085523 264.922058 198.264389 267.100924 
C 200.443255 269.279789 203.398846 270.504035 206.480227 270.504035 
z
" clip-path="url(#p1207c0bb55)" style="fill: #6495ed; fill-opacity: 0.6; stroke: #000000; stroke-opacity: 0.6"/>
    <path d="M 72.080227 125.779229 
C 77.283888 125.779229 82.275121 123.711793 85.954664 120.032249 
C 89.634208 116.352706 91.701644 111.361473 91.701644 106.157812 
C 91.701644 100.954152 89.634208 95.962919 85.954664 92.283376 
C 82.275121 88.603832 77.283888 86.536396 72.080227 86.536396 
C 66.876567 86.536396 61.885334 88.603832 58.20579 92.283376 
C 54.526247 95.962919 52.45881 100.954152 52.45881 106.157812 
C 52.45881 111.361473 54.526247 116.352706 58.20579 120.032249 
C 61.885334 123.711793 66.876567 125.779229 72.080227 125.779229 
z
" clip-path="url(#p1207c0bb55)" style="fill: #6495ed; fill-opacity: 0.6; stroke: #000000; stroke-opacity: 0.6"/>
    <path d="M 50.698409 224.675236 
C 54.58705 224.675236 58.316946 223.130263 61.06663 220.380579 
C 63.816314 217.630894 65.361287 213.900999 65.361287 210.012358 
C 65.361287 206.123717 63.816314 202.393822 61.06663 199.644137 
C 58.316946 196.894453 54.58705 195.34948 50.698409 195.34948 
C 46.809768 195.34948 43.079873 196.894453 40.330188 199.644137 
C 37.580504 202.393822 36.035531 206.123717 36.035531 210.012358 
C 36.035531 213.900999 37.580504 217.630894 40.330188 220.380579 
C 43.079873 223.130263 46.809768 224.675236 50.698409 224.675236 
z
" clip-path="url(#p1207c0bb55)" style="fill: #6495ed; fill-opacity: 0.6; stroke: #000000; stroke-opacity: 0.6"/>
    <path d="M 78.189318 273.341385 
C 81.213099 273.341385 84.11344 272.140024 86.251576 270.001888 
C 88.389712 267.863753 89.591072 264.963411 89.591072 261.939631 
C 89.591072 258.91585 88.389712 256.015509 86.251576 253.877373 
C 84.11344 251.739237 81.213099 250.537876 78.189318 250.537876 
C 75.165538 250.537876 72.265196 251.739237 70.12706 253.877373 
C 67.988925 256.015509 66.787564 258.91585 66.787564 261.939631 
C 66.787564 264.963411 67.988925 267.863753 70.12706 270.001888 
C 72.265196 272.140024 75.165538 273.341385 78.189318 273.341385 
z
" clip-path="url(#p1207c0bb55)" style="fill: #6495ed; fill-opacity: 0.6; stroke: #000000; stroke-opacity: 0.6"/>
    <path d="M 56.8075 331.085085 
C 58.133516 331.085085 59.405399 330.558254 60.343034 329.620619 
C 61.280668 328.682985 61.8075 327.411101 61.8075 326.085085 
C 61.8075 324.75907 61.280668 323.487186 60.343034 322.549551 
C 59.405399 321.611917 58.133516 321.085085 56.8075 321.085085 
C 55.481485 321.085085 54.209601 321.611917 53.271966 322.549551 
C 52.334332 323.487186 51.8075 324.75907 51.8075 326.085085 
C 51.8075 327.411101 52.334332 328.682985 53.271966 329.620619 
C 54.209601 330.558254 55.481485 331.085085 56.8075 331.085085 
z
" clip-path="url(#p1207c0bb55)" style="fill: #6495ed; fill-opacity: 0.6; stroke: #000000; stroke-opacity: 0.6"/>
    <path d="M 279.789318 287.459309 
C 282.506841 287.459309 285.113428 286.379625 287.035007 284.458046 
C 288.956586 282.536467 290.036269 279.929881 290.036269 277.212358 
C 290.036269 274.494835 288.956586 271.888249 287.035007 269.96667 
C 285.113428 268.045091 282.506841 266.965407 279.789318 266.965407 
C 277.071795 266.965407 274.465209 268.045091 272.54363 269.96667 
C 270.622051 271.888249 269.542367 274.494835 269.542367 277.212358 
C 269.542367 279.929881 270.622051 282.536467 272.54363 284.458046 
C 274.465209 286.379625 277.071795 287.459309 279.789318 287.459309 
z
" clip-path="url(#p1207c0bb55)" style="fill: #6495ed; fill-opacity: 0.6; stroke: #000000; stroke-opacity: 0.6"/>
    <path d="M 215.643864 210.231564 
C 219.752372 210.231564 223.69316 208.599236 226.598315 205.694082 
C 229.503469 202.788927 231.135797 198.848139 231.135797 194.739631 
C 231.135797 190.631122 229.503469 186.690334 226.598315 183.78518 
C 223.69316 180.880025 219.752372 179.247697 215.643864 179.247697 
C 211.535355 179.247697 207.594567 180.880025 204.689412 183.78518 
C 201.784258 186.690334 200.15193 190.631122 200.15193 194.739631 
C 200.15193 198.848139 201.784258 202.788927 204.689412 205.694082 
C 207.594567 208.599236 211.535355 210.231564 215.643864 210.231564 
z
" clip-path="url(#p1207c0bb55)" style="fill: #6495ed; fill-opacity: 0.6; stroke: #000000; stroke-opacity: 0.6"/>
    <path d="M 240.080227 325.892074 
C 241.64919 325.892074 243.154103 325.268719 244.263527 324.159294 
C 245.372952 323.04987 245.996307 321.544957 245.996307 319.975994 
C 245.996307 318.407032 245.372952 316.902118 244.263527 315.792694 
C 243.154103 314.68327 241.64919 314.059915 240.080227 314.059915 
C 238.511265 314.059915 237.006351 314.68327 235.896927 315.792694 
C 234.787503 316.902118 234.164147 318.407032 234.164147 319.975994 
C 234.164147 321.544957 234.787503 323.04987 235.896927 324.159294 
C 237.006351 325.268719 238.511265 325.892074 240.080227 325.892074 
z
" clip-path="url(#p1207c0bb55)" style="fill: #6495ed; fill-opacity: 0.6; stroke: #000000; stroke-opacity: 0.6"/>
    <path d="M 72.080227 325.892074 
C 73.64919 325.892074 75.154103 325.268719 76.263527 324.159294 
C 77.372952 323.04987 77.996307 321.544957 77.996307 319.975994 
C 77.996307 318.407032 77.372952 316.902118 76.263527 315.792694 
C 75.154103 314.68327 73.64919 314.059915 72.080227 314.059915 
C 70.511265 314.059915 69.006351 314.68327 67.896927 315.792694 
C 66.787503 316.902118 66.164147 318.407032 66.164147 319.975994 
C 66.164147 321.544957 66.787503 323.04987 67.896927 324.159294 
C 69.006351 325.268719 70.511265 325.892074 72.080227 325.892074 
z
" clip-path="url(#p1207c0bb55)" style="fill: #6495ed; fill-opacity: 0.6; stroke: #000000; stroke-opacity: 0.6"/>
    <path d="M 117.898409 301.429357 
C 120.270458 301.429357 122.545673 300.486932 124.222964 298.809641 
C 125.900256 297.132349 126.842681 294.857134 126.842681 292.485085 
C 126.842681 290.113037 125.900256 287.837822 124.222964 286.16053 
C 122.545673 284.483238 120.270458 283.540813 117.898409 283.540813 
C 115.52636 283.540813 113.251145 284.483238 111.573854 286.16053 
C 109.896562 287.837822 108.954137 290.113037 108.954137 292.485085 
C 108.954137 294.857134 109.896562 297.132349 111.573854 298.809641 
C 113.251145 300.486932 115.52636 301.429357 117.898409 301.429357 
z
" clip-path="url(#p1207c0bb55)" style="fill: #6495ed; fill-opacity: 0.6; stroke: #000000; stroke-opacity: 0.6"/>
    <path d="M 157.6075 204.441928 
C 161.800729 204.441928 165.822779 202.77594 168.78784 199.81088 
C 171.752901 196.845819 173.418888 192.823769 173.418888 188.63054 
C 173.418888 184.437311 171.752901 180.415261 168.78784 177.4502 
C 165.822779 174.485139 161.800729 172.819151 157.6075 172.819151 
C 153.414271 172.819151 149.392221 174.485139 146.42716 177.4502 
C 143.462099 180.415261 141.796112 184.437311 141.796112 188.63054 
C 141.796112 192.823769 143.462099 196.845819 146.42716 199.81088 
C 149.392221 202.77594 153.414271 204.441928 157.6075 204.441928 
z
" clip-path="url(#p1207c0bb55)" style="fill: #6495ed; fill-opacity: 0.6; stroke: #000000; stroke-opacity: 0.6"/>
    <path d="M 270.625682 279.003173 
C 273.530836 279.003173 276.317394 277.848943 278.371649 275.794688 
C 280.425903 273.740434 281.580133 270.953876 281.580133 268.048722 
C 281.580133 265.143567 280.425903 262.357009 278.371649 260.302755 
C 276.317394 258.248501 273.530836 257.09427 270.625682 257.09427 
C 267.720527 257.09427 264.93397 258.248501 262.879715 260.302755 
C 260.825461 262.357009 259.671231 265.143567 259.671231 268.048722 
C 259.671231 270.953876 260.825461 273.740434 262.879715 275.794688 
C 264.93397 277.848943 267.720527 279.003173 270.625682 279.003173 
z
" clip-path="url(#p1207c0bb55)" style="fill: #6495ed; fill-opacity: 0.6; stroke: #000000; stroke-opacity: 0.6"/>
    <path d="M 295.062045 178.315195 
C 299.617058 178.315195 303.986123 176.505469 307.207003 173.284588 
C 310.427884 170.063708 312.237609 165.694644 312.237609 161.139631 
C 312.237609 156.584618 310.427884 152.215553 307.207003 148.994673 
C 303.986123 145.773792 299.617058 143.964067 295.062045 143.964067 
C 290.507033 143.964067 286.137968 145.773792 282.917088 148.994673 
C 279.696207 152.215553 277.886481 156.584618 277.886481 161.139631 
C 277.886481 165.694644 279.696207 170.063708 282.917088 173.284588 
C 286.137968 176.505469 290.507033 178.315195 295.062045 178.315195 
z
" clip-path="url(#p1207c0bb55)" style="fill: #6495ed; fill-opacity: 0.6; stroke: #000000; stroke-opacity: 0.6"/>
    <path d="M 142.334773 152.087811 
C 147.224876 152.087811 151.915352 150.144952 155.373178 146.687126 
C 158.831003 143.229301 160.773862 138.538825 160.773862 133.648722 
C 160.773862 128.758618 158.831003 124.068142 155.373178 120.610317 
C 151.915352 117.152491 147.224876 115.209633 142.334773 115.209633 
C 137.444669 115.209633 132.754193 117.152491 129.296368 120.610317 
C 125.838543 124.068142 123.895684 128.758618 123.895684 133.648722 
C 123.895684 138.538825 125.838543 143.229301 129.296368 146.687126 
C 132.754193 150.144952 137.444669 152.087811 142.334773 152.087811 
z
" clip-path="url(#p1207c0bb55)" style="fill: #6495ed; fill-opacity: 0.6; stroke: #000000; stroke-opacity: 0.6"/>
    <path d="M 279.789318 341.357812 
C 279.789318 341.357812 279.789318 341.357812 279.789318 341.357812 
C 279.789318 341.357812 279.789318 341.357812 279.789318 341.357812 
C 279.789318 341.357812 279.789318 341.357812 279.789318 341.357812 
C 279.789318 341.357812 279.789318 341.357812 279.789318 341.357812 
C 279.789318 341.357812 279.789318 341.357812 279.789318 341.357812 
C 279.789318 341.357812 279.789318 341.357812 279.789318 341.357812 
C 279.789318 341.357812 279.789318 341.357812 279.789318 341.357812 
C 279.789318 341.357812 279.789318 341.357812 279.789318 341.357812 
z
" clip-path="url(#p1207c0bb55)" style="fill: #6495ed; fill-opacity: 0.6; stroke: #000000; stroke-opacity: 0.6"/>
    <path d="M 120.952955 301.429357 
C 123.325003 301.429357 125.600218 300.486932 127.27751 298.809641 
C 128.954802 297.132349 129.897226 294.857134 129.897226 292.485085 
C 129.897226 290.113037 128.954802 287.837822 127.27751 286.16053 
C 125.600218 284.483238 123.325003 283.540813 120.952955 283.540813 
C 118.580906 283.540813 116.305691 284.483238 114.628399 286.16053 
C 112.951108 287.837822 112.008683 290.113037 112.008683 292.485085 
C 112.008683 294.857134 112.951108 297.132349 114.628399 298.809641 
C 116.305691 300.486932 118.580906 301.429357 120.952955 301.429357 
z
" clip-path="url(#p1207c0bb55)" style="fill: #6495ed; fill-opacity: 0.6; stroke: #000000; stroke-opacity: 0.6"/>
    <path d="M 295.062045 331.085085 
C 296.388061 331.085085 297.659945 330.558254 298.597579 329.620619 
C 299.535214 328.682985 300.062045 327.411101 300.062045 326.085085 
C 300.062045 324.75907 299.535214 323.487186 298.597579 322.549551 
C 297.659945 321.611917 296.388061 321.085085 295.062045 321.085085 
C 293.73603 321.085085 292.464146 321.611917 291.526512 322.549551 
C 290.588877 323.487186 290.062045 324.75907 290.062045 326.085085 
C 290.062045 327.411101 290.588877 328.682985 291.526512 329.620619 
C 292.464146 330.558254 293.73603 331.085085 295.062045 331.085085 
z
" clip-path="url(#p1207c0bb55)" style="fill: #6495ed; fill-opacity: 0.6; stroke: #000000; stroke-opacity: 0.6"/>
    <path d="M 325.6075 284.645901 
C 328.388974 284.645901 331.0569 283.54081 333.023698 281.574011 
C 334.990497 279.607212 336.095588 276.939286 336.095588 274.157812 
C 336.095588 271.376339 334.990497 268.708413 333.023698 266.741614 
C 331.0569 264.774815 328.388974 263.669724 325.6075 263.669724 
C 322.826026 263.669724 320.1581 264.774815 318.191302 266.741614 
C 316.224503 268.708413 315.119412 271.376339 315.119412 274.157812 
C 315.119412 276.939286 316.224503 279.607212 318.191302 281.574011 
C 320.1581 283.54081 322.826026 284.645901 325.6075 284.645901 
z
" clip-path="url(#p1207c0bb55)" style="fill: #6495ed; fill-opacity: 0.6; stroke: #000000; stroke-opacity: 0.6"/>
    <path d="M 310.334773 333.611767 
C 311.520797 333.611767 312.658405 333.140554 313.49705 332.301908 
C 314.335696 331.463263 314.806909 330.325655 314.806909 329.139631 
C 314.806909 327.953606 314.335696 326.815999 313.49705 325.977353 
C 312.658405 325.138707 311.520797 324.667495 310.334773 324.667495 
C 309.148748 324.667495 308.011141 325.138707 307.172495 325.977353 
C 306.333849 326.815999 305.862637 327.953606 305.862637 329.139631 
C 305.862637 330.325655 306.333849 331.463263 307.172495 332.301908 
C 308.011141 333.140554 309.148748 333.611767 310.334773 333.611767 
z
" clip-path="url(#p1207c0bb55)" style="fill: #6495ed; fill-opacity: 0.6; stroke: #000000; stroke-opacity: 0.6"/>
   </g>
   <g id="PathCollection_2">
    <defs>
     <path id="m460e170918" d="M 0 3 
C 0.795609 3 1.55874 2.683901 2.12132 2.12132 
C 2.683901 1.55874 3 0.795609 3 0 
C 3 -0.795609 2.683901 -1.55874 2.12132 -2.12132 
C 1.55874 -2.683901 0.795609 -3 0 -3 
C -0.795609 -3 -1.55874 -2.683901 -2.12132 -2.12132 
C -2.683901 -1.55874 -3 -0.795609 -3 0 
C -3 0.795609 -2.683901 1.55874 -2.12132 2.12132 
C -1.55874 2.683901 -0.795609 3 0 3 
z
" style="stroke: #000000"/>
    </defs>
    <g clip-path="url(#p1207c0bb55)">
     <use xlink:href="#m460e170918" x="124.0075" y="261.939631" style="stroke: #000000"/>
     <use xlink:href="#m460e170918" x="270.625682" y="72.557812" style="stroke: #000000"/>
     <use xlink:href="#m460e170918" x="224.8075" y="335.248722" style="stroke: #000000"/>
     <use xlink:href="#m460e170918" x="47.643864" y="240.557812" style="stroke: #000000"/>
     <use xlink:href="#m460e170918" x="90.4075" y="60.339631" style="stroke: #000000"/>
     <use xlink:href="#m460e170918" x="325.6075" y="188.63054" style="stroke: #000000"/>
     <use xlink:href="#m460e170918" x="212.589318" y="155.03054" style="stroke: #000000"/>
     <use xlink:href="#m460e170918" x="331.716591" y="329.139631" style="stroke: #000000"/>
     <use xlink:href="#m460e170918" x="145.389318" y="176.412358" style="stroke: #000000"/>
     <use xlink:href="#m460e170918" x="230.916591" y="329.139631" style="stroke: #000000"/>
     <use xlink:href="#m460e170918" x="331.716591" y="329.139631" style="stroke: #000000"/>
     <use xlink:href="#m460e170918" x="197.316591" y="93.939631" style="stroke: #000000"/>
     <use xlink:href="#m460e170918" x="270.625682" y="38.957812" style="stroke: #000000"/>
     <use xlink:href="#m460e170918" x="227.862045" y="225.285085" style="stroke: #000000"/>
     <use xlink:href="#m460e170918" x="175.934773" y="298.594176" style="stroke: #000000"/>
     <use xlink:href="#m460e170918" x="136.225682" y="127.539631" style="stroke: #000000"/>
     <use xlink:href="#m460e170918" x="243.134773" y="176.412358" style="stroke: #000000"/>
     <use xlink:href="#m460e170918" x="237.025682" y="268.048722" style="stroke: #000000"/>
     <use xlink:href="#m460e170918" x="169.825682" y="63.394176" style="stroke: #000000"/>
     <use xlink:href="#m460e170918" x="200.371136" y="335.248722" style="stroke: #000000"/>
     <use xlink:href="#m460e170918" x="334.771136" y="225.285085" style="stroke: #000000"/>
     <use xlink:href="#m460e170918" x="200.371136" y="228.339631" style="stroke: #000000"/>
     <use xlink:href="#m460e170918" x="282.843864" y="335.248722" style="stroke: #000000"/>
     <use xlink:href="#m460e170918" x="249.243864" y="161.139631" style="stroke: #000000"/>
     <use xlink:href="#m460e170918" x="203.425682" y="133.648722" style="stroke: #000000"/>
     <use xlink:href="#m460e170918" x="288.952955" y="319.975994" style="stroke: #000000"/>
     <use xlink:href="#m460e170918" x="96.516591" y="252.775994" style="stroke: #000000"/>
     <use xlink:href="#m460e170918" x="237.025682" y="268.048722" style="stroke: #000000"/>
     <use xlink:href="#m460e170918" x="212.589318" y="164.194176" style="stroke: #000000"/>
     <use xlink:href="#m460e170918" x="130.116591" y="264.994176" style="stroke: #000000"/>
     <use xlink:href="#m460e170918" x="169.825682" y="93.939631" style="stroke: #000000"/>
     <use xlink:href="#m460e170918" x="206.480227" y="258.885085" style="stroke: #000000"/>
     <use xlink:href="#m460e170918" x="72.080227" y="106.157812" style="stroke: #000000"/>
     <use xlink:href="#m460e170918" x="50.698409" y="210.012358" style="stroke: #000000"/>
     <use xlink:href="#m460e170918" x="78.189318" y="261.939631" style="stroke: #000000"/>
     <use xlink:href="#m460e170918" x="56.8075" y="326.085085" style="stroke: #000000"/>
     <use xlink:href="#m460e170918" x="279.789318" y="277.212358" style="stroke: #000000"/>
     <use xlink:href="#m460e170918" x="215.643864" y="194.739631" style="stroke: #000000"/>
     <use xlink:href="#m460e170918" x="240.080227" y="319.975994" style="stroke: #000000"/>
     <use xlink:href="#m460e170918" x="72.080227" y="319.975994" style="stroke: #000000"/>
     <use xlink:href="#m460e170918" x="117.898409" y="292.485085" style="stroke: #000000"/>
     <use xlink:href="#m460e170918" x="157.6075" y="188.63054" style="stroke: #000000"/>
     <use xlink:href="#m460e170918" x="270.625682" y="268.048722" style="stroke: #000000"/>
     <use xlink:href="#m460e170918" x="295.062045" y="161.139631" style="stroke: #000000"/>
     <use xlink:href="#m460e170918" x="142.334773" y="133.648722" style="stroke: #000000"/>
     <use xlink:href="#m460e170918" x="279.789318" y="341.357812" style="stroke: #000000"/>
     <use xlink:href="#m460e170918" x="120.952955" y="292.485085" style="stroke: #000000"/>
     <use xlink:href="#m460e170918" x="295.062045" y="326.085085" style="stroke: #000000"/>
     <use xlink:href="#m460e170918" x="325.6075" y="274.157812" style="stroke: #000000"/>
     <use xlink:href="#m460e170918" x="310.334773" y="329.139631" style="stroke: #000000"/>
    </g>
   </g>
   <g id="matplotlib.axis_1">
    <g id="xtick_1">
     <g id="line2d_1">
      <defs>
       <path id="m44b9f0328f" d="M 0 0 
L 0 3.5 
" style="stroke: #000000; stroke-width: 0.8"/>
      </defs>
      <g>
       <use xlink:href="#m44b9f0328f" x="47.643864" y="356.477812" style="stroke: #000000; stroke-width: 0.8"/>
      </g>
     </g>
     <g id="text_1">
      <!-- 0 -->
      <g transform="translate(44.462614 371.07625) scale(0.1 -0.1)">
       <defs>
        <path id="DejaVuSans-30" d="M 2034 4250 
Q 1547 4250 1301 3770 
Q 1056 3291 1056 2328 
Q 1056 1369 1301 889 
Q 1547 409 2034 409 
Q 2525 409 2770 889 
Q 3016 1369 3016 2328 
Q 3016 3291 2770 3770 
Q 2525 4250 2034 4250 
z
M 2034 4750 
Q 2819 4750 3233 4129 
Q 3647 3509 3647 2328 
Q 3647 1150 3233 529 
Q 2819 -91 2034 -91 
Q 1250 -91 836 529 
Q 422 1150 422 2328 
Q 422 3509 836 4129 
Q 1250 4750 2034 4750 
z
" transform="scale(0.015625)"/>
       </defs>
       <use xlink:href="#DejaVuSans-30"/>
      </g>
     </g>
    </g>
    <g id="xtick_2">
     <g id="line2d_2">
      <g>
       <use xlink:href="#m44b9f0328f" x="108.734773" y="356.477812" style="stroke: #000000; stroke-width: 0.8"/>
      </g>
     </g>
     <g id="text_2">
      <!-- 20 -->
      <g transform="translate(102.372273 371.07625) scale(0.1 -0.1)">
       <defs>
        <path id="DejaVuSans-32" d="M 1228 531 
L 3431 531 
L 3431 0 
L 469 0 
L 469 531 
Q 828 903 1448 1529 
Q 2069 2156 2228 2338 
Q 2531 2678 2651 2914 
Q 2772 3150 2772 3378 
Q 2772 3750 2511 3984 
Q 2250 4219 1831 4219 
Q 1534 4219 1204 4116 
Q 875 4013 500 3803 
L 500 4441 
Q 881 4594 1212 4672 
Q 1544 4750 1819 4750 
Q 2544 4750 2975 4387 
Q 3406 4025 3406 3419 
Q 3406 3131 3298 2873 
Q 3191 2616 2906 2266 
Q 2828 2175 2409 1742 
Q 1991 1309 1228 531 
z
" transform="scale(0.015625)"/>
       </defs>
       <use xlink:href="#DejaVuSans-32"/>
       <use xlink:href="#DejaVuSans-30" transform="translate(63.623047 0)"/>
      </g>
     </g>
    </g>
    <g id="xtick_3">
     <g id="line2d_3">
      <g>
       <use xlink:href="#m44b9f0328f" x="169.825682" y="356.477812" style="stroke: #000000; stroke-width: 0.8"/>
      </g>
     </g>
     <g id="text_3">
      <!-- 40 -->
      <g transform="translate(163.463182 371.07625) scale(0.1 -0.1)">
       <defs>
        <path id="DejaVuSans-34" d="M 2419 4116 
L 825 1625 
L 2419 1625 
L 2419 4116 
z
M 2253 4666 
L 3047 4666 
L 3047 1625 
L 3713 1625 
L 3713 1100 
L 3047 1100 
L 3047 0 
L 2419 0 
L 2419 1100 
L 313 1100 
L 313 1709 
L 2253 4666 
z
" transform="scale(0.015625)"/>
       </defs>
       <use xlink:href="#DejaVuSans-34"/>
       <use xlink:href="#DejaVuSans-30" transform="translate(63.623047 0)"/>
      </g>
     </g>
    </g>
    <g id="xtick_4">
     <g id="line2d_4">
      <g>
       <use xlink:href="#m44b9f0328f" x="230.916591" y="356.477812" style="stroke: #000000; stroke-width: 0.8"/>
      </g>
     </g>
     <g id="text_4">
      <!-- 60 -->
      <g transform="translate(224.554091 371.07625) scale(0.1 -0.1)">
       <defs>
        <path id="DejaVuSans-36" d="M 2113 2584 
Q 1688 2584 1439 2293 
Q 1191 2003 1191 1497 
Q 1191 994 1439 701 
Q 1688 409 2113 409 
Q 2538 409 2786 701 
Q 3034 994 3034 1497 
Q 3034 2003 2786 2293 
Q 2538 2584 2113 2584 
z
M 3366 4563 
L 3366 3988 
Q 3128 4100 2886 4159 
Q 2644 4219 2406 4219 
Q 1781 4219 1451 3797 
Q 1122 3375 1075 2522 
Q 1259 2794 1537 2939 
Q 1816 3084 2150 3084 
Q 2853 3084 3261 2657 
Q 3669 2231 3669 1497 
Q 3669 778 3244 343 
Q 2819 -91 2113 -91 
Q 1303 -91 875 529 
Q 447 1150 447 2328 
Q 447 3434 972 4092 
Q 1497 4750 2381 4750 
Q 2619 4750 2861 4703 
Q 3103 4656 3366 4563 
z
" transform="scale(0.015625)"/>
       </defs>
       <use xlink:href="#DejaVuSans-36"/>
       <use xlink:href="#DejaVuSans-30" transform="translate(63.623047 0)"/>
      </g>
     </g>
    </g>
    <g id="xtick_5">
     <g id="line2d_5">
      <g>
       <use xlink:href="#m44b9f0328f" x="292.0075" y="356.477812" style="stroke: #000000; stroke-width: 0.8"/>
      </g>
     </g>
     <g id="text_5">
      <!-- 80 -->
      <g transform="translate(285.645 371.07625) scale(0.1 -0.1)">
       <defs>
        <path id="DejaVuSans-38" d="M 2034 2216 
Q 1584 2216 1326 1975 
Q 1069 1734 1069 1313 
Q 1069 891 1326 650 
Q 1584 409 2034 409 
Q 2484 409 2743 651 
Q 3003 894 3003 1313 
Q 3003 1734 2745 1975 
Q 2488 2216 2034 2216 
z
M 1403 2484 
Q 997 2584 770 2862 
Q 544 3141 544 3541 
Q 544 4100 942 4425 
Q 1341 4750 2034 4750 
Q 2731 4750 3128 4425 
Q 3525 4100 3525 3541 
Q 3525 3141 3298 2862 
Q 3072 2584 2669 2484 
Q 3125 2378 3379 2068 
Q 3634 1759 3634 1313 
Q 3634 634 3220 271 
Q 2806 -91 2034 -91 
Q 1263 -91 848 271 
Q 434 634 434 1313 
Q 434 1759 690 2068 
Q 947 2378 1403 2484 
z
M 1172 3481 
Q 1172 3119 1398 2916 
Q 1625 2713 2034 2713 
Q 2441 2713 2670 2916 
Q 2900 3119 2900 3481 
Q 2900 3844 2670 4047 
Q 2441 4250 2034 4250 
Q 1625 4250 1398 4047 
Q 1172 3844 1172 3481 
z
" transform="scale(0.015625)"/>
       </defs>
       <use xlink:href="#DejaVuSans-38"/>
       <use xlink:href="#DejaVuSans-30" transform="translate(63.623047 0)"/>
      </g>
     </g>
    </g>
   </g>
   <g id="matplotlib.axis_2">
    <g id="ytick_1">
     <g id="line2d_6">
      <defs>
       <path id="m0a043dd122" d="M 0 0 
L -3.5 0 
" style="stroke: #000000; stroke-width: 0.8"/>
      </defs>
      <g>
       <use xlink:href="#m0a043dd122" x="33.2875" y="341.357812" style="stroke: #000000; stroke-width: 0.8"/>
      </g>
     </g>
     <g id="text_6">
      <!-- 0 -->
      <g transform="translate(19.925 345.157031) scale(0.1 -0.1)">
       <use xlink:href="#DejaVuSans-30"/>
      </g>
     </g>
    </g>
    <g id="ytick_2">
     <g id="line2d_7">
      <g>
       <use xlink:href="#m0a043dd122" x="33.2875" y="280.266903" style="stroke: #000000; stroke-width: 0.8"/>
      </g>
     </g>
     <g id="text_7">
      <!-- 20 -->
      <g transform="translate(13.5625 284.066122) scale(0.1 -0.1)">
       <use xlink:href="#DejaVuSans-32"/>
       <use xlink:href="#DejaVuSans-30" transform="translate(63.623047 0)"/>
      </g>
     </g>
    </g>
    <g id="ytick_3">
     <g id="line2d_8">
      <g>
       <use xlink:href="#m0a043dd122" x="33.2875" y="219.175994" style="stroke: #000000; stroke-width: 0.8"/>
      </g>
     </g>
     <g id="text_8">
      <!-- 40 -->
      <g transform="translate(13.5625 222.975213) scale(0.1 -0.1)">
       <use xlink:href="#DejaVuSans-34"/>
       <use xlink:href="#DejaVuSans-30" transform="translate(63.623047 0)"/>
      </g>
     </g>
    </g>
    <g id="ytick_4">
     <g id="line2d_9">
      <g>
       <use xlink:href="#m0a043dd122" x="33.2875" y="158.085085" style="stroke: #000000; stroke-width: 0.8"/>
      </g>
     </g>
     <g id="text_9">
      <!-- 60 -->
      <g transform="translate(13.5625 161.884304) scale(0.1 -0.1)">
       <use xlink:href="#DejaVuSans-36"/>
       <use xlink:href="#DejaVuSans-30" transform="translate(63.623047 0)"/>
      </g>
     </g>
    </g>
    <g id="ytick_5">
     <g id="line2d_10">
      <g>
       <use xlink:href="#m0a043dd122" x="33.2875" y="96.994176" style="stroke: #000000; stroke-width: 0.8"/>
      </g>
     </g>
     <g id="text_10">
      <!-- 80 -->
      <g transform="translate(13.5625 100.793395) scale(0.1 -0.1)">
       <use xlink:href="#DejaVuSans-38"/>
       <use xlink:href="#DejaVuSans-30" transform="translate(63.623047 0)"/>
      </g>
     </g>
    </g>
    <g id="ytick_6">
     <g id="line2d_11">
      <g>
       <use xlink:href="#m0a043dd122" x="33.2875" y="35.903267" style="stroke: #000000; stroke-width: 0.8"/>
      </g>
     </g>
     <g id="text_11">
      <!-- 100 -->
      <g transform="translate(7.2 39.702486) scale(0.1 -0.1)">
       <defs>
        <path id="DejaVuSans-31" d="M 794 531 
L 1825 531 
L 1825 4091 
L 703 3866 
L 703 4441 
L 1819 4666 
L 2450 4666 
L 2450 531 
L 3481 531 
L 3481 0 
L 794 0 
L 794 531 
z
" transform="scale(0.015625)"/>
       </defs>
       <use xlink:href="#DejaVuSans-31"/>
       <use xlink:href="#DejaVuSans-30" transform="translate(63.623047 0)"/>
       <use xlink:href="#DejaVuSans-30" transform="translate(127.246094 0)"/>
      </g>
     </g>
    </g>
   </g>
   <g id="patch_3">
    <path d="M 33.2875 356.477812 
L 33.2875 23.837812 
" style="fill: none; stroke: #000000; stroke-width: 0.8; stroke-linejoin: miter; stroke-linecap: square"/>
   </g>
   <g id="patch_4">
    <path d="M 349.1275 356.477812 
L 349.1275 23.837812 
" style="fill: none; stroke: #000000; stroke-width: 0.8; stroke-linejoin: miter; stroke-linecap: square"/>
   </g>
   <g id="patch_5">
    <path d="M 33.2875 356.477812 
L 349.1275 356.477812 
" style="fill: none; stroke: #000000; stroke-width: 0.8; stroke-linejoin: miter; stroke-linecap: square"/>
   </g>
   <g id="patch_6">
    <path d="M 33.2875 23.837812 
L 349.1275 23.837812 
" style="fill: none; stroke: #000000; stroke-width: 0.8; stroke-linejoin: miter; stroke-linecap: square"/>
   </g>
   <g id="text_12">
    <!-- Marked Point Pattern -->
    <g transform="translate(118.4425 17.837812) scale(0.14 -0.14)">
     <defs>
      <path id="DejaVuSans-4d" d="M 628 4666 
L 1569 4666 
L 2759 1491 
L 3956 4666 
L 4897 4666 
L 4897 0 
L 4281 0 
L 4281 4097 
L 3078 897 
L 2444 897 
L 1241 4097 
L 1241 0 
L 628 0 
L 628 4666 
z
" transform="scale(0.015625)"/>
      <path id="DejaVuSans-61" d="M 2194 1759 
Q 1497 1759 1228 1600 
Q 959 1441 959 1056 
Q 959 750 1161 570 
Q 1363 391 1709 391 
Q 2188 391 2477 730 
Q 2766 1069 2766 1631 
L 2766 1759 
L 2194 1759 
z
M 3341 1997 
L 3341 0 
L 2766 0 
L 2766 531 
Q 2569 213 2275 61 
Q 1981 -91 1556 -91 
Q 1019 -91 701 211 
Q 384 513 384 1019 
Q 384 1609 779 1909 
Q 1175 2209 1959 2209 
L 2766 2209 
L 2766 2266 
Q 2766 2663 2505 2880 
Q 2244 3097 1772 3097 
Q 1472 3097 1187 3025 
Q 903 2953 641 2809 
L 641 3341 
Q 956 3463 1253 3523 
Q 1550 3584 1831 3584 
Q 2591 3584 2966 3190 
Q 3341 2797 3341 1997 
z
" transform="scale(0.015625)"/>
      <path id="DejaVuSans-72" d="M 2631 2963 
Q 2534 3019 2420 3045 
Q 2306 3072 2169 3072 
Q 1681 3072 1420 2755 
Q 1159 2438 1159 1844 
L 1159 0 
L 581 0 
L 581 3500 
L 1159 3500 
L 1159 2956 
Q 1341 3275 1631 3429 
Q 1922 3584 2338 3584 
Q 2397 3584 2469 3576 
Q 2541 3569 2628 3553 
L 2631 2963 
z
" transform="scale(0.015625)"/>
      <path id="DejaVuSans-6b" d="M 581 4863 
L 1159 4863 
L 1159 1991 
L 2875 3500 
L 3609 3500 
L 1753 1863 
L 3688 0 
L 2938 0 
L 1159 1709 
L 1159 0 
L 581 0 
L 581 4863 
z
" transform="scale(0.015625)"/>
      <path id="DejaVuSans-65" d="M 3597 1894 
L 3597 1613 
L 953 1613 
Q 991 1019 1311 708 
Q 1631 397 2203 397 
Q 2534 397 2845 478 
Q 3156 559 3463 722 
L 3463 178 
Q 3153 47 2828 -22 
Q 2503 -91 2169 -91 
Q 1331 -91 842 396 
Q 353 884 353 1716 
Q 353 2575 817 3079 
Q 1281 3584 2069 3584 
Q 2775 3584 3186 3129 
Q 3597 2675 3597 1894 
z
M 3022 2063 
Q 3016 2534 2758 2815 
Q 2500 3097 2075 3097 
Q 1594 3097 1305 2825 
Q 1016 2553 972 2059 
L 3022 2063 
z
" transform="scale(0.015625)"/>
      <path id="DejaVuSans-64" d="M 2906 2969 
L 2906 4863 
L 3481 4863 
L 3481 0 
L 2906 0 
L 2906 525 
Q 2725 213 2448 61 
Q 2172 -91 1784 -91 
Q 1150 -91 751 415 
Q 353 922 353 1747 
Q 353 2572 751 3078 
Q 1150 3584 1784 3584 
Q 2172 3584 2448 3432 
Q 2725 3281 2906 2969 
z
M 947 1747 
Q 947 1113 1208 752 
Q 1469 391 1925 391 
Q 2381 391 2643 752 
Q 2906 1113 2906 1747 
Q 2906 2381 2643 2742 
Q 2381 3103 1925 3103 
Q 1469 3103 1208 2742 
Q 947 2381 947 1747 
z
" transform="scale(0.015625)"/>
      <path id="DejaVuSans-20" transform="scale(0.015625)"/>
      <path id="DejaVuSans-50" d="M 1259 4147 
L 1259 2394 
L 2053 2394 
Q 2494 2394 2734 2622 
Q 2975 2850 2975 3272 
Q 2975 3691 2734 3919 
Q 2494 4147 2053 4147 
L 1259 4147 
z
M 628 4666 
L 2053 4666 
Q 2838 4666 3239 4311 
Q 3641 3956 3641 3272 
Q 3641 2581 3239 2228 
Q 2838 1875 2053 1875 
L 1259 1875 
L 1259 0 
L 628 0 
L 628 4666 
z
" transform="scale(0.015625)"/>
      <path id="DejaVuSans-6f" d="M 1959 3097 
Q 1497 3097 1228 2736 
Q 959 2375 959 1747 
Q 959 1119 1226 758 
Q 1494 397 1959 397 
Q 2419 397 2687 759 
Q 2956 1122 2956 1747 
Q 2956 2369 2687 2733 
Q 2419 3097 1959 3097 
z
M 1959 3584 
Q 2709 3584 3137 3096 
Q 3566 2609 3566 1747 
Q 3566 888 3137 398 
Q 2709 -91 1959 -91 
Q 1206 -91 779 398 
Q 353 888 353 1747 
Q 353 2609 779 3096 
Q 1206 3584 1959 3584 
z
" transform="scale(0.015625)"/>
      <path id="DejaVuSans-69" d="M 603 3500 
L 1178 3500 
L 1178 0 
L 603 0 
L 603 3500 
z
M 603 4863 
L 1178 4863 
L 1178 4134 
L 603 4134 
L 603 4863 
z
" transform="scale(0.015625)"/>
      <path id="DejaVuSans-6e" d="M 3513 2113 
L 3513 0 
L 2938 0 
L 2938 2094 
Q 2938 2591 2744 2837 
Q 2550 3084 2163 3084 
Q 1697 3084 1428 2787 
Q 1159 2491 1159 1978 
L 1159 0 
L 581 0 
L 581 3500 
L 1159 3500 
L 1159 2956 
Q 1366 3272 1645 3428 
Q 1925 3584 2291 3584 
Q 2894 3584 3203 3211 
Q 3513 2838 3513 2113 
z
" transform="scale(0.015625)"/>
      <path id="DejaVuSans-74" d="M 1172 4494 
L 1172 3500 
L 2356 3500 
L 2356 3053 
L 1172 3053 
L 1172 1153 
Q 1172 725 1289 603 
Q 1406 481 1766 481 
L 2356 481 
L 2356 0 
L 1766 0 
Q 1100 0 847 248 
Q 594 497 594 1153 
L 594 3053 
L 172 3053 
L 172 3500 
L 594 3500 
L 594 4494 
L 1172 4494 
z
" transform="scale(0.015625)"/>
     </defs>
     <use xlink:href="#DejaVuSans-4d"/>
     <use xlink:href="#DejaVuSans-61" transform="translate(86.279297 0)"/>
     <use xlink:href="#DejaVuSans-72" transform="translate(147.558594 0)"/>
     <use xlink:href="#DejaVuSans-6b" transform="translate(188.671875 0)"/>
     <use xlink:href="#DejaVuSans-65" transform="translate(242.957031 0)"/>
     <use xlink:href="#DejaVuSans-64" transform="translate(304.480469 0)"/>
     <use xlink:href="#DejaVuSans-20" transform="translate(367.957031 0)"/>
     <use xlink:href="#DejaVuSans-50" transform="translate(399.744141 0)"/>
     <use xlink:href="#DejaVuSans-6f" transform="translate(456.421875 0)"/>
     <use xlink:href="#DejaVuSans-69" transform="translate(517.603516 0)"/>
     <use xlink:href="#DejaVuSans-6e" transform="translate(545.386719 0)"/>
     <use xlink:href="#DejaVuSans-74" transform="translate(608.765625 0)"/>
     <use xlink:href="#DejaVuSans-20" transform="translate(647.974609 0)"/>
     <use xlink:href="#DejaVuSans-50" transform="translate(679.761719 0)"/>
     <use xlink:href="#DejaVuSans-61" transform="translate(735.564453 0)"/>
     <use xlink:href="#DejaVuSans-74" transform="translate(796.84375 0)"/>
     <use xlink:href="#DejaVuSans-74" transform="translate(836.052734 0)"/>
     <use xlink:href="#DejaVuSans-65" transform="translate(875.261719 0)"/>
     <use xlink:href="#DejaVuSans-72" transform="translate(936.785156 0)"/>
     <use xlink:href="#DejaVuSans-6e" transform="translate(976.148438 0)"/>
    </g>
   </g>
  </g>
 </g>
 <defs>
  <clipPath id="p1207c0bb55">
   <rect x="33.2875" y="23.837812" width="315.84" height="332.64"/>
  </clipPath>
 </defs>
</svg>
